<?xml version="1.0" encoding="utf-8"?>
<!-- Generator: Adobe Illustrator 27.3.1, SVG Export Plug-In . SVG Version: 6.00 Build 0)  -->
<svg version="1.1" id="Слой_1" xmlns="http://www.w3.org/2000/svg" xmlns:xlink="http://www.w3.org/1999/xlink" x="0px" y="0px"
	 viewBox="0 0 1920 1080" style="enable-background:new 0 0 1920 1080;" xml:space="preserve">
<style type="text/css">
	.st0{fill:#94C4FF;stroke:#FFFFFF;stroke-width:4;stroke-linecap:round;stroke-miterlimit:10;}
	.st1{stroke:#000000;stroke-linecap:round;stroke-miterlimit:10;}
	.st2{fill:none;stroke:#FFFFFF;stroke-width:2;stroke-linecap:round;stroke-miterlimit:10;}
	.st3{fill:#FFFFFF;stroke:#FFFFFF;stroke-linecap:round;stroke-miterlimit:10;}
	.st4{fill:none;stroke:#FFFFFF;stroke-width:0.75;stroke-linecap:round;stroke-miterlimit:10;}
	.st5{fill:none;stroke:#FFFFFF;stroke-linecap:round;stroke-miterlimit:10;}
	.st6{fill:none;stroke:#FFFFFF;stroke-width:0;stroke-miterlimit:10;}
	.st7{fill:none;stroke:#FFFFFF;stroke-width:2;stroke-miterlimit:10;}
	.st8{fill:none;stroke:#FFFFFF;stroke-width:2;stroke-linecap:square;stroke-miterlimit:10;}
	.st9{fill:none;stroke:#000000;stroke-width:4;stroke-linecap:round;stroke-miterlimit:10;}
	.st10{fill:none;stroke:#000000;stroke-width:5;stroke-linecap:round;stroke-miterlimit:10;}
	.st11{fill:none;stroke:#000000;stroke-width:3;stroke-linecap:round;stroke-miterlimit:10;}
	.st12{fill:none;stroke:#000000;stroke-width:6;stroke-miterlimit:10;}
	.st13{stroke:#000000;stroke-miterlimit:10;}
	.st14{font-family:'MyriadPro-Regular';}
	.st15{font-size:10.4052px;}
	.st16{stroke:#000000;stroke-width:0.75;stroke-miterlimit:10;}
	.st17{font-size:8.3365px;}
	.st18{fill:#FFFFFF;stroke:#FFFFFF;stroke-miterlimit:10;}
	.st19{font-size:11.9656px;}
	.st20{font-size:9.373px;}
	.st21{font-size:9.5866px;}
</style>
<g>
	
		<image style="overflow:visible;opacity:0.75;" width="1830" height="877" xlink:href="80AC2D0A.png"  transform="matrix(1 0 0 1 17 97)">
	</image>
	<g>
		<g>
			<polygon class="st0" points="1822.5,831.1 1816.7,900.6 1776.9,900.6 1772.9,948.6 960.1,949.1 47.1,244.3 75.7,224.7 
				28.8,188.5 89.6,146.9 99.7,154.7 168.4,107.7 1068.8,802.7 1740.6,802.3 1738.9,831.2 			"/>
			<g>
				<polygon class="st1" points="875.6,685.3 854.1,700 835.1,685.4 856.6,670.7 				"/>
				<line class="st2" x1="844.1" y1="682.4" x2="840.5" y2="684.9"/>
				<line class="st2" x1="847.9" y1="685.4" x2="844.1" y2="682.4"/>
				<line class="st2" x1="851.5" y1="682.9" x2="847.9" y2="685.4"/>
				<line class="st2" x1="855.3" y1="685.8" x2="851.5" y2="682.9"/>
				<line class="st2" x1="855.3" y1="685.8" x2="858.9" y2="683.4"/>
				<line class="st2" x1="862.7" y1="686.3" x2="858.9" y2="683.4"/>
				<line class="st2" x1="870.1" y1="686.8" x2="866.3" y2="683.9"/>
				<line class="st2" x1="862.7" y1="686.3" x2="866.3" y2="683.9"/>
			</g>
			<g>
				<polygon class="st1" points="428.5,352.8 407.1,367.5 388.1,352.8 409.5,338.1 				"/>
				<g>
					<polyline class="st3" points="404.2,348.6 403,347.7 403,347.6 394.8,353.3 396.4,354.5 399.4,352.5 399.9,352.9 396.9,355 
						398.6,356.2 406.8,350.6 406.7,350.5 405.6,349.6 405.5,349.6 404.8,349.5 404.3,349.1 404.3,348.6 					"/>
					
						<ellipse transform="matrix(0.9997 -2.253105e-02 2.253105e-02 0.9997 -7.7242 9.2623)" class="st3" cx="407.2" cy="347.4" rx="2.1" ry="1.5"/>
				</g>
				<line class="st4" x1="405.9" y1="341.5" x2="389.4" y2="352.8"/>
				<line class="st4" x1="405.9" y1="341.5" x2="423.6" y2="355.2"/>
				<line class="st4" x1="423.6" y1="355.2" x2="407.2" y2="366.5"/>
				<line class="st4" x1="389.4" y1="352.8" x2="407.2" y2="366.5"/>
				<g>
					<polyline class="st3" points="411.6,354.6 410.4,353.7 410.4,353.6 402.1,359.3 403.8,360.5 406.7,358.5 407.3,358.9 
						404.3,360.9 405.9,362.2 414.2,356.6 414.1,356.5 412.9,355.6 412.9,355.6 412.2,355.5 411.7,355.1 411.6,354.6 					"/>
					
						<ellipse transform="matrix(0.9997 -2.253105e-02 2.253105e-02 0.9997 -7.8573 9.4298)" class="st3" cx="414.5" cy="353.4" rx="2.1" ry="1.5"/>
				</g>
				<g>
					<line class="st5" x1="409.8" y1="343" x2="414.2" y2="342.2"/>
					<line class="st5" x1="413" y1="345.4" x2="414.2" y2="342.2"/>
				</g>
				<g>
					<line class="st5" x1="423.7" y1="349.6" x2="419.6" y2="350.3"/>
					<line class="st5" x1="420.9" y1="347.4" x2="419.6" y2="350.3"/>
				</g>
			</g>
			<g>
				<polygon class="st1" points="618.3,486.8 596.9,501.5 577.9,486.8 599.3,472.1 				"/>
				<line class="st2" x1="586.9" y1="483.8" x2="583.3" y2="486.3"/>
				<line class="st2" x1="590.7" y1="486.8" x2="586.9" y2="483.8"/>
				<line class="st2" x1="594.3" y1="484.3" x2="590.7" y2="486.8"/>
				<line class="st2" x1="598.1" y1="487.3" x2="594.3" y2="484.3"/>
				<line class="st2" x1="598.1" y1="487.3" x2="601.6" y2="484.8"/>
				<line class="st2" x1="605.4" y1="487.8" x2="601.6" y2="484.8"/>
				<line class="st2" x1="612.8" y1="488.2" x2="609" y2="485.3"/>
				<line class="st2" x1="605.4" y1="487.8" x2="609" y2="485.3"/>
			</g>
			<g>
				<polygon class="st1" points="404.8,313.6 383.4,328.3 364.4,313.6 385.8,298.9 				"/>
				<line class="st2" x1="373.4" y1="310.7" x2="369.8" y2="313.2"/>
				<line class="st2" x1="377.2" y1="313.6" x2="373.4" y2="310.7"/>
				<line class="st2" x1="380.7" y1="311.2" x2="377.2" y2="313.6"/>
				<line class="st2" x1="384.5" y1="314.1" x2="380.7" y2="311.2"/>
				<line class="st2" x1="384.5" y1="314.1" x2="388.1" y2="311.7"/>
				<line class="st2" x1="391.9" y1="314.6" x2="388.1" y2="311.7"/>
				<line class="st2" x1="399.3" y1="315.1" x2="395.5" y2="312.2"/>
				<line class="st2" x1="391.9" y1="314.6" x2="395.5" y2="312.2"/>
			</g>
			<g>
				<polygon class="st1" points="1552,913.4 1550.3,934.2 1521.7,934.2 1523.4,913.4 				"/>
				<line class="st2" x1="1525.6" y1="927.6" x2="1525.3" y2="931.1"/>
				<line class="st2" x1="1531.3" y1="927.6" x2="1525.6" y2="927.6"/>
				<line class="st2" x1="1531.6" y1="924.1" x2="1531.3" y2="927.6"/>
				<line class="st2" x1="1537.3" y1="924.1" x2="1531.6" y2="924.1"/>
				<line class="st2" x1="1537.3" y1="924.1" x2="1537.6" y2="920.7"/>
				<line class="st2" x1="1543.3" y1="920.7" x2="1537.6" y2="920.7"/>
				<line class="st2" x1="1549.3" y1="917.2" x2="1543.6" y2="917.2"/>
				<line class="st2" x1="1543.3" y1="920.7" x2="1543.6" y2="917.2"/>
			</g>
			<g>
				<polygon class="st1" points="1237.3,901.2 1235.4,922 1206.7,921.8 1208.7,901.1 				"/>
				<g>
					<polyline class="st3" points="1214.9,910.8 1213.1,910.8 1213,910.8 1212.3,918.7 1214.7,918.8 1215,915.9 1215.8,915.9 
						1215.5,918.8 1218,918.8 1218.7,910.8 1218.7,910.8 1216.9,910.8 1216.8,910.8 1216.3,911.1 1215.4,911.1 1214.9,910.8 					
						"/>
					
						<ellipse transform="matrix(0.9971 -7.625509e-02 7.625509e-02 0.9971 -65.7372 95.3675)" class="st3" cx="1215.9" cy="908.5" rx="2.2" ry="1.5"/>
				</g>
				<line class="st4" x1="1209.2" y1="905.2" x2="1207.8" y2="921.2"/>
				<line class="st4" x1="1209.2" y1="905.2" x2="1235.9" y2="905.3"/>
				<line class="st4" x1="1235.9" y1="905.3" x2="1234.5" y2="921.3"/>
				<line class="st4" x1="1207.8" y1="921.2" x2="1234.5" y2="921.3"/>
				<g>
					<polyline class="st3" points="1226.2,911 1224.5,911 1224.4,911 1223.7,919 1226.1,919 1226.4,916.1 1227.2,916.1 1226.9,919 
						1229.4,919 1230.1,911.1 1230,911.1 1228.3,911 1228.2,911 1227.6,911.4 1226.8,911.4 1226.3,911 					"/>
					
						<ellipse transform="matrix(0.9971 -7.625509e-02 7.625509e-02 0.9971 -65.7229 96.2361)" class="st3" cx="1227.3" cy="908.7" rx="2.2" ry="1.5"/>
				</g>
				<g>
					<line class="st5" x1="1213.6" y1="904.2" x2="1216.3" y2="901.4"/>
					<line class="st5" x1="1218.4" y1="904.2" x2="1216.3" y2="901.4"/>
				</g>
				<g>
					<line class="st5" x1="1230.5" y1="901.5" x2="1228.2" y2="904.1"/>
					<line class="st5" x1="1226.3" y1="901.5" x2="1228.2" y2="904.1"/>
				</g>
			</g>
			<g>
				<polygon class="st1" points="1171.7,913.3 1170,934 1141.4,934 1143.1,913.3 				"/>
				<line class="st2" x1="1145.3" y1="927.5" x2="1145" y2="930.9"/>
				<line class="st2" x1="1151" y1="927.5" x2="1145.3" y2="927.5"/>
				<line class="st2" x1="1151.3" y1="924" x2="1151" y2="927.5"/>
				<line class="st2" x1="1157" y1="924" x2="1151.3" y2="924"/>
				<line class="st2" x1="1157" y1="924" x2="1157.3" y2="920.5"/>
				<line class="st2" x1="1163" y1="920.5" x2="1157.3" y2="920.5"/>
				<line class="st2" x1="1169" y1="917.1" x2="1163.3" y2="917.1"/>
				<line class="st2" x1="1163" y1="920.5" x2="1163.3" y2="917.1"/>
			</g>
			<g>
				<line class="st6" x1="75.7" y1="224.7" x2="75.7" y2="224.7"/>
				<line class="st6" x1="47.1" y1="244.3" x2="47.7" y2="244.8"/>
				<line class="st7" x1="147.9" y1="239.9" x2="91.4" y2="278.6"/>
				<line class="st7" x1="209.5" y1="286.3" x2="153" y2="325"/>
				<line class="st7" x1="233.5" y1="305.9" x2="177" y2="344.6"/>
				<line class="st7" x1="256.3" y1="323.5" x2="199.8" y2="362.2"/>
				<line class="st7" x1="293" y1="351.9" x2="236.5" y2="390.6"/>
				<line class="st7" x1="330.4" y1="380.7" x2="273.9" y2="419.4"/>
				<line class="st7" x1="365.9" y1="408.1" x2="309.4" y2="446.8"/>
				<line class="st7" x1="412.2" y1="443.8" x2="355.6" y2="482.5"/>
				<line class="st7" x1="437.5" y1="463.4" x2="381" y2="502.1"/>
				<line class="st7" x1="490.1" y1="504" x2="433.6" y2="542.7"/>
				<line class="st7" x1="526.2" y1="531.9" x2="469.7" y2="570.6"/>
				<line class="st7" x1="604.1" y1="592" x2="547.6" y2="630.7"/>
				<line class="st7" x1="635.2" y1="616" x2="578.7" y2="654.7"/>
				<line class="st7" x1="725.2" y1="685.4" x2="668.6" y2="724.1"/>
				<line class="st7" x1="779" y1="727" x2="722.5" y2="765.7"/>
				<line class="st7" x1="817.7" y1="756.8" x2="761.1" y2="795.6"/>
				<line class="st7" x1="870.3" y1="797.4" x2="813.7" y2="836.1"/>
				<line class="st7" x1="923.5" y1="838.5" x2="867" y2="877.2"/>
				<line class="st7" x1="967.2" y1="872.3" x2="910.7" y2="911"/>
				<line class="st7" x1="229.9" y1="155.1" x2="203.4" y2="173.3"/>
				<line class="st7" x1="197.3" y1="206.1" x2="249.5" y2="170.3"/>
				<line class="st7" x1="234.1" y1="234.4" x2="286.3" y2="198.7"/>
				<line class="st8" x1="305.7" y1="289.7" x2="357.9" y2="253.9"/>
				<line class="st7" x1="268.9" y1="261.3" x2="321.1" y2="225.6"/>
				<line class="st8" x1="342.4" y1="318.1" x2="379.8" y2="346.9"/>
				<line class="st8" x1="432" y1="311.2" x2="379.8" y2="346.9"/>
				<line class="st8" x1="486.5" y1="353.2" x2="427.8" y2="393.4"/>
				<line class="st7" x1="577.1" y1="423.2" x2="518.4" y2="463.3"/>
				<line class="st7" x1="609.4" y1="448.1" x2="550.8" y2="488.3"/>
				<line class="st7" x1="651.2" y1="480.4" x2="593.3" y2="520.1"/>
				<line class="st7" x1="683.6" y1="505.3" x2="624.9" y2="545.5"/>
				<line class="st7" x1="739.3" y1="548.4" x2="680.6" y2="588.5"/>
				<line class="st7" x1="791.9" y1="589" x2="733.2" y2="629.1"/>
				<line class="st7" x1="826.7" y1="615.9" x2="768.1" y2="656"/>
				<line class="st7" x1="871.1" y1="650.1" x2="812.4" y2="690.3"/>
				<line class="st7" x1="904.7" y1="676" x2="846" y2="716.2"/>
				<line class="st7" x1="932" y1="696.1" x2="873.3" y2="736.3"/>
				<line class="st7" x1="971.8" y1="727.9" x2="913.2" y2="768"/>
				<line class="st7" x1="1022.5" y1="767" x2="964.6" y2="806.7"/>
				<line class="st7" x1="1068.8" y1="802.7" x2="1010.1" y2="842.9"/>
				<line class="st7" x1="117.5" y1="144.4" x2="154.2" y2="172.8"/>
				<line class="st7" x1="166.3" y1="182.1" x2="192.9" y2="202.6"/>
				<line class="st7" x1="192.9" y1="202.6" x2="213.1" y2="218.3"/>
				<line class="st7" x1="222" y1="225.1" x2="248" y2="245.2"/>
				<line class="st7" x1="258.1" y1="253" x2="282.8" y2="272.1"/>
				<line class="st8" x1="292.3" y1="279.4" x2="305.7" y2="289.7"/>
				<line class="st7" x1="192" y1="181.1" x2="178.4" y2="190.4"/>
				<g>
					<line class="st8" x1="427.8" y1="393.4" x2="437.3" y2="400.7"/>
				</g>
				<g>
					<line class="st7" x1="446.2" y1="407.6" x2="491.2" y2="442.3"/>
				</g>
				<g>
					<line class="st7" x1="500.7" y1="449.6" x2="527.9" y2="470.7"/>
				</g>
				<g>
					<line class="st7" x1="536.8" y1="477.5" x2="551.4" y2="488.8"/>
				</g>
				<g>
					<line class="st7" x1="591.9" y1="520.1" x2="602.1" y2="527.9"/>
				</g>
				<g>
					<line class="st7" x1="611.6" y1="535.3" x2="635" y2="553.3"/>
				</g>
				<g>
					<line class="st7" x1="645.2" y1="561.2" x2="688.9" y2="594.9"/>
				</g>
				<g>
					<line class="st7" x1="700.9" y1="604.2" x2="744.6" y2="637.9"/>
				</g>
				<g>
					<line class="st7" x1="756.7" y1="647.2" x2="777" y2="662.9"/>
				</g>
				<g>
					<line class="st7" x1="785.2" y1="669.2" x2="813.1" y2="690.8"/>
				</g>
				<line class="st7" x1="845.4" y1="715.7" x2="853.6" y2="722.1"/>
				<line class="st7" x1="859.3" y1="726.5" x2="894.2" y2="753.4"/>
				<line class="st7" x1="903" y1="760.2" x2="943" y2="791"/>
				<line class="st7" x1="954.4" y1="799.8" x2="989.8" y2="827.2"/>
				<line class="st2" x1="1010.1" y1="842.9" x2="1032.9" y2="860.5"/>
				<line class="st8" x1="104.2" y1="206.1" x2="73.5" y2="227.2"/>
				<line class="st8" x1="116.3" y1="215.4" x2="104.2" y2="206.1"/>
				<line class="st7" x1="124.5" y1="221.8" x2="189.1" y2="271.7"/>
				<line class="st7" x1="197.4" y1="278" x2="217.6" y2="293.7"/>
				<line class="st7" x1="226.5" y1="300.5" x2="243" y2="313.2"/>
				<line class="st7" x1="250" y1="318.6" x2="278.5" y2="340.6"/>
				<line class="st7" x1="286.1" y1="346.5" x2="300" y2="357.3"/>
				<line class="st7" x1="307" y1="362.6" x2="352" y2="397.4"/>
				<line class="st7" x1="359.6" y1="403.2" x2="375.4" y2="415.5"/>
				<line class="st7" x1="384.9" y1="422.8" x2="422.3" y2="451.6"/>
				<line class="st7" x1="429.3" y1="457" x2="448.3" y2="471.7"/>
				<line class="st7" x1="460.3" y1="481" x2="496.4" y2="508.9"/>
				<line class="st7" x1="509.7" y1="519.1" x2="537" y2="540.2"/>
				<line class="st7" x1="550.9" y1="550.9" x2="618.1" y2="602.8"/>
				<line class="st7" x1="629.5" y1="611.6" x2="644.1" y2="622.8"/>
				<line class="st7" x1="652.9" y1="629.7" x2="697.3" y2="663.9"/>
				<line class="st7" x1="706.8" y1="671.3" x2="734" y2="692.3"/>
				<line class="st7" x1="743.5" y1="699.6" x2="785.4" y2="731.9"/>
				<line class="st7" x1="794.2" y1="738.7" x2="824" y2="761.7"/>
				<line class="st7" x1="836.7" y1="771.5" x2="876" y2="801.8"/>
				<line class="st7" x1="888.6" y1="811.6" x2="930.4" y2="843.9"/>
				<line class="st7" x1="940.6" y1="851.7" x2="973.5" y2="877.2"/>
				<line class="st7" x1="1004.6" y1="901.1" x2="1028.2" y2="901.1"/>
				<line class="st2" x1="1032.9" y1="860.5" x2="1039.7" y2="860.5"/>
				<line class="st8" x1="1056.6" y1="949.1" x2="1060.6" y2="901.1"/>
				<line class="st8" x1="1192.1" y1="949" x2="1196.1" y2="901"/>
				<line class="st8" x1="1297.4" y1="948.9" x2="1301.4" y2="900.9"/>
				<line class="st8" x1="1501.7" y1="900.8" x2="1497.7" y2="948.8"/>
				<line class="st8" x1="1575.2" y1="900.8" x2="1571.2" y2="948.7"/>
				<line class="st7" x1="1627.2" y1="900.7" x2="1623.1" y2="948.7"/>
				<line class="st7" x1="1695.3" y1="900.7" x2="1691.3" y2="948.2"/>
				<line class="st8" x1="1727.7" y1="860" x2="1735.8" y2="860"/>
				<line class="st8" x1="1738.1" y1="832.6" x2="1735.8" y2="860"/>
				<line class="st7" x1="1068.7" y1="803.7" x2="1064" y2="860.5"/>
				<line class="st7" x1="1001" y1="949.1" x2="1005" y2="900.9"/>
				<line class="st7" x1="984.9" y1="886" x2="1005.2" y2="901.6"/>
				<line class="st8" x1="1041.7" y1="901" x2="1060.6" y2="900.9"/>
				<line class="st8" x1="1133.4" y1="901.1" x2="1196.1" y2="901"/>
				<line class="st8" x1="1291.9" y1="900.9" x2="1544.2" y2="900.8"/>
				<line class="st8" x1="1575.2" y1="900.8" x2="1592.1" y2="900.8"/>
				<line class="st7" x1="1609.6" y1="900.7" x2="1640.6" y2="900.7"/>
				<line class="st7" x1="1656.2" y1="900.7" x2="1706.7" y2="900.7"/>
				<line class="st7" x1="1725" y1="900.7" x2="1778.2" y2="900.6"/>
				<line class="st7" x1="1277.1" y1="860.3" x2="1282" y2="801.6"/>
				<line class="st7" x1="1379" y1="803" x2="1374.2" y2="860.3"/>
				<line class="st7" x1="1473.5" y1="802.4" x2="1468.7" y2="860.2"/>
				<line class="st7" x1="1537.6" y1="802.4" x2="1532.7" y2="860.2"/>
				<line class="st7" x1="1607.7" y1="802.4" x2="1602.9" y2="860.1"/>
				<line class="st7" x1="1187.5" y1="802.6" x2="1182.7" y2="860.4"/>
				<line class="st7" x1="1667.1" y1="802.3" x2="1662.2" y2="860.6"/>
				<line class="st7" x1="1166.5" y1="860.4" x2="1240.7" y2="860.4"/>
				<line class="st7" x1="1262.3" y1="860.3" x2="1344.6" y2="860.3"/>
				<line class="st7" x1="1363.4" y1="860.3" x2="1436.3" y2="860.2"/>
				<line class="st7" x1="1455.2" y1="860.2" x2="1503.7" y2="860.2"/>
				<line class="st7" x1="998.1" y1="833.6" x2="1024.1" y2="853.6"/>
				<line class="st7" x1="1100.4" y1="860.4" x2="1147.6" y2="860.4"/>
				<line class="st8" x1="1039.7" y1="860.5" x2="1045.7" y2="860.5"/>
				<line class="st8" x1="1057.2" y1="860.5" x2="1100.4" y2="860.4"/>
				<line class="st7" x1="1522.6" y1="860.1" x2="1576.6" y2="860.1"/>
				<line class="st7" x1="1592.8" y1="860.1" x2="1635.9" y2="860.1"/>
				<line class="st7" x1="1651.5" y1="860.1" x2="1711.5" y2="860.1"/>
				<line class="st2" x1="1244.2" y1="923.5" x2="1194.3" y2="923.5"/>
				<line class="st2" x1="1246.1" y1="901" x2="1244.2" y2="923.5"/>
				<line class="st2" x1="1274.4" y1="901" x2="1246.1" y2="901"/>
				<line class="st8" x1="404.8" y1="329.8" x2="439.7" y2="356.7"/>
				<line class="st8" x1="440.9" y1="357.7" x2="415.9" y2="374.8"/>
			</g>
			<g>
				<g>
					<line class="st9" x1="557.5" y1="447.2" x2="550.2" y2="452.2"/>
					<line class="st10" x1="559.2" y1="448.6" x2="546.1" y2="457.6"/>
					<line class="st11" x1="557.8" y1="447" x2="565.7" y2="453.1"/>
					<line class="st9" x1="565.4" y1="453.3" x2="558.2" y2="458.3"/>
					<line class="st10" x1="563.6" y1="452" x2="550.5" y2="461"/>
					<line class="st12" x1="561.4" y1="450" x2="553.1" y2="456"/>
					
						<ellipse transform="matrix(0.4391 -0.8984 0.8984 0.4391 -85.2924 758.8723)" class="st1" cx="565.1" cy="447.7" rx="2.6" ry="4"/>
				</g>
				<text transform="matrix(0.7307 0.5641 -0.8251 0.5651 561.1426 461.1909)" class="st13 st14 st15">WC</text>
			</g>
			<g>
				<g>
					<polygon class="st1" points="1256.5,924.2 1251.2,931.4 1260.5,931.4 					"/>
					<polygon class="st1" points="1258.1,930.5 1253.9,930.5 1254.5,923.9 1258.6,923.9 					"/>
					<line class="st9" x1="1261.9" y1="927" x2="1258.6" y2="924.5"/>
					<line class="st9" x1="1250.4" y1="927.2" x2="1254.4" y2="924.5"/>
					<line class="st9" x1="1253.8" y1="936.9" x2="1254.2" y2="931.4"/>
					<line class="st9" x1="1257.1" y1="936.9" x2="1257.6" y2="931.4"/>
					
						<ellipse transform="matrix(0.9914 -0.1309 0.1309 0.9914 -109.8035 172.4272)" class="st1" cx="1256.6" cy="921.4" rx="2.6" ry="1.9"/>
				</g>
				<text transform="matrix(1.3731 -8.689549e-04 -8.325443e-02 0.9965 1269.1434 931.5775)" class="st16 st14 st17">WC</text>
			</g>
			<g>
				<g>
					<line class="st9" x1="811" y1="643.3" x2="803.8" y2="648.2"/>
					<line class="st10" x1="812.8" y1="644.7" x2="799.6" y2="653.7"/>
					<line class="st11" x1="811.4" y1="643.1" x2="819.3" y2="649.2"/>
					<line class="st9" x1="819" y1="649.4" x2="811.7" y2="654.4"/>
					<line class="st10" x1="817.2" y1="648" x2="804" y2="657.1"/>
					<line class="st12" x1="814.9" y1="646.1" x2="806.6" y2="652.1"/>
					
						<ellipse transform="matrix(0.4391 -0.8984 0.8984 0.4391 -119.2378 1096.6571)" class="st1" cx="818.7" cy="643.8" rx="2.6" ry="4"/>
				</g>
				<text transform="matrix(0.7307 0.5641 -0.8251 0.5651 814.6995 657.2704)" class="st13 st14 st15">WC</text>
			</g>
			<g>
				
					<ellipse transform="matrix(0.9957 -9.239031e-02 9.239031e-02 0.9957 -13.1922 16.5588)" class="st1" cx="172.2" cy="150.8" rx="14.4" ry="10.3"/>
				<text transform="matrix(0.6882 0.5312 -0.8251 0.5651 162.6004 148.5744)" class="st18 st14 st19">301</text>
			</g>
			<g>
				
					<ellipse transform="matrix(0.9995 -3.049352e-02 3.049352e-02 0.9995 -5.4609 6.532)" class="st1" cx="211.4" cy="182.3" rx="11.4" ry="8.3"/>
				<text transform="matrix(0.7175 0.5538 -0.8251 0.5651 203.5488 180.024)" class="st18 st14 st20">302</text>
			</g>
			<g>
				
					<ellipse transform="matrix(0.9957 -9.239031e-02 9.239031e-02 0.9957 -20.1161 26.4417)" class="st1" cx="275.5" cy="230.5" rx="14.4" ry="10.3"/>
				<text transform="matrix(0.6882 0.5312 -0.8251 0.5651 263.1824 225.8937)" class="st18 st14 st19">305ю</text>
			</g>
			<g>
				
					<ellipse transform="matrix(0.9957 -9.239031e-02 9.239031e-02 0.9957 -17.7373 23.0464)" class="st1" cx="240" cy="203.1" rx="14.4" ry="10.3"/>
				<text transform="matrix(0.6882 0.5312 -0.8251 0.5651 230.2566 200.3036)" class="st18 st14 st19">303</text>
			</g>
			<g>
				
					<ellipse transform="matrix(0.9957 -9.239031e-02 9.239031e-02 0.9957 -22.5798 29.9584)" class="st1" cx="312.3" cy="258.9" rx="14.4" ry="10.3"/>
				<text transform="matrix(0.6882 0.5312 -0.8251 0.5651 303.8356 256.0601)" class="st18 st14 st19">341</text>
			</g>
			<g>
				
					<ellipse transform="matrix(0.9957 -9.239031e-02 9.239031e-02 0.9957 -25.5401 15.1675)" class="st1" cx="151" cy="283.4" rx="14.4" ry="10.3"/>
				<text transform="matrix(0.6882 0.5312 -0.8251 0.5651 141.4 281.2421)" class="st18 st14 st19">340</text>
			</g>
			<g>
				
					<ellipse transform="matrix(0.9957 -9.239031e-02 9.239031e-02 0.9957 -21.972 10.0745)" class="st1" cx="97.8" cy="242.3" rx="14.4" ry="10.3"/>
				<text transform="matrix(0.6882 0.5312 -0.8251 0.5651 86.7716 238.6621)" class="st18 st14 st19">340а</text>
			</g>
			<g>
				
					<ellipse transform="matrix(0.9957 -9.239031e-02 9.239031e-02 0.9957 -29.9578 21.4732)" class="st1" cx="216.9" cy="334.3" rx="14.4" ry="10.3"/>
				<text transform="matrix(0.6882 0.5312 -0.8251 0.5651 204.5979 329.7046)" class="st18 st14 st19">339ю</text>
			</g>
			<g>
				
					<ellipse transform="matrix(0.9957 -9.239031e-02 9.239031e-02 0.9957 -28.3437 19.1692)" class="st1" cx="192.9" cy="315.7" rx="14.4" ry="10.3"/>
				<text transform="matrix(0.6882 0.5312 -0.8251 0.5651 183.0767 312.9193)" class="st18 st14 st19">346</text>
			</g>
			<g>
				
					<ellipse transform="matrix(0.9957 -9.239031e-02 9.239031e-02 0.9957 -31.9543 24.3228)" class="st1" cx="246.7" cy="357.3" rx="14.4" ry="10.3"/>
				<text transform="matrix(0.6882 0.5312 -0.8251 0.5651 234.3987 352.5361)" class="st18 st14 st19">338ю</text>
			</g>
			<g>
				
					<ellipse transform="matrix(0.9957 -9.239031e-02 9.239031e-02 0.9957 -41.9308 38.6958)" class="st1" cx="397" cy="472.2" rx="14.4" ry="10.3"/>
				<text transform="matrix(0.6882 0.5312 -0.8251 0.5651 388.038 469.544)" class="st18 st14 st19">325</text>
			</g>
			<g>
				
					<ellipse transform="matrix(0.9957 -9.239031e-02 9.239031e-02 0.9957 -44.607 42.5156)" class="st1" cx="436.9" cy="503" rx="14.4" ry="10.3"/>
				<text transform="matrix(0.6882 0.5312 -0.8251 0.5651 427.103 500.3296)" class="st18 st14 st19">324</text>
			</g>
			<g>
				
					<ellipse transform="matrix(0.9957 -9.239031e-02 9.239031e-02 0.9957 -47.5379 46.6992)" class="st1" cx="480.6" cy="536.8" rx="14.4" ry="10.3"/>
				<text transform="matrix(0.6882 0.5312 -0.8251 0.5651 471.4288 534.6375)" class="st18 st14 st19">323</text>
			</g>
			<g>
				
					<ellipse transform="matrix(0.9957 -9.239031e-02 9.239031e-02 0.9957 -51.4459 52.2773)" class="st1" cx="538.9" cy="581.8" rx="14.4" ry="10.3"/>
				<text transform="matrix(0.6882 0.5312 -0.8251 0.5651 529.1084 578.9894)" class="st18 st14 st19">322</text>
			</g>
			<g>
				
					<ellipse transform="matrix(0.9957 -9.239031e-02 9.239031e-02 0.9957 -54.9291 57.249)" class="st1" cx="590.9" cy="621.9" rx="14.4" ry="10.3"/>
				<text transform="matrix(0.6882 0.5312 -0.8251 0.5651 582.4121 619.0948)" class="st18 st14 st19">321</text>
			</g>
			<g>
				
					<ellipse transform="matrix(0.9957 -9.239031e-02 9.239031e-02 0.9957 -59.177 63.3122)" class="st1" cx="654.2" cy="670.8" rx="14.4" ry="10.3"/>
				<text transform="matrix(0.6882 0.5312 -0.8251 0.5651 645.2828 668.1182)" class="st18 st14 st19">320</text>
			</g>
			<g>
				
					<ellipse transform="matrix(0.9957 -9.239031e-02 9.239031e-02 0.9957 -64.0195 70.2241)" class="st1" cx="726.4" cy="726.6" rx="14.4" ry="10.3"/>
				<text transform="matrix(0.6882 0.5312 -0.8251 0.5651 716.6623 723.8483)" class="st18 st14 st19">319</text>
			</g>
			<g>
				
					<ellipse transform="matrix(0.9957 -9.239031e-02 9.239031e-02 0.9957 -73.662 83.9874)" class="st1" cx="870.3" cy="837.6" rx="14.4" ry="10.3"/>
				<text transform="matrix(0.6882 0.5312 -0.8251 0.5651 860.465 834.9451)" class="st18 st14 st19">318</text>
			</g>
			<g>
				
					<ellipse transform="matrix(0.9957 -9.239031e-02 9.239031e-02 0.9957 -76.8479 88.5348)" class="st1" cx="917.8" cy="874.3" rx="14.4" ry="10.3"/>
				<text transform="matrix(0.6882 0.5312 -0.8251 0.5651 908.007 871.4715)" class="st18 st14 st19">317</text>
			</g>
			<g>
				
					<ellipse transform="matrix(0.9957 -9.239031e-02 9.239031e-02 0.9957 -79.9488 92.9609)" class="st1" cx="964" cy="910" rx="14.4" ry="10.3"/>
				<text transform="matrix(0.6882 0.5312 -0.8251 0.5651 954.9749 906.6862)" class="st18 st14 st19">316</text>
			</g>
			<g>
				
					<ellipse transform="matrix(0.9957 -9.239031e-02 9.239031e-02 0.9957 -34.4181 27.8394)" class="st1" cx="283.5" cy="385.7" rx="14.4" ry="10.3"/>
				<text transform="matrix(0.6882 0.5312 -0.8251 0.5651 271.3714 380.5282)" class="st18 st14 st19">304ю</text>
			</g>
			<g>
				
					<ellipse transform="matrix(0.9957 -9.239031e-02 9.239031e-02 0.9957 -36.9243 31.4167)" class="st1" cx="320.9" cy="414.5" rx="14.4" ry="10.3"/>
				<text transform="matrix(0.6882 0.5312 -0.8251 0.5651 311.0695 411.8037)" class="st18 st14 st19">327</text>
			</g>
			<g>
				
					<ellipse transform="matrix(0.9957 -9.239031e-02 9.239031e-02 0.9957 -35.5781 48.5116)" class="st1" cx="506.2" cy="408.5" rx="14.4" ry="10.3"/>
				<text transform="matrix(0.6882 0.5312 -0.8251 0.5651 494.4719 404.2585)" class="st18 st14 st19">301а</text>
			</g>
			<g>
				
					<ellipse transform="matrix(0.9957 -9.239031e-02 9.239031e-02 0.9957 -39.5945 35.3611)" class="st1" cx="362.1" cy="445.3" rx="14.4" ry="10.3"/>
				<text transform="matrix(0.6882 0.5312 -0.8251 0.5651 352.3315 442.5305)" class="st18 st14 st19">326</text>
			</g>
			<g>
				
					<ellipse transform="matrix(0.9957 -9.239031e-02 9.239031e-02 0.9957 -80.9701 99.206)" class="st1" cx="1031" cy="924.1" rx="14.4" ry="10.3"/>
				<text transform="matrix(1.2931 -8.183556e-04 -8.325443e-02 0.9965 1016.863 927.6014)" class="st18 st14 st21">315б</text>
			</g>
			<g>
				
					<ellipse transform="matrix(0.9957 -9.239031e-02 9.239031e-02 0.9957 -70.0089 78.7732)" class="st1" cx="815.8" cy="795.5" rx="14.4" ry="10.3"/>
				<text transform="matrix(0.6882 0.5312 -0.8251 0.5651 806.0008 792.8112)" class="st18 st14 st19">319</text>
			</g>
			<g>
				
					<ellipse transform="matrix(0.9957 -9.239031e-02 9.239031e-02 0.9957 -67.0354 74.529)" class="st1" cx="771.4" cy="761.3" rx="14.4" ry="10.3"/>
				<text transform="matrix(0.6882 0.5312 -0.8251 0.5651 760.9888 758.1567)" class="st18 st14 st19">БНС</text>
			</g>
			<g>
				
					<ellipse transform="matrix(0.9957 -9.239031e-02 9.239031e-02 0.9957 -47.617 65.2963)" class="st1" cx="681.4" cy="546.9" rx="14.4" ry="10.3"/>
				<text transform="matrix(0.6882 0.5312 -0.8251 0.5651 671.6364 544.1435)" class="st18 st14 st19">303</text>
			</g>
			<g>
				
					<ellipse transform="matrix(0.9957 -9.239031e-02 9.239031e-02 0.9957 -44.7768 61.1094)" class="st1" cx="637.6" cy="514.2" rx="14.4" ry="10.3"/>
				<text transform="matrix(0.6882 0.5312 -0.8251 0.5651 629.1849 511.3741)" class="st18 st14 st19">302</text>
			</g>
			<g>
				
					<ellipse transform="matrix(0.9957 -9.239031e-02 9.239031e-02 0.9957 -54.122 74.4483)" class="st1" cx="777" cy="621.8" rx="14.4" ry="10.3"/>
				<text transform="matrix(0.6882 0.5312 -0.8251 0.5651 768.0853 619.0916)" class="st18 st14 st19">304</text>
			</g>
			<g>
				
					<ellipse transform="matrix(0.9957 -9.239031e-02 9.239031e-02 0.9957 -61.604 84.9948)" class="st1" cx="887.2" cy="707.9" rx="14.4" ry="10.3"/>
				<text transform="matrix(0.6882 0.5312 -0.8251 0.5651 877.3982 705.1458)" class="st18 st14 st19">305</text>
			</g>
			<g>
				
					<ellipse transform="matrix(0.9957 -9.239031e-02 9.239031e-02 0.9957 -63.8129 88.1476)" class="st1" cx="920.1" cy="733.3" rx="14.4" ry="10.3"/>
				<text transform="matrix(0.6882 0.5312 -0.8251 0.5651 910.321 730.649)" class="st18 st14 st19">306</text>
			</g>
			<g>
				
					<ellipse transform="matrix(0.9957 -9.239031e-02 9.239031e-02 0.9957 -66.9562 92.6343)" class="st1" cx="967" cy="769.5" rx="14.4" ry="10.3"/>
				<text transform="matrix(0.6882 0.5312 -0.8251 0.5651 957.2291 766.6861)" class="st18 st14 st19">307</text>
			</g>
			<g>
				
					<ellipse transform="matrix(0.9957 -9.239031e-02 9.239031e-02 0.9957 -70.1846 97.2423)" class="st1" cx="1015.2" cy="806.6" rx="14.4" ry="10.3"/>
				<text transform="matrix(0.6882 0.5312 -0.8251 0.5651 1006.7333 803.8575)" class="st18 st14 st19">308</text>
			</g>
			<g>
				
					<ellipse transform="matrix(0.9957 -9.239031e-02 9.239031e-02 0.9957 -72.0303 107.3315)" class="st1" cx="1123.2" cy="831.6" rx="14.4" ry="10.3"/>
				<text transform="matrix(1.2931 -8.183556e-04 -8.325443e-02 0.9965 1113.9188 834.4163)" class="st18 st14 st21">309</text>
			</g>
			<g>
				
					<ellipse transform="matrix(0.9957 -9.239031e-02 9.239031e-02 0.9957 -71.5746 117.8437)" class="st1" cx="1237" cy="832" rx="14.4" ry="10.3"/>
				<text transform="matrix(1.2931 -8.183556e-04 -8.325443e-02 0.9965 1227.0149 835.1699)" class="st18 st14 st21">310</text>
			</g>
			<g>
				
					<ellipse transform="matrix(0.9957 -9.239031e-02 9.239031e-02 0.9957 -70.0332 148.7559)" class="st1" cx="1571.6" cy="830.8" rx="14.4" ry="10.3"/>
				<text transform="matrix(1.2931 -8.183556e-04 -8.325443e-02 0.9965 1557.8936 834.0399)" class="st18 st14 st21">314а</text>
			</g>
			<g>
				
					<ellipse transform="matrix(0.9957 -9.239031e-02 9.239031e-02 0.9957 -70.4234 142.5384)" class="st1" cx="1504.3" cy="831.9" rx="14.4" ry="10.3"/>
				<text transform="matrix(1.2931 -8.183556e-04 -8.325443e-02 0.9965 1494.2205 835.03)" class="st18 st14 st21">313</text>
			</g>
			<g>
				
					<ellipse transform="matrix(0.9957 -9.239031e-02 9.239031e-02 0.9957 -69.8374 154.8595)" class="st1" cx="1637.6" cy="831.7" rx="14.4" ry="10.3"/>
				<text transform="matrix(1.2931 -8.183556e-04 -8.325443e-02 0.9965 1628.5989 834.1684)" class="st18 st14 st21">314</text>
			</g>
			<g>
				
					<ellipse transform="matrix(0.9957 -9.239031e-02 9.239031e-02 0.9957 -71.1827 126.194)" class="st1" cx="1327.4" cy="831.9" rx="14.4" ry="10.3"/>
				<text transform="matrix(1.2931 -8.183556e-04 -8.325443e-02 0.9965 1318.0675 834.6938)" class="st18 st14 st21">311</text>
			</g>
			<g>
				
					<ellipse transform="matrix(0.9957 -9.239031e-02 9.239031e-02 0.9957 -70.7133 135.2316)" class="st1" cx="1425.2" cy="831.4" rx="14.4" ry="10.3"/>
				<text transform="matrix(1.2931 -8.183556e-04 -8.325443e-02 0.9965 1415.2502 834.5603)" class="st18 st14 st21">312</text>
			</g>
			<g>
				
					<ellipse transform="matrix(0.9957 -9.239031e-02 9.239031e-02 0.9957 -69.5802 160.7143)" class="st1" cx="1701" cy="831.9" rx="14.4" ry="10.3"/>
				<text transform="matrix(1.2931 -8.183556e-04 -8.325443e-02 0.9965 1687.2715 835.1277)" class="st18 st14 st21">314б</text>
			</g>
			<g>
				
					<ellipse transform="matrix(0.9957 -9.239031e-02 9.239031e-02 0.9957 -78.3646 157.0291)" class="st1" cx="1656.8" cy="924.9" rx="14.4" ry="10.3"/>
				<text transform="matrix(1.2931 -8.183556e-04 -8.325443e-02 0.9965 1644.8485 928.0448)" class="st18 st14 st21">315а</text>
			</g>
			<g>
				
					<ellipse transform="matrix(0.9957 -9.239031e-02 9.239031e-02 0.9957 -78.1045 164.5037)" class="st1" cx="1737.7" cy="925.8" rx="14.4" ry="10.3"/>
				<text transform="matrix(1.2931 -8.183556e-04 -8.325443e-02 0.9965 1725.7659 928.2816)" class="st18 st14 st21">314в</text>
			</g>
		</g>
	</g>
</g>
</svg>
