<?xml version="1.0" encoding="utf-8"?>
<!-- Generator: Adobe Illustrator 27.3.1, SVG Export Plug-In . SVG Version: 6.00 Build 0)  -->
<svg version="1.1" id="Слой_1" xmlns="http://www.w3.org/2000/svg" xmlns:xlink="http://www.w3.org/1999/xlink" x="0px" y="0px"
	 viewBox="0 0 1920 1080" style="enable-background:new 0 0 1920 1080;" xml:space="preserve">
<style type="text/css">
	.st0{fill:#94C4FF;stroke:#FFFFFF;stroke-width:4;stroke-linecap:square;stroke-miterlimit:10;}
	.st1{fill:none;stroke:#FFFFFF;stroke-width:2;stroke-linecap:square;stroke-miterlimit:10;}
	.st2{fill:none;stroke:#FFFFFF;stroke-width:2;stroke-linecap:round;stroke-miterlimit:10;}
	.st3{fill:none;stroke:#FFFFFF;stroke-width:2;stroke-miterlimit:10;}
	.st4{fill:#FFFFFF;}
	.st5{fill:#010002;}
	.st6{font-family:'ArialMT';}
	.st7{font-size:13.4211px;}
	.st8{fill:none;stroke:#000000;stroke-width:0.25;stroke-miterlimit:10;}
	.st9{font-size:14.79px;}
	.st10{font-size:12.7979px;}
	.st11{fill:none;stroke:#FFFFFF;stroke-width:0.5;stroke-miterlimit:10;}
	.st12{font-size:11.6219px;}
	.st13{font-size:11.2363px;}
	.st14{font-size:12.3258px;}
	.st15{font-size:11.8683px;}
	.st16{font-size:51.0659px;}
	.st17{stroke:#000000;stroke-linecap:round;stroke-miterlimit:10;}
	.st18{font-size:44.405px;}
</style>
<g>
	<g>
		<polygon class="st0" points="329,425 752,425 752,407 805,407 805,425 1240,425 1240,407 1289,407 1289,425 1858,425 1858,645 
			84,644 84,425 277,425 277,406 329,406 		"/>
		<g>
			<line class="st1" x1="165" y1="425" x2="165" y2="523"/>
			<line class="st1" x1="165" y1="543" x2="165" y2="644"/>
			<line class="st1" x1="243" y1="425" x2="243" y2="516"/>
			<line class="st1" x1="278" y1="427" x2="278" y2="490"/>
			<line class="st1" x1="278" y1="516" x2="278" y2="506"/>
			<line class="st1" x1="329" y1="516" x2="329" y2="425"/>
			<line class="st1" x1="440" y1="516" x2="440" y2="425"/>
			<line class="st1" x1="498" y1="516" x2="498" y2="425"/>
			<line class="st1" x1="596" y1="516" x2="596" y2="425"/>
			<line class="st1" x1="716" y1="516" x2="716" y2="425"/>
			<line class="st1" x1="753" y1="516" x2="753" y2="425"/>
			<line class="st1" x1="670" y1="516" x2="670" y2="425"/>
			<line class="st1" x1="804" y1="516" x2="804" y2="428"/>
			<line class="st1" x1="841" y1="516" x2="841" y2="425"/>
			<line class="st1" x1="931" y1="516" x2="931" y2="425"/>
			<line class="st1" x1="987" y1="516" x2="987" y2="425"/>
			<line class="st1" x1="1083" y1="516" x2="1083" y2="425"/>
			<line class="st1" x1="1035" y1="516" x2="1035" y2="425"/>
			<line class="st1" x1="1241" y1="516" x2="1241" y2="425"/>
			<line class="st1" x1="1288" y1="515" x2="1288" y2="424"/>
			<line class="st1" x1="1330" y1="516" x2="1330" y2="425"/>
			<line class="st1" x1="1392" y1="516" x2="1392" y2="425"/>
			<line class="st1" x1="1454" y1="537" x2="1454" y2="425"/>
			<line class="st1" x1="1511" y1="565" x2="1511" y2="425"/>
			<line class="st1" x1="1570" y1="565" x2="1570" y2="425"/>
			<line class="st1" x1="1626" y1="565" x2="1626" y2="425"/>
			<line class="st1" x1="1737" y1="584" x2="1737" y2="425"/>
			<line class="st1" x1="1779" y1="584" x2="1737" y2="584"/>
			<line class="st1" x1="1798" y1="584" x2="1858" y2="584"/>
			<line class="st1" x1="1761" y1="610" x2="1761" y2="645"/>
			<line class="st1" x1="1707" y1="592" x2="1707" y2="645"/>
			<line class="st1" x1="1660" y1="592" x2="1660" y2="645"/>
			<line class="st1" x1="1595" y1="592" x2="1595" y2="645"/>
			<line class="st1" x1="1559" y1="592" x2="1559" y2="645"/>
			<line class="st1" x1="1524" y1="593" x2="1524" y2="646"/>
			<line class="st1" x1="1489" y1="592" x2="1489" y2="645"/>
			<line class="st1" x1="1450" y1="592" x2="1450" y2="645"/>
			<line class="st1" x1="1383" y1="556" x2="1383" y2="645"/>
			<line class="st1" x1="1300" y1="556" x2="1300" y2="645"/>
			<line class="st1" x1="1251" y1="556" x2="1251" y2="645"/>
			<line class="st1" x1="1207" y1="556" x2="1207" y2="645"/>
			<line class="st1" x1="1110" y1="556" x2="1110" y2="645"/>
			<line class="st1" x1="1067" y1="556" x2="1067" y2="645"/>
			<line class="st1" x1="1007" y1="554" x2="1007" y2="645"/>
			<line class="st1" x1="931" y1="554" x2="931" y2="644"/>
			<line class="st1" x1="835" y1="554" x2="835" y2="644"/>
			<line class="st1" x1="732" y1="554" x2="732" y2="644"/>
			<line class="st1" x1="684" y1="554" x2="684" y2="644"/>
			<line class="st1" x1="606" y1="554" x2="606" y2="644"/>
			<line class="st1" x1="526" y1="554" x2="526" y2="644"/>
			<line class="st1" x1="395" y1="554" x2="395" y2="645"/>
			<line class="st1" x1="324" y1="554" x2="324" y2="645"/>
			<line class="st1" x1="221" y1="554" x2="221" y2="644"/>
			<line class="st1" x1="167" y1="516" x2="179" y2="516"/>
			<line class="st1" x1="194" y1="516" x2="278" y2="516"/>
			<line class="st1" x1="178" y1="554" x2="165" y2="554"/>
			<line class="st1" x1="192" y1="554" x2="275" y2="554"/>
			<line class="st1" x1="292" y1="554" x2="338" y2="554"/>
			<line class="st1" x1="356" y1="554" x2="420" y2="554"/>
			<line class="st1" x1="440" y1="554" x2="482" y2="554"/>
			<line class="st1" x1="501" y1="554" x2="552" y2="554"/>
			<line class="st1" x1="568" y1="554" x2="636" y2="554"/>
			<line class="st1" x1="653" y1="554" x2="697" y2="554"/>
			<line class="st1" x1="713" y1="554" x2="762" y2="554"/>
			<line class="st1" x1="781" y1="554" x2="858" y2="554"/>
			<line class="st1" x1="876" y1="554" x2="967" y2="554"/>
			<line class="st1" x1="983" y1="554" x2="1020" y2="554"/>
			<line class="st1" x1="1034" y1="554" x2="1078" y2="554"/>
			<line class="st1" x1="1091" y1="554" x2="1127" y2="554"/>
			<line class="st1" x1="1145" y1="554" x2="1220" y2="554"/>
			<line class="st1" x1="1235" y1="554" x2="1261" y2="554"/>
			<line class="st1" x1="1276" y1="554" x2="1316" y2="554"/>
			<line class="st2" x1="1332" y1="554" x2="1409" y2="554"/>
			<line class="st2" x1="1409" y1="554" x2="1427" y2="578"/>
			<line class="st2" x1="1427" y1="578" x2="1427" y2="592"/>
			<line class="st1" x1="1433" y1="592" x2="1427" y2="592"/>
			<line class="st1" x1="1445" y1="592" x2="1461" y2="592"/>
			<line class="st1" x1="1473" y1="592" x2="1496" y2="592"/>
			<line class="st1" x1="1509" y1="592" x2="1532" y2="592"/>
			<line class="st1" x1="1545" y1="592" x2="1573" y2="592"/>
			<line class="st1" x1="1585" y1="592" x2="1606" y2="592"/>
			<line class="st1" x1="1622" y1="592" x2="1679" y2="592"/>
			<line class="st2" x1="1693" y1="592" x2="1719" y2="592"/>
			<line class="st2" x1="1719" y1="592" x2="1737" y2="610"/>
			<line class="st2" x1="1737" y1="610" x2="1745" y2="610"/>
			<line class="st1" x1="1756" y1="610" x2="1761" y2="610"/>
			<line class="st3" x1="1747" y1="610" x2="1742" y2="610"/>
			<line class="st1" x1="1692" y1="592" x2="1701" y2="592"/>
			<line class="st1" x1="329" y1="516" x2="395" y2="516"/>
			<line class="st1" x1="412" y1="516" x2="460" y2="516"/>
			<line class="st1" x1="478" y1="516" x2="508" y2="516"/>
			<line class="st1" x1="528" y1="516" x2="606" y2="516"/>
			<line class="st1" x1="623" y1="516" x2="687" y2="516"/>
			<line class="st1" x1="703" y1="516" x2="729" y2="516"/>
			<line class="st1" x1="743" y1="516" x2="753" y2="516"/>
			<line class="st1" x1="633" y1="508" x2="633" y2="516"/>
			<line class="st1" x1="633" y1="493" x2="633" y2="425"/>
			<line class="st1" x1="609" y1="486" x2="596" y2="486"/>
			<line class="st1" x1="624" y1="486" x2="633" y2="486"/>
			<line class="st1" x1="804" y1="516" x2="818" y2="516"/>
			<line class="st1" x1="831" y1="516" x2="851" y2="516"/>
			<line class="st1" x1="868" y1="516" x2="948" y2="516"/>
			<line class="st1" x1="965" y1="516" x2="1006" y2="516"/>
			<line class="st1" x1="1022" y1="516" x2="1044" y2="516"/>
			<line class="st1" x1="1060" y1="516" x2="1100" y2="516"/>
			<line class="st1" x1="1115" y1="516" x2="1178" y2="516"/>
			<line class="st1" x1="1195" y1="516" x2="1241" y2="516"/>
			<line class="st1" x1="1288" y1="516" x2="1307" y2="516"/>
			<line class="st1" x1="1321" y1="516" x2="1343" y2="516"/>
			<line class="st1" x1="1358" y1="516" x2="1406" y2="516"/>
			<line class="st1" x1="1421" y1="516" x2="1454" y2="516"/>
			<line class="st1" x1="1454" y1="552" x2="1454" y2="565"/>
			<line class="st1" x1="1454" y1="565" x2="1532" y2="565"/>
			<line class="st1" x1="1545" y1="565" x2="1589" y2="565"/>
			<line class="st1" x1="1602" y1="565" x2="1649" y2="565"/>
			<line class="st1" x1="1665" y1="565" x2="1737" y2="565"/>
		</g>
		<g>
			<path d="M292.3,444.9c-2.1,0-3.8,1.7-3.8,3.8v22.5c0,2.1,1.7,3.8,3.8,3.8h22.5c2.1,0,3.8-1.7,3.8-3.8v-22.5
				c0-2.1-1.7-3.8-3.8-3.8H292.3z"/>
			<g>
				<polygon class="st4" points="308.8,450.6 308.8,456.6 303,456.6 303,462.6 297.3,462.6 297.3,468.6 292.9,468.6 292.9,471.7 
					299.9,471.7 299.9,465.7 305.7,465.7 305.7,459.7 311.4,459.7 311.4,453.7 315.8,453.7 315.8,450.6 				"/>
				<polygon class="st4" points="294.1,458.6 303.6,448.7 298.3,448.7 298.3,450.1 300.4,450.1 293.3,457.6 				"/>
			</g>
		</g>
		<g>
			<path d="M768,445.1c-2.1,0-3.8,1.7-3.8,3.8v22.5c0,2.1,1.7,3.8,3.8,3.8h22.5c2.1,0,3.8-1.7,3.8-3.8v-22.5c0-2.1-1.7-3.8-3.8-3.8
				H768z"/>
			<g>
				<polygon class="st4" points="784.5,450.8 784.5,456.8 778.7,456.8 778.7,462.8 773,462.8 773,468.8 768.6,468.8 768.6,471.9 
					775.6,471.9 775.6,465.9 781.4,465.9 781.4,459.9 787.1,459.9 787.1,453.9 791.5,453.9 791.5,450.8 				"/>
				<polygon class="st4" points="769.8,458.8 779.3,448.9 774,448.9 774,450.3 776.1,450.3 769,457.8 				"/>
			</g>
		</g>
		<g>
			<path d="M1253.2,446.3c-2.1,0-3.8,1.7-3.8,3.8v22.5c0,2.1,1.7,3.8,3.8,3.8h22.5c2.1,0,3.8-1.7,3.8-3.8V450c0-2.1-1.7-3.8-3.8-3.8
				L1253.2,446.3L1253.2,446.3z"/>
			<g>
				<polygon class="st4" points="1269.7,451.9 1269.7,457.9 1263.9,457.9 1263.9,463.9 1258.2,463.9 1258.2,469.9 1253.8,469.9 
					1253.8,473 1260.9,473 1260.9,467 1266.6,467 1266.6,461 1272.3,461 1272.3,455 1276.7,455 1276.7,451.9 				"/>
				<polygon class="st4" points="1255,459.9 1264.5,450 1259.2,450 1259.2,451.4 1261.3,451.4 1254.2,458.9 				"/>
			</g>
		</g>
		<g>
			<g>
				<path class="st5" d="M767.9,492.8c-0.4-0.4-0.6-0.9-0.6-1.5s0.2-1.1,0.6-1.5c0.4-0.4,1-0.6,1.6-0.6s1.1,0.2,1.6,0.6
					c0.4,0.4,0.6,0.9,0.6,1.5s-0.2,1.1-0.6,1.5c-0.4,0.4-1,0.6-1.6,0.6S768.4,493.2,767.9,492.8z M765.1,503.2
					c0.1,0.1,0.3,0.2,0.5,0.2s0.3-0.1,0.5-0.2c0.1-0.1,0.2-0.3,0.2-0.5V497v-0.3c0-0.1,0-0.2,0.1-0.2s0.2,0,0.2,0c0.1,0,0.1,0,0.2,0
					c0.1,0,0.1,0.1,0.1,0.2v13.5c0,0.3,0.1,0.5,0.3,0.7s0.4,0.3,0.7,0.3s0.5-0.1,0.7-0.3c0.2-0.2,0.3-0.4,0.3-0.7V505v-3
					c0-0.2,0.1-0.2,0.2-0.3s0.2-0.1,0.3-0.1s0.1,0,0.2,0.1c0.1,0,0.2,0.1,0.2,0.3v3v5.3c0,0.3,0.1,0.5,0.3,0.7s0.4,0.3,0.7,0.3
					s0.5-0.1,0.7-0.3c0.2-0.2,0.3-0.4,0.3-0.7v-13.5c0-0.1,0-0.2,0.1-0.2s0.2,0,0.2,0s0.1,0,0.2,0c0.1,0,0.1,0.1,0.1,0.2v0.3v5.6
					c0,0.2,0.1,0.4,0.2,0.5c0.1,0.1,0.3,0.2,0.5,0.2s0.3-0.1,0.5-0.2c0.1-0.1,0.2-0.3,0.2-0.5v-6.2c0-0.6-0.2-1.1-0.6-1.6
					c-0.4-0.5-1-0.7-1.7-0.7H769l0,0h-2.3c-0.7,0-1.2,0.2-1.5,0.7s-0.5,1-0.5,1.6v6.2C764.9,502.9,765,503.1,765.1,503.2z
					 M788.9,485.6c0.3,0.3,0.4,0.6,0.4,1v27c0,0.4-0.1,0.7-0.4,1c-0.3,0.3-0.6,0.4-1,0.4h-26.2c-0.4,0-0.7-0.1-1-0.4
					c-0.3-0.3-0.4-0.6-0.4-1v-27c0-0.4,0.1-0.7,0.4-1c0.3-0.3,0.6-0.4,1-0.4h26.2C788.3,485.2,788.7,485.3,788.9,485.6z M787,487.4
					h-24.5v25.2H787V487.4L787,487.4z M780.1,493.4c0.6,0,1.1-0.2,1.6-0.6c0.4-0.4,0.6-0.9,0.6-1.5s-0.2-1.1-0.6-1.5
					c-0.4-0.4-1-0.6-1.6-0.6s-1.1,0.2-1.6,0.6c-0.4,0.4-0.6,0.9-0.6,1.5s0.2,1.1,0.6,1.5C778.9,493.2,779.5,493.4,780.1,493.4z
					 M775.7,503.2c0.1,0.1,0.3,0.2,0.5,0.2s0.3-0.1,0.5-0.2c0.1-0.1,0.2-0.3,0.2-0.5V497v-0.3c0-0.1,0-0.2,0.1-0.2s0.2,0,0.2,0
					s0.1,0,0.2,0c0.1,0,0.1,0.1,0.1,0.2v13.5c0,0.3,0.1,0.5,0.3,0.7s0.4,0.3,0.7,0.3s0.5-0.1,0.7-0.3c0.2-0.2,0.3-0.4,0.3-0.7V505
					v-3c0-0.2,0.1-0.2,0.2-0.3s0.2-0.1,0.3-0.1s0.2,0,0.3,0.1c0.1,0,0.2,0.1,0.2,0.3v3v5.3c0,0.3,0.1,0.5,0.3,0.7s0.4,0.3,0.7,0.3
					s0.5-0.1,0.7-0.3c0.2-0.2,0.3-0.4,0.3-0.7v-13.5c0-0.1,0-0.2,0.1-0.2s0.2,0,0.2,0s0.1,0,0.2,0c0.1,0,0.1,0.1,0.1,0.2v0.3v5.6
					c0,0.2,0.1,0.4,0.2,0.5c0.1,0.1,0.3,0.2,0.5,0.2s0.3-0.1,0.5-0.2c0.1-0.1,0.2-0.3,0.2-0.5v-6.2c0-0.6-0.2-1.1-0.6-1.6
					c-0.4-0.5-1-0.7-1.7-0.7h-2.4l0,0l0,0h-2.2c-0.7,0-1.2,0.2-1.6,0.7c-0.3,0.5-0.5,1-0.5,1.6v6.2
					C775.5,502.9,775.5,503.1,775.7,503.2z M799.6,509.6c-0.8,0-2.1,0-2.1,0s0-0.3,0-0.9c0-1.6,0-4.7,0-5.9c0,0,0-0.3-0.4-0.3
					s-2.6,0-3.1,0s-0.4,0.3-0.4,0.3c0,1.2,0,4.2,0,5.9c0,0.6,0,1,0,1s-1.6,0-2.2,0s-0.1,0.6-0.1,0.6l4,4.7c0,0,0.3,0.4,0.7,0
					c0.5-0.5,3.8-4.9,3.8-4.9S800.4,509.6,799.6,509.6z M791.5,491.2c0.8,0,2.1,0,2.1,0s0,0.3,0,0.9c0,1.6,0,4.7,0,5.9
					c0,0,0,0.3,0.4,0.3s2.6,0,3.1,0s0.4-0.3,0.4-0.3c0-1.2,0-4.2,0-5.9c0-0.6,0-1,0-1s1.6,0,2.2,0c0.7,0,0.1-0.6,0.1-0.6l-4-4.7
					c0,0-0.3-0.4-0.7,0c-0.5,0.5-3.8,4.9-3.8,4.9S790.7,491.2,791.5,491.2z"/>
			</g>
		</g>
		<g>
			<path d="M1817.5,600.6c-2.1,0-3.8,1.7-3.8,3.8v22.5c0,2.1,1.7,3.8,3.8,3.8h22.5c2.1,0,3.8-1.7,3.8-3.8v-22.5
				c0-2.1-1.7-3.8-3.8-3.8H1817.5z"/>
			<g>
				<polygon class="st4" points="1834,606.2 1834,612.2 1828.3,612.2 1828.3,618.2 1822.5,618.2 1822.5,624.2 1818.1,624.2 
					1818.1,627.3 1825.2,627.3 1825.2,621.3 1830.9,621.3 1830.9,615.3 1836.7,615.3 1836.7,609.3 1841.1,609.3 1841.1,606.2 				
					"/>
				<polygon class="st4" points="1819.4,614.3 1828.8,604.4 1823.5,604.4 1823.5,605.8 1825.7,605.8 1818.5,613.2 				"/>
			</g>
		</g>
		<g>
			<g>
				<path class="st5" d="M248.6,488.5c0,0.8,0.4,1.3,1.2,1.3s1.2-0.4,1.2-1.3V477h1.3v11.4c0,0.8,0.4,1.3,1.2,1.3s1.2-0.4,1.2-1.3
					V469h0.6v7c0,0.4,0.2,0.8,0.5,1s0.6,0.2,0.9,0c0.3-0.2,0.5-0.5,0.5-1v-7.5c0-0.8-0.3-1.4-0.8-1.9c-0.5-0.4-1.3-0.7-2.3-0.7h-5
					c-0.9,0-1.7,0.2-2.3,0.6s-0.9,1-0.9,1.9v8c0,0.4,0.2,0.6,0.5,0.8c0.3,0.2,0.6,0.2,0.9,0c0.3-0.2,0.5-0.4,0.5-0.8V469h0.6v19.5
					H248.6z"/>
				<path class="st5" d="M249.1,462.3c0,0.7,0.3,1.3,0.8,1.8s1.1,0.8,1.8,0.8s1.3-0.3,1.8-0.8s0.8-1.1,0.8-1.8
					c0-0.7-0.3-1.3-0.8-1.8s-1.1-0.8-1.8-0.8s-1.3,0.3-1.8,0.8S249.1,461.6,249.1,462.3z"/>
			</g>
			<text transform="matrix(0.6639 0 0 1 261.2871 480.7373)" class="st6 st7">WC</text>
			<text transform="matrix(0.6639 0 0 1 261.2871 480.7373)" class="st8 st6 st7">WC</text>
		</g>
		<g>
			<g>
				<path class="st5" d="M1299,488.8c0,0.8,0.4,1.3,1.2,1.3c0.8,0,1.2-0.4,1.2-1.3v-11.4h1.3v11.4c0,0.8,0.4,1.3,1.2,1.3
					s1.2-0.4,1.2-1.3v-19.4h0.6v7c0,0.4,0.2,0.8,0.5,1s0.6,0.2,0.9,0s0.5-0.5,0.5-1v-7.5c0-0.8-0.3-1.4-0.8-1.9
					c-0.5-0.4-1.3-0.7-2.3-0.7h-5c-0.9,0-1.7,0.2-2.3,0.6c-0.6,0.4-0.9,1-0.9,1.9v8c0,0.4,0.2,0.6,0.5,0.8s0.6,0.2,0.9,0
					s0.5-0.4,0.5-0.8v-7.4h0.6v19.4H1299z"/>
				<path class="st5" d="M1299.5,462.7c0,0.7,0.3,1.3,0.8,1.8s1.1,0.8,1.8,0.8s1.3-0.3,1.8-0.8s0.8-1.1,0.8-1.8
					c0-0.7-0.3-1.3-0.8-1.8s-1.1-0.8-1.8-0.8s-1.3,0.3-1.8,0.8S1299.5,462,1299.5,462.7z"/>
			</g>
			<text transform="matrix(0.6639 0 0 1 1311.709 481.1221)" class="st6 st7">WC</text>
			<text transform="matrix(0.6639 0 0 1 1311.709 481.1221)" class="st8 st6 st7">WC</text>
		</g>
		<g>
			<text transform="matrix(0.5672 0 0 1 823.2109 478.6499)" class="st6 st9">WC</text>
			<text transform="matrix(0.5672 0 0 1 823.2109 478.6499)" class="st8 st6 st9">WC</text>
			<g>
				<path class="st5" d="M819.9,477.7l-3.4-10l-0.1-0.1c0-0.2,0.1-0.3,0.3-0.3c0.1,0,0.2,0.1,0.2,0.2l2.3,6.5
					c0.2,0.4,0.6,0.7,1.2,0.7c0.2,0,0.4-0.2,0.5-0.5s0.1-0.6,0.1-0.7l-2.4-6.2c-0.1-0.8-0.4-1.4-1-1.9s-1.3-0.8-2.1-0.8h-3
					c-0.8,0-1.5,0.3-2.1,0.8s-1,1.2-1.1,1.9l-2.2,6.3c-0.1,0.1-0.1,0.4,0.1,0.7s0.3,0.5,0.5,0.5c0.7,0,1.1-0.2,1.2-0.6l2.3-6.5
					c0-0.1,0.1-0.2,0.2-0.2c0.2,0,0.2,0.1,0.2,0.2v0.1l-3.3,10.1v0.8c0,0.1,0.1,0.2,0.3,0.4c0.2,0.2,0.3,0.3,0.4,0.3h2.2v7.8
					c0,0.3,0.1,0.6,0.4,0.8c0.2,0.2,0.5,0.4,0.8,0.4s0.6-0.1,0.8-0.4s0.3-0.5,0.3-0.8v-8.1c0,0,0.1-0.1,0.3-0.1s0.4,0,0.6,0
					c0.2,0,0.3,0.1,0.3,0.1v8c0,0.3,0.1,0.6,0.3,0.9s0.5,0.4,0.8,0.4s0.6-0.1,0.8-0.4s0.3-0.6,0.3-0.9v-7.7h2.2
					c0.1,0,0.2-0.1,0.4-0.3c0.2-0.2,0.2-0.3,0.2-0.4v-0.2v-0.2v-0.2v-0.4H819.9z"/>
				<path class="st5" d="M811.7,460.8c0,0.7,0.2,1.3,0.7,1.8s1,0.8,1.7,0.8s1.2-0.3,1.7-0.8s0.7-1.1,0.7-1.8c0-0.7-0.2-1.3-0.7-1.8
					s-1-0.8-1.7-0.8s-1.2,0.3-1.7,0.8S811.7,460.1,811.7,460.8z"/>
			</g>
		</g>
		<g>
			<circle cx="205.1" cy="474" r="15"/>
			<text transform="matrix(0.9649 0 0 1 194.9995 477.9824)" class="st4 st6 st10">453</text>
			<text transform="matrix(0.9649 0 0 1 194.9995 477.9824)" class="st11 st6 st10">453</text>
		</g>
		<g>
			<circle cx="123.6" cy="537.7" r="15"/>
			<text transform="matrix(0.9649 0 0 1 113.4907 541.6523)" class="st4 st6 st10">452</text>
			<text transform="matrix(0.9649 0 0 1 113.4907 541.6523)" class="st11 st6 st10">452</text>
		</g>
		<g>
			<circle cx="542.6" cy="473.7" r="15"/>
			<text transform="matrix(0.9649 0 0 1 532.4907 477.6528)" class="st4 st6 st10">458</text>
			<text transform="matrix(0.9649 0 0 1 532.4907 477.6528)" class="st11 st6 st10">458</text>
		</g>
		<g>
			<circle cx="386.6" cy="473.7" r="15"/>
			<text transform="matrix(0.9649 0 0 1 376.4907 477.6528)" class="st4 st6 st10">456</text>
			<text transform="matrix(0.9649 0 0 1 376.4907 477.6528)" class="st11 st6 st10">456</text>
		</g>
		<g>
			<circle cx="567.6" cy="599.7" r="15"/>
			<text transform="matrix(0.9649 0 0 1 557.4907 603.6523)" class="st4 st6 st10">444</text>
			<text transform="matrix(0.9649 0 0 1 557.4907 603.6523)" class="st11 st6 st10">444</text>
		</g>
		<g>
			<circle cx="190.9" cy="599.6" r="15"/>
			<text transform="matrix(0.9649 0 0 1 180.7891 603.5645)" class="st4 st6 st10">450</text>
			<text transform="matrix(0.9649 0 0 1 180.7891 603.5645)" class="st11 st6 st10">450</text>
		</g>
		<g>
			<circle cx="358.4" cy="599.2" r="15"/>
			<text transform="matrix(0.9649 0 0 1 348.2803 603.2354)" class="st4 st6 st10">449</text>
			<text transform="matrix(0.9649 0 0 1 348.2803 603.2354)" class="st11 st6 st10">449</text>
		</g>
		<g>
			<circle cx="463.4" cy="599.2" r="15"/>
			<text transform="matrix(0.9649 0 0 1 453.2803 603.2354)" class="st4 st6 st10">447</text>
			<text transform="matrix(0.9649 0 0 1 453.2803 603.2354)" class="st11 st6 st10">447</text>
		</g>
		<g>
			<circle cx="470.4" cy="474.2" r="15"/>
			<text transform="matrix(0.9649 0 0 1 460.2803 478.2354)" class="st4 st6 st10">457</text>
			<text transform="matrix(0.9649 0 0 1 460.2803 478.2354)" class="st11 st6 st10">457</text>
		</g>
		<g>
			<circle cx="1679.9" cy="500.6" r="15"/>
			<text transform="matrix(0.9649 0 0 1 1669.7891 504.5649)" class="st4 st6 st10">416</text>
			<text transform="matrix(0.9649 0 0 1 1669.7891 504.5649)" class="st11 st6 st10">416</text>
		</g>
		<g>
			<circle cx="1798.4" cy="500.2" r="15"/>
			<text transform="matrix(0.9649 0 0 1 1788.2803 504.2354)" class="st4 st6 st10">417</text>
			<text transform="matrix(0.9649 0 0 1 1788.2803 504.2354)" class="st11 st6 st10">417</text>
		</g>
		<g>
			<circle cx="1412.4" cy="617.2" r="15"/>
			<text transform="matrix(0.9649 0 0 1 1402.2803 621.2354)" class="st4 st6 st10">426</text>
			<text transform="matrix(0.9649 0 0 1 1402.2803 621.2354)" class="st11 st6 st10">426</text>
		</g>
		<g>
			<circle cx="1469.4" cy="618.2" r="15"/>
			<text transform="matrix(0.9468 0 0 1 1456.2803 622.2266)" class="st4 st6 st12">427А</text>
			<text transform="matrix(0.9468 0 0 1 1456.2803 622.2266)" class="st11 st6 st12">427А</text>
		</g>
		<g>
			<circle cx="1506.4" cy="618.2" r="15"/>
			<text transform="matrix(0.915 0 0 1 1494.2803 622.2266)" class="st4 st6 st12">427Б</text>
			<text transform="matrix(0.915 0 0 1 1494.2803 622.2266)" class="st11 st6 st12">427Б</text>
		</g>
		<g>
			<circle cx="1541.9" cy="618.7" r="15"/>
			<text transform="matrix(0.9607 0 0 1 1529.79 622.3516)" class="st4 st6 st13">427В</text>
			<text transform="matrix(0.9607 0 0 1 1529.79 622.3516)" class="st11 st6 st13">427В</text>
		</g>
		<g>
			<circle cx="1576.4" cy="619.4" r="15"/>
			<text transform="matrix(0.9649 0 0 1 1566.2812 623.3613)" class="st4 st6 st10">428</text>
			<text transform="matrix(0.9649 0 0 1 1566.2812 623.3613)" class="st11 st6 st10">428</text>
		</g>
		<g>
			<circle cx="1625.4" cy="619.4" r="15"/>
			<text transform="matrix(0.9649 0 0 1 1615.2812 623.3613)" class="st4 st6 st10">429</text>
			<text transform="matrix(0.9649 0 0 1 1615.2812 623.3613)" class="st11 st6 st10">429</text>
		</g>
		<g>
			<circle cx="1727.2" cy="625.2" r="14"/>
			<text transform="matrix(0.8332 0 0 1 1714.9727 629.2383)" class="st4 st6 st14">430А</text>
			<text transform="matrix(0.8332 0 0 1 1714.9727 629.2383)" class="st11 st6 st14">430А</text>
		</g>
		<g>
			<circle cx="1276.4" cy="599.4" r="15"/>
			<text transform="matrix(0.9649 0 0 1 1266.2812 603.3613)" class="st4 st6 st10">441</text>
			<text transform="matrix(0.9649 0 0 1 1266.2812 603.3613)" class="st11 st6 st10">441</text>
		</g>
		<g>
			<circle cx="1230.7" cy="599.3" r="15"/>
			<text transform="matrix(0.9649 0 0 1 1220.5791 603.2734)" class="st4 st6 st10">432</text>
			<text transform="matrix(0.9649 0 0 1 1220.5791 603.2734)" class="st11 st6 st10">432</text>
		</g>
		<g>
			<circle cx="886.1" cy="472" r="15"/>
			<text transform="matrix(0.9649 0 0 1 876.0703 475.9438)" class="st4 st6 st10">403</text>
			<text transform="matrix(0.9649 0 0 1 876.0703 475.9438)" class="st11 st6 st10">403</text>
		</g>
		<g>
			<circle cx="958.1" cy="472" r="15"/>
			<text transform="matrix(0.9649 0 0 1 948.0703 475.9438)" class="st4 st6 st10">404</text>
			<text transform="matrix(0.9649 0 0 1 948.0703 475.9438)" class="st11 st6 st10">404</text>
		</g>
		<g>
			<circle cx="1011.1" cy="471" r="15"/>
			<text transform="matrix(0.8987 0 0 1 999.0703 475.146)" class="st4 st6 st15">404А</text>
			<text transform="matrix(0.8987 0 0 1 999.0703 475.146)" class="st11 st6 st15">404А</text>
		</g>
		<g>
			<circle cx="1060.1" cy="471" r="15"/>
			<text transform="matrix(0.9649 0 0 1 1050.0703 474.9438)" class="st4 st6 st10">405</text>
			<text transform="matrix(0.9649 0 0 1 1050.0703 474.9438)" class="st11 st6 st10">405</text>
		</g>
		<g>
			<circle cx="1341.6" cy="599.6" r="15"/>
			<text transform="matrix(0.9649 0 0 1 1331.5586 603.6143)" class="st4 st6 st10">425</text>
			<text transform="matrix(0.9649 0 0 1 1331.5586 603.6143)" class="st11 st6 st10">425</text>
		</g>
		<g>
			<circle cx="613.1" cy="460.3" r="15"/>
			<text transform="matrix(0.9649 0 0 1 603.0503 464.2847)" class="st4 st6 st10">459</text>
			<text transform="matrix(0.9649 0 0 1 603.0503 464.2847)" class="st11 st6 st10">459</text>
		</g>
		<g>
			<circle cx="652.1" cy="473.3" r="15"/>
			<text transform="matrix(0.9649 0 0 1 642.0503 477.2847)" class="st4 st6 st10">460</text>
			<text transform="matrix(0.9649 0 0 1 642.0503 477.2847)" class="st11 st6 st10">460</text>
		</g>
		<g>
			<circle cx="693.1" cy="474.3" r="15"/>
			<text transform="matrix(0.9649 0 0 1 683.0503 478.2847)" class="st4 st6 st10">461</text>
			<text transform="matrix(0.9649 0 0 1 683.0503 478.2847)" class="st11 st6 st10">461</text>
		</g>
		<g>
			<circle cx="735.1" cy="474.3" r="15"/>
			<text transform="matrix(0.9649 0 0 1 725.0503 478.2847)" class="st4 st6 st10">462</text>
			<text transform="matrix(0.9649 0 0 1 725.0503 478.2847)" class="st11 st6 st10">462</text>
		</g>
		<g>
			<circle cx="1160.4" cy="471.2" r="15"/>
			<text transform="matrix(0.9649 0 0 1 1150.3486 475.1968)" class="st4 st6 st10">407</text>
			<text transform="matrix(0.9649 0 0 1 1150.3486 475.1968)" class="st11 st6 st10">407</text>
		</g>
		<g>
			<circle cx="1420.9" cy="470.9" r="15"/>
			<text transform="matrix(0.9649 0 0 1 1410.8398 474.8672)" class="st4 st6 st10">412</text>
			<text transform="matrix(0.9649 0 0 1 1410.8398 474.8672)" class="st11 st6 st10">412</text>
		</g>
		<g>
			<circle cx="1480.9" cy="500.9" r="15"/>
			<text transform="matrix(0.9649 0 0 1 1470.8398 504.8672)" class="st4 st6 st10">413</text>
			<text transform="matrix(0.9649 0 0 1 1470.8398 504.8672)" class="st11 st6 st10">413</text>
		</g>
		<g>
			<circle cx="1541.9" cy="500.9" r="15"/>
			<text transform="matrix(0.9649 0 0 1 1531.8398 504.8672)" class="st4 st6 st10">414</text>
			<text transform="matrix(0.9649 0 0 1 1531.8398 504.8672)" class="st11 st6 st10">414</text>
		</g>
		<g>
			<circle cx="1598.9" cy="500.9" r="15"/>
			<text transform="matrix(0.9649 0 0 1 1588.8398 504.8672)" class="st4 st6 st10">415</text>
			<text transform="matrix(0.9649 0 0 1 1588.8398 504.8672)" class="st11 st6 st10">415</text>
		</g>
		<g>
			<circle cx="643.6" cy="600.6" r="15"/>
			<text transform="matrix(0.9649 0 0 1 633.5698 604.6143)" class="st4 st6 st10">442</text>
			<text transform="matrix(0.9649 0 0 1 633.5698 604.6143)" class="st11 st6 st10">442</text>
		</g>
		<g>
			<circle cx="708.1" cy="600.3" r="15"/>
			<text transform="matrix(0.9649 0 0 1 698.061 604.2842)" class="st4 st6 st10">441</text>
			<text transform="matrix(0.9649 0 0 1 698.061 604.2842)" class="st11 st6 st10">441</text>
		</g>
		<g>
			<circle cx="1680.1" cy="619.3" r="15"/>
			<text transform="matrix(0.9649 0 0 1 1670.0615 623.2842)" class="st4 st6 st10">430</text>
			<text transform="matrix(0.9649 0 0 1 1670.0615 623.2842)" class="st11 st6 st10">430</text>
		</g>
		<g>
			<circle cx="782.1" cy="600.3" r="15"/>
			<text transform="matrix(0.9649 0 0 1 772.0615 604.2842)" class="st4 st6 st10">439</text>
			<text transform="matrix(0.9649 0 0 1 772.0615 604.2842)" class="st11 st6 st10">439</text>
		</g>
		<g>
			<circle cx="886.4" cy="599.2" r="15"/>
			<text transform="matrix(0.9649 0 0 1 876.3594 603.1963)" class="st4 st6 st10">437</text>
			<text transform="matrix(0.9649 0 0 1 876.3594 603.1963)" class="st11 st6 st10">437</text>
		</g>
		<g>
			<circle cx="970.9" cy="598.9" r="15"/>
			<text transform="matrix(0.9649 0 0 1 960.8506 602.8672)" class="st4 st6 st10">436</text>
			<text transform="matrix(0.9649 0 0 1 960.8506 602.8672)" class="st11 st6 st10">436</text>
		</g>
		<g>
			<circle cx="1037.9" cy="598.9" r="15"/>
			<text transform="matrix(0.9649 0 0 1 1027.8506 602.8672)" class="st4 st6 st10">435</text>
			<text transform="matrix(0.9649 0 0 1 1027.8506 602.8672)" class="st11 st6 st10">435</text>
		</g>
		<g>
			<circle cx="1088.9" cy="598.9" r="15"/>
			<text transform="matrix(0.9649 0 0 1 1078.8506 602.8672)" class="st4 st6 st10">434</text>
			<text transform="matrix(0.9649 0 0 1 1078.8506 602.8672)" class="st11 st6 st10">434</text>
		</g>
		<g>
			<circle cx="1158.9" cy="598.9" r="15"/>
			<text transform="matrix(0.9649 0 0 1 1148.8506 602.8672)" class="st4 st6 st10">433</text>
			<text transform="matrix(0.9649 0 0 1 1148.8506 602.8672)" class="st11 st6 st10">433</text>
		</g>
	</g>
	<g>
		<text transform="matrix(1.5759 0 0 1 172.0389 316.9589)" class="st6 st16">ЭТАЖ</text>
		<circle class="st17" cx="119" cy="296.4" r="35"/>
		<text transform="matrix(1.208 0 0 1 107.5252 311.7186)" class="st4 st6 st18">4</text>
	</g>
</g>
</svg>
