<?xml version="1.0" encoding="utf-8"?>
<!-- Generator: Adobe Illustrator 27.3.1, SVG Export Plug-In . SVG Version: 6.00 Build 0)  -->
<svg version="1.1" id="Слой_1" xmlns="http://www.w3.org/2000/svg" xmlns:xlink="http://www.w3.org/1999/xlink" x="0px" y="0px"
	 viewBox="0 0 1920 1080" style="enable-background:new 0 0 1920 1080;" xml:space="preserve">
<style type="text/css">
	.st0{fill:#94C4FF;stroke:#FFFFFF;stroke-width:4;stroke-linecap:square;stroke-miterlimit:10;}
	.st1{fill:none;stroke:#FFFFFF;stroke-width:2;stroke-linecap:square;stroke-miterlimit:10;}
	.st2{fill:none;stroke:#FFFFFF;stroke-width:2;stroke-miterlimit:10;}
	.st3{fill:none;stroke:#FFFFFF;stroke-width:2;stroke-linecap:round;stroke-miterlimit:10;}
	.st4{fill:#FFFFFF;}
	.st5{fill:#010002;}
	.st6{font-family:'ArialMT';}
	.st7{font-size:6.5287px;}
	.st8{fill:none;stroke:#000000;stroke-width:0.25;stroke-miterlimit:10;}
	.st9{font-size:5.8158px;}
	.st10{fill:#FFFFFF;stroke:#FFFFFF;stroke-width:0.5;stroke-miterlimit:10;}
	.st11{font-size:13.6111px;}
	.st12{font-size:10.004px;}
	.st13{font-size:9.9452px;}
	.st14{font-size:51.0659px;}
	.st15{stroke:#000000;stroke-linecap:round;stroke-miterlimit:10;}
	.st16{font-family:'MyriadPro-Regular';}
	.st17{font-size:47.8382px;}
</style>
<g>
	<g>
		<polyline class="st0" points="835,621 692,621 692,803 712,803 712,951 1250,951 1250,807 1202,807 1202,783 1165,783 1165,801 
			835,801 835,381 854,381 854,310 835,310 835,199 671,199 671,621 692,621 		"/>
		<g>
			<line class="st1" x1="756" y1="738" x2="692" y2="738"/>
			<line class="st1" x1="768" y1="738" x2="835" y2="738"/>
			<line class="st1" x1="752" y1="802" x2="714" y2="802"/>
			<line class="st1" x1="773" y1="802" x2="834" y2="802"/>
			<line class="st1" x1="752" y1="776" x2="752" y2="802"/>
			<line class="st1" x1="773" y1="776" x2="773" y2="802"/>
			<line class="st1" x1="773" y1="763" x2="773" y2="738"/>
			<line class="st1" x1="752" y1="763" x2="752" y2="738"/>
			<line class="st2" x1="712" y1="887" x2="780" y2="887"/>
			<line class="st2" x1="804" y1="887" x2="804" y2="951"/>
			<line class="st2" x1="840" y1="887" x2="840" y2="951"/>
			<line class="st2" x1="947" y1="887" x2="947" y2="948"/>
			<line class="st2" x1="1015" y1="887" x2="1015" y2="951"/>
			<line class="st2" x1="1088" y1="887" x2="1088" y2="951"/>
			<line class="st2" x1="1178" y1="887" x2="1178" y2="951"/>
			<line class="st2" x1="814" y1="887" x2="792" y2="887"/>
			<line class="st2" x1="902" y1="887" x2="826" y2="887"/>
			<line class="st2" x1="914" y1="887" x2="968" y2="887"/>
			<line class="st2" x1="981" y1="887" x2="1062" y2="887"/>
			<line class="st2" x1="1074" y1="887" x2="1101" y2="887"/>
			<line class="st2" x1="1216" y1="887" x2="1115" y2="887"/>
			<line class="st2" x1="1229" y1="887" x2="1250" y2="887"/>
			<line class="st2" x1="1201" y1="873" x2="1201" y2="887"/>
			<line class="st2" x1="1201" y1="861" x2="1201" y2="808"/>
			<line class="st2" x1="760" y1="842" x2="760" y2="887"/>
			<line class="st3" x1="760" y1="828" x2="760" y2="810"/>
			<line class="st3" x1="752" y1="802" x2="760" y2="810"/>
			<line class="st2" x1="760" y1="830" x2="760" y2="825"/>
			<line class="st2" x1="834" y1="840" x2="834" y2="865"/>
			<line class="st1" x1="917" y1="865" x2="834" y2="865"/>
			<line class="st1" x1="912" y1="801" x2="912" y2="865"/>
			<line class="st1" x1="1166" y1="804" x2="1166" y2="865"/>
			<line class="st1" x1="747" y1="484" x2="671" y2="484"/>
			<line class="st1" x1="776" y1="416" x2="835" y2="416"/>
			<line class="st2" x1="776" y1="380" x2="835" y2="380"/>
			<line class="st2" x1="747" y1="380" x2="671" y2="380"/>
			<line class="st1" x1="776" y1="575" x2="835" y2="575"/>
			<line class="st2" x1="776" y1="534" x2="835" y2="534"/>
			<line class="st1" x1="778" y1="454" x2="835" y2="454"/>
			<line class="st1" x1="778" y1="493" x2="835" y2="493"/>
			<line class="st2" x1="747" y1="410" x2="747" y2="504"/>
			<line class="st2" x1="747" y1="520" x2="747" y2="621"/>
			<line class="st1" x1="747" y1="396" x2="747" y2="380"/>
			<line class="st1" x1="776" y1="391" x2="776" y2="380"/>
			<line class="st1" x1="776" y1="403" x2="776" y2="425"/>
			<line class="st1" x1="776" y1="440" x2="776" y2="465"/>
			<line class="st1" x1="776" y1="479" x2="776" y2="504"/>
			<line class="st1" x1="776" y1="521" x2="776" y2="548"/>
			<line class="st1" x1="776" y1="562" x2="776" y2="575"/>
			<line class="st2" x1="726" y1="329" x2="671" y2="329"/>
			<line class="st1" x1="739" y1="329" x2="747" y2="329"/>
			<line class="st1" x1="747" y1="277" x2="747" y2="329"/>
			<line class="st1" x1="747" y1="363" x2="747" y2="381"/>
			<line class="st1" x1="747" y1="346" x2="747" y2="329"/>
			<line class="st1" x1="834" y1="311" x2="776" y2="311"/>
			<line class="st1" x1="763" y1="311" x2="748" y2="311"/>
			<line class="st1" x1="747" y1="277" x2="671" y2="277"/>
			<line class="st2" x1="934" y1="866" x2="934" y2="802"/>
			<line class="st2" x1="956" y1="865" x2="956" y2="801"/>
			<line class="st2" x1="1029" y1="866" x2="1029" y2="801"/>
			<line class="st2" x1="1101" y1="865" x2="1101" y2="801"/>
			<line class="st1" x1="927" y1="865" x2="938" y2="865"/>
			<line class="st1" x1="950" y1="865" x2="966" y2="865"/>
			<line class="st1" x1="978" y1="865" x2="1064" y2="865"/>
			<line class="st1" x1="1076" y1="865" x2="1140" y2="865"/>
			<line class="st1" x1="1151" y1="865" x2="1166" y2="865"/>
		</g>
		<g>
			<path d="M796.3,314.7c-1.3,0-2.4,1.1-2.4,2.4v14.4c0,1.3,1.1,2.4,2.4,2.4h14.4c1.3,0,2.4-1.1,2.4-2.4v-14.4
				c0-1.3-1.1-2.4-2.4-2.4L796.3,314.7L796.3,314.7z"/>
			<g>
				<polygon class="st4" points="806.9,318.4 806.9,322.2 803.2,322.2 803.2,326.1 799.5,326.1 799.5,329.9 796.7,329.9 
					796.7,331.9 801.2,331.9 801.2,328.1 804.9,328.1 804.9,324.2 808.6,324.2 808.6,320.4 811.4,320.4 811.4,318.4 				"/>
				<polygon class="st4" points="797.5,323.5 803.6,317.2 800.2,317.2 800.2,318.1 801.6,318.1 797,322.9 				"/>
			</g>
		</g>
		<g>
			<g>
				<path class="st5" d="M797.8,340.9c-0.3-0.2-0.5-0.5-0.5-0.9c0-0.4,0.2-0.7,0.5-0.9s0.7-0.4,1.1-0.4c0.4,0,0.8,0.1,1.1,0.4
					c0.3,0.2,0.5,0.5,0.5,0.9c0,0.4-0.2,0.7-0.5,0.9c-0.3,0.2-0.7,0.4-1.1,0.4C798.5,341.3,798.1,341.2,797.8,340.9z M795.7,347
					c0.1,0.1,0.2,0.1,0.3,0.1c0.1,0,0.2,0,0.3-0.1c0.1-0.1,0.1-0.2,0.1-0.3v-3.3v-0.2c0-0.1,0-0.1,0.1-0.1c0.1,0,0.1,0,0.2,0
					c0,0,0.1,0,0.2,0c0.1,0,0.1,0.1,0.1,0.1v7.9c0,0.2,0.1,0.3,0.2,0.4s0.3,0.2,0.5,0.2s0.4-0.1,0.5-0.2c0.1-0.1,0.2-0.2,0.2-0.4
					V348v-1.7c0-0.1,0-0.1,0.1-0.2c0.1,0,0.2,0,0.2,0c0,0,0.1,0,0.2,0c0.1,0,0.1,0.1,0.1,0.2v1.7v3.1c0,0.2,0.1,0.3,0.2,0.4
					s0.3,0.2,0.5,0.2c0.2,0,0.4-0.1,0.5-0.2c0.1-0.1,0.2-0.2,0.2-0.4l0-7.9c0-0.1,0-0.1,0.1-0.1c0.1,0,0.1,0,0.2,0c0,0,0.1,0,0.2,0
					c0.1,0,0.1,0.1,0.1,0.1v0.2v3.3c0,0.1,0,0.2,0.1,0.3c0.1,0.1,0.2,0.1,0.3,0.1s0.2,0,0.3-0.1c0.1-0.1,0.1-0.2,0.1-0.3V343
					c0-0.4-0.1-0.7-0.4-0.9c-0.3-0.3-0.7-0.4-1.2-0.4h-1.8h0h-1.7c-0.5,0-0.9,0.1-1.1,0.4s-0.3,0.6-0.3,0.9v3.6
					C795.6,346.8,795.6,346.9,795.7,347z M813,336.7c0.2,0.1,0.3,0.3,0.3,0.6V353c0,0.2-0.1,0.4-0.3,0.6c-0.2,0.1-0.4,0.2-0.7,0.2
					h-19c-0.3,0-0.5-0.1-0.7-0.2c-0.2-0.1-0.3-0.3-0.3-0.6v-15.7c0-0.2,0.1-0.4,0.3-0.6c0.2-0.1,0.4-0.2,0.7-0.2h19
					C812.5,336.5,812.8,336.6,813,336.7z M811.6,337.8h-17.7v14.6h17.7V337.8L811.6,337.8z M806.6,341.3c0.4,0,0.8-0.1,1.1-0.4
					c0.3-0.2,0.5-0.5,0.5-0.9c0-0.4-0.2-0.7-0.5-0.9c-0.3-0.2-0.7-0.4-1.1-0.4c-0.4,0-0.8,0.1-1.1,0.4c-0.3,0.2-0.5,0.5-0.5,0.9
					c0,0.4,0.2,0.7,0.5,0.9S806.1,341.3,806.6,341.3z M803.4,347c0.1,0.1,0.2,0.1,0.3,0.1s0.2,0,0.3-0.1c0.1-0.1,0.1-0.2,0.1-0.3
					v-3.3v-0.2c0-0.1,0-0.1,0.1-0.1c0.1,0,0.1,0,0.2,0c0,0,0.1,0,0.2,0c0.1,0,0.1,0.1,0.1,0.1v7.9c0,0.2,0.1,0.3,0.2,0.4
					s0.3,0.2,0.5,0.2c0.2,0,0.4-0.1,0.5-0.2c0.1-0.1,0.2-0.2,0.2-0.4V348v-1.7c0-0.1,0-0.1,0.1-0.2c0.1,0,0.2,0,0.2,0
					c0,0,0.1,0,0.2,0c0.1,0,0.1,0.1,0.1,0.2v1.7v3.1c0,0.2,0.1,0.3,0.2,0.4c0.1,0.1,0.3,0.2,0.5,0.2c0.2,0,0.4-0.1,0.5-0.2
					c0.1-0.1,0.2-0.2,0.2-0.4v-7.9c0-0.1,0-0.1,0.1-0.1c0.1,0,0.1,0,0.2,0c0,0,0.1,0,0.2,0s0.1,0.1,0.1,0.1v0.2v3.3
					c0,0.1,0,0.2,0.1,0.3c0.1,0.1,0.2,0.1,0.3,0.1c0.1,0,0.2,0,0.3-0.1c0.1-0.1,0.1-0.2,0.1-0.3V343c0-0.4-0.2-0.7-0.5-0.9
					c-0.3-0.3-0.7-0.4-1.2-0.4h-1.8h0h0h-1.6c-0.5,0-0.9,0.1-1.1,0.4c-0.2,0.3-0.4,0.6-0.4,0.9v3.6
					C803.2,346.8,803.3,346.9,803.4,347z M820.7,350.7c-0.6,0-1.5,0-1.5,0s0-0.2,0-0.5c0-0.9,0-2.7,0-3.4c0,0,0-0.2-0.3-0.2
					s-1.9,0-2.3,0s-0.3,0.2-0.3,0.2c0,0.7,0,2.5,0,3.4c0,0.3,0,0.6,0,0.6s-1.1,0-1.6,0c-0.5,0,0,0.3,0,0.3l2.9,2.7
					c0,0,0.2,0.2,0.5,0c0.3-0.3,2.8-2.8,2.8-2.8S821.3,350.7,820.7,350.7z M814.8,340c0.6,0,1.5,0,1.5,0s0,0.2,0,0.5
					c0,0.9,0,2.7,0,3.4c0,0,0,0.2,0.3,0.2s1.9,0,2.3,0s0.3-0.2,0.3-0.2c0-0.7,0-2.5,0-3.4c0-0.3,0-0.6,0-0.6s1.1,0,1.6,0
					c0.5,0,0-0.3,0-0.3l-2.9-2.7c0,0-0.2-0.2-0.5,0c-0.3,0.3-2.8,2.8-2.8,2.8S814.3,340,814.8,340z"/>
			</g>
		</g>
		<g>
			<path d="M795.8,357c-1.3,0-2.4,1.1-2.4,2.4v14.4c0,1.3,1.1,2.4,2.4,2.4h14.4c1.3,0,2.4-1.1,2.4-2.4v-14.4c0-1.3-1.1-2.4-2.4-2.4
				L795.8,357L795.8,357z"/>
			<g>
				<polygon class="st4" points="806.3,360.6 806.3,364.4 802.7,364.4 802.7,368.3 799,368.3 799,372.1 796.1,372.1 796.1,374.1 
					800.7,374.1 800.7,370.3 804.4,370.3 804.4,366.4 808,366.4 808,362.6 810.9,362.6 810.9,360.6 				"/>
				<polygon class="st4" points="796.9,365.7 803,359.4 799.6,359.4 799.6,360.3 801,360.3 796.4,365.1 				"/>
			</g>
		</g>
		<g>
			<text transform="matrix(0.7888 0 0 1 791.4199 438.5723)" class="st6 st7">WC</text>
			<text transform="matrix(0.7888 0 0 1 791.4199 438.5723)" class="st8 st6 st7">WC</text>
			<g>
				<path class="st5" d="M789.4,438.2l-2.1-4.4c0,0,0,0,0-0.1c0-0.1,0.1-0.1,0.2-0.1c0.1,0,0.1,0,0.1,0.1l1.4,2.9
					c0.1,0.2,0.4,0.3,0.8,0.3c0.1,0,0.2-0.1,0.3-0.2c0.1-0.2,0.1-0.3,0.1-0.3l-1.5-2.7c0-0.3-0.3-0.6-0.6-0.9
					c-0.4-0.2-0.8-0.3-1.3-0.3h-1.8c-0.5,0-0.9,0.1-1.3,0.4s-0.6,0.5-0.7,0.8l-1.4,2.8c0,0.1,0,0.2,0,0.3c0.1,0.1,0.2,0.2,0.3,0.2
					c0.4,0,0.7-0.1,0.8-0.3l1.4-2.9c0-0.1,0.1-0.1,0.1-0.1c0.1,0,0.1,0,0.1,0.1v0l-2.1,4.4v0.3c0,0,0.1,0.1,0.2,0.2
					c0.1,0.1,0.2,0.1,0.2,0.1h1.3v3.4c0,0.1,0.1,0.3,0.2,0.4c0.2,0.1,0.3,0.2,0.5,0.2s0.3-0.1,0.5-0.2c0.1-0.1,0.2-0.2,0.2-0.4v-3.6
					c0,0,0.1,0,0.2,0c0.1,0,0.2,0,0.4,0c0.1,0,0.2,0,0.2,0v3.5c0,0.1,0.1,0.3,0.2,0.4c0.1,0.1,0.3,0.2,0.5,0.2s0.4-0.1,0.5-0.2
					c0.1-0.1,0.2-0.2,0.2-0.4v-3.4h1.4c0.1,0,0.2,0,0.2-0.1c0.1-0.1,0.1-0.1,0.1-0.2v-0.1v-0.1L789.4,438.2L789.4,438.2L789.4,438.2
					z"/>
				<path class="st5" d="M784.4,430.7c0,0.3,0.1,0.6,0.4,0.8c0.3,0.2,0.6,0.3,1,0.3s0.8-0.1,1-0.3c0.3-0.2,0.4-0.5,0.4-0.8
					c0-0.3-0.1-0.6-0.4-0.8c-0.3-0.2-0.6-0.3-1-0.3s-0.8,0.1-1,0.3C784.5,430.1,784.4,430.4,784.4,430.7z"/>
			</g>
		</g>
		<g>
			<g>
				<path class="st5" d="M808.2,441.7c0,0.4,0.2,0.5,0.7,0.5s0.7-0.2,0.7-0.5v-4.9h0.8v4.9c0,0.4,0.2,0.5,0.7,0.5
					c0.5,0,0.7-0.2,0.7-0.5v-8.4h0.4v3c0,0.2,0.1,0.3,0.3,0.4c0.2,0.1,0.4,0.1,0.6,0c0.2-0.1,0.3-0.2,0.3-0.4v-3.3
					c0-0.3-0.2-0.6-0.5-0.8c-0.3-0.2-0.8-0.3-1.4-0.3h-3c-0.6,0-1,0.1-1.4,0.3c-0.4,0.2-0.5,0.4-0.5,0.8v3.5c0,0.2,0.1,0.3,0.3,0.3
					c0.2,0.1,0.4,0.1,0.6,0s0.3-0.2,0.3-0.3v-3.2h0.4V441.7z"/>
				<path class="st5" d="M808.5,430.4c0,0.3,0.2,0.6,0.5,0.8c0.3,0.2,0.7,0.3,1.1,0.3c0.4,0,0.8-0.1,1.1-0.3
					c0.3-0.2,0.5-0.5,0.5-0.8c0-0.3-0.2-0.6-0.5-0.8c-0.3-0.2-0.7-0.3-1.1-0.3c-0.4,0-0.8,0.1-1.1,0.3
					C808.7,429.8,808.5,430.1,808.5,430.4z"/>
			</g>
			<text transform="matrix(0.9192 0 0 1 815.8286 438.3867)" class="st6 st9">WC</text>
			<text transform="matrix(0.9192 0 0 1 815.8286 438.3867)" class="st8 st6 st9">WC</text>
		</g>
		<g>
			<path d="M796.6,586c-1.6,0-2.9,1.3-2.9,2.9v17.2c0,1.6,1.3,2.9,2.9,2.9h17.2c1.6,0,2.9-1.3,2.9-2.9v-17.2c0-1.6-1.3-2.9-2.9-2.9
				L796.6,586L796.6,586z"/>
			<g>
				<polygon class="st4" points="809.2,590.3 809.2,594.9 804.8,594.9 804.8,599.5 800.4,599.5 800.4,604.1 797.1,604.1 
					797.1,606.5 802.5,606.5 802.5,601.9 806.9,601.9 806.9,597.3 811.3,597.3 811.3,592.7 814.7,592.7 814.7,590.3 				"/>
				<polygon class="st4" points="798,596.5 805.3,588.9 801.2,588.9 801.2,590 802.8,590 797.4,595.7 				"/>
			</g>
		</g>
		<g>
			<g>
				<path class="st5" d="M843,848.4c-0.3-0.2-0.5-0.5-0.5-0.9c0-0.4,0.2-0.7,0.5-0.9c0.3-0.2,0.7-0.4,1.1-0.4c0.4,0,0.8,0.1,1.1,0.4
					c0.3,0.2,0.5,0.5,0.5,0.9c0,0.4-0.2,0.7-0.5,0.9c-0.3,0.2-0.7,0.4-1.1,0.4C843.7,848.8,843.3,848.7,843,848.4z M840.9,854.5
					c0.1,0.1,0.2,0.1,0.3,0.1c0.1,0,0.2,0,0.3-0.1c0.1-0.1,0.1-0.2,0.1-0.3v-3.3v-0.2c0-0.1,0-0.1,0.1-0.1c0.1,0,0.1,0,0.2,0
					c0,0,0.1,0,0.2,0c0.1,0,0.1,0.1,0.1,0.1v7.9c0,0.2,0.1,0.3,0.2,0.4c0.1,0.1,0.3,0.2,0.5,0.2s0.4-0.1,0.5-0.2
					c0.1-0.1,0.2-0.2,0.2-0.4v-3.1v-1.7c0-0.1,0-0.1,0.1-0.2s0.2,0,0.2,0c0,0,0.1,0,0.2,0c0.1,0,0.1,0.1,0.1,0.2v1.7v3.1
					c0,0.2,0.1,0.3,0.2,0.4c0.1,0.1,0.3,0.2,0.5,0.2c0.2,0,0.4-0.1,0.5-0.2c0.1-0.1,0.2-0.2,0.2-0.4l0-7.9c0-0.1,0-0.1,0.1-0.1
					c0.1,0,0.1,0,0.2,0c0,0,0.1,0,0.2,0c0.1,0,0.1,0.1,0.1,0.1v0.2v3.3c0,0.1,0,0.2,0.1,0.3c0.1,0.1,0.2,0.1,0.3,0.1
					c0.1,0,0.2,0,0.3-0.1c0.1-0.1,0.1-0.2,0.1-0.3v-3.6c0-0.4-0.1-0.7-0.4-1c-0.3-0.3-0.7-0.4-1.2-0.4h-1.8h0h-1.7
					c-0.5,0-0.9,0.1-1.1,0.4c-0.2,0.3-0.3,0.6-0.3,1v3.6C840.8,854.3,840.8,854.4,840.9,854.5z M858.2,844.2
					c0.2,0.2,0.3,0.3,0.3,0.6v15.8c0,0.2-0.1,0.4-0.3,0.6c-0.2,0.2-0.4,0.2-0.7,0.2h-19c-0.3,0-0.5-0.1-0.7-0.2
					c-0.2-0.2-0.3-0.3-0.3-0.6v-15.8c0-0.2,0.1-0.4,0.3-0.6c0.2-0.2,0.4-0.2,0.7-0.2h19C857.7,844,858,844.1,858.2,844.2z
					 M856.8,845.3h-17.7V860h17.7V845.3L856.8,845.3z M851.8,848.8c0.4,0,0.8-0.1,1.1-0.4c0.3-0.2,0.5-0.5,0.5-0.9
					c0-0.4-0.2-0.7-0.5-0.9c-0.3-0.2-0.7-0.4-1.1-0.4c-0.4,0-0.8,0.1-1.1,0.4c-0.3,0.2-0.5,0.5-0.5,0.9c0,0.4,0.2,0.7,0.5,0.9
					C850.9,848.7,851.3,848.8,851.8,848.8z M848.6,854.5c0.1,0.1,0.2,0.1,0.3,0.1c0.1,0,0.2,0,0.3-0.1c0.1-0.1,0.1-0.2,0.1-0.3v-3.3
					v-0.2c0-0.1,0-0.1,0.1-0.1c0.1,0,0.1,0,0.2,0c0,0,0.1,0,0.2,0c0.1,0,0.1,0.1,0.1,0.1v7.9c0,0.2,0.1,0.3,0.2,0.4
					c0.1,0.1,0.3,0.2,0.5,0.2s0.4-0.1,0.5-0.2c0.1-0.1,0.2-0.2,0.2-0.4v-3.1v-1.7c0-0.1,0-0.1,0.1-0.2s0.2,0,0.2,0c0,0,0.1,0,0.2,0
					c0.1,0,0.1,0.1,0.1,0.2v1.7v3.1c0,0.2,0.1,0.3,0.2,0.4c0.1,0.1,0.3,0.2,0.5,0.2c0.2,0,0.4-0.1,0.5-0.2c0.1-0.1,0.2-0.2,0.2-0.4
					v-7.9c0-0.1,0-0.1,0.1-0.1c0.1,0,0.1,0,0.2,0c0,0,0.1,0,0.2,0c0.1,0,0.1,0.1,0.1,0.1v0.2v3.3c0,0.1,0,0.2,0.1,0.3
					c0.1,0.1,0.2,0.1,0.3,0.1c0.1,0,0.2,0,0.3-0.1c0.1-0.1,0.1-0.2,0.1-0.3v-3.6c0-0.4-0.2-0.7-0.5-1c-0.3-0.3-0.7-0.4-1.2-0.4h-1.8
					h0h0h-1.6c-0.5,0-0.9,0.1-1.1,0.4c-0.2,0.3-0.4,0.6-0.4,1v3.6C848.4,854.3,848.5,854.4,848.6,854.5z M865.9,858.3
					c-0.6,0-1.5,0-1.5,0s0-0.2,0-0.5c0-0.9,0-2.8,0-3.4c0,0,0-0.2-0.3-0.2c-0.3,0-1.9,0-2.3,0s-0.3,0.2-0.3,0.2c0,0.7,0,2.5,0,3.4
					c0,0.3,0,0.6,0,0.6s-1.1,0-1.6,0c-0.5,0,0,0.3,0,0.3l2.9,2.7c0,0,0.2,0.2,0.5,0c0.3-0.3,2.8-2.8,2.8-2.8
					S866.5,858.3,865.9,858.3z M860,847.5c0.6,0,1.5,0,1.5,0s0,0.2,0,0.5c0,0.9,0,2.8,0,3.4c0,0,0,0.2,0.3,0.2c0.3,0,1.9,0,2.3,0
					s0.3-0.2,0.3-0.2c0-0.7,0-2.5,0-3.4c0-0.3,0-0.6,0-0.6s1.1,0,1.6,0c0.5,0,0-0.3,0-0.3l-2.9-2.7c0,0-0.2-0.2-0.5,0
					c-0.3,0.3-2.8,2.8-2.8,2.8S859.5,847.5,860,847.5z"/>
			</g>
		</g>
		<g>
			<path d="M878.6,815.2c-1.6,0-2.9,1.3-2.9,2.9v17.2c0,1.6,1.3,2.9,2.9,2.9h17.2c1.6,0,2.9-1.3,2.9-2.9v-17.2
				c0-1.6-1.3-2.9-2.9-2.9L878.6,815.2L878.6,815.2z"/>
			<g>
				<polygon class="st4" points="891.3,819.5 891.3,824.1 886.9,824.1 886.9,828.7 882.5,828.7 882.5,833.3 879.1,833.3 
					879.1,835.7 884.5,835.7 884.5,831.1 888.9,831.1 888.9,826.5 893.3,826.5 893.3,821.9 896.7,821.9 896.7,819.5 				"/>
				<polygon class="st4" points="880,825.7 887.3,818.1 883.2,818.1 883.2,819.2 884.9,819.2 879.4,824.9 				"/>
			</g>
		</g>
		<g>
			<path d="M1175.6,816.2c-1.6,0-2.9,1.3-2.9,2.9v17.2c0,1.6,1.3,2.9,2.9,2.9h17.2c1.6,0,2.9-1.3,2.9-2.9V819c0-1.6-1.3-2.9-2.9-2.9
				L1175.6,816.2L1175.6,816.2z"/>
			<g>
				<polygon class="st4" points="1188.2,820.5 1188.2,825.1 1183.8,825.1 1183.8,829.7 1179.4,829.7 1179.4,834.3 1176,834.3 
					1176,836.7 1181.4,836.7 1181.4,832.1 1185.8,832.1 1185.8,827.5 1190.2,827.5 1190.2,822.9 1193.6,822.9 1193.6,820.5 				"/>
				<polygon class="st4" points="1177,826.7 1184.2,819.1 1180.2,819.1 1180.2,820.1 1181.8,820.1 1176.3,825.9 				"/>
			</g>
		</g>
		<g>
			<circle cx="763.8" cy="677.9" r="15"/>
			<text transform="matrix(0.9247 0 0 1 753.5146 682.6548)" class="st10 st6 st11">401</text>
		</g>
		<g>
			<circle cx="756" cy="921.3" r="15"/>
			<text transform="matrix(0.9247 0 0 1 745.7273 926.0394)" class="st10 st6 st11">407</text>
		</g>
		<g>
			<circle cx="721" cy="771.3" r="15"/>
			<text transform="matrix(0.9247 0 0 1 710.7273 776.0394)" class="st10 st6 st11">403</text>
		</g>
		<g>
			<circle cx="822" cy="921.3" r="15"/>
			<text transform="matrix(0.9247 0 0 1 811.7273 926.0394)" class="st10 st6 st11">409</text>
		</g>
		<g>
			<circle cx="805" cy="771.3" r="15"/>
			<text transform="matrix(0.9247 0 0 1 794.7273 776.0394)" class="st10 st6 st11">402</text>
		</g>
		<g>
			<circle cx="709.4" cy="434.1" r="15"/>
			<text transform="matrix(0.9247 0 0 1 699.1211 438.8471)" class="st10 st6 st11">420</text>
		</g>
		<g>
			<circle cx="708.6" cy="554.5" r="15"/>
			<text transform="matrix(0.9247 0 0 1 698.3337 559.2317)" class="st10 st6 st11">419</text>
		</g>
		<g>
			<circle cx="805.6" cy="474.5" r="15"/>
			<text transform="matrix(0.9247 0 0 1 795.3337 479.2317)" class="st10 st6 st11">427</text>
		</g>
		<g>
			<circle cx="805.6" cy="554.5" r="15"/>
			<text transform="matrix(0.9247 0 0 1 795.3337 559.2317)" class="st10 st6 st11">429</text>
		</g>
		<g>
			<circle cx="805.6" cy="514.5" r="15"/>
			<text transform="matrix(0.9247 0 0 1 795.3337 519.2317)" class="st10 st6 st11">428</text>
		</g>
		<g>
			<circle cx="893.4" cy="921.1" r="15"/>
			<text transform="matrix(0.9247 0 0 1 883.1211 925.8471)" class="st10 st6 st11">411</text>
		</g>
		<g>
			<circle cx="1063.6" cy="836.5" r="15"/>
			<text transform="matrix(0.9247 0 0 1 1053.3337 841.2317)" class="st10 st6 st11">412</text>
		</g>
		<g>
			<circle cx="980.6" cy="921.5" r="15"/>
			<text transform="matrix(0.9247 0 0 1 970.3337 926.2317)" class="st10 st6 st11">413</text>
		</g>
		<g>
			<circle cx="1135.6" cy="836.5" r="15"/>
			<text transform="matrix(0.9247 0 0 1 1125.3337 841.2317)" class="st10 st6 st11">414</text>
		</g>
		<g>
			<circle cx="1135.6" cy="921.5" r="15"/>
			<text transform="matrix(0.9247 0 0 1 1125.3337 926.2317)" class="st10 st6 st11">415</text>
		</g>
		<g>
			<circle cx="1053.4" cy="921.1" r="15"/>
			<text transform="matrix(0.9247 0 0 1 1043.1211 924.752)" class="st10 st6 st12">413A</text>
		</g>
		<g>
			<circle cx="692.6" cy="237.5" r="15"/>
			<text transform="matrix(0.9247 0 0 1 682.3337 242.2317)" class="st10 st6 st11">422</text>
		</g>
		<g>
			<circle cx="814.6" cy="237.5" r="15"/>
			<text transform="matrix(0.9247 0 0 1 804.3337 242.2317)" class="st10 st6 st11">425</text>
		</g>
		<g>
			<circle cx="733.6" cy="237.5" r="15"/>
			<text transform="matrix(0.9247 0 0 1 723.3337 242.2317)" class="st10 st6 st11">423</text>
		</g>
		<g>
			<circle cx="774.6" cy="237.5" r="15"/>
			<text transform="matrix(0.9247 0 0 1 764.3337 242.2317)" class="st10 st6 st11">424</text>
		</g>
		<g>
			<circle cx="805.9" cy="398.3" r="15"/>
			<text transform="matrix(0.9247 0 0 1 795.6211 403.0394)" class="st10 st6 st11">426</text>
		</g>
		<g>
			<circle cx="1224.9" cy="849.3" r="15"/>
			<text transform="matrix(0.9247 0 0 1 1214.6211 852.8936)" class="st10 st6 st13">301Б</text>
		</g>
		<g>
			<circle cx="709.1" cy="353.7" r="15"/>
			<text transform="matrix(0.9247 0 0 1 698.8336 358.424)" class="st10 st6 st11">421</text>
		</g>
	</g>
	<g>
		<text transform="matrix(1.5759 0 0 1 758.5474 137.6617)" class="st6 st14">ЭТАЖ</text>
		<circle class="st15" cx="705.5" cy="117.1" r="35"/>
		<text transform="matrix(1.1683 0 0 1 690.3301 132.041)" class="st4 st16 st17">4</text>
	</g>
</g>
</svg>
