<?xml version="1.0" encoding="utf-8"?>
<!-- Generator: Adobe Illustrator 27.3.1, SVG Export Plug-In . SVG Version: 6.00 Build 0)  -->
<svg version="1.1" id="Слой_1" xmlns="http://www.w3.org/2000/svg" xmlns:xlink="http://www.w3.org/1999/xlink" x="0px" y="0px"
	 viewBox="0 0 1920 1080" style="enable-background:new 0 0 1920 1080;" xml:space="preserve">
<style type="text/css">
	.st0{fill:#94C4FF;stroke:#FFFFFF;stroke-width:4;stroke-linecap:square;stroke-miterlimit:10;}
	.st1{fill:none;stroke:#FFFFFF;stroke-width:2;stroke-miterlimit:10;}
	.st2{fill:none;stroke:#FFFFFF;stroke-width:2;stroke-linecap:square;stroke-miterlimit:10;}
	.st3{fill:#FFFFFF;}
	.st4{fill:#010002;}
	.st5{font-family:'ArialMT';}
	.st6{font-size:13.6111px;}
	.st7{fill:none;stroke:#FFFFFF;stroke-width:0.75;stroke-miterlimit:10;}
	.st8{font-size:12.6939px;}
	.st9{font-size:12.0697px;}
	.st10{font-size:13.0604px;}
	.st11{fill:none;stroke:#000000;stroke-width:0.25;stroke-miterlimit:10;}
	.st12{stroke:#000000;stroke-width:4;stroke-miterlimit:10;}
	.st13{font-size:5.9178px;}
	.st14{fill:none;stroke:#FFFFFF;stroke-width:0.25;stroke-miterlimit:10;}
	.st15{font-size:5.9179px;}
	.st16{font-size:51.0659px;}
	.st17{stroke:#000000;stroke-linecap:round;stroke-miterlimit:10;}
	.st18{font-size:44.405px;}
</style>
<g>
	<g>
		<polyline class="st0" points="1134,412 1134,394 1079,394 1079,414 568,414 566,414 566,394 498,394 498,414 118,414 118,527 
			87,527 87,575 97,575 97,685 1810,685 1810,414 1134,414 		"/>
		<g>
			<line class="st1" x1="186" y1="526" x2="186" y2="413"/>
			<line class="st1" x1="251" y1="526" x2="251" y2="413"/>
			<line class="st1" x1="320" y1="526" x2="320" y2="413"/>
			<line class="st1" x1="400" y1="526" x2="400" y2="413"/>
			<line class="st1" x1="463" y1="526" x2="463" y2="413"/>
			<line class="st1" x1="499" y1="527" x2="499" y2="414"/>
			<line class="st1" x1="565" y1="526" x2="565" y2="415"/>
			<line class="st1" x1="598" y1="526" x2="598" y2="413"/>
			<line class="st1" x1="664" y1="526" x2="664" y2="413"/>
			<line class="st1" x1="732" y1="526" x2="732" y2="413"/>
			<line class="st1" x1="774" y1="526" x2="774" y2="413"/>
			<line class="st1" x1="871" y1="526" x2="871" y2="413"/>
			<line class="st1" x1="924" y1="526" x2="924" y2="413"/>
			<line class="st1" x1="1014" y1="526" x2="1014" y2="413"/>
			<line class="st1" x1="1080" y1="526" x2="1080" y2="415"/>
			<line class="st1" x1="1133" y1="526" x2="1133" y2="413"/>
			<line class="st1" x1="1175" y1="526" x2="1175" y2="413"/>
			<line class="st1" x1="1269" y1="526" x2="1269" y2="413"/>
			<line class="st1" x1="1334" y1="539" x2="1334" y2="413"/>
			<line class="st1" x1="1269" y1="573" x2="1269" y2="684"/>
			<line class="st1" x1="1536" y1="578" x2="1536" y2="413"/>
			<line class="st2" x1="1632" y1="578" x2="1334" y2="578"/>
			<line class="st1" x1="1667" y1="533" x2="1667" y2="684"/>
			<line class="st1" x1="186" y1="573" x2="186" y2="683"/>
			<line class="st1" x1="251" y1="573" x2="251" y2="684"/>
			<line class="st1" x1="320" y1="573" x2="320" y2="684"/>
			<line class="st1" x1="398" y1="573" x2="398" y2="684"/>
			<line class="st1" x1="463" y1="573" x2="463" y2="684"/>
			<line class="st1" x1="559" y1="573" x2="559" y2="684"/>
			<line class="st1" x1="662" y1="610" x2="662" y2="684"/>
			<line class="st1" x1="662" y1="574" x2="662" y2="591"/>
			<line class="st1" x1="734" y1="574" x2="734" y2="684"/>
			<line class="st1" x1="812" y1="574" x2="812" y2="684"/>
			<line class="st1" x1="874" y1="574" x2="874" y2="684"/>
			<line class="st1" x1="937" y1="574" x2="937" y2="684"/>
			<line class="st1" x1="1014" y1="574" x2="1014" y2="684"/>
			<line class="st1" x1="1079" y1="572" x2="1079" y2="684"/>
			<line class="st1" x1="1334" y1="559" x2="1334" y2="595"/>
			<line class="st1" x1="1334" y1="618" x2="1334" y2="684"/>
			<line class="st1" x1="1608" y1="539" x2="1608" y2="413"/>
			<line class="st1" x1="1608" y1="559" x2="1608" y2="578"/>
			<line class="st1" x1="1667" y1="511" x2="1667" y2="413"/>
			<line class="st1" x1="1650" y1="578" x2="1667" y2="578"/>
			<line class="st2" x1="1667" y1="548" x2="1717" y2="548"/>
			<line class="st1" x1="1740" y1="560" x2="1740" y2="413"/>
			<line class="st1" x1="1766" y1="548" x2="1812" y2="548"/>
			<line class="st1" x1="1732" y1="602" x2="1810" y2="602"/>
			<line class="st1" x1="1720" y1="602" x2="1667" y2="602"/>
			<line class="st1" x1="1712" y1="568" x2="1712" y2="548"/>
			<line class="st2" x1="1712" y1="586" x2="1712" y2="602"/>
			<line class="st2" x1="1740" y1="576" x2="1740" y2="602"/>
			<line class="st1" x1="1732" y1="548" x2="1751" y2="548"/>
			<line class="st1" x1="98" y1="573" x2="142" y2="573"/>
			<line class="st1" x1="158" y1="573" x2="208" y2="573"/>
			<line class="st1" x1="229" y1="573" x2="276" y2="573"/>
			<line class="st1" x1="295" y1="573" x2="347" y2="573"/>
			<line class="st1" x1="368" y1="573" x2="420" y2="573"/>
			<line class="st1" x1="439" y1="573" x2="496" y2="573"/>
			<line class="st1" x1="518" y1="573" x2="699" y2="573"/>
			<line class="st1" x1="718" y1="573" x2="751" y2="573"/>
			<line class="st1" x1="769" y1="573" x2="842" y2="573"/>
			<line class="st1" x1="861" y1="573" x2="904" y2="573"/>
			<line class="st1" x1="923" y1="573" x2="952" y2="573"/>
			<line class="st1" x1="969" y1="573" x2="1027" y2="573"/>
			<line class="st1" x1="1044" y1="573" x2="1141" y2="573"/>
			<line class="st1" x1="1165" y1="573" x2="1286" y2="573"/>
			<line class="st1" x1="1307" y1="573" x2="1334" y2="573"/>
			<line class="st1" x1="120" y1="527" x2="146" y2="527"/>
			<line class="st1" x1="164" y1="527" x2="208" y2="527"/>
			<line class="st1" x1="226" y1="527" x2="276" y2="527"/>
			<line class="st1" x1="295" y1="527" x2="362" y2="527"/>
			<line class="st1" x1="385" y1="527" x2="421" y2="527"/>
			<line class="st1" x1="437" y1="527" x2="472" y2="527"/>
			<line class="st2" x1="488" y1="527" x2="499" y2="527"/>
			<line class="st2" x1="565" y1="527" x2="574" y2="527"/>
			<line class="st2" x1="588" y1="527" x2="607" y2="527"/>
			<line class="st2" x1="624" y1="527" x2="694" y2="527"/>
			<line class="st2" x1="713" y1="527" x2="745" y2="527"/>
			<line class="st2" x1="762" y1="527" x2="835" y2="527"/>
			<line class="st2" x1="855" y1="527" x2="895" y2="527"/>
			<line class="st2" x1="914" y1="527" x2="955" y2="527"/>
			<line class="st2" x1="976" y1="527" x2="1035" y2="527"/>
			<line class="st2" x1="1056" y1="527" x2="1080" y2="527"/>
			<line class="st2" x1="1133" y1="527" x2="1144" y2="527"/>
			<line class="st2" x1="1161" y1="527" x2="1191" y2="527"/>
			<line class="st2" x1="1211" y1="527" x2="1286" y2="527"/>
			<line class="st2" x1="1307" y1="527" x2="1334" y2="527"/>
		</g>
		<g>
			<path d="M515,447c-2.1,0-3.8,1.7-3.8,3.8v22.5c0,2.1,1.7,3.8,3.8,3.8h22.5c2.1,0,3.8-1.7,3.8-3.8v-22.5c0-2.1-1.7-3.8-3.8-3.8
				H515z"/>
			<g>
				<polygon class="st3" points="531.4,452.7 531.4,458.7 525.7,458.7 525.7,464.7 520,464.7 520,470.7 515.5,470.7 515.5,473.8 
					522.6,473.8 522.6,467.8 528.3,467.8 528.3,461.8 534.1,461.8 534.1,455.8 538.5,455.8 538.5,452.7 				"/>
				<polygon class="st3" points="516.8,460.7 526.2,450.8 521,450.8 521,452.2 523.1,452.2 516,459.7 				"/>
			</g>
		</g>
		<g>
			<g>
				<path class="st4" d="M519.6,505.4c-0.5-0.4-0.7-0.9-0.7-1.6c0-0.6,0.2-1.1,0.7-1.6c0.5-0.4,1-0.6,1.7-0.6s1.2,0.2,1.7,0.6
					s0.7,0.9,0.7,1.6c0,0.6-0.2,1.1-0.7,1.6c-0.5,0.4-1,0.6-1.7,0.6C520.6,506.1,520,505.9,519.6,505.4z M516.5,515.9
					c0.1,0.1,0.3,0.2,0.5,0.2s0.4-0.1,0.5-0.2c0.1-0.1,0.2-0.3,0.2-0.5v-5.7v-0.3c0-0.1,0-0.2,0.1-0.2s0.2,0,0.3,0s0.1,0,0.3,0
					c0.1,0,0.1,0.1,0.1,0.2V523c0,0.3,0.1,0.5,0.3,0.7s0.5,0.3,0.8,0.3s0.6-0.1,0.8-0.3s0.3-0.4,0.3-0.7v-5.3v-3
					c0-0.2,0.1-0.3,0.2-0.3c0.1,0,0.2-0.1,0.3-0.1s0.2,0,0.3,0.1c0.1,0,0.2,0.1,0.2,0.3v3v5.3c0,0.3,0.1,0.5,0.3,0.7
					s0.5,0.3,0.8,0.3s0.6-0.1,0.8-0.3s0.3-0.4,0.3-0.7v-13.6c0-0.1,0-0.2,0.1-0.2s0.2,0,0.3,0s0.1,0,0.3,0c0.1,0,0.1,0.1,0.1,0.2
					v0.3v5.7c0,0.2,0.1,0.4,0.2,0.5c0.1,0.1,0.3,0.2,0.5,0.2s0.3-0.1,0.5-0.2c0.1-0.1,0.2-0.3,0.2-0.5v-6.3c0-0.6-0.2-1.2-0.7-1.6
					c-0.4-0.5-1-0.7-1.8-0.7H521l0,0h-2.5c-0.8,0-1.3,0.2-1.7,0.7c-0.3,0.5-0.5,1-0.5,1.6v6.3C516.3,515.6,516.3,515.8,516.5,515.9z
					 M542.3,498.2c0.3,0.3,0.4,0.6,0.4,1v27.2c0,0.4-0.1,0.7-0.4,1c-0.3,0.3-0.7,0.4-1.1,0.4h-28.4c-0.4,0-0.8-0.1-1.1-0.4
					c-0.3-0.3-0.4-0.6-0.4-1v-27.2c0-0.4,0.1-0.7,0.4-1s0.7-0.4,1.1-0.4h28.4C541.6,497.8,542,497.9,542.3,498.2z M540.2,500.1
					h-26.5v25.4h26.5V500.1L540.2,500.1z M532.7,506.1c0.7,0,1.2-0.2,1.7-0.6s0.7-0.9,0.7-1.6c0-0.6-0.2-1.1-0.7-1.6s-1-0.6-1.7-0.6
					s-1.2,0.2-1.7,0.6s-0.7,0.9-0.7,1.6c0,0.6,0.2,1.1,0.7,1.6C531.5,505.9,532,506.1,532.7,506.1z M527.9,515.9
					c0.1,0.1,0.3,0.2,0.5,0.2s0.4-0.1,0.5-0.2c0.1-0.1,0.2-0.3,0.2-0.5v-5.7v-0.3c0-0.1,0-0.2,0.1-0.2s0.2,0,0.3,0s0.1,0,0.3,0
					c0.1,0,0.1,0.1,0.1,0.2V523c0,0.3,0.1,0.5,0.3,0.7s0.5,0.3,0.8,0.3s0.6-0.1,0.8-0.3s0.3-0.4,0.3-0.7v-5.3v-3
					c0-0.2,0.1-0.3,0.2-0.3c0.1,0,0.2-0.1,0.3-0.1s0.2,0,0.3,0.1c0.1,0,0.2,0.1,0.2,0.3v3v5.3c0,0.3,0.1,0.5,0.3,0.7
					s0.5,0.3,0.8,0.3s0.6-0.1,0.8-0.3s0.3-0.4,0.3-0.7v-13.6c0-0.1,0-0.2,0.1-0.2s0.2,0,0.3,0s0.1,0,0.3,0c0.1,0,0.1,0.1,0.1,0.2
					v0.3v5.7c0,0.2,0.1,0.4,0.2,0.5c0.1,0.1,0.3,0.2,0.5,0.2s0.4-0.1,0.5-0.2c0.1-0.1,0.2-0.3,0.2-0.5v-6.3c0-0.6-0.2-1.2-0.7-1.6
					c-0.5-0.5-1.1-0.7-1.8-0.7h-2.6l0,0l0,0H530c-0.8,0-1.3,0.2-1.7,0.7s-0.5,1-0.5,1.6v6.3C527.7,515.6,527.8,515.8,527.9,515.9z
					 M553.8,522.4c-0.9,0-2.2,0-2.2,0s0-0.3,0-0.9c0-1.6,0-4.8,0-6c0,0,0-0.3-0.4-0.3s-2.8,0-3.4,0c-0.6,0-0.5,0.3-0.5,0.3
					c0,1.2,0,4.3,0,5.9c0,0.6,0,1,0,1s-1.7,0-2.4,0s-0.1,0.6-0.1,0.6l4.3,4.7c0,0,0.4,0.4,0.7,0c0.5-0.5,4.1-4.9,4.1-4.9
					S554.7,522.4,553.8,522.4z M545,503.8c0.9,0,2.2,0,2.2,0s0,0.3,0,0.9c0,1.6,0,4.8,0,6c0,0,0,0.3,0.4,0.3s2.8,0,3.4,0
					s0.5-0.3,0.5-0.3c0-1.2,0-4.3,0-5.9c0-0.6,0-1,0-1s1.7,0,2.4,0s0.1-0.6,0.1-0.6l-4.3-4.7c0,0-0.4-0.4-0.7,0
					c-0.5,0.5-4.1,4.9-4.1,4.9S544.2,503.8,545,503.8z"/>
			</g>
		</g>
		<g>
			<circle cx="221" cy="474" r="15"/>
			<text transform="matrix(0.9247 0 0 1 210.7407 478.7656)" class="st3 st5 st6">350</text>
			<text transform="matrix(0.9247 0 0 1 210.7407 478.7656)" class="st7 st5 st6">350</text>
		</g>
		<g>
			<circle cx="152.7" cy="474" r="15"/>
			<text transform="matrix(0.9247 0 0 1 142.4316 478.7876)" class="st3 st5 st6">349</text>
			<text transform="matrix(0.9247 0 0 1 142.4316 478.7876)" class="st7 st5 st6">349</text>
		</g>
		<g>
			<circle cx="284.7" cy="474" r="15"/>
			<text transform="matrix(0.9247 0 0 1 274.4316 478.7876)" class="st3 st5 st6">351</text>
			<text transform="matrix(0.9247 0 0 1 274.4316 478.7876)" class="st7 st5 st6">351</text>
		</g>
		<g>
			<circle cx="360.7" cy="474" r="15"/>
			<text transform="matrix(0.9247 0 0 1 350.4316 478.7876)" class="st3 st5 st6">353</text>
			<text transform="matrix(0.9247 0 0 1 350.4316 478.7876)" class="st7 st5 st6">353</text>
		</g>
		<g>
			<circle cx="481.1" cy="473.6" r="15"/>
			<text transform="matrix(0.9247 0 0 1 470.8452 478.3809)" class="st3 st5 st6">355</text>
			<text transform="matrix(0.9247 0 0 1 470.8452 478.3809)" class="st7 st5 st6">355</text>
		</g>
		<g>
			<circle cx="432.8" cy="473.6" r="15"/>
			<text transform="matrix(0.9247 0 0 1 422.5356 478.4028)" class="st3 st5 st6">354</text>
			<text transform="matrix(0.9247 0 0 1 422.5356 478.4028)" class="st7 st5 st6">354</text>
		</g>
		<g>
			<circle cx="139.8" cy="631.6" r="15"/>
			<text transform="matrix(0.9247 0 0 1 129.5356 636.4033)" class="st3 st5 st6">340</text>
			<text transform="matrix(0.9247 0 0 1 129.5356 636.4033)" class="st7 st5 st6">340</text>
		</g>
		<g>
			<circle cx="217.8" cy="631.6" r="15"/>
			<text transform="matrix(0.9247 0 0 1 207.5356 636.4033)" class="st3 st5 st6">339</text>
			<text transform="matrix(0.9247 0 0 1 207.5356 636.4033)" class="st7 st5 st6">339</text>
		</g>
		<g>
			<circle cx="284.8" cy="631.6" r="15"/>
			<text transform="matrix(0.9247 0 0 1 274.5356 636.4033)" class="st3 st5 st6">338</text>
			<text transform="matrix(0.9247 0 0 1 274.5356 636.4033)" class="st7 st5 st6">338</text>
		</g>
		<g>
			<circle cx="430.6" cy="631.8" r="15"/>
			<text transform="matrix(0.9247 0 0 1 420.293 636.5732)" class="st3 st5 st6">336</text>
			<text transform="matrix(0.9247 0 0 1 420.293 636.5732)" class="st7 st5 st6">336</text>
		</g>
		<g>
			<circle cx="511.2" cy="631.8" r="15"/>
			<text transform="matrix(0.9247 0 0 1 500.9839 636.5957)" class="st3 st5 st6">335</text>
			<text transform="matrix(0.9247 0 0 1 500.9839 636.5957)" class="st7 st5 st6">335</text>
		</g>
		<g>
			<circle cx="629.2" cy="473.8" r="15"/>
			<text transform="matrix(0.9247 0 0 1 618.9839 478.5952)" class="st3 st5 st6">303</text>
			<text transform="matrix(0.9247 0 0 1 618.9839 478.5952)" class="st7 st5 st6">303</text>
		</g>
		<g>
			<circle cx="697.2" cy="473.8" r="15"/>
			<text transform="matrix(0.9247 0 0 1 686.9839 478.5952)" class="st3 st5 st6">304</text>
			<text transform="matrix(0.9247 0 0 1 686.9839 478.5952)" class="st7 st5 st6">304</text>
		</g>
		<g>
			<circle cx="823.7" cy="473.4" r="15"/>
			<text transform="matrix(0.9247 0 0 1 813.3975 478.1885)" class="st3 st5 st6">306</text>
			<text transform="matrix(0.9247 0 0 1 813.3975 478.1885)" class="st7 st5 st6">306</text>
		</g>
		<g>
			<circle cx="754.3" cy="473.4" r="15"/>
			<text transform="matrix(0.9247 0 0 1 744.0879 478.2109)" class="st3 st5 st6">305</text>
			<text transform="matrix(0.9247 0 0 1 744.0879 478.2109)" class="st7 st5 st6">305</text>
		</g>
		<g>
			<circle cx="898.3" cy="473.4" r="15"/>
			<text transform="matrix(0.9247 0 0 1 888.0879 478.2109)" class="st3 st5 st6">307</text>
			<text transform="matrix(0.9247 0 0 1 888.0879 478.2109)" class="st7 st5 st6">307</text>
		</g>
		<g>
			<circle cx="969.3" cy="473.4" r="15"/>
			<text transform="matrix(0.9247 0 0 1 959.0879 478.2109)" class="st3 st5 st6">308</text>
			<text transform="matrix(0.9247 0 0 1 959.0879 478.2109)" class="st7 st5 st6">308</text>
		</g>
		<g>
			<circle cx="1045.3" cy="473.4" r="15"/>
			<text transform="matrix(0.9247 0 0 1 1035.0879 478.2109)" class="st3 st5 st6">309</text>
			<text transform="matrix(0.9247 0 0 1 1035.0879 478.2109)" class="st7 st5 st6">309</text>
		</g>
		<g>
			<circle cx="975.6" cy="631.8" r="15"/>
			<text transform="matrix(0.9247 0 0 1 965.293 636.5732)" class="st3 st5 st6">329</text>
			<text transform="matrix(0.9247 0 0 1 965.293 636.5732)" class="st7 st5 st6">329</text>
		</g>
		<g>
			<circle cx="843.2" cy="631.8" r="15"/>
			<text transform="matrix(0.9247 0 0 1 832.9839 636.5957)" class="st3 st5 st6">331</text>
			<text transform="matrix(0.9247 0 0 1 832.9839 636.5957)" class="st7 st5 st6">331</text>
		</g>
		<g>
			<circle cx="1044.2" cy="631.8" r="15"/>
			<text transform="matrix(0.9247 0 0 1 1033.9834 636.5957)" class="st3 st5 st6">328</text>
			<text transform="matrix(0.9247 0 0 1 1033.9834 636.5957)" class="st7 st5 st6">328</text>
		</g>
		<g>
			<circle cx="1165.2" cy="631.8" r="15"/>
			<text transform="matrix(0.9247 0 0 1 1154.9834 636.5957)" class="st3 st5 st6">326</text>
			<text transform="matrix(0.9247 0 0 1 1154.9834 636.5957)" class="st7 st5 st6">326</text>
		</g>
		<g>
			<circle cx="1301.2" cy="473.8" r="15"/>
			<text transform="matrix(0.9555 0 0 1 1288 477.8936)" class="st3 st5 st8">313a</text>
			<text transform="matrix(0.9555 0 0 1 1288 477.8936)" class="st7 st5 st8">313a</text>
		</g>
		<g>
			<circle cx="1441.7" cy="486.4" r="15"/>
			<text transform="matrix(0.9247 0 0 1 1431.3975 491.1885)" class="st3 st5 st6">313</text>
			<text transform="matrix(0.9247 0 0 1 1431.3975 491.1885)" class="st7 st5 st6">313</text>
		</g>
		<g>
			<circle cx="1493.3" cy="636.4" r="15"/>
			<text transform="matrix(0.9247 0 0 1 1483.0879 641.2109)" class="st3 st5 st6">325</text>
			<text transform="matrix(0.9247 0 0 1 1483.0879 641.2109)" class="st7 st5 st6">325</text>
		</g>
		<g>
			<circle cx="1569.3" cy="486.4" r="15"/>
			<text transform="matrix(0.9247 0 0 1 1559.0879 491.2109)" class="st3 st5 st6">321</text>
			<text transform="matrix(0.9247 0 0 1 1559.0879 491.2109)" class="st7 st5 st6">321</text>
		</g>
		<g>
			<circle cx="1636.3" cy="486.4" r="15"/>
			<text transform="matrix(0.9247 0 0 1 1626.0879 491.2109)" class="st3 st5 st6">320</text>
			<text transform="matrix(0.9247 0 0 1 1626.0879 491.2109)" class="st7 st5 st6">320</text>
		</g>
		<g>
			<circle cx="1776.1" cy="577.6" r="15"/>
			<text transform="matrix(0.9247 0 0 1 1765.8457 582.3809)" class="st3 st5 st6">318</text>
			<text transform="matrix(0.9247 0 0 1 1765.8457 582.3809)" class="st7 st5 st6">318</text>
		</g>
		<g>
			<circle cx="1703.8" cy="486.6" r="15"/>
			<text transform="matrix(0.9247 0 0 1 1693.5361 491.4028)" class="st3 st5 st6">319</text>
			<text transform="matrix(0.9247 0 0 1 1693.5361 491.4028)" class="st7 st5 st6">319</text>
		</g>
		<g>
			<circle cx="1775.8" cy="486.6" r="15"/>
			<text transform="matrix(0.9247 0 0 1 1765.5361 491.4028)" class="st3 st5 st6">318</text>
			<text transform="matrix(0.9247 0 0 1 1765.5361 491.4028)" class="st7 st5 st6">318</text>
		</g>
		<g>
			<circle cx="1220.8" cy="473.6" r="15"/>
			<text transform="matrix(0.9247 0 0 1 1210.5361 478.4028)" class="st3 st5 st6">312</text>
			<text transform="matrix(0.9247 0 0 1 1210.5361 478.4028)" class="st7 st5 st6">312</text>
		</g>
		<g>
			<circle cx="357.8" cy="631.6" r="15"/>
			<text transform="matrix(0.9484 0 0 1 345.5361 636.0801)" class="st3 st5 st9">337a</text>
			<text transform="matrix(0.9484 0 0 1 345.5361 636.0801)" class="st7 st5 st9">337a</text>
		</g>
		<g>
			<path d="M1095.4,447.1c-2.1,0-3.8,1.7-3.8,3.8v22.5c0,2.1,1.7,3.8,3.8,3.8h22.5c2.1,0,3.8-1.7,3.8-3.8v-22.5
				c0-2.1-1.7-3.8-3.8-3.8H1095.4z"/>
			<g>
				<polygon class="st3" points="1111.8,452.7 1111.8,458.7 1106.1,458.7 1106.1,464.7 1100.4,464.7 1100.4,470.7 1096,470.7 
					1096,473.8 1103,473.8 1103,467.8 1108.8,467.8 1108.8,461.8 1114.5,461.8 1114.5,455.8 1118.9,455.8 1118.9,452.7 				"/>
				<polygon class="st3" points="1097.2,460.8 1106.6,450.9 1101.4,450.9 1101.4,452.3 1103.5,452.3 1096.4,459.7 				"/>
			</g>
		</g>
		<g>
			<path d="M1752.4,630.5c-2.1,0-3.8,1.7-3.8,3.8v22.5c0,2.1,1.7,3.8,3.8,3.8h22.5c2.1,0,3.8-1.7,3.8-3.8v-22.5
				c0-2.1-1.7-3.8-3.8-3.8H1752.4z"/>
			<g>
				<polygon class="st3" points="1768.9,636.2 1768.9,642.2 1763.1,642.2 1763.1,648.2 1757.4,648.2 1757.4,654.2 1753,654.2 
					1753,657.3 1760,657.3 1760,651.3 1765.8,651.3 1765.8,645.3 1771.5,645.3 1771.5,639.3 1775.9,639.3 1775.9,636.2 				"/>
				<polygon class="st3" points="1754.2,644.2 1763.7,634.3 1758.4,634.3 1758.4,635.7 1760.5,635.7 1753.4,643.2 				"/>
			</g>
		</g>
		<g>
			<text transform="matrix(0.6297 0 0 1 582.2988 479.6865)" class="st5 st10">WC</text>
			<text transform="matrix(0.6297 0 0 1 582.2988 479.6865)" class="st11 st5 st10">WC</text>
			<g>
				<path class="st4" d="M578.6,478.2l-2.9-8.4v-0.1c0-0.2,0.1-0.3,0.2-0.3c0.1,0,0.2,0.1,0.2,0.2l2,5.4c0.2,0.4,0.5,0.6,1.1,0.6
					c0.2,0,0.3-0.2,0.4-0.5c0.1-0.3,0.1-0.5,0.1-0.6l-2-5.2c-0.1-0.6-0.4-1.2-0.9-1.6s-1.1-0.7-1.8-0.7h-2.5c-0.7,0-1.3,0.2-1.8,0.7
					s-0.8,1-0.9,1.6l-1.9,5.2c-0.1,0.1,0,0.3,0,0.6s0.2,0.4,0.4,0.4c0.6,0,1-0.2,1.1-0.5l1.9-5.4c0-0.1,0.1-0.2,0.2-0.2
					c0.1,0,0.2,0.1,0.2,0.2v0.1l-2.8,8.4v0.7c0,0.1,0.1,0.2,0.2,0.4c0.2,0.2,0.3,0.3,0.3,0.3h1.8v6.5c0,0.3,0.1,0.5,0.3,0.7
					s0.4,0.3,0.7,0.3s0.5-0.1,0.7-0.3c0.2-0.2,0.3-0.4,0.3-0.7v-6.8c0,0,0.1-0.1,0.3-0.1s0.3,0,0.5,0s0.2,0,0.2,0.1v6.7
					c0,0.3,0.1,0.5,0.3,0.7s0.4,0.3,0.7,0.3s0.5-0.1,0.7-0.3s0.3-0.5,0.3-0.7v-6.5h1.9c0.1,0,0.2-0.1,0.3-0.3
					c0.1-0.2,0.2-0.3,0.2-0.4v-0.2v-0.2V478.2L578.6,478.2z"/>
				<path class="st4" d="M571.6,464.1c0,0.6,0.2,1.1,0.6,1.5c0.4,0.4,0.9,0.6,1.4,0.6c0.6,0,1-0.2,1.4-0.6s0.6-0.9,0.6-1.5
					s-0.2-1.1-0.6-1.5c-0.4-0.4-0.9-0.6-1.4-0.6c-0.6,0-1,0.2-1.4,0.6C571.8,463,571.6,463.5,571.6,464.1z"/>
			</g>
		</g>
		<path class="st12" d="M636.4,642h-49.9c-3.6,0-6.6-2.9-6.6-6.6v-6.9c0-3.6,2.9-6.6,6.6-6.6h49.9c3.6,0,6.6,2.9,6.6,6.6v6.9
			C643,639.1,640.1,642,636.4,642z"/>
		<text transform="matrix(1.075 0 0 1 581.499 634.0771)" class="st3 st5 st13">КАБИНЕТ РЕКТОРА</text>
		<text transform="matrix(1.075 0 0 1 581.499 634.0771)" class="st14 st5 st13">КАБИНЕТ РЕКТОРА</text>
		<path class="st12" d="M723.4,642h-49.9c-3.6,0-6.6-2.9-6.6-6.6v-6.9c0-3.6,2.9-6.6,6.6-6.6h49.9c3.6,0,6.6,2.9,6.6,6.6v6.9
			C730,639.1,727.1,642,723.4,642z"/>
		<text transform="matrix(0.9635 0 0 1 669.2036 634.2197)" class="st3 st5 st15">ПРИЕМНАЯ РЕКТОРА</text>
		<text transform="matrix(0.9635 0 0 1 669.2036 634.2197)" class="st14 st5 st15">ПРИЕМНАЯ РЕКТОРА</text>
		<path class="st12" d="M798.2,642h-49.4c-3.6,0-6.6-2.9-6.6-6.6v-6.9c0-3.6,2.9-6.6,6.6-6.6h49.4c3.6,0,6.6,2.9,6.6,6.6v6.9
			C804.8,639.1,801.8,642,798.2,642z"/>
		<text transform="matrix(1.0661 0 0 1 743.5 633.5781)" class="st3 st5 st15">ПРОРЕКТОР ПО НР</text>
		<text transform="matrix(1.0661 0 0 1 743.5 633.5781)" class="st14 st5 st15">ПРОРЕКТОР ПО НР</text>
	</g>
	<g>
		<text transform="matrix(1.5759 0 0 1 208.0389 300.7551)" class="st5 st16">ЭТАЖ</text>
		<circle class="st17" cx="155" cy="280.2" r="35"/>
		<text transform="matrix(1.208 0 0 1 143.5252 295.5148)" class="st3 st5 st18">3</text>
	</g>
</g>
</svg>
