<?xml version="1.0" encoding="utf-8"?>
<!-- Generator: Adobe Illustrator 27.3.1, SVG Export Plug-In . SVG Version: 6.00 Build 0)  -->
<svg version="1.1" id="Слой_1" xmlns="http://www.w3.org/2000/svg" xmlns:xlink="http://www.w3.org/1999/xlink" x="0px" y="0px"
	 viewBox="0 0 1920 1080" style="enable-background:new 0 0 1920 1080;" xml:space="preserve">
<style type="text/css">
	.st0{fill:#94C4FF;stroke:#FFFFFF;stroke-width:4;stroke-linecap:square;stroke-miterlimit:10;}
	.st1{fill:none;stroke:#FFFFFF;stroke-width:2;stroke-miterlimit:10;}
	.st2{fill:none;stroke:#FFFFFF;stroke-width:2;stroke-linecap:square;stroke-miterlimit:10;}
	.st3{fill:#FFFFFF;}
	.st4{fill:#010002;}
	.st5{stroke:#000000;stroke-width:0.5;stroke-miterlimit:10;}
	.st6{font-family:'ArialMT';}
	.st7{font-size:10.944px;}
	.st8{font-size:10.2555px;}
	.st9{fill:none;stroke:#000000;stroke-width:0.5;stroke-miterlimit:10;}
	.st10{font-size:8.9474px;}
	.st11{fill:none;stroke:#000000;stroke-miterlimit:10;}
	.st12{fill:#FFFFFF;stroke:#FFFFFF;stroke-width:0.5;stroke-miterlimit:10;}
	.st13{font-size:10.1753px;}
	.st14{font-size:13.6111px;}
	.st15{font-size:10.6723px;}
	.st16{font-size:12.1889px;}
	.st17{font-size:11.3435px;}
	.st18{font-size:10.4981px;}
	.st19{font-size:51.0659px;}
	.st20{stroke:#000000;stroke-linecap:round;stroke-miterlimit:10;}
	.st21{font-size:44.405px;}
	.st22{fill:none;}
	.st23{font-size:6.2539px;}
</style>
<g>
	<polyline class="st0" points="714,843 733,843 733,986 1256,986 1256,850 1208,850 1208,825 1172,825 1172,843 851,843 851,464 
		871,464 871,397 852,397 852,289 1102,289 1102,171 696,171 696,674 713,674 713,843 	"/>
	<g>
		<line class="st1" x1="1207" y1="912" x2="1207" y2="986"/>
		<line class="st1" x1="1207" y1="899" x2="1207" y2="850"/>
		<line class="st1" x1="1225" y1="924" x2="1120" y2="924"/>
		<line class="st1" x1="1237" y1="924" x2="1256" y2="924"/>
		<line class="st1" x1="1154" y1="924" x2="1154" y2="986"/>
		<line class="st1" x1="1097" y1="924" x2="1097" y2="986"/>
		<line class="st1" x1="1015" y1="924" x2="1015" y2="986"/>
		<line class="st1" x1="961" y1="924" x2="961" y2="986"/>
		<line class="st1" x1="888" y1="924" x2="888" y2="986"/>
		<line class="st1" x1="826" y1="924" x2="826" y2="986"/>
		<line class="st1" x1="789" y1="924" x2="789" y2="986"/>
		<line class="st2" x1="924" y1="905" x2="924" y2="843"/>
		<line class="st2" x1="1173" y1="905" x2="1173" y2="843"/>
		<line class="st1" x1="1079" y1="905" x2="1079" y2="843"/>
		<line class="st1" x1="1004" y1="905" x2="1004" y2="843"/>
		<line class="st1" x1="967" y1="905" x2="967" y2="843"/>
		<line class="st2" x1="772" y1="842" x2="735" y2="842"/>
		<line class="st2" x1="798" y1="842" x2="850" y2="842"/>
		<line class="st2" x1="851" y1="905" x2="937" y2="905"/>
		<line class="st2" x1="851" y1="881" x2="851" y2="905"/>
		<line class="st1" x1="798" y1="777" x2="851" y2="777"/>
		<line class="st1" x1="798" y1="734" x2="851" y2="734"/>
		<line class="st2" x1="798" y1="673" x2="851" y2="673"/>
		<line class="st1" x1="772" y1="758" x2="713" y2="758"/>
		<line class="st2" x1="772" y1="673" x2="713" y2="673"/>
		<line class="st1" x1="768" y1="583" x2="696" y2="583"/>
		<line class="st1" x1="797" y1="636" x2="851" y2="636"/>
		<line class="st1" x1="797" y1="595" x2="851" y2="595"/>
		<line class="st2" x1="798" y1="463" x2="850" y2="463"/>
		<line class="st1" x1="798" y1="507" x2="851" y2="507"/>
		<line class="st1" x1="798" y1="547" x2="851" y2="547"/>
		<line class="st1" x1="769" y1="465" x2="696" y2="465"/>
		<line class="st1" x1="768" y1="513" x2="696" y2="513"/>
		<line class="st1" x1="769" y1="340" x2="696" y2="340"/>
		<line class="st1" x1="776" y1="288" x2="697" y2="288"/>
		<line class="st1" x1="792" y1="288" x2="850" y2="288"/>
		<line class="st1" x1="798" y1="398" x2="851" y2="398"/>
		<line class="st1" x1="768" y1="307" x2="768" y2="288"/>
		<line class="st1" x1="768" y1="316" x2="768" y2="416"/>
		<line class="st1" x1="768" y1="427" x2="768" y2="478"/>
		<line class="st1" x1="768" y1="492" x2="768" y2="528"/>
		<line class="st1" x1="768" y1="538" x2="768" y2="593"/>
		<line class="st1" x1="768" y1="609" x2="768" y2="673"/>
		<line class="st2" x1="772" y1="673" x2="772" y2="719"/>
		<line class="st1" x1="772" y1="733" x2="772" y2="771"/>
		<line class="st2" x1="772" y1="784" x2="772" y2="842"/>
		<line class="st2" x1="798" y1="842" x2="798" y2="806"/>
		<line class="st1" x1="798" y1="792" x2="798" y2="762"/>
		<line class="st1" x1="798" y1="749" x2="798" y2="724"/>
		<line class="st2" x1="798" y1="712" x2="798" y2="673"/>
		<line class="st1" x1="798" y1="636" x2="798" y2="623"/>
		<line class="st1" x1="798" y1="614" x2="798" y2="576"/>
		<line class="st1" x1="798" y1="561" x2="798" y2="532"/>
		<line class="st1" x1="798" y1="522" x2="798" y2="490"/>
		<line class="st2" x1="798" y1="479" x2="798" y2="463"/>
		<line class="st2" x1="798" y1="326" x2="798" y2="398"/>
		<line class="st2" x1="798" y1="310" x2="798" y2="288"/>
		<line class="st1" x1="1109" y1="924" x2="1085" y2="924"/>
		<line class="st1" x1="1069" y1="924" x2="999" y2="924"/>
		<line class="st1" x1="987" y1="924" x2="942" y2="924"/>
		<line class="st1" x1="927" y1="924" x2="858" y2="924"/>
		<line class="st1" x1="847" y1="924" x2="815" y2="924"/>
		<line class="st1" x1="803" y1="924" x2="764" y2="924"/>
		<line class="st1" x1="752" y1="924" x2="733" y2="924"/>
		<line class="st2" x1="978" y1="905" x2="952" y2="905"/>
		<line class="st1" x1="989" y1="905" x2="1018" y2="905"/>
		<line class="st1" x1="1032" y1="905" x2="1144" y2="905"/>
		<line class="st2" x1="1158" y1="905" x2="1173" y2="905"/>
	</g>
	<path d="M833.2,219.8c2.4,0,4.3,1.7,4.3,3.9s-1.9,3.9-4.3,3.9c-2.4,0-4.3-1.7-4.3-3.9S830.9,219.8,833.2,219.8z M838.6,228.5h-9.8
		c-1.4,0-2.8,0.2-3.8,1.4c-0.5,0.6-4.5,5.3-4.5,5.3h-5.7c-1,0-1.9,0.8-1.9,1.7c0,0.9,0.8,1.7,1.9,1.7h6.5c0.5,0,1-0.2,1.3-0.5
		l3.8-4.2c0.1-0.1,0.2-0.2,0.4-0.2c0.3,0,0.5,0.2,0.5,0.5v7.6h11.9v-7.5c0-0.3,0.2-0.5,0.5-0.5c0.3,0,0.5,0.2,0.5,0.5v7.5h3.8v-8.5
		C844,230.7,841.6,228.5,838.6,228.5z M810.9,230.3c0,0,0-0.4,0-0.5h7c-0.1,0.2-0.2,0.4-0.2,0.6c-0.1,0.3,0,0.6,0.1,0.8l-5.8,0
		C811.3,231.2,810.9,230.8,810.9,230.3 M818.6,218.9c0,0.9,0,8.9,0,9.8h-6.7l4.2-3.1l0-6.7C816.5,218.9,818.3,218.9,818.6,218.9
		 M819.3,231.2H819c-0.2-0.2-0.2-0.4-0.2-0.6c0.1-0.4,0.4-0.8,0.6-0.8l0,0c0.2-0.1,0.4-0.3,0.4-0.5l0-10.9c0-0.3-0.3-0.5-0.6-0.5
		c0,0-2.4,0-3.1,0c0-0.5,0-1.2,0-1.2c0-0.2-0.1-0.4-0.3-0.5c-0.2-0.1-0.5-0.1-0.6,0.1l-4.1,3.6c-0.7,0.6-1.3,1.9-1.3,2.8l-0.1,7.6
		c0,1.1,1,1.9,2.1,1.9l7.4,0c0.3,0,0.6-0.2,0.6-0.5l0,0C819.8,231.4,819.6,231.2,819.3,231.2"/>
	<g>
		<path d="M815.3,444.3c-1.1,0-2,0.9-2,2v12c0,1.1,0.9,2,2,2h12c1.1,0,2-0.9,2-2v-12c0-1.1-0.9-2-2-2L815.3,444.3L815.3,444.3z"/>
		<g>
			<polygon class="st3" points="824.1,447.3 824.1,450.5 821,450.5 821,453.7 817.9,453.7 817.9,456.9 815.6,456.9 815.6,458.6 
				819.4,458.6 819.4,455.4 822.4,455.4 822.4,452.2 825.5,452.2 825.5,449 827.8,449 827.8,447.3 			"/>
			<polygon class="st3" points="816.3,451.6 821.3,446.3 818.5,446.3 818.5,447.1 819.6,447.1 815.8,451.1 			"/>
		</g>
	</g>
	<g>
		<g>
			<path class="st4" d="M814.9,425.9c-0.3-0.2-0.4-0.5-0.4-0.9s0.1-0.7,0.4-0.9s0.6-0.4,0.9-0.4c0.4,0,0.7,0.1,0.9,0.4
				c0.3,0.2,0.4,0.5,0.4,0.9s-0.1,0.7-0.4,0.9c-0.3,0.2-0.6,0.4-0.9,0.4C815.5,426.3,815.2,426.1,814.9,425.9z M813.3,432
				c0.1,0.1,0.2,0.1,0.3,0.1s0.2,0,0.3-0.1c0.1-0.1,0.1-0.2,0.1-0.3v-3.3v-0.2c0-0.1,0-0.1,0.1-0.1c0.1,0,0.1,0,0.1,0s0.1,0,0.1,0
				c0.1,0,0.1,0.1,0.1,0.1v7.9c0,0.2,0.1,0.3,0.2,0.4c0.1,0.1,0.3,0.2,0.4,0.2s0.3-0.1,0.4-0.2c0.1-0.1,0.2-0.2,0.2-0.4V433v-1.7
				c0-0.1,0-0.1,0.1-0.2c0.1,0,0.1,0,0.2,0s0.1,0,0.1,0c0.1,0,0.1,0.1,0.1,0.2v1.7v3.1c0,0.2,0.1,0.3,0.2,0.4
				c0.1,0.1,0.3,0.2,0.4,0.2c0.2,0,0.3-0.1,0.4-0.2c0.1-0.1,0.2-0.2,0.2-0.4l0-7.9c0-0.1,0-0.1,0.1-0.1c0.1,0,0.1,0,0.1,0
				s0.1,0,0.1,0c0.1,0,0.1,0.1,0.1,0.1v0.2v3.3c0,0.1,0,0.2,0.1,0.3s0.2,0.1,0.3,0.1c0.1,0,0.2,0,0.3-0.1c0.1-0.1,0.1-0.2,0.1-0.3
				V428c0-0.4-0.1-0.7-0.4-1c-0.2-0.3-0.6-0.4-1-0.4h-1.5h0h-1.4c-0.4,0-0.7,0.1-0.9,0.4c-0.2,0.3-0.3,0.6-0.3,1v3.7
				C813.1,431.8,813.2,431.9,813.3,432z M827.4,421.7c0.2,0.2,0.2,0.3,0.2,0.6V438c0,0.2-0.1,0.4-0.2,0.6c-0.2,0.2-0.4,0.2-0.6,0.2
				h-15.6c-0.2,0-0.4-0.1-0.6-0.2c-0.2-0.2-0.2-0.3-0.2-0.6v-15.8c0-0.2,0.1-0.4,0.2-0.6c0.2-0.2,0.4-0.2,0.6-0.2h15.6
				C827,421.4,827.2,421.5,827.4,421.7z M826.3,422.8h-14.5v14.7h14.5V422.8L826.3,422.8z M822.1,426.3c0.4,0,0.7-0.1,0.9-0.4
				c0.3-0.2,0.4-0.5,0.4-0.9s-0.1-0.7-0.4-0.9c-0.3-0.2-0.6-0.4-0.9-0.4c-0.4,0-0.7,0.1-0.9,0.4c-0.3,0.2-0.4,0.5-0.4,0.9
				s0.1,0.7,0.4,0.9S821.8,426.3,822.1,426.3z M819.5,432c0.1,0.1,0.2,0.1,0.3,0.1s0.2,0,0.3-0.1s0.1-0.2,0.1-0.3v-3.3v-0.2
				c0-0.1,0-0.1,0.1-0.1c0.1,0,0.1,0,0.1,0s0.1,0,0.1,0c0.1,0,0.1,0.1,0.1,0.1v7.9c0,0.2,0.1,0.3,0.2,0.4s0.3,0.2,0.4,0.2
				c0.2,0,0.3-0.1,0.4-0.2c0.1-0.1,0.2-0.2,0.2-0.4V433v-1.7c0-0.1,0-0.1,0.1-0.2s0.1,0,0.2,0s0.1,0,0.2,0c0.1,0,0.1,0.1,0.1,0.2
				v1.7v3.1c0,0.2,0.1,0.3,0.2,0.4s0.3,0.2,0.4,0.2c0.2,0,0.3-0.1,0.4-0.2c0.1-0.1,0.2-0.2,0.2-0.4v-7.9c0-0.1,0-0.1,0.1-0.1
				c0.1,0,0.1,0,0.1,0s0.1,0,0.1,0c0.1,0,0.1,0.1,0.1,0.1v0.2v3.3c0,0.1,0,0.2,0.1,0.3c0.1,0.1,0.2,0.1,0.3,0.1s0.2,0,0.3-0.1
				s0.1-0.2,0.1-0.3V428c0-0.4-0.1-0.7-0.4-1c-0.3-0.3-0.6-0.4-1-0.4H822h0h0h-1.3c-0.4,0-0.7,0.1-0.9,0.4c-0.2,0.3-0.3,0.6-0.3,1
				v3.7C819.4,431.8,819.5,431.9,819.5,432z M833.7,435.7c-0.5,0-1.2,0-1.2,0s0-0.2,0-0.5c0-0.9,0-2.8,0-3.5c0,0,0-0.2-0.2-0.2
				c-0.2,0-1.6,0-1.9,0c-0.3,0-0.2,0.2-0.2,0.2c0,0.7,0,2.5,0,3.5c0,0.3,0,0.6,0,0.6s-0.9,0-1.3,0c-0.4,0,0,0.3,0,0.3l2.3,2.8
				c0,0,0.2,0.2,0.4,0c0.3-0.3,2.3-2.8,2.3-2.8S834.2,435.7,833.7,435.7z M828.9,425c0.5,0,1.2,0,1.2,0s0,0.2,0,0.5
				c0,0.9,0,2.8,0,3.5c0,0,0,0.2,0.2,0.2c0.2,0,1.6,0,1.9,0c0.3,0,0.2-0.2,0.2-0.2c0-0.7,0-2.5,0-3.5c0-0.3,0-0.6,0-0.6s0.9,0,1.3,0
				c0.4,0,0-0.3,0-0.3l-2.3-2.8c0,0-0.2-0.2-0.4,0c-0.3,0.3-2.3,2.8-2.3,2.8S828.4,425,828.9,425z"/>
		</g>
	</g>
	<g>
		<path d="M815,401.1c-1.1,0-2,0.9-2,2v12c0,1.1,0.9,2,2,2h12c1.1,0,2-0.9,2-2v-12c0-1.1-0.9-2-2-2L815,401.1L815,401.1z"/>
		<g>
			<polygon class="st3" points="823.8,404.2 823.8,407.4 820.7,407.4 820.7,410.6 817.6,410.6 817.6,413.8 815.3,413.8 815.3,415.4 
				819,415.4 819,412.2 822.1,412.2 822.1,409 825.2,409 825.2,405.8 827.5,405.8 827.5,404.2 			"/>
			<polygon class="st3" points="815.9,408.4 821,403.2 818.2,403.2 818.2,403.9 819.3,403.9 815.5,407.9 			"/>
		</g>
	</g>
	<g>
		<g>
			<path class="st4" d="M860.4,888.3c-0.3-0.2-0.4-0.5-0.4-0.9s0.1-0.7,0.4-0.9c0.3-0.2,0.6-0.4,0.9-0.4s0.7,0.1,0.9,0.4
				c0.3,0.2,0.4,0.5,0.4,0.9s-0.1,0.7-0.4,0.9c-0.3,0.2-0.6,0.4-0.9,0.4S860.6,888.6,860.4,888.3z M858.7,894.4
				c0.1,0.1,0.2,0.1,0.3,0.1s0.2,0,0.3-0.1c0.1-0.1,0.1-0.2,0.1-0.3v-3.3v-0.2c0-0.1,0-0.1,0.1-0.1c0.1,0,0.1,0,0.1,0s0.1,0,0.1,0
				c0.1,0,0.1,0.1,0.1,0.1v7.9c0,0.2,0.1,0.3,0.2,0.4s0.3,0.2,0.4,0.2c0.2,0,0.3-0.1,0.4-0.2c0.1-0.1,0.2-0.2,0.2-0.4v-3.1v-1.7
				c0-0.1,0-0.1,0.1-0.2c0.1,0,0.1,0,0.2,0s0.1,0,0.1,0c0.1,0,0.1,0.1,0.1,0.2v1.7v3.1c0,0.2,0.1,0.3,0.2,0.4s0.3,0.2,0.4,0.2
				c0.2,0,0.3-0.1,0.4-0.2c0.1-0.1,0.2-0.2,0.2-0.4l0-7.9c0-0.1,0-0.1,0.1-0.1c0.1,0,0.1,0,0.1,0s0.1,0,0.1,0c0.1,0,0.1,0.1,0.1,0.1
				v0.2v3.3c0,0.1,0,0.2,0.1,0.3s0.2,0.1,0.3,0.1c0.1,0,0.2,0,0.3-0.1c0.1-0.1,0.1-0.2,0.1-0.3v-3.7c0-0.4-0.1-0.7-0.4-1
				c-0.2-0.3-0.6-0.4-1-0.4h-1.5h0h-1.4c-0.4,0-0.7,0.1-0.9,0.4c-0.2,0.3-0.3,0.6-0.3,1v3.7C858.6,894.2,858.6,894.3,858.7,894.4z
				 M872.8,884.1c0.2,0.2,0.2,0.3,0.2,0.6v15.8c0,0.2-0.1,0.4-0.2,0.6c-0.2,0.2-0.4,0.2-0.6,0.2h-15.6c-0.2,0-0.4-0.1-0.6-0.2
				c-0.2-0.2-0.2-0.3-0.2-0.6v-15.8c0-0.2,0.1-0.4,0.2-0.6c0.2-0.2,0.4-0.2,0.6-0.2h15.6C872.5,883.9,872.7,884,872.8,884.1z
				 M871.7,885.2h-14.5v14.7h14.5V885.2L871.7,885.2z M867.6,888.7c0.4,0,0.7-0.1,0.9-0.4c0.3-0.2,0.4-0.5,0.4-0.9s-0.1-0.7-0.4-0.9
				c-0.3-0.2-0.6-0.4-0.9-0.4s-0.7,0.1-0.9,0.4c-0.3,0.2-0.4,0.5-0.4,0.9s0.1,0.7,0.4,0.9C866.9,888.6,867.2,888.7,867.6,888.7z
				 M865,894.4c0.1,0.1,0.2,0.1,0.3,0.1s0.2,0,0.3-0.1c0.1-0.1,0.1-0.2,0.1-0.3v-3.3v-0.2c0-0.1,0-0.1,0.1-0.1c0.1,0,0.1,0,0.1,0
				s0.1,0,0.1,0c0.1,0,0.1,0.1,0.1,0.1v7.9c0,0.2,0.1,0.3,0.2,0.4c0.1,0.1,0.3,0.2,0.4,0.2s0.3-0.1,0.4-0.2c0.1-0.1,0.2-0.2,0.2-0.4
				v-3.1v-1.7c0-0.1,0-0.1,0.1-0.2c0.1,0,0.1,0,0.2,0s0.1,0,0.2,0c0.1,0,0.1,0.1,0.1,0.2v1.7v3.1c0,0.2,0.1,0.3,0.2,0.4
				s0.3,0.2,0.4,0.2c0.2,0,0.3-0.1,0.4-0.2c0.1-0.1,0.2-0.2,0.2-0.4v-7.9c0-0.1,0-0.1,0.1-0.1c0.1,0,0.1,0,0.1,0s0.1,0,0.1,0
				c0.1,0,0.1,0.1,0.1,0.1v0.2v3.3c0,0.1,0,0.2,0.1,0.3c0.1,0.1,0.2,0.1,0.3,0.1s0.2,0,0.3-0.1c0.1-0.1,0.1-0.2,0.1-0.3v-3.7
				c0-0.4-0.1-0.7-0.4-1c-0.3-0.3-0.6-0.4-1-0.4h-1.4h0h0h-1.3c-0.4,0-0.7,0.1-0.9,0.4c-0.2,0.3-0.3,0.6-0.3,1v3.7
				C864.8,894.2,864.9,894.3,865,894.4z M879.2,898.2c-0.5,0-1.2,0-1.2,0s0-0.2,0-0.5c0-0.9,0-2.8,0-3.5c0,0,0-0.2-0.2-0.2
				c-0.2,0-1.6,0-1.9,0c-0.3,0-0.2,0.2-0.2,0.2c0,0.7,0,2.5,0,3.5c0,0.3,0,0.6,0,0.6s-0.9,0-1.3,0c-0.4,0,0,0.3,0,0.3l2.3,2.8
				c0,0,0.2,0.2,0.4,0c0.3-0.3,2.3-2.8,2.3-2.8S879.6,898.2,879.2,898.2z M874.4,887.4c0.5,0,1.2,0,1.2,0s0,0.2,0,0.5
				c0,0.9,0,2.8,0,3.5c0,0,0,0.2,0.2,0.2s1.6,0,1.9,0s0.2-0.2,0.2-0.2c0-0.7,0-2.5,0-3.5c0-0.3,0-0.6,0-0.6s0.9,0,1.3,0
				c0.4,0,0-0.3,0-0.3l-2.3-2.8c0,0-0.2-0.2-0.4,0c-0.3,0.3-2.3,2.8-2.3,2.8S873.9,887.4,874.4,887.4z"/>
		</g>
	</g>
	<g>
		<path d="M890.9,850.4c-1.7,0-3.2,1.4-3.2,3.2v18.9c0,1.7,1.4,3.2,3.2,3.2h18.9c1.7,0,3.2-1.4,3.2-3.2v-18.9c0-1.7-1.4-3.2-3.2-3.2
			L890.9,850.4L890.9,850.4z"/>
		<g>
			<polygon class="st3" points="904.8,855.1 904.8,860.2 900,860.2 900,865.2 895.1,865.2 895.1,870.2 891.4,870.2 891.4,872.8 
				897.4,872.8 897.4,867.8 902.2,867.8 902.2,862.7 907,862.7 907,857.7 910.7,857.7 910.7,855.1 			"/>
			<polygon class="st3" points="892.5,861.9 900.4,853.5 896,853.5 896,854.7 897.8,854.7 891.8,861 			"/>
		</g>
	</g>
	<line class="st1" x1="884" y1="881" x2="924" y2="881"/>
	<line class="st2" x1="884" y1="881" x2="884" y2="905"/>
	<g>
		<path d="M1179.5,851.4c-1.7,0-3.2,1.4-3.2,3.2v18.9c0,1.7,1.4,3.2,3.2,3.2h18.9c1.7,0,3.2-1.4,3.2-3.2v-18.9
			c0-1.7-1.4-3.2-3.2-3.2L1179.5,851.4L1179.5,851.4z"/>
		<g>
			<polygon class="st3" points="1193.3,856.1 1193.3,861.2 1188.5,861.2 1188.5,866.2 1183.7,866.2 1183.7,871.2 1179.9,871.2 
				1179.9,873.8 1185.9,873.8 1185.9,868.8 1190.7,868.8 1190.7,863.8 1195.5,863.8 1195.5,858.7 1199.2,858.7 1199.2,856.1 			"/>
			<polygon class="st3" points="1181,862.9 1188.9,854.5 1184.5,854.5 1184.5,855.7 1186.3,855.7 1180.3,862 			"/>
		</g>
	</g>
	<text transform="matrix(1.6604 0 0 1 856.0107 235.4463)" class="st5 st6 st7">БИБЛИОТЕКА</text>
	<g>
		<path d="M813.7,642.5c-1.7,0-3.2,1.4-3.2,3.2v18.9c0,1.7,1.4,3.2,3.2,3.2h18.9c1.7,0,3.2-1.4,3.2-3.2v-18.9c0-1.7-1.4-3.2-3.2-3.2
			L813.7,642.5L813.7,642.5z"/>
		<g>
			<polygon class="st3" points="827.5,647.3 827.5,652.3 822.7,652.3 822.7,657.4 817.9,657.4 817.9,662.4 814.2,662.4 814.2,665 
				820.1,665 820.1,660 824.9,660 824.9,654.9 829.7,654.9 829.7,649.9 833.5,649.9 833.5,647.3 			"/>
			<polygon class="st3" points="815.2,654 823.1,645.7 818.7,645.7 818.7,646.9 820.5,646.9 814.5,653.2 			"/>
		</g>
	</g>
	<g>
		<text transform="matrix(0.9067 0 0 1 826.5068 490.3438)" class="st6 st8">WC</text>
		<text transform="matrix(0.9067 0 0 1 826.5068 490.3438)" class="st9 st6 st8">WC</text>
		<g>
			<path class="st4" d="M822.9,489.7l-3.8-6.9c0,0-0.1-0.1-0.1-0.1c0-0.1,0.1-0.2,0.3-0.2c0.1,0,0.2,0.1,0.3,0.2l2.6,4.5
				c0.2,0.3,0.7,0.5,1.4,0.5c0.3,0,0.4-0.1,0.5-0.4c0.1-0.2,0.2-0.4,0.2-0.5l-2.6-4.3c-0.1-0.5-0.5-1-1.1-1.3
				c-0.7-0.4-1.4-0.5-2.3-0.5h-3.3c-0.9,0-1.7,0.2-2.4,0.6c-0.7,0.4-1.1,0.8-1.2,1.3l-2.4,4.4c-0.1,0.1-0.1,0.2,0.1,0.5
				s0.3,0.4,0.6,0.4c0.8,0,1.3-0.1,1.4-0.4l2.5-4.5c0-0.1,0.1-0.1,0.3-0.1c0.2,0,0.3,0.1,0.3,0.2v0l-3.7,7v0.5
				c0,0.1,0.1,0.2,0.3,0.3c0.2,0.1,0.4,0.2,0.4,0.2h2.4v5.4c0,0.2,0.1,0.4,0.4,0.6c0.3,0.2,0.6,0.2,0.9,0.2s0.6-0.1,0.9-0.2
				s0.4-0.4,0.4-0.6v-5.6c0,0,0.1-0.1,0.3-0.1c0.2,0,0.4,0,0.7,0c0.2,0,0.3,0,0.3,0.1v5.6c0,0.2,0.1,0.4,0.4,0.6
				c0.3,0.2,0.6,0.3,0.9,0.3c0.4,0,0.7-0.1,0.9-0.3c0.3-0.2,0.4-0.4,0.4-0.6v-5.4h2.4c0.1,0,0.3-0.1,0.4-0.2
				c0.2-0.1,0.3-0.2,0.3-0.3v-0.1V490L822.9,489.7L822.9,489.7L822.9,489.7z"/>
			<path class="st4" d="M813.8,478c0,0.5,0.3,0.9,0.8,1.3c0.5,0.3,1.2,0.5,1.9,0.5s1.4-0.2,1.9-0.5c0.5-0.4,0.8-0.8,0.8-1.3
				s-0.3-0.9-0.8-1.3c-0.5-0.4-1.2-0.5-1.9-0.5s-1.4,0.2-1.9,0.5C814,477.1,813.8,477.5,813.8,478z"/>
		</g>
	</g>
	<g>
		<g>
			<path class="st4" d="M812.8,536.7c0,0.6,0.5,0.8,1.4,0.8c0.9,0,1.4-0.3,1.4-0.8V529h1.4v7.6c0,0.6,0.5,0.8,1.4,0.8
				c0.9,0,1.4-0.3,1.4-0.8v-13h0.7v4.7c0,0.3,0.2,0.5,0.5,0.6c0.3,0.1,0.7,0.1,1,0c0.4-0.1,0.5-0.4,0.5-0.6v-5c0-0.5-0.3-1-0.9-1.2
				c-0.6-0.3-1.4-0.4-2.5-0.4h-5.5c-1,0-1.9,0.1-2.5,0.4c-0.6,0.3-1,0.7-1,1.2v5.4c0,0.2,0.2,0.4,0.5,0.5c0.4,0.1,0.7,0.1,1,0
				c0.3-0.1,0.5-0.3,0.5-0.5v-4.9h0.7V536.7z"/>
			<path class="st4" d="M813.3,519.2c0,0.5,0.3,0.9,0.8,1.2c0.6,0.3,1.2,0.5,2,0.5s1.4-0.2,2-0.5c0.6-0.3,0.8-0.7,0.8-1.2
				c0-0.5-0.3-0.9-0.8-1.2c-0.6-0.3-1.2-0.5-2-0.5s-1.4,0.2-2,0.5C813.6,518.3,813.3,518.7,813.3,519.2z"/>
		</g>
		<text transform="matrix(1.0954 0 0 1 826.7412 531.5083)" class="st6 st10">WC</text>
		<text transform="matrix(1.0954 0 0 1 826.7412 531.5083)" class="st9 st6 st10">WC</text>
	</g>
	<line class="st11" x1="776" y1="836.5" x2="794.5" y2="836.5"/>
	<line class="st11" x1="776" y1="838.5" x2="794.5" y2="838.5"/>
	<line class="st11" x1="776" y1="840.5" x2="794.5" y2="840.5"/>
	<g>
		<circle cx="1056.5" cy="954.9" r="15"/>
		<text transform="matrix(0.9941 0 0 1 1045 958.7314)" class="st12 st6 st13">303Б</text>
	</g>
	<g>
		<circle cx="1126.5" cy="955.4" r="15"/>
		<text transform="matrix(0.9247 0 0 1 1116.2655 960.2041)" class="st12 st6 st14">311</text>
	</g>
	<g>
		<circle cx="1180.5" cy="955.4" r="15"/>
		<text transform="matrix(0.9005 0 0 1 1169.9995 960.1582)" class="st12 st6 st15">311А</text>
	</g>
	<g>
		<circle cx="1231.5" cy="955.4" r="15"/>
		<text transform="matrix(0.9247 0 0 1 1221.2654 960.2041)" class="st12 st6 st14">313</text>
	</g>
	<g>
		<circle cx="1232" cy="887.6" r="15"/>
		<text transform="matrix(0.9247 0 0 1 1221.7605 892.4102)" class="st12 st6 st14">315</text>
	</g>
	<g>
		<circle cx="1126" cy="875.2" r="15"/>
		<text transform="matrix(0.9247 0 0 1 1115.7703 879.998)" class="st12 st6 st14">318</text>
	</g>
	<g>
		<circle cx="1041" cy="874.2" r="15"/>
		<text transform="matrix(0.9247 0 0 1 1030.7703 878.998)" class="st12 st6 st14">316</text>
	</g>
	<g>
		<circle cx="824" cy="811.2" r="15"/>
		<text transform="matrix(0.9247 0 0 1 813.7701 815.998)" class="st12 st6 st14">306</text>
	</g>
	<g>
		<circle cx="824" cy="757.6" r="15"/>
		<text transform="matrix(0.9247 0 0 1 813.7606 762.4102)" class="st12 st6 st14">304</text>
	</g>
	<g>
		<circle cx="824" cy="704.2" r="15"/>
		<text transform="matrix(0.9247 0 0 1 813.7703 708.998)" class="st12 st6 st14">302</text>
	</g>
	<g>
		<circle cx="741" cy="803.2" r="15"/>
		<text transform="matrix(0.7803 0 0 1 730.7705 807.46)" class="st12 st6 st16">301А</text>
	</g>
	<g>
		<circle cx="741" cy="716.2" r="15"/>
		<text transform="matrix(0.8809 0 0 1 729.7705 719.7344)" class="st12 st6 st17">301Б</text>
	</g>
	<g>
		<circle cx="732" cy="629.6" r="15"/>
		<text transform="matrix(0.9247 0 0 1 721.7606 634.4102)" class="st12 st6 st14">326</text>
	</g>
	<g>
		<circle cx="824" cy="573.2" r="15"/>
		<text transform="matrix(0.9247 0 0 1 813.7701 577.998)" class="st12 st6 st14">327</text>
	</g>
	<g>
		<circle cx="732" cy="550.2" r="15"/>
		<text transform="matrix(0.9247 0 0 1 721.7701 554.998)" class="st12 st6 st14">328</text>
	</g>
	<g>
		<circle cx="731" cy="490.2" r="15"/>
		<text transform="matrix(0.9247 0 0 1 720.7701 494.998)" class="st12 st6 st14">329</text>
	</g>
	<g>
		<circle cx="759" cy="954.6" r="15"/>
		<text transform="matrix(0.9247 0 0 1 748.7606 959.4102)" class="st12 st6 st14">303</text>
	</g>
	<g>
		<circle cx="807" cy="955.2" r="15"/>
		<text transform="matrix(0.9247 0 0 1 796.7701 959.998)" class="st12 st6 st14">303</text>
	</g>
	<g>
		<circle cx="924" cy="955.2" r="15"/>
		<text transform="matrix(0.9247 0 0 1 913.7703 959.998)" class="st12 st6 st14">303</text>
	</g>
	<g>
		<circle cx="989" cy="955.2" r="15"/>
		<text transform="matrix(0.9858 0 0 1 978 959.0088)" class="st12 st6 st18">303A</text>
	</g>
	<g>
		<circle cx="731" cy="404.6" r="15"/>
		<text transform="matrix(0.9247 0 0 1 720.7606 409.4102)" class="st12 st6 st14">330</text>
	</g>
	<g>
		<circle cx="825" cy="343.2" r="15"/>
		<text transform="matrix(0.9247 0 0 1 814.7701 347.998)" class="st12 st6 st14">315</text>
	</g>
	<g>
		<circle cx="731" cy="316.2" r="15"/>
		<text transform="matrix(0.9247 0 0 1 720.7701 320.998)" class="st12 st6 st14">333</text>
	</g>
	<g>
		<text transform="matrix(1.5759 0 0 1 781 115.8223)" class="st6 st19">ЭТАЖ</text>
		<circle class="st20" cx="728" cy="95.2" r="35"/>
		<text transform="matrix(1.208 0 0 1 716.4863 110.582)" class="st3 st6 st21">3</text>
	</g>
	<g>
		<rect x="831" y="961.7" width="14.9" height="1.1"/>
		<path d="M843,952.1h-8.8c-0.6,0-1.1,0.5-1.1,1.1v4.5c0,1.6,1.2,2.8,2.7,2.8h4.3c1.5,0,2.7-1.3,2.7-2.8v-0.6h0.3
			c1.3,0,2.4-1.1,2.4-2.5C845.4,953.3,844.3,952.1,843,952.1z M841.7,957.8c0,0.9-0.7,1.7-1.6,1.7h-4.3c-0.9,0-1.6-0.8-1.6-1.7v-4.5
			h7.5V957.8z M843,956.1h-0.3v-2.8h0.3c0.7,0,1.3,0.6,1.3,1.4C844.3,955.4,843.7,956.1,843,956.1z"/>
		<path d="M840.1,951H839v-0.1c0-0.4-0.2-0.8-0.6-1l-1.4-0.8c-0.7-0.4-1.2-1.2-1.2-2v-0.6h1.1v0.6c0,0.4,0.2,0.8,0.6,1l1.4,0.8
			C839.6,949.3,840.1,950,840.1,951L840.1,951z"/>
		<rect id="_Transparent_Rectangle_" x="829.9" y="945.9" class="st22" width="17.1" height="18.1"/>
	</g>
	<text transform="matrix(2.034 0 0 1 849.6203 959.5411)" class="st5 st6 st23">КАФЕ</text>
</g>
</svg>
