<?xml version="1.0" encoding="utf-8"?>
<!-- Generator: Adobe Illustrator 27.3.1, SVG Export Plug-In . SVG Version: 6.00 Build 0)  -->
<svg version="1.1" id="Слой_1" xmlns="http://www.w3.org/2000/svg" xmlns:xlink="http://www.w3.org/1999/xlink" x="0px" y="0px"
	 viewBox="0 0 1920 1080" style="enable-background:new 0 0 1920 1080;" xml:space="preserve">
<style type="text/css">
	.st0{fill:#94C4FF;stroke:#FFFFFF;stroke-width:4;stroke-linecap:square;stroke-miterlimit:10;}
	.st1{fill:none;stroke:#FFFFFF;stroke-width:2;stroke-miterlimit:10;}
	.st2{fill:none;stroke:#FFFFFF;stroke-width:2;stroke-linecap:square;stroke-miterlimit:10;}
	.st3{fill:none;stroke:#FFFFFF;stroke-miterlimit:10;}
	.st4{fill:none;stroke:#FFFFFF;stroke-width:4;stroke-linecap:square;stroke-miterlimit:10;}
	.st5{stroke:#000000;stroke-width:2;stroke-miterlimit:10;}
	.st6{fill:#010002;}
	.st7{font-family:'ArialMT';}
	.st8{font-size:24.0912px;}
	.st9{fill:none;stroke:#000000;stroke-miterlimit:10;}
	.st10{stroke:#000000;stroke-linecap:round;stroke-miterlimit:10;}
	.st11{fill:#FFFFFF;}
	.st12{font-size:20.7446px;}
	.st13{font-size:20.1632px;}
	.st14{fill:none;stroke:#000000;stroke-width:0.75;stroke-miterlimit:10;}
	.st15{font-size:26.4769px;}
	.st16{font-size:51.0659px;}
	.st17{font-size:44.405px;}
</style>
<g>
	<g>
		<polyline class="st0" points="1054,786 1409,786 1409,255 1016,255 1016,219 839,219 839,255 840,255 428,255 428,786 818,786 		
			"/>
		<g>
			<line class="st1" x1="693" y1="255" x2="693" y2="474"/>
			<line class="st1" x1="777" y1="255" x2="777" y2="474"/>
			<line class="st1" x1="840" y1="257" x2="840" y2="474"/>
			<line class="st1" x1="1015" y1="255" x2="1015" y2="474"/>
			<line class="st1" x1="1095" y1="255" x2="1095" y2="474"/>
			<line class="st1" x1="1171" y1="255" x2="1171" y2="474"/>
			<line class="st1" x1="1249" y1="255" x2="1249" y2="474"/>
			<line class="st1" x1="1323" y1="255" x2="1323" y2="474"/>
			<line class="st1" x1="1280" y1="554" x2="1280" y2="786"/>
			<line class="st1" x1="1095" y1="554" x2="1095" y2="786"/>
			<line class="st2" x1="770" y1="554" x2="770" y2="656"/>
			<line class="st1" x1="581" y1="554" x2="581" y2="786"/>
			<line class="st3" x1="811" y1="554" x2="770" y2="554"/>
			<line class="st3" x1="1054" y1="554" x2="1095" y2="554"/>
			<line class="st4" x1="858" y1="786" x2="910" y2="786"/>
			<line class="st4" x1="959" y1="786" x2="1015" y2="786"/>
			<line class="st2" x1="431" y1="474" x2="600" y2="474"/>
			<line class="st2" x1="641" y1="474" x2="718" y2="474"/>
			<line class="st2" x1="748" y1="474" x2="840" y2="474"/>
			<line class="st1" x1="770" y1="694" x2="770" y2="786"/>
			<line class="st1" x1="431" y1="554" x2="467" y2="554"/>
			<line class="st1" x1="501" y1="554" x2="811" y2="554"/>
			<line class="st2" x1="1015" y1="474" x2="1051" y2="474"/>
			<line class="st2" x1="1081" y1="474" x2="1107" y2="474"/>
			<line class="st2" x1="1135" y1="474" x2="1214" y2="474"/>
			<line class="st2" x1="1237" y1="474" x2="1261" y2="474"/>
			<line class="st2" x1="1286" y1="474" x2="1336" y2="474"/>
			<line class="st2" x1="1359" y1="474" x2="1409" y2="474"/>
			<line class="st1" x1="1046" y1="554" x2="1135" y2="554"/>
			<line class="st1" x1="1182" y1="554" x2="1310" y2="554"/>
			<line class="st1" x1="1342" y1="554" x2="1409" y2="554"/>
		</g>
	</g>
	<g>
		<rect x="829" y="605" class="st5" width="201" height="4"/>
		<rect x="829" y="596" class="st5" width="201" height="4"/>
		<rect x="829" y="614" class="st5" width="201" height="4"/>
	</g>
	<g>
		<g>
			<path class="st6" d="M943.7,427.7c-0.8-0.8-1.1-1.7-1.1-2.8c0-1.1,0.4-2,1.1-2.8c0.8-0.8,1.7-1.1,2.8-1.1s2,0.4,2.8,1.1
				c0.8,0.8,1.1,1.7,1.1,2.8c0,1.1-0.4,2-1.1,2.8c-0.8,0.8-1.7,1.1-2.8,1.1C945.4,428.8,944.5,428.5,943.7,427.7z M938.7,446.4
				c0.2,0.2,0.5,0.3,0.9,0.3s0.6-0.1,0.9-0.3s0.4-0.5,0.4-0.9v-10.1v-0.5c0-0.2,0.1-0.3,0.2-0.3c0.2-0.1,0.3-0.1,0.4-0.1
				c0.1,0,0.2,0,0.4,0.1s0.2,0.2,0.2,0.3v24.4c0,0.5,0.2,0.9,0.5,1.2c0.4,0.3,0.8,0.5,1.3,0.5s0.9-0.2,1.3-0.5
				c0.4-0.3,0.5-0.7,0.5-1.2v-9.5v-5.4c0-0.3,0.1-0.4,0.3-0.5s0.4-0.1,0.5-0.1s0.3,0,0.5,0.1s0.3,0.3,0.3,0.5v5.4v9.5
				c0,0.5,0.2,0.9,0.5,1.2c0.4,0.3,0.8,0.5,1.3,0.5s1-0.2,1.3-0.5s0.5-0.7,0.5-1.2l0.1-24.4c0-0.2,0.1-0.3,0.2-0.3
				c0.2-0.1,0.3-0.1,0.4-0.1c0.1,0,0.2,0,0.4,0.1s0.2,0.2,0.2,0.3v0.5v10.1c0,0.4,0.1,0.7,0.4,0.9s0.5,0.3,0.8,0.3s0.6-0.1,0.8-0.3
				s0.4-0.5,0.4-0.9v-11.2c0-1.1-0.4-2.1-1.1-2.9s-1.7-1.3-3-1.3h-4.4H946h-4.1c-1.3,0-2.2,0.4-2.8,1.3s-0.9,1.8-0.9,2.9v11.2
				C938.3,445.9,938.4,446.2,938.7,446.4z M981.2,414.7c0.5,0.5,0.7,1,0.7,1.8V465c0,0.7-0.2,1.3-0.7,1.8s-1.1,0.7-1.8,0.7h-46.9
				c-0.7,0-1.3-0.2-1.8-0.7s-0.7-1-0.7-1.8v-48.6c0-0.7,0.2-1.3,0.7-1.8s1.1-0.7,1.8-0.7h46.9C980.1,414,980.7,414.2,981.2,414.7z
				 M977.9,418.1h-43.8v45.3h43.8V418.1L977.9,418.1z M965.4,428.8c1.1,0,2-0.4,2.8-1.1c0.8-0.8,1.1-1.7,1.1-2.8
				c0-1.1-0.4-2-1.1-2.8c-0.8-0.8-1.7-1.1-2.8-1.1s-2,0.4-2.8,1.1c-0.8,0.8-1.1,1.7-1.1,2.8c0,1.1,0.4,2,1.1,2.8
				C963.4,428.5,964.3,428.8,965.4,428.8z M957.5,446.4c0.2,0.2,0.5,0.3,0.9,0.3s0.6-0.1,0.9-0.3s0.4-0.5,0.4-0.9v-10.1v-0.5
				c0-0.2,0.1-0.3,0.2-0.3c0.2-0.1,0.3-0.1,0.4-0.1c0.1,0,0.2,0,0.4,0.1s0.2,0.2,0.2,0.3v24.4c0,0.5,0.2,0.9,0.5,1.2
				c0.4,0.3,0.8,0.5,1.3,0.5s0.9-0.2,1.3-0.5c0.4-0.3,0.5-0.7,0.5-1.2v-9.5v-5.4c0-0.3,0.1-0.4,0.3-0.5s0.4-0.1,0.5-0.1
				s0.3,0,0.5,0.1s0.3,0.3,0.3,0.5v5.4v9.5c0,0.5,0.2,0.9,0.5,1.2c0.3,0.3,0.8,0.5,1.3,0.5s0.9-0.2,1.3-0.5c0.4-0.3,0.5-0.7,0.5-1.2
				v-24.4c0-0.2,0.1-0.3,0.2-0.3c0.2-0.1,0.3-0.1,0.4-0.1c0.1,0,0.2,0,0.4,0.1s0.2,0.2,0.2,0.3v0.5v10.1c0,0.4,0.1,0.7,0.4,0.9
				s0.5,0.3,0.9,0.3c0.3,0,0.6-0.1,0.9-0.3s0.4-0.5,0.4-0.9v-11.2c0-1.1-0.4-2.1-1.1-2.9c-0.8-0.9-1.8-1.3-3-1.3H965l0,0h-0.1h-4
				c-1.3,0-2.2,0.4-2.8,1.3s-0.9,1.8-0.9,2.9v11.2C957.2,445.9,957.3,446.2,957.5,446.4z M1000.3,457.9c-1.4,0-3.7,0-3.7,0
				s0-0.6,0-1.5c0-2.9,0-8.5,0-10.6c0,0,0-0.5-0.6-0.5c-0.7,0-4.7,0-5.6,0c-0.9,0-0.8,0.6-0.8,0.6c0,2.2,0,7.6,0,10.6
				c0,1,0,1.7,0,1.7s-2.8,0-4,0s-0.1,1-0.1,1l7.1,8.5c0,0,0.6,0.7,1.2,0.1c0.8-0.8,6.8-8.8,6.8-8.8S1001.7,457.9,1000.3,457.9z
				 M985.8,424.8c1.4,0,3.7,0,3.7,0s0,0.6,0,1.5c0,2.9,0,8.5,0,10.6c0,0,0,0.5,0.6,0.5c0.7,0,4.7,0,5.6,0c0.9,0,0.8-0.6,0.8-0.6
				c0-2.2,0-7.6,0-10.6c0-1,0-1.7,0-1.7s2.8,0,4,0s0.1-1,0.1-1l-7.1-8.5c0,0-0.6-0.7-1.2-0.1c-0.8,0.8-6.8,8.8-6.8,8.8
				S984.4,424.8,985.8,424.8z"/>
		</g>
	</g>
	<g>
		<g>
			<path class="st6" d="M1054.4,376.2l-7.1-15c-0.1-0.1-0.1-0.1-0.1-0.2c0-0.3,0.2-0.5,0.6-0.5c0.2,0,0.4,0.1,0.5,0.4l4.8,9.7
				c0.4,0.7,1.3,1,2.6,1c0.5,0,0.8-0.3,1-0.8s0.3-0.9,0.3-1.1l-4.9-9.3c-0.2-1.1-0.9-2.1-2.1-2.9s-2.7-1.2-4.3-1.2h-6.2
				c-1.6,0-3.1,0.4-4.4,1.2c-1.3,0.8-2.1,1.8-2.3,2.9l-4.6,9.4c-0.2,0.2-0.1,0.5,0.1,1s0.6,0.8,1.1,0.8c1.5,0,2.4-0.3,2.6-0.9
				l4.7-9.8c0.1-0.2,0.2-0.3,0.5-0.3s0.5,0.1,0.5,0.4v0.1l-6.9,15.1v1.2c0,0.1,0.2,0.3,0.6,0.6c0.4,0.3,0.7,0.5,0.8,0.5h4.5v11.7
				c0,0.5,0.3,0.9,0.8,1.3s1.1,0.5,1.7,0.5s1.2-0.2,1.6-0.5c0.5-0.4,0.7-0.8,0.7-1.3v-12.1c0-0.1,0.2-0.1,0.6-0.1s0.8,0,1.2,0
				c0.4,0,0.6,0.1,0.6,0.1v12c0,0.5,0.2,0.9,0.7,1.3s1,0.6,1.7,0.6s1.2-0.2,1.7-0.6s0.7-0.8,0.7-1.3v-11.6h4.6
				c0.2,0,0.5-0.2,0.8-0.5s0.5-0.5,0.5-0.6v-0.3v-0.4v-0.4v-0.1L1054.4,376.2L1054.4,376.2z"/>
			<path class="st6" d="M1037.4,350.8c0,1.1,0.5,2,1.5,2.7c1,0.8,2.2,1.1,3.5,1.1c1.4,0,2.5-0.4,3.5-1.1c1-0.8,1.5-1.7,1.5-2.7
				s-0.5-2-1.5-2.7c-1-0.8-2.2-1.1-3.5-1.1c-1.4,0-2.5,0.4-3.5,1.1C1037.9,348.9,1037.4,349.8,1037.4,350.8z"/>
		</g>
		<text transform="matrix(0.7815 0 0 1 1060.1543 377.978)" class="st7 st8">WC</text>
		<text transform="matrix(0.7815 0 0 1 1060.1543 377.978)" class="st9 st7 st8">WC</text>
	</g>
	<line class="st3" x1="840.5" y1="255" x2="840.5" y2="262"/>
	<g>
		<circle class="st10" cx="501" cy="672" r="22.5"/>
		<text transform="matrix(0.9129 0 0 1 482.1738 679.124)" class="st11 st7 st12">101а</text>
		<text transform="matrix(0.9129 0 0 1 482.1738 679.124)" class="st3 st7 st12">101а</text>
	</g>
	<g>
		<circle class="st10" cx="676" cy="674" r="22.5"/>
		<text transform="matrix(0.9129 0 0 1 661.1733 681.124)" class="st11 st7 st12">101</text>
		<text transform="matrix(0.9129 0 0 1 661.1733 681.124)" class="st3 st7 st12">101</text>
	</g>
	<g>
		<circle class="st10" cx="1135" cy="371" r="22.5"/>
		<text transform="matrix(0.9129 0 0 1 1120.1738 378.124)" class="st11 st7 st12">104</text>
		<text transform="matrix(0.9129 0 0 1 1120.1738 378.124)" class="st3 st7 st12">104</text>
	</g>
	<g>
		<circle class="st10" cx="1214" cy="371" r="22.5"/>
		<text transform="matrix(0.9129 0 0 1 1199.1738 378.124)" class="st11 st7 st12">105</text>
		<text transform="matrix(0.9129 0 0 1 1199.1738 378.124)" class="st3 st7 st12">105</text>
	</g>
	<g>
		<circle class="st10" cx="1287" cy="371" r="22.5"/>
		<text transform="matrix(0.9129 0 0 1 1272.1738 378.124)" class="st11 st7 st12">106</text>
		<text transform="matrix(0.9129 0 0 1 1272.1738 378.124)" class="st3 st7 st12">106</text>
	</g>
	<g>
		<circle class="st10" cx="1368" cy="371" r="22.5"/>
		<text transform="matrix(0.9129 0 0 1 1353.1738 378.124)" class="st11 st7 st12">107</text>
		<text transform="matrix(0.9129 0 0 1 1353.1738 378.124)" class="st3 st7 st12">107</text>
	</g>
	<g>
		<circle class="st10" cx="561" cy="371" r="22.5"/>
		<text transform="matrix(0.9129 0 0 1 546.1733 378.124)" class="st11 st7 st12">103</text>
		<text transform="matrix(0.9129 0 0 1 546.1733 378.124)" class="st3 st7 st12">103</text>
	</g>
	<text transform="matrix(1.4521 0 0 1 1145.584 683.5732)" class="st7 st13">Гардероб</text>
	<text transform="matrix(1.4521 0 0 1 1145.584 683.5732)" class="st14 st7 st13">Гардероб</text>
	<path d="M934.1,793.6c0.8-0.8,2-0.8,2.7,0l9.6,10c0.7,0.8,0.7,2.1,0,2.8s-1.9,0.7-2.7,0l-6.3-6.6V835c0,1.1-0.9,2-1.9,2
		s-1.9-0.9-1.9-2v-35.2l-6.3,6.6c-0.8,0.8-2,0.7-2.7,0c-0.7-0.8-0.7-2,0-2.8L934.1,793.6z"/>
	<text transform="matrix(1.3295 0 0 1 828.4395 861.7324)" class="st7 st15">Главный вход</text>
	<text transform="matrix(1.3295 0 0 1 828.4395 861.7324)" class="st14 st7 st15">Главный вход</text>
	<g>
		<path d="M946.7,547.5c-1.4-1.5-3.6-2.4-5.6-3c-1-0.3-2-0.5-2.9-0.7s-1.6-0.3-2.1-0.5c-0.9-0.2-1.8-0.6-2.5-0.9
			c-0.3-0.2-0.6-0.3-0.7-0.5c-0.1-0.1-0.2-0.3-0.2-0.3c0-0.6,0-1.4,0-2.4c1.1-0.9,2.8-2.4,3.5-4.6c0.2-0.1,0.5-0.2,0.7-0.3
			c0.6-0.3,1-0.7,1.4-1.2c0.4-0.6,0.8-1.3,1.1-2.2c0.2-0.5,0.3-0.9,0.3-1.3c0-0.4-0.1-0.8-0.4-1.1c-0.3-0.4-0.8-0.7-1.2-0.8l0.9-1
			v-1.1c0.1-0.1,0.1-0.2,0.1-0.2V523l2.4-3.4c0.6-0.9,0.1-1.9-1-2.4l-13.7-5.3c-0.7-0.3-1.6-0.3-2.3,0l-13.7,5.3
			c-1.2,0.5-1.6,1.5-1,2.4l2.4,3.4v2.4c0,0.1,0,0.1,0.1,0.2v1.1l0.9,1c-0.1,0-0.2,0.1-0.3,0.1c-0.3,0.1-0.6,0.4-0.9,0.7
			c-0.2,0.3-0.4,0.7-0.4,1.1c0,0.4,0.1,0.8,0.3,1.3c0.5,1.3,1,2.1,1.6,2.7c0.3,0.3,0.6,0.5,1,0.7c0.2,0.1,0.5,0.2,0.7,0.3
			c0.7,2.3,2.3,3.7,3.5,4.6c0,1,0,1.8,0,2.4c0,0.1,0,0.2-0.2,0.3c-0.2,0.2-0.7,0.5-1.3,0.8c-0.6,0.2-1.3,0.5-1.9,0.6
			c-0.7,0.2-1.8,0.4-3.1,0.6c-1.9,0.4-4.1,1-5.9,2.1c-0.9,0.6-1.7,1.3-2.3,2.2s-0.9,1.9-0.9,3.2c0,0.3,0,0.6,0.1,0.9
			c0,0.2,0.1,0.4,0.3,0.5c0.2,0.3,0.6,0.5,1,0.7c0.7,0.3,1.7,0.7,3,1c3.9,1,10.2,1.9,18.2,1.9c6.4,0,11.9-0.6,15.7-1.4
			c1.9-0.4,3.5-0.8,4.6-1.2c0.6-0.2,1-0.4,1.4-0.6c0.2-0.1,0.3-0.2,0.5-0.4c0.1-0.1,0.2-0.3,0.3-0.5c0-0.3,0.1-0.6,0.1-0.9
			C948.2,549.8,947.7,548.5,946.7,547.5z M922.8,523.6c0-1.2,1.3-2.1,2.9-2.1c1.6,0,2.9,0.9,2.9,2.1v0.2c0,1.2-1.3,2.1-2.9,2.1
			c-1.6,0-2.9-0.9-2.9-2.1V523.6z M923.4,552l-6.6-7.6c0.6-0.2,1.2-0.4,1.8-0.7l3.8,4l1.8-2.5L923.4,552z M922.2,546.6l-3.1-3.2
			c0.3-0.2,0.5-0.3,0.8-0.5c0.3-0.3,0.5-0.7,0.6-1.1l4.3,1.3L922.2,546.6z M920.5,541.1c0-0.6,0-1.2,0-2.1v-0.2l-0.2-0.2
			c-1.2-1-2.8-2.2-3.4-4.5l-0.1-0.4l-0.5-0.1c-0.3-0.1-0.5-0.2-0.7-0.3c-0.3-0.2-0.6-0.4-0.9-0.8c-0.3-0.4-0.6-1.1-1-2
			c-0.2-0.4-0.2-0.7-0.2-1s0.1-0.4,0.1-0.5c0.1-0.1,0.2-0.2,0.4-0.3c0.1,0,0.2,0,0.2,0l1.8,1.9l0.8-3.3l0.1-0.2c2.3,0.5,5.4,1,8.8,1
			c3.4,0,6.4-0.4,8.8-1l0.1,0.2l0.8,3.3l1.8-1.9c0.1,0,0.3,0,0.4,0.1c0.1,0,0.2,0.1,0.3,0.2c0.1,0.1,0.1,0.3,0.1,0.5s-0.1,0.5-0.2,1
			c-0.5,1.2-0.9,2-1.3,2.4c-0.2,0.2-0.4,0.3-0.6,0.4c-0.2,0.1-0.4,0.2-0.7,0.3l-0.5,0.1l-0.1,0.4c-0.6,2.3-2.2,3.6-3.4,4.5l-0.2,0.2
			v0.2c0,0.8,0,1.5,0,2.1l-5.2,1.6L920.5,541.1z M930.9,541.7c0,0.4,0.2,0.8,0.5,1.1c0.2,0.2,0.5,0.4,0.8,0.6l-3,3.2l-2.5-3.5
			L930.9,541.7z M928.1,552l-0.8-6.8l1.8,2.5l3.8-4c0.1,0.1,0.3,0.1,0.4,0.2c0.5,0.2,0.9,0.3,1.4,0.5L928.1,552z"/>
	</g>
	<g>
		<ellipse cx="1125.8" cy="676.8" rx="15" ry="15"/>
		<g>
			<path class="st11" d="M1117.2,681.9h17.2c0.6,0,1.2-0.5,1.2-1.2h1.9l0,0c0-1.2-0.7-2.3-1.9-2.8l-8.8-3.6v-0.9
				c1.4-0.4,2.4-1.7,2.4-3.2c0-1.8-1.5-3.4-3.4-3.4s-3.4,1.5-3.4,3.4h1.9c0-0.8,0.7-1.5,1.5-1.5s1.5,0.7,1.5,1.5s-0.7,1.5-1.5,1.5
				h-0.9v2.7l-8.8,3.6c-1.2,0.5-1.9,1.6-1.9,2.8l0,0h1.9C1116,681.4,1116.6,681.9,1117.2,681.9z M1116.8,679.7l9.1-3.7l9.1,3.7
				c0.4,0.2,0.7,0.6,0.7,1.1c0,0.6-0.5,1.2-1.2,1.2h-17.2c-0.6,0-1.2-0.5-1.2-1.2C1116,680.3,1116.3,679.8,1116.8,679.7z"/>
			<path class="st11" d="M1135.6,680.7c0,0.6-0.5,1.2-1.2,1.2h-17.2c-0.6,0-1.2-0.5-1.2-1.2h-1.9c0,1.7,1.4,3,3.1,3h17.2
				c1.7,0,3.1-1.4,3.1-3H1135.6z"/>
		</g>
	</g>
	<text transform="matrix(1.5759 0 0 1 518.2281 156.7214)" class="st7 st16">ЭТАЖ</text>
	<circle class="st10" cx="465.2" cy="136.1" r="35"/>
	<text transform="matrix(1.208 0 0 1 453.7145 151.4811)" class="st11 st7 st17">1</text>
	<g>
		<path d="M866.3,413.4c-3.7,0-6.8,3-6.8,6.7v40.5c0,3.7,3,6.7,6.8,6.7h40.5c3.7,0,6.8-3,6.8-6.7v-40.5c0-3.7-3-6.7-6.8-6.7
			L866.3,413.4L866.3,413.4z"/>
		<g>
			<polygon class="st11" points="895.9,423.6 895.9,434.4 885.6,434.4 885.6,445.2 875.3,445.2 875.3,456 867.3,456 867.3,461.5 
				880,461.5 880,450.7 890.4,450.7 890.4,439.9 900.7,439.9 900.7,429.1 908.6,429.1 908.6,423.6 			"/>
			<polygon class="st11" points="869.5,438 886.5,420.2 877,420.2 877,422.7 880.9,422.7 868.1,436.1 			"/>
		</g>
	</g>
</g>
</svg>
