<?xml version="1.0" encoding="utf-8"?>
<!-- Generator: Adobe Illustrator 27.3.1, SVG Export Plug-In . SVG Version: 6.00 Build 0)  -->
<svg version="1.1" id="Слой_1" xmlns="http://www.w3.org/2000/svg" xmlns:xlink="http://www.w3.org/1999/xlink" x="0px" y="0px"
	 viewBox="0 0 1920 1080" style="enable-background:new 0 0 1920 1080;" xml:space="preserve">
<style type="text/css">
	.st0{fill:#94C4FF;stroke:#FFFFFF;stroke-width:4;stroke-linecap:square;stroke-miterlimit:10;}
	.st1{fill:none;stroke:#FFFFFF;stroke-width:4;stroke-linecap:square;stroke-miterlimit:10;}
	.st2{fill:none;stroke:#FFFFFF;stroke-width:2;stroke-miterlimit:10;}
	.st3{fill:none;stroke:#FFFFFF;stroke-width:2;stroke-linecap:square;stroke-miterlimit:10;}
	.st4{fill:#010002;}
	.st5{fill:none;stroke:#000000;stroke-linecap:square;stroke-miterlimit:10;}
	.st6{fill:#FFFFFF;}
	.st7{stroke:#000000;stroke-width:0.5;stroke-miterlimit:10;}
	.st8{font-family:'ArialMT';}
	.st9{font-size:8.3806px;}
	.st10{fill:none;stroke:#FFFFFF;stroke-miterlimit:133.3333;}
	.st11{fill:none;stroke:#FFFFFF;stroke-linecap:round;stroke-linejoin:round;stroke-miterlimit:133.3333;}
	.st12{font-size:12px;}
	.st13{fill-rule:evenodd;clip-rule:evenodd;fill:#FFFFFF;stroke:#FFFFFF;stroke-width:0.5;stroke-miterlimit:10;}
	.st14{fill:#FFFFFF;stroke:#FFFFFF;stroke-width:0.75;stroke-miterlimit:10;}
</style>
<g>
	<polyline class="st0" points="766,585 571,585 571,93 1326,93 1326,219 790,219 790,319 766,319 766,800 766,801 854,801 854,851 
		797,851 797,879 766,879 868,879 868,922 909,922 909,987 898,987 874,987 618,987 618,803 592,803 592,585 	"/>
	<g>
		<line class="st1" x1="766" y1="851" x2="766" y2="879"/>
		<line class="st2" x1="702" y1="318" x2="764" y2="318"/>
		<line class="st3" x1="571" y1="218" x2="668" y2="218"/>
		<line class="st3" x1="668" y1="218" x2="668" y2="318"/>
		<line class="st2" x1="679" y1="318" x2="668" y2="318"/>
		<line class="st2" x1="790" y1="218" x2="709" y2="218"/>
		<line class="st3" x1="680" y1="525" x2="680" y2="585"/>
		<line class="st3" x1="680" y1="524" x2="766" y2="524"/>
		<line class="st2" x1="664" y1="585" x2="664" y2="643"/>
		<line class="st2" x1="664" y1="661" x2="664" y2="716"/>
		<line class="st2" x1="664" y1="729" x2="664" y2="762"/>
		<line class="st2" x1="664" y1="781" x2="664" y2="803"/>
		<line class="st3" x1="618" y1="802" x2="662" y2="802"/>
		<line class="st3" x1="691" y1="802" x2="764" y2="802"/>
		<line class="st3" x1="691" y1="783" x2="691" y2="802"/>
		<line class="st3" x1="691" y1="731" x2="691" y2="762"/>
		<line class="st3" x1="691" y1="750" x2="766" y2="750"/>
		<line class="st2" x1="691" y1="716" x2="691" y2="661"/>
		<line class="st2" x1="691" y1="643" x2="691" y2="585"/>
		<line class="st3" x1="618" y1="873" x2="696" y2="873"/>
		<line class="st3" x1="696" y1="963" x2="696" y2="873"/>
		<line class="st3" x1="618" y1="963" x2="696" y2="963"/>
		<line class="st2" x1="867" y1="953" x2="867" y2="986"/>
		<line class="st2" x1="867" y1="937" x2="867" y2="924"/>
	</g>
	<g>
		<g>
			<path class="st4" d="M773.6,857.8c-0.3-0.3-0.4-0.6-0.4-1c0-0.4,0.1-0.7,0.4-1c0.3-0.3,0.6-0.4,1-0.4s0.7,0.1,1,0.4
				c0.3,0.3,0.4,0.6,0.4,1c0,0.4-0.1,0.7-0.4,1c-0.3,0.3-0.6,0.4-1,0.4S773.8,858.1,773.6,857.8z M771.7,864.4
				c0.1,0.1,0.2,0.1,0.3,0.1c0.1,0,0.2,0,0.3-0.1c0.1-0.1,0.1-0.2,0.1-0.3v-3.6v-0.2c0-0.1,0-0.1,0.1-0.1c0.1,0,0.1,0,0.1,0
				c0,0,0.1,0,0.1,0c0.1,0,0.1,0.1,0.1,0.1v8.6c0,0.2,0.1,0.3,0.2,0.4c0.1,0.1,0.3,0.2,0.5,0.2s0.3-0.1,0.5-0.2
				c0.1-0.1,0.2-0.3,0.2-0.4v-3.4v-1.9c0-0.1,0-0.2,0.1-0.2s0.1,0,0.2,0c0,0,0.1,0,0.2,0c0.1,0,0.1,0.1,0.1,0.2v1.9v3.4
				c0,0.2,0.1,0.3,0.2,0.4c0.1,0.1,0.3,0.2,0.5,0.2c0.2,0,0.4-0.1,0.5-0.2c0.1-0.1,0.2-0.3,0.2-0.4l0-8.6c0-0.1,0-0.1,0.1-0.1
				c0.1,0,0.1,0,0.1,0c0,0,0.1,0,0.1,0c0.1,0,0.1,0.1,0.1,0.1v0.2v3.6c0,0.2,0,0.3,0.1,0.3c0.1,0.1,0.2,0.1,0.3,0.1s0.2,0,0.3-0.1
				c0.1-0.1,0.1-0.2,0.1-0.3v-4c0-0.4-0.1-0.7-0.4-1c-0.3-0.3-0.6-0.5-1.1-0.5h-1.6h0h-1.5c-0.4,0-0.8,0.2-1,0.5
				c-0.2,0.3-0.3,0.6-0.3,1v4C771.6,864.2,771.7,864.3,771.7,864.4z M786.9,853.2c0.2,0.2,0.3,0.4,0.3,0.6V871
				c0,0.3-0.1,0.5-0.3,0.6s-0.4,0.2-0.6,0.2h-16.7c-0.3,0-0.5-0.1-0.6-0.2s-0.3-0.4-0.3-0.6v-17.1c0-0.3,0.1-0.5,0.3-0.6
				s0.4-0.2,0.6-0.2h16.7C786.6,853,786.8,853.1,786.9,853.2z M785.7,854.4h-15.6v15.9h15.6V854.4L785.7,854.4z M781.3,858.2
				c0.4,0,0.7-0.1,1-0.4c0.3-0.3,0.4-0.6,0.4-1c0-0.4-0.1-0.7-0.4-1c-0.3-0.3-0.6-0.4-1-0.4s-0.7,0.1-1,0.4c-0.3,0.3-0.4,0.6-0.4,1
				c0,0.4,0.1,0.7,0.4,1C780.6,858.1,780.9,858.2,781.3,858.2z M778.5,864.4c0.1,0.1,0.2,0.1,0.3,0.1s0.2,0,0.3-0.1
				c0.1-0.1,0.1-0.2,0.1-0.3v-3.6v-0.2c0-0.1,0-0.1,0.1-0.1c0.1,0,0.1,0,0.1,0c0,0,0.1,0,0.1,0c0.1,0,0.1,0.1,0.1,0.1v8.6
				c0,0.2,0.1,0.3,0.2,0.4c0.1,0.1,0.3,0.2,0.5,0.2c0.2,0,0.3-0.1,0.5-0.2c0.1-0.1,0.2-0.3,0.2-0.4v-3.4v-1.9c0-0.1,0-0.2,0.1-0.2
				s0.1,0,0.2,0s0.1,0,0.2,0c0.1,0,0.1,0.1,0.1,0.2v1.9v3.4c0,0.2,0.1,0.3,0.2,0.4c0.1,0.1,0.3,0.2,0.5,0.2c0.2,0,0.3-0.1,0.5-0.2
				c0.1-0.1,0.2-0.3,0.2-0.4v-8.6c0-0.1,0-0.1,0.1-0.1c0.1,0,0.1,0,0.1,0c0,0,0.1,0,0.1,0s0.1,0.1,0.1,0.1v0.2v3.6
				c0,0.2,0,0.3,0.1,0.3c0.1,0.1,0.2,0.1,0.3,0.1c0.1,0,0.2,0,0.3-0.1c0.1-0.1,0.1-0.2,0.1-0.3v-4c0-0.4-0.1-0.7-0.4-1
				c-0.3-0.3-0.6-0.5-1.1-0.5h-1.6h0h0h-1.4c-0.4,0-0.8,0.2-1,0.5c-0.2,0.3-0.3,0.6-0.3,1v4C778.4,864.2,778.4,864.3,778.5,864.4z
				 M793.7,868.5c-0.5,0-1.3,0-1.3,0s0-0.2,0-0.5c0-1,0-3,0-3.7c0,0,0-0.2-0.2-0.2s-1.7,0-2,0s-0.3,0.2-0.3,0.2c0,0.8,0,2.7,0,3.7
				c0,0.4,0,0.6,0,0.6s-1,0-1.4,0c-0.4,0,0,0.4,0,0.4l2.5,3c0,0,0.2,0.2,0.4,0c0.3-0.3,2.4-3.1,2.4-3.1S794.2,868.5,793.7,868.5z
				 M788.6,856.8c0.5,0,1.3,0,1.3,0s0,0.2,0,0.5c0,1,0,3,0,3.7c0,0,0,0.2,0.2,0.2s1.7,0,2,0s0.3-0.2,0.3-0.2c0-0.8,0-2.7,0-3.7
				c0-0.4,0-0.6,0-0.6s1,0,1.4,0c0.4,0,0-0.4,0-0.4l-2.5-3c0,0-0.2-0.2-0.4,0c-0.3,0.3-2.4,3.1-2.4,3.1S788.1,856.8,788.6,856.8z"/>
		</g>
	</g>
	<line class="st2" x1="786" y1="923" x2="868" y2="923"/>
	<g>
		<path d="M831.4,979.6c-0.6-0.8-1.5-1.2-2.4-1.4c-0.4-0.1-0.8-0.2-1.2-0.3c-0.4-0.1-0.7-0.2-0.9-0.2c-0.4-0.1-0.8-0.3-1.1-0.4
			c-0.1-0.1-0.2-0.2-0.3-0.2c-0.1-0.1-0.1-0.1-0.1-0.2c0-0.3,0-0.7,0-1.2c0.5-0.5,1.2-1.1,1.5-2.3c0.1,0,0.2-0.1,0.3-0.1
			c0.2-0.1,0.4-0.3,0.6-0.6s0.3-0.6,0.5-1.1c0.1-0.2,0.1-0.5,0.1-0.6c0-0.2-0.1-0.4-0.2-0.6c-0.1-0.2-0.3-0.3-0.5-0.4l0.4-0.5v-0.5
			c0,0,0.1-0.1,0.1-0.1v-1.2l1-1.7c0.3-0.4,0.1-0.9-0.4-1.2l-5.8-2.6c-0.3-0.1-0.7-0.1-1,0l-5.8,2.6c-0.5,0.2-0.7,0.7-0.4,1.2l1,1.7
			v1.2c0,0,0,0.1,0.1,0.1v0.5l0.4,0.5c0,0-0.1,0-0.1,0.1c-0.1,0.1-0.3,0.2-0.4,0.3s-0.2,0.3-0.2,0.6c0,0.2,0,0.4,0.1,0.6
			c0.2,0.6,0.4,1,0.7,1.3c0.1,0.2,0.3,0.3,0.4,0.4c0.1,0.1,0.2,0.1,0.3,0.1c0.3,1.1,1,1.8,1.5,2.3c0,0.5,0,0.9,0,1.2
			c0,0,0,0.1-0.1,0.2c-0.1,0.1-0.3,0.3-0.6,0.4c-0.2,0.1-0.5,0.2-0.8,0.3c-0.3,0.1-0.8,0.2-1.3,0.3c-0.8,0.2-1.7,0.5-2.5,1
			c-0.4,0.3-0.7,0.6-1,1.1c-0.2,0.4-0.4,0.9-0.4,1.5c0,0.1,0,0.3,0,0.4c0,0.1,0.1,0.2,0.1,0.3c0.1,0.1,0.2,0.2,0.4,0.3
			c0.3,0.2,0.7,0.3,1.3,0.5c1.6,0.5,4.3,0.9,7.7,0.9c2.7,0,5-0.3,6.6-0.7c0.8-0.2,1.5-0.4,1.9-0.6c0.2-0.1,0.4-0.2,0.6-0.3
			c0.1-0.1,0.1-0.1,0.2-0.2c0.1-0.1,0.1-0.2,0.1-0.3c0-0.2,0-0.3,0-0.4C832,980.8,831.8,980.1,831.4,979.6z M821.3,967.9
			c0-0.6,0.6-1,1.2-1c0.7,0,1.2,0.5,1.2,1v0.1c0,0.6-0.6,1-1.2,1c-0.7,0-1.2-0.5-1.2-1V967.9z M821.5,981.8l-2.8-3.7
			c0.3-0.1,0.5-0.2,0.8-0.3l1.6,1.9l0.8-1.2L821.5,981.8z M821,979.1l-1.3-1.6c0.1-0.1,0.2-0.2,0.3-0.3c0.1-0.1,0.2-0.3,0.2-0.5
			l1.8,0.7L821,979.1z M820.3,976.5c0-0.3,0-0.6,0-1v-0.1l-0.1-0.1c-0.5-0.5-1.2-1.1-1.4-2.2l0-0.2l-0.2-0.1c-0.1,0-0.2-0.1-0.3-0.1
			c-0.1-0.1-0.2-0.2-0.4-0.4c-0.1-0.2-0.3-0.5-0.4-1c-0.1-0.2-0.1-0.4-0.1-0.5c0-0.1,0-0.2,0.1-0.3c0-0.1,0.1-0.1,0.2-0.1
			c0,0,0.1,0,0.1,0l0.8,1l0.3-1.6l0-0.1c1,0.3,2.3,0.5,3.7,0.5c1.4,0,2.7-0.2,3.7-0.5l0,0.1l0.3,1.6l0.8-1c0,0,0.1,0,0.2,0.1
			c0,0,0.1,0.1,0.1,0.1c0,0.1,0.1,0.1,0.1,0.3c0,0.1,0,0.3-0.1,0.5c-0.2,0.6-0.4,1-0.6,1.1c-0.1,0.1-0.2,0.2-0.2,0.2
			s-0.2,0.1-0.3,0.1l-0.2,0.1l0,0.2c-0.2,1.1-0.9,1.7-1.4,2.2l-0.1,0.1v0.1c0,0.4,0,0.7,0,1l-2.2,0.8L820.3,976.5z M824.7,976.8
			c0,0.2,0.1,0.4,0.2,0.5c0.1,0.1,0.2,0.2,0.3,0.3l-1.3,1.6l-1.1-1.7L824.7,976.8z M823.5,981.8l-0.3-3.3l0.8,1.2l1.6-1.9
			c0.1,0,0.1,0.1,0.2,0.1c0.2,0.1,0.4,0.2,0.6,0.2L823.5,981.8z"/>
	</g>
	<line class="st3" x1="786" y1="933" x2="786" y2="923"/>
	<line class="st3" x1="786" y1="933" x2="831" y2="933"/>
	<line class="st5" x1="788.5" y1="939.5" x2="788.5" y2="954.5"/>
	<line class="st5" x1="790.5" y1="939.5" x2="790.5" y2="954.5"/>
	<line class="st5" x1="792.5" y1="939.5" x2="792.5" y2="954.5"/>
	<g>
		<ellipse cx="654.9" cy="909.2" rx="15" ry="15.2"/>
		<g>
			<path class="st6" d="M646.3,914.4h17.2c0.6,0,1.2-0.5,1.2-1.2h1.9l0,0c0-1.3-0.7-2.4-1.9-2.8l-8.8-3.6v-0.9
				c1.4-0.4,2.4-1.7,2.4-3.3c0-1.9-1.5-3.4-3.4-3.4s-3.4,1.5-3.4,3.4h1.9c0-0.8,0.7-1.5,1.5-1.5s1.5,0.7,1.5,1.5
				c0,0.8-0.7,1.5-1.5,1.5H654v2.7l-8.8,3.6c-1.2,0.5-1.9,1.6-1.9,2.8l0,0h1.9C645.2,913.8,645.7,914.4,646.3,914.4z M645.9,912.1
				l9.1-3.7l9.1,3.7c0.4,0.2,0.7,0.6,0.7,1.1c0,0.6-0.5,1.2-1.2,1.2h-17.2c-0.6,0-1.2-0.5-1.2-1.2
				C645.2,912.7,645.4,912.3,645.9,912.1z"/>
			<path class="st6" d="M664.7,913.2c0,0.6-0.5,1.2-1.2,1.2h-17.2c-0.6,0-1.2-0.5-1.2-1.2h-1.9c0,1.7,1.4,3.1,3.1,3.1h17.2
				c1.7,0,3.1-1.4,3.1-3.1H664.7z"/>
		</g>
	</g>
	<text transform="matrix(1.6172 0 0 1 623 939.2783)" class="st7 st8 st9">ГАРДЕРОБ</text>
	<g>
		<circle cx="613" cy="406.4" r="15"/>
		<g>
			<path class="st10" d="M618.5,411.5h2.8c0.3,0,0.6-0.3,0.6-0.6v-6c0-2.1-1.7-3.8-3.9-3.8h-9.7c-2.1,0-3.9,1.7-3.9,3.8v6
				c0,0.3,0.3,0.6,0.6,0.6h2.8"/>
			<path class="st10" d="M609.2,401.2V398c0-0.3,0.3-0.6,0.6-0.6h6.6c0.3,0,0.6,0.3,0.6,0.6v3.2"/>
			<path class="st10" d="M607.3,413.7l0.3-2.2l0.5-3.3c0-0.3,0.3-0.5,0.6-0.5h8.7c0.3,0,0.5,0.2,0.6,0.5l0.5,3.3l0.3,2.2
				c0.1,0.3-0.2,0.6-0.6,0.6h-10.3C607.5,414.3,607.3,414,607.3,413.7z"/>
			<path class="st11" d="M617.9,404L617.9,404"/>
		</g>
	</g>
	<text transform="matrix(1.3859 0 0 1 631.8677 411.6045)" class="st7 st8 st12">ТИПОГРАФИЯ</text>
	<line class="st2" x1="809" y1="959" x2="809" y2="985"/>
	<line class="st3" x1="809" y1="959" x2="831" y2="959"/>
	<g>
		<circle cx="804.8" cy="154.6" r="15"/>
		<g>
			<path class="st13" d="M799.8,160c0-0.1,0.1-0.3,0.3-0.3c0.2,0,0.3,0.1,0.4,0.2c0.2,1.2,1.1,2.3,2.3,2.1c0.2,0,0.4-0.2,0.6-0.3
				c0.5-0.5,0.8-1.1,1-1.8c0-0.2,0.2-0.3,0.4-0.2c0.2,0,0.3,0.1,0.3,0.3c0.3,1.2,1.1,2.3,2.3,2.1c0.2,0,0.4-0.2,0.6-0.3
				c0.5-0.5,0.8-1.1,1-1.8c0-0.1,0.2-0.2,0.3-0.2c0.2,0,0.3,0.1,0.3,0.2c0.3,1.2,1.1,2.3,2.3,2.1c0.2,0,0.4-0.2,0.6-0.3
				c0.5-0.5,0.8-1.1,1-1.8c0-0.2,0.2-0.3,0.4-0.2c0.2,0,0.3,0.2,0.2,0.4c-0.2,0.8-0.5,1.6-1.1,2.1c-0.3,0.2-0.6,0.4-0.9,0.5
				c-1.3,0.2-2.3-0.6-2.8-1.6c-0.2,0.4-0.5,0.9-0.8,1.2c-0.3,0.2-0.6,0.4-0.9,0.5c-1.3,0.2-2.3-0.6-2.8-1.7
				c-0.2,0.4-0.5,0.8-0.8,1.2c-0.3,0.2-0.6,0.4-0.9,0.5c-1.3,0.2-2.3-0.6-2.8-1.6c-0.2,0.5-0.5,0.9-0.8,1.2
				c-0.3,0.2-0.6,0.4-0.9,0.5c-1.6,0.3-2.8-1.1-3.1-2.6c0-0.2,0.1-0.3,0.3-0.4c0.2,0,0.4,0.1,0.4,0.2c0.3,1.2,1.1,2.3,2.3,2.1
				c0.2,0,0.4-0.2,0.6-0.3C799.3,161.4,799.6,160.7,799.8,160L799.8,160z"/>
			<path class="st13" d="M799.8,156.1c0-0.1,0.1-0.3,0.3-0.3c0.2,0,0.3,0.1,0.4,0.2c0.2,1.2,1.1,2.1,2.3,1.9c0.2,0,0.4-0.2,0.6-0.3
				c0.5-0.5,0.8-1.1,1-1.8c0-0.2,0.2-0.3,0.4-0.2c0.2,0,0.3,0.1,0.3,0.3c0.3,1.2,1.1,2.3,2.3,2.1c0.2,0,0.4-0.2,0.6-0.3
				c0.5-0.5,0.8-0.8,0.9-1.5c0-0.1,0.2-0.2,0.3-0.2c0.2,0,0.3,0.1,0.3,0.2c0.2,1.2,1.1,2,2.4,1.8c0.2,0,0.4-0.2,0.6-0.3
				c0.5-0.5,0.8-1.1,1-1.8c0-0.2,0.2-0.3,0.4-0.2c0.2,0,0.3,0.2,0.2,0.4c-0.2,0.8-0.5,1.6-1.1,2.1c-0.3,0.2-0.6,0.4-0.9,0.5
				c-1.3,0.2-2.3-0.4-2.8-1.4c-0.2,0.3-0.4,0.6-0.8,0.9c-0.3,0.2-0.6,0.4-0.9,0.5c-1.3,0.2-2.3-0.6-2.8-1.7
				c-0.2,0.4-0.5,0.8-0.8,1.2c-0.3,0.2-0.6,0.4-0.9,0.5c-1.3,0.2-2.3-0.4-2.8-1.4c-0.2,0.4-0.5,0.7-0.8,1c-0.3,0.2-0.6,0.4-0.9,0.5
				c-1.6,0.3-2.8-1.1-3.1-2.6c0-0.2,0.1-0.3,0.3-0.4c0.2,0,0.4,0.1,0.4,0.2c0.3,1.2,1.1,2.3,2.3,2.1c0.2,0,0.4-0.2,0.6-0.3
				C799.3,157.2,799.6,156.8,799.8,156.1L799.8,156.1z"/>
			<path class="st13" d="M804.4,147.4c0-1.3-1-2.4-2.3-2.4c-1.3,0-2.3,1-2.3,2.4l0,9.1c0,0.2,0.1,0.3,0.3,0.3c0.2,0,0.3-0.1,0.3-0.3
				l0-9.1c0-0.9,0.7-1.7,1.6-1.7c0.9,0,1.6,0.8,1.6,1.7c0,0.2,0.1,0.3,0.3,0.3C804.2,147.7,804.4,147.5,804.4,147.4L804.4,147.4z"/>
			<path class="st13" d="M808.8,151.6v-4.3c0-1.3,1-2.4,2.3-2.4c1.3,0,2.3,1,2.3,2.4c0,0.2-0.1,0.3-0.3,0.3c-0.2,0-0.3-0.1-0.3-0.3
				c0-0.9-0.7-1.7-1.6-1.7c-0.9,0-1.6,0.8-1.6,1.7v8.8l0,0l0,0l0,0l0,0c0,0,0,0,0,0l0,0l0,0l0,0l0,0l0,0l0,0l0,0l0,0l0,0l0,0l0,0
				l0,0l0,0l0,0l0,0l0,0l0,0l0,0l0,0l0,0l0,0l0,0l0,0l0,0l0,0l0,0l0,0l0,0l0,0l0,0l0,0l0,0l0,0l0,0l0,0l0,0l0,0l0,0l0,0l0,0l0,0l0,0
				l0,0l0,0l0,0l0,0l0,0l0,0l0,0l0,0l0,0l0,0l0,0l0,0l0,0l0,0l0,0l0,0l0,0v-3.9h-8.7c-0.2,0-0.3-0.1-0.3-0.3c0-0.2,0.1-0.3,0.3-0.3
				H808.8L808.8,151.6z"/>
			<path class="st13" d="M800.1,155.4c0.3,0,9,0,9,0c0.2,0,0.3-0.1,0.3-0.3c0-0.2-0.1-0.3-0.3-0.3c0,0-8.7,0-9,0
				c-0.2,0-0.3,0.1-0.3,0.3C799.8,155.2,799.9,155.4,800.1,155.4L800.1,155.4z"/>
			<path class="st13" d="M800.1,149.1c0.3,0,9,0,9,0c0.2,0,0.3-0.1,0.3-0.3c0-0.2-0.1-0.3-0.3-0.3c0,0-8.7,0-9,0
				c-0.2,0-0.3,0.1-0.3,0.3C799.8,149,799.9,149.1,800.1,149.1L800.1,149.1z"/>
		</g>
	</g>
	<text transform="matrix(1.445 0 0 1 829.4199 158.6074)" class="st7 st8 st12">ОПЫТОВЫЙ БАССЕЙН</text>
	<g>
		<path d="M730.8,238c-2.1,0-3.8,1.7-3.8,3.7v22.4c0,2.1,1.7,3.7,3.8,3.7h22.9c2.1,0,3.8-1.7,3.8-3.7v-22.3c0-2.1-1.7-3.7-3.8-3.7
			L730.8,238L730.8,238z"/>
		<g>
			<polygon class="st6" points="747.6,243.6 747.6,249.6 741.7,249.6 741.7,255.5 735.9,255.5 735.9,261.5 731.4,261.5 731.4,264.6 
				738.6,264.6 738.6,258.6 744.4,258.6 744.4,252.6 750.3,252.6 750.3,246.7 754.7,246.7 754.7,243.6 			"/>
			<polygon class="st6" points="732.7,251.6 742.3,241.8 736.9,241.8 736.9,243.2 739.1,243.2 731.8,250.6 			"/>
		</g>
	</g>
	<g>
		<g>
			<path class="st4" d="M733.6,289.8c-0.4-0.3-0.5-0.7-0.5-1.2c0-0.5,0.2-0.8,0.5-1.2s0.8-0.5,1.3-0.5s0.9,0.2,1.3,0.5
				c0.4,0.3,0.5,0.7,0.5,1.2c0,0.5-0.2,0.8-0.5,1.2c-0.4,0.3-0.8,0.5-1.3,0.5S734,290.1,733.6,289.8z M731.3,297.6
				c0.1,0.1,0.2,0.1,0.4,0.1s0.3,0,0.4-0.1c0.1-0.1,0.2-0.2,0.2-0.4V293v-0.2c0-0.1,0-0.1,0.1-0.1c0.1,0,0.1,0,0.2,0s0.1,0,0.2,0
				s0.1,0.1,0.1,0.1V303c0,0.2,0.1,0.4,0.2,0.5c0.2,0.1,0.4,0.2,0.6,0.2c0.2,0,0.4-0.1,0.6-0.2c0.2-0.1,0.2-0.3,0.2-0.5v-4v-2.3
				c0-0.1,0-0.2,0.1-0.2s0.2,0,0.2,0c0,0,0.1,0,0.2,0c0.1,0,0.1,0.1,0.1,0.2v2.3v4c0,0.2,0.1,0.4,0.2,0.5c0.2,0.1,0.4,0.2,0.6,0.2
				c0.3,0,0.5-0.1,0.6-0.2c0.1-0.1,0.2-0.3,0.2-0.5l0-10.2c0-0.1,0-0.1,0.1-0.1c0.1,0,0.1,0,0.2,0s0.1,0,0.2,0
				c0.1,0,0.1,0.1,0.1,0.1v0.2v4.2c0,0.2,0.1,0.3,0.2,0.4c0.1,0.1,0.2,0.1,0.4,0.1c0.1,0,0.3,0,0.4-0.1c0.1-0.1,0.2-0.2,0.2-0.4
				v-4.7c0-0.5-0.2-0.9-0.5-1.2s-0.8-0.5-1.4-0.5h-2h0h-1.9c-0.6,0-1,0.2-1.3,0.5s-0.4,0.8-0.4,1.2v4.7
				C731.1,297.4,731.2,297.5,731.3,297.6z M750.9,284.3c0.2,0.2,0.3,0.4,0.3,0.7v20.4c0,0.3-0.1,0.5-0.3,0.7
				c-0.2,0.2-0.5,0.3-0.8,0.3h-21.6c-0.3,0-0.6-0.1-0.8-0.3c-0.2-0.2-0.3-0.4-0.3-0.7V285c0-0.3,0.1-0.5,0.3-0.7
				c0.2-0.2,0.5-0.3,0.8-0.3h21.6C750.4,284,750.7,284.1,750.9,284.3z M749.3,285.7h-20.2v19.1h20.2V285.7L749.3,285.7z
				 M743.6,290.2c0.5,0,0.9-0.2,1.3-0.5c0.4-0.3,0.5-0.7,0.5-1.2c0-0.5-0.2-0.8-0.5-1.2c-0.4-0.3-0.8-0.5-1.3-0.5s-0.9,0.2-1.3,0.5
				c-0.4,0.3-0.5,0.7-0.5,1.2c0,0.5,0.2,0.8,0.5,1.2S743.1,290.2,743.6,290.2z M740,297.6c0.1,0.1,0.2,0.1,0.4,0.1s0.3,0,0.4-0.1
				c0.1-0.1,0.2-0.2,0.2-0.4V293v-0.2c0-0.1,0-0.1,0.1-0.1c0.1,0,0.1,0,0.2,0s0.1,0,0.2,0c0.1,0,0.1,0.1,0.1,0.1V303
				c0,0.2,0.1,0.4,0.2,0.5c0.2,0.1,0.4,0.2,0.6,0.2c0.2,0,0.4-0.1,0.6-0.2c0.2-0.1,0.2-0.3,0.2-0.5v-4v-2.3c0-0.1,0-0.2,0.1-0.2
				c0.1,0,0.2,0,0.2,0s0.1,0,0.2,0c0.1,0,0.1,0.1,0.1,0.2v2.3v4c0,0.2,0.1,0.4,0.2,0.5c0.1,0.1,0.4,0.2,0.6,0.2
				c0.2,0,0.4-0.1,0.6-0.2c0.2-0.1,0.2-0.3,0.2-0.5v-10.2c0-0.1,0-0.1,0.1-0.1c0.1,0,0.1,0,0.2,0s0.1,0,0.2,0s0.1,0.1,0.1,0.1v0.2
				v4.2c0,0.2,0.1,0.3,0.2,0.4c0.1,0.1,0.2,0.1,0.4,0.1c0.1,0,0.3,0,0.4-0.1s0.2-0.2,0.2-0.4v-4.7c0-0.5-0.2-0.9-0.5-1.2
				c-0.4-0.4-0.8-0.5-1.4-0.5h-2h0h0h-1.9c-0.6,0-1,0.2-1.3,0.5c-0.3,0.4-0.4,0.8-0.4,1.2v4.7C739.8,297.4,739.9,297.5,740,297.6z
				 M759.7,302.5c-0.7,0-1.7,0-1.7,0s0-0.3,0-0.6c0-1.2,0-3.6,0-4.5c0,0,0-0.2-0.3-0.2c-0.3,0-2.2,0-2.6,0c-0.4,0-0.3,0.3-0.3,0.3
				c0,0.9,0,3.2,0,4.5c0,0.4,0,0.7,0,0.7s-1.3,0-1.8,0c-0.5,0,0,0.4,0,0.4l3.3,3.6c0,0,0.3,0.3,0.5,0c0.4-0.3,3.1-3.7,3.1-3.7
				S760.3,302.5,759.7,302.5z M753,288.6c0.7,0,1.7,0,1.7,0s0,0.3,0,0.6c0,1.2,0,3.6,0,4.5c0,0,0,0.2,0.3,0.2c0.3,0,2.2,0,2.6,0
				c0.4,0,0.3-0.3,0.3-0.3c0-0.9,0-3.2,0-4.5c0-0.4,0-0.7,0-0.7s1.3,0,1.8,0c0.5,0,0-0.4,0-0.4l-3.3-3.6c0,0-0.3-0.3-0.5,0
				c-0.4,0.3-3.1,3.7-3.1,3.7S752.3,288.6,753,288.6z"/>
		</g>
	</g>
	<g>
		<path d="M711.2,540.4c-2.1,0-3.8,1.7-3.8,3.7v22.4c0,2.1,1.7,3.7,3.8,3.7h22.9c2.1,0,3.8-1.7,3.8-3.7v-22.3c0-2.1-1.7-3.7-3.8-3.7
			L711.2,540.4L711.2,540.4z"/>
		<g>
			<polygon class="st6" points="727.9,546 727.9,551.9 722.1,551.9 722.1,557.9 716.3,557.9 716.3,563.9 711.8,563.9 711.8,566.9 
				719,566.9 719,561 724.8,561 724.8,555 730.6,555 730.6,549 735.1,549 735.1,546 			"/>
			<polygon class="st6" points="713,554 722.7,544.1 717.3,544.1 717.3,545.5 719.5,545.5 712.2,552.9 			"/>
		</g>
	</g>
	<g>
		<path d="M808.2,811.4c-2.1,0-3.8,1.7-3.8,3.7v22.4c0,2.1,1.7,3.7,3.8,3.7h22.9c2.1,0,3.8-1.7,3.8-3.7v-22.3c0-2.1-1.7-3.7-3.8-3.7
			L808.2,811.4L808.2,811.4z"/>
		<g>
			<polygon class="st6" points="824.9,817 824.9,822.9 819.1,822.9 819.1,828.9 813.3,828.9 813.3,834.9 808.8,834.9 808.8,837.9 
				816,837.9 816,832 821.8,832 821.8,826 827.6,826 827.6,820 832.1,820 832.1,817 			"/>
			<polygon class="st6" points="810,825 819.7,815.1 814.3,815.1 814.3,816.5 816.5,816.5 809.2,823.9 			"/>
		</g>
	</g>
	<g>
		<circle cx="627.4" cy="699.8" r="15"/>
		<text transform="matrix(1 0 0 1 617.7144 703.2529)" class="st14 st8 st12">101</text>
	</g>
</g>
</svg>
