<?xml version="1.0" encoding="utf-8"?>
<!-- Generator: Adobe Illustrator 27.3.1, SVG Export Plug-In . SVG Version: 6.00 Build 0)  -->
<svg version="1.1" id="Слой_1" xmlns="http://www.w3.org/2000/svg" xmlns:xlink="http://www.w3.org/1999/xlink" x="0px" y="0px"
	 viewBox="0 0 1920 1080" style="enable-background:new 0 0 1920 1080;" xml:space="preserve">
<style type="text/css">
	.st0{fill:#94C4FF;stroke:#FFFFFF;stroke-width:4;stroke-linecap:square;stroke-miterlimit:10;}
	.st1{fill:none;stroke:#FFFFFF;stroke-width:2;stroke-miterlimit:10;}
	.st2{fill:none;stroke:#FFFFFF;stroke-width:2;stroke-linecap:square;stroke-miterlimit:10;}
	.st3{fill:#FFFFFF;}
	.st4{fill:#010002;}
	.st5{font-family:'ArialMT';}
	.st6{font-size:20.7059px;}
	.st7{fill:none;stroke:#000000;stroke-width:0.75;stroke-miterlimit:10;}
	.st8{font-size:18.8954px;}
	.st9{fill:#FFFFFF;stroke:#FFFFFF;stroke-width:0.5;stroke-miterlimit:10;}
	.st10{font-size:13.6111px;}
	.st11{font-size:51.0659px;}
	.st12{stroke:#000000;stroke-linecap:round;stroke-miterlimit:10;}
	.st13{font-size:44.405px;}
</style>
<g>
	<g>
		<polygon class="st0" points="1456,491 1370,491 1370,448 1300,448 1300,476 486,476 486,736 1456,736 		"/>
		<g>
			<line class="st1" x1="757" y1="625" x2="757" y2="735"/>
			<line class="st1" x1="909" y1="625" x2="909" y2="735"/>
			<line class="st1" x1="1039" y1="625" x2="1039" y2="735"/>
			<line class="st1" x1="1262" y1="625" x2="1262" y2="735"/>
			<line class="st1" x1="1369" y1="603" x2="1369" y2="735"/>
			<line class="st1" x1="1369" y1="490" x2="1369" y2="582"/>
			<line class="st1" x1="1419" y1="625" x2="1456" y2="625"/>
			<line class="st1" x1="1398" y1="625" x2="1339" y2="625"/>
			<line class="st1" x1="1317" y1="625" x2="1114" y2="625"/>
			<line class="st1" x1="1095" y1="625" x2="1014" y2="625"/>
			<line class="st1" x1="996" y1="625" x2="851" y2="625"/>
			<line class="st1" x1="830" y1="625" x2="695" y2="625"/>
			<line class="st1" x1="675" y1="625" x2="486" y2="625"/>
			<line class="st1" x1="623" y1="505" x2="623" y2="475"/>
			<line class="st1" x1="623" y1="516" x2="623" y2="575"/>
			<line class="st1" x1="623" y1="588" x2="623" y2="625"/>
			<line class="st1" x1="486" y1="558" x2="623" y2="558"/>
			<line class="st1" x1="1301" y1="585" x2="1301" y2="475"/>
			<line class="st1" x1="1214" y1="585" x2="1214" y2="475"/>
			<line class="st1" x1="1056" y1="585" x2="1056" y2="477"/>
			<line class="st1" x1="966" y1="585" x2="966" y2="475"/>
			<line class="st1" x1="846" y1="585" x2="846" y2="475"/>
			<line class="st2" x1="704" y1="585" x2="862" y2="585"/>
			<line class="st2" x1="704" y1="546" x2="704" y2="585"/>
			<line class="st1" x1="908" y1="585" x2="908" y2="475"/>
			<line class="st1" x1="882" y1="585" x2="928" y2="585"/>
			<line class="st1" x1="944" y1="585" x2="1021" y2="585"/>
			<line class="st1" x1="1037" y1="585" x2="1177" y2="585"/>
			<line class="st1" x1="1195" y1="585" x2="1265" y2="585"/>
			<line class="st2" x1="1280" y1="585" x2="1301" y2="585"/>
		</g>
		<g>
			<path d="M1320.6,497.6c-2.8,0-5,2.3-5,5V533c0,2.8,2.3,5,5,5h30.3c2.8,0,5-2.3,5-5v-30.3c0-2.8-2.3-5-5-5L1320.6,497.6
				L1320.6,497.6z"/>
			<g>
				<polygon class="st3" points="1342.7,505.3 1342.7,513.3 1335,513.3 1335,521.4 1327.3,521.4 1327.3,529.5 1321.3,529.5 
					1321.3,533.6 1330.8,533.6 1330.8,525.5 1338.6,525.5 1338.6,517.5 1346.3,517.5 1346.3,509.4 1352.2,509.4 1352.2,505.3 				
					"/>
				<polygon class="st3" points="1323,516.1 1335.7,502.7 1328.6,502.7 1328.6,504.6 1331.5,504.6 1321.9,514.7 				"/>
			</g>
		</g>
		<g>
			<path d="M785.8,496.3c-2.8,0-5,2.3-5,5v30.3c0,2.8,2.3,5,5,5h30.3c2.8,0,5-2.3,5-5v-30.3c0-2.8-2.3-5-5-5L785.8,496.3
				L785.8,496.3z"/>
			<g>
				<polygon class="st3" points="808,503.9 808,512 800.3,512 800.3,520.1 792.5,520.1 792.5,528.1 786.6,528.1 786.6,532.3 
					796.1,532.3 796.1,524.2 803.8,524.2 803.8,516.1 811.5,516.1 811.5,508 817.5,508 817.5,503.9 				"/>
				<polygon class="st3" points="788.3,514.7 801,501.4 793.9,501.4 793.9,503.3 796.8,503.3 787.2,513.3 				"/>
			</g>
		</g>
		<g>
			<g>
				<path class="st4" d="M720.6,553.7c-0.4-0.5-0.7-1-0.7-1.7c0-0.7,0.2-1.2,0.7-1.7s1-0.7,1.6-0.7c0.6,0,1.2,0.2,1.6,0.7
					c0.4,0.5,0.7,1,0.7,1.7c0,0.7-0.2,1.2-0.7,1.7c-0.4,0.5-1,0.7-1.6,0.7C721.6,554.4,721.1,554.1,720.6,553.7z M717.7,564.9
					c0.1,0.1,0.3,0.2,0.5,0.2c0.2,0,0.4-0.1,0.5-0.2c0.1-0.1,0.2-0.3,0.2-0.6v-6.1V558c0-0.1,0-0.2,0.1-0.2c0.1,0,0.2-0.1,0.2-0.1
					s0.1,0,0.2,0.1c0.1,0,0.1,0.1,0.1,0.2v14.7c0,0.3,0.1,0.5,0.3,0.7c0.2,0.2,0.4,0.3,0.7,0.3s0.5-0.1,0.7-0.3
					c0.2-0.2,0.3-0.4,0.3-0.7v-5.8v-3.3c0-0.2,0.1-0.3,0.2-0.3c0.1-0.1,0.2-0.1,0.3-0.1s0.1,0,0.3,0.1c0.1,0.1,0.2,0.2,0.2,0.3v3.3
					v5.8c0,0.3,0.1,0.5,0.3,0.7c0.2,0.2,0.4,0.3,0.7,0.3c0.3,0,0.6-0.1,0.8-0.3c0.2-0.2,0.3-0.4,0.3-0.7l0-14.7c0-0.1,0-0.2,0.1-0.2
					c0.1,0,0.2-0.1,0.2-0.1s0.1,0,0.2,0.1c0.1,0,0.1,0.1,0.1,0.2v0.3v6.1c0,0.3,0.1,0.4,0.2,0.6c0.1,0.1,0.3,0.2,0.5,0.2
					c0.2,0,0.3-0.1,0.5-0.2c0.1-0.1,0.2-0.3,0.2-0.6v-6.8c0-0.7-0.2-1.2-0.6-1.8c-0.4-0.5-1-0.8-1.7-0.8H722h0h-2.3
					c-0.7,0-1.2,0.3-1.6,0.8c-0.3,0.5-0.5,1.1-0.5,1.8v6.8C717.5,564.7,717.6,564.8,717.7,564.9z M742.1,545.8
					c0.3,0.3,0.4,0.6,0.4,1.1v29.3c0,0.4-0.1,0.8-0.4,1.1s-0.6,0.4-1,0.4h-26.8c-0.4,0-0.8-0.1-1-0.4s-0.4-0.6-0.4-1.1v-29.3
					c0-0.4,0.1-0.8,0.4-1.1s0.6-0.4,1-0.4H741C741.4,545.4,741.8,545.5,742.1,545.8z M740.1,547.9h-25v27.4h25V547.9L740.1,547.9z
					 M733,554.3c0.6,0,1.2-0.2,1.6-0.7c0.4-0.5,0.7-1,0.7-1.7s-0.2-1.2-0.7-1.7s-1-0.7-1.6-0.7c-0.6,0-1.2,0.2-1.6,0.7
					c-0.4,0.5-0.7,1-0.7,1.7s0.2,1.2,0.7,1.7S732.4,554.3,733,554.3z M728.5,564.9c0.1,0.1,0.3,0.2,0.5,0.2s0.4-0.1,0.5-0.2
					c0.1-0.1,0.2-0.3,0.2-0.6v-6.1V558c0-0.1,0-0.2,0.1-0.2c0.1,0,0.2-0.1,0.2-0.1c0.1,0,0.1,0,0.2,0.1c0.1,0,0.1,0.1,0.1,0.2v14.7
					c0,0.3,0.1,0.5,0.3,0.7c0.2,0.2,0.4,0.3,0.7,0.3c0.3,0,0.5-0.1,0.7-0.3c0.2-0.2,0.3-0.4,0.3-0.7v-5.8v-3.3
					c0-0.2,0.1-0.3,0.2-0.3c0.1-0.1,0.2-0.1,0.3-0.1c0.1,0,0.2,0,0.3,0.1c0.1,0.1,0.2,0.2,0.2,0.3v3.3v5.8c0,0.3,0.1,0.5,0.3,0.7
					c0.2,0.2,0.4,0.3,0.8,0.3c0.3,0,0.5-0.1,0.7-0.3c0.2-0.2,0.3-0.4,0.3-0.7V558c0-0.1,0-0.2,0.1-0.2c0.1,0,0.2-0.1,0.2-0.1
					c0.1,0,0.1,0,0.2,0.1c0.1,0,0.1,0.1,0.1,0.2v0.3v6.1c0,0.3,0.1,0.4,0.2,0.6c0.1,0.1,0.3,0.2,0.5,0.2c0.2,0,0.4-0.1,0.5-0.2
					c0.1-0.1,0.2-0.3,0.2-0.6v-6.8c0-0.7-0.2-1.2-0.7-1.8s-1-0.8-1.7-0.8h-2.5h0h0h-2.3c-0.7,0-1.3,0.3-1.6,0.8
					c-0.3,0.5-0.5,1.1-0.5,1.8v6.8C728.3,564.7,728.4,564.8,728.5,564.9z M753,571.9c-0.8,0-2.1,0-2.1,0s0-0.4,0-0.9
					c0-1.7,0-5.1,0-6.4c0,0,0-0.3-0.4-0.3c-0.4,0-2.7,0-3.2,0c-0.5,0-0.4,0.4-0.4,0.4c0,1.3,0,4.6,0,6.4c0,0.6,0,1,0,1s-1.6,0-2.3,0
					s-0.1,0.6-0.1,0.6l4,5.1c0,0,0.3,0.4,0.7,0c0.5-0.5,3.9-5.3,3.9-5.3S753.8,571.9,753,571.9z M744.7,551.9c0.8,0,2.1,0,2.1,0
					s0,0.4,0,0.9c0,1.7,0,5.1,0,6.4c0,0,0,0.3,0.4,0.3c0.4,0,2.7,0,3.2,0s0.4-0.4,0.4-0.4c0-1.3,0-4.6,0-6.4c0-0.6,0-1,0-1
					s1.6,0,2.3,0c0.7,0,0.1-0.6,0.1-0.6l-4-5.1c0,0-0.3-0.4-0.7,0c-0.5,0.5-3.9,5.3-3.9,5.3S743.9,551.9,744.7,551.9z"/>
			</g>
		</g>
		<g>
			<text transform="matrix(0.5672 0 0 1 939.4321 539.9253)" class="st5 st6">WC</text>
			<text transform="matrix(0.5672 0 0 1 939.4321 539.9253)" class="st7 st5 st6">WC</text>
			<g>
				<path class="st4" d="M934.8,538.6l-4.8-14c-0.1-0.1-0.1-0.1-0.1-0.2c0-0.3,0.1-0.4,0.4-0.4c0.2,0,0.3,0.1,0.3,0.3l3.3,9
					c0.3,0.6,0.8,0.9,1.7,0.9c0.3,0,0.5-0.3,0.7-0.8c0.1-0.5,0.2-0.8,0.2-1l-3.3-8.7c-0.1-1.1-0.6-2-1.4-2.7
					c-0.8-0.7-1.8-1.1-2.9-1.1h-4.2c-1.1,0-2.1,0.4-3,1.1c-0.9,0.8-1.4,1.6-1.5,2.7l-3.1,8.8c-0.1,0.2-0.1,0.5,0.1,1
					c0.2,0.5,0.4,0.7,0.7,0.7c1,0,1.6-0.3,1.7-0.8l3.2-9.1c0.1-0.2,0.2-0.3,0.3-0.3c0.2,0,0.3,0.1,0.3,0.3v0.1l-4.7,14.1v1.1
					c0,0.1,0.1,0.3,0.4,0.6c0.3,0.3,0.4,0.4,0.6,0.4h3v10.9c0,0.4,0.2,0.8,0.5,1.2c0.3,0.3,0.7,0.5,1.2,0.5s0.8-0.2,1.1-0.5
					c0.3-0.3,0.5-0.7,0.5-1.2v-11.3c0-0.1,0.1-0.1,0.4-0.1s0.6,0,0.8,0c0.3,0,0.4,0.1,0.4,0.1v11.2c0,0.4,0.2,0.9,0.5,1.2
					c0.3,0.4,0.7,0.5,1.2,0.5c0.4,0,0.8-0.2,1.2-0.5c0.3-0.4,0.5-0.8,0.5-1.2v-10.8h3.1c0.2,0,0.3-0.1,0.6-0.4s0.3-0.5,0.3-0.6v-0.3
					v-0.3v-0.3L934.8,538.6L934.8,538.6z"/>
				<path class="st4" d="M923.3,514.9c0,1,0.3,1.8,1,2.5c0.7,0.7,1.5,1.1,2.4,1.1s1.7-0.4,2.4-1.1c0.7-0.7,1-1.5,1-2.5
					s-0.3-1.8-1-2.5c-0.7-0.7-1.5-1.1-2.4-1.1s-1.7,0.4-2.4,1.1C923.7,513.1,923.3,514,923.3,514.9z"/>
			</g>
		</g>
		<g>
			<g>
				<path class="st4" d="M859.4,551.2c0,1.2,0.6,1.8,1.7,1.8s1.7-0.6,1.7-1.8v-16.1h1.8v16.1c0,1.2,0.6,1.8,1.7,1.8
					c1.2,0,1.7-0.6,1.7-1.8v-27.4h0.8v9.9c0,0.6,0.2,1.1,0.6,1.4s0.9,0.3,1.3,0c0.5-0.3,0.7-0.7,0.7-1.4v-10.6c0-1.1-0.4-2-1.1-2.6
					c-0.8-0.6-1.8-0.9-3.2-0.9h-7c-1.3,0-2.4,0.3-3.2,0.8c-0.8,0.6-1.2,1.4-1.2,2.6v11.3c0,0.5,0.2,0.9,0.7,1.1
					c0.5,0.2,0.9,0.2,1.3,0c0.4-0.2,0.6-0.6,0.6-1.1v-10.5h0.8V551.2z"/>
				<path class="st4" d="M860.1,514.4c0,1,0.4,1.8,1.1,2.5s1.6,1.1,2.5,1.1s1.8-0.4,2.5-1.1s1.1-1.6,1.1-2.6c0-1-0.4-1.8-1.1-2.5
					s-1.6-1.1-2.5-1.1s-1.8,0.4-2.5,1.1S860.1,513.4,860.1,514.4z"/>
			</g>
			<text transform="matrix(0.6614 0 0 1 877.1997 540.3467)" class="st5 st8">WC</text>
			<text transform="matrix(0.6614 0 0 1 877.1997 540.3467)" class="st7 st5 st8">WC</text>
		</g>
		<g>
			<circle cx="555.2" cy="516.4" r="15"/>
			<text transform="matrix(0.9247 0 0 1 544.9716 521.1492)" class="st9 st5 st10">601</text>
		</g>
		<g>
			<circle cx="554.9" cy="591.8" r="15"/>
			<text transform="matrix(0.9247 0 0 1 544.6351 596.5229)" class="st9 st5 st10">602</text>
		</g>
		<g>
			<circle cx="622.9" cy="680.8" r="15"/>
			<text transform="matrix(0.9247 0 0 1 612.6351 685.5229)" class="st9 st5 st10">603</text>
		</g>
		<g>
			<circle cx="832" cy="680.4" r="15"/>
			<text transform="matrix(0.9247 0 0 1 821.7418 685.1382)" class="st9 st5 st10">607</text>
		</g>
		<g>
			<circle cx="976.7" cy="679.7" r="15"/>
			<text transform="matrix(0.9247 0 0 1 966.4053 684.512)" class="st9 st5 st10">608</text>
		</g>
		<g>
			<circle cx="1150.7" cy="680.7" r="15"/>
			<text transform="matrix(0.9247 0 0 1 1140.4053 685.512)" class="st9 st5 st10">609</text>
		</g>
		<g>
			<circle cx="1317" cy="680.4" r="15"/>
			<text transform="matrix(0.9247 0 0 1 1306.7417 685.1382)" class="st9 st5 st10">611</text>
		</g>
		<g>
			<circle cx="1408.7" cy="559.7" r="15"/>
			<text transform="matrix(0.9247 0 0 1 1398.4053 564.512)" class="st9 st5 st10">612</text>
		</g>
		<g>
			<circle cx="1256.7" cy="532.7" r="15"/>
			<text transform="matrix(0.9247 0 0 1 1246.4053 537.512)" class="st9 st5 st10">614</text>
		</g>
		<g>
			<circle cx="1136" cy="533.4" r="15"/>
			<text transform="matrix(0.9247 0 0 1 1125.7417 538.1382)" class="st9 st5 st10">610</text>
		</g>
		<g>
			<circle cx="1006.7" cy="533.7" r="15"/>
			<text transform="matrix(0.9247 0 0 1 996.4053 538.512)" class="st9 st5 st10">615</text>
		</g>
	</g>
	<g>
		<text transform="matrix(1.5759 0 0 1 576.921 391.7715)" class="st5 st11">ЭТАЖ</text>
		<circle class="st12" cx="523.9" cy="371.2" r="35"/>
		<text transform="matrix(1.208 0 0 1 512.4073 386.5313)" class="st3 st5 st13">6</text>
	</g>
</g>
</svg>
