<?xml version="1.0" encoding="utf-8"?>
<!-- Generator: Adobe Illustrator 27.3.1, SVG Export Plug-In . SVG Version: 6.00 Build 0)  -->
<svg version="1.1" id="Слой_1" xmlns="http://www.w3.org/2000/svg" xmlns:xlink="http://www.w3.org/1999/xlink" x="0px" y="0px"
	 viewBox="0 0 1920 1080" style="enable-background:new 0 0 1920 1080;" xml:space="preserve">
<style type="text/css">
	.st0{fill:#94C4FF;stroke:#FFFFFF;stroke-width:4;stroke-linecap:square;stroke-miterlimit:10;}
	.st1{fill:none;stroke:#FFFFFF;stroke-width:2;stroke-linecap:square;stroke-miterlimit:10;}
	.st2{fill:none;stroke:#FFFFFF;stroke-width:2;stroke-miterlimit:10;}
	.st3{fill:#FFFFFF;}
	.st4{fill:#010002;}
	.st5{font-family:'ArialMT';}
	.st6{font-size:13.4211px;}
	.st7{fill:none;stroke:#000000;stroke-width:0.25;stroke-miterlimit:10;}
	.st8{font-size:12px;}
	.st9{fill:none;stroke:#FFFFFF;stroke-width:0.25;stroke-miterlimit:10;}
	.st10{font-size:20.6068px;}
	.st11{fill:none;stroke:#FFFFFF;stroke-width:0.75;stroke-miterlimit:10;}
	.st12{font-size:13.8987px;}
	.st13{fill:none;stroke:#000000;stroke-width:0.75;stroke-miterlimit:10;}
	.st14{font-size:51.0659px;}
	.st15{stroke:#000000;stroke-linecap:round;stroke-miterlimit:10;}
	.st16{font-size:44.405px;}
</style>
<g>
	<g>
		<polygon class="st0" points="1270,415 1217,415 1217,434 754,434 754,415 696,415 696,434 244,434 244,414 184,414 184,434 
			63,434 63,665 1882,665 1882,434 1270,434 		"/>
		<g>
			<line class="st1" x1="185" y1="436" x2="185" y2="528"/>
			<line class="st1" x1="184" y1="574" x2="184" y2="664"/>
			<line class="st1" x1="243" y1="560" x2="243" y2="664"/>
			<line class="st1" x1="243" y1="538" x2="243" y2="433"/>
			<line class="st1" x1="147" y1="574" x2="202" y2="574"/>
			<line class="st1" x1="176" y1="560" x2="176" y2="574"/>
			<line class="st1" x1="176" y1="547" x2="176" y2="528"/>
			<line class="st1" x1="171" y1="528" x2="185" y2="528"/>
			<line class="st1" x1="155" y1="528" x2="133" y2="528"/>
			<line class="st1" x1="119" y1="528" x2="63" y2="528"/>
			<line class="st1" x1="110" y1="542" x2="110" y2="528"/>
			<line class="st1" x1="110" y1="574" x2="110" y2="558"/>
			<line class="st1" x1="63" y1="574" x2="126" y2="574"/>
			<line class="st1" x1="220" y1="574" x2="243" y2="574"/>
			<line class="st2" x1="483" y1="433" x2="483" y2="664"/>
			<line class="st2" x1="548" y1="433" x2="548" y2="540"/>
			<line class="st2" x1="548" y1="558" x2="548" y2="664"/>
			<line class="st2" x1="548" y1="529" x2="620" y2="529"/>
			<line class="st2" x1="639" y1="529" x2="669" y2="529"/>
			<line class="st1" x1="697" y1="434" x2="697" y2="529"/>
			<line class="st2" x1="659" y1="433" x2="659" y2="529"/>
			<line class="st1" x1="681" y1="529" x2="697" y2="529"/>
			<line class="st2" x1="548" y1="575" x2="639" y2="575"/>
			<line class="st2" x1="656" y1="575" x2="720" y2="575"/>
			<line class="st2" x1="740" y1="575" x2="807" y2="575"/>
			<line class="st2" x1="826" y1="575" x2="918" y2="575"/>
			<line class="st2" x1="793" y1="664" x2="793" y2="575"/>
			<line class="st2" x1="673" y1="664" x2="673" y2="575"/>
			<line class="st1" x1="754" y1="529" x2="768" y2="529"/>
			<line class="st2" x1="782" y1="529" x2="807" y2="529"/>
			<line class="st2" x1="826" y1="529" x2="918" y2="529"/>
			<line class="st1" x1="753" y1="435" x2="753" y2="529"/>
			<line class="st2" x1="793" y1="434" x2="793" y2="529"/>
			<line class="st2" x1="918" y1="563" x2="918" y2="664"/>
			<line class="st2" x1="918" y1="542" x2="918" y2="433"/>
			<line class="st2" x1="1218" y1="433" x2="1218" y2="664"/>
			<line class="st1" x1="1269" y1="433" x2="1269" y2="572"/>
			<line class="st2" x1="1806" y1="595" x2="1806" y2="433"/>
			<line class="st1" x1="1789" y1="595" x2="1814" y2="595"/>
			<line class="st2" x1="1829" y1="595" x2="1882" y2="595"/>
			<line class="st2" x1="1789" y1="624" x2="1789" y2="664"/>
			<line class="st2" x1="1789" y1="606" x2="1789" y2="595"/>
			<line class="st1" x1="1218" y1="572" x2="1269" y2="572"/>
		</g>
		<g>
			<path d="M202.5,463.1c-2.1,0-3.8,1.7-3.8,3.8v22.5c0,2.1,1.7,3.8,3.8,3.8H225c2.1,0,3.8-1.7,3.8-3.8v-22.5c0-2.1-1.7-3.8-3.8-3.8
				H202.5z"/>
			<g>
				<polygon class="st3" points="219,468.7 219,474.7 213.2,474.7 213.2,480.7 207.5,480.7 207.5,486.7 203.1,486.7 203.1,489.8 
					210.2,489.8 210.2,483.8 215.9,483.8 215.9,477.8 221.6,477.8 221.6,471.8 226,471.8 226,468.7 				"/>
				<polygon class="st3" points="204.3,476.7 213.8,466.8 208.5,466.8 208.5,468.2 210.6,468.2 203.5,475.7 				"/>
			</g>
		</g>
		<g>
			<path d="M714,461.9c-2.1,0-3.8,1.7-3.8,3.8v22.5c0,2.1,1.7,3.8,3.8,3.8h22.5c2.1,0,3.8-1.7,3.8-3.8v-22.5c0-2.1-1.7-3.8-3.8-3.8
				H714z"/>
			<g>
				<polygon class="st3" points="730.4,467.6 730.4,473.6 724.7,473.6 724.7,479.6 719,479.6 719,485.6 714.6,485.6 714.6,488.7 
					721.6,488.7 721.6,482.7 727.4,482.7 727.4,476.7 733.1,476.7 733.1,470.7 737.5,470.7 737.5,467.6 				"/>
				<polygon class="st3" points="715.8,475.6 725.2,465.7 720,465.7 720,467.1 722.1,467.1 715,474.6 				"/>
			</g>
		</g>
		<g>
			<path d="M1839.2,617.4c-2.1,0-3.8,1.7-3.8,3.8v22.5c0,2.1,1.7,3.8,3.8,3.8h22.5c2.1,0,3.8-1.7,3.8-3.8v-22.5
				c0-2.1-1.7-3.8-3.8-3.8H1839.2z"/>
			<g>
				<polygon class="st3" points="1855.7,623 1855.7,629 1849.9,629 1849.9,635 1844.2,635 1844.2,641 1839.8,641 1839.8,644.1 
					1846.9,644.1 1846.9,638.1 1852.6,638.1 1852.6,632.1 1858.3,632.1 1858.3,626.1 1862.7,626.1 1862.7,623 				"/>
				<polygon class="st3" points="1841,631.1 1850.5,621.2 1845.2,621.2 1845.2,622.6 1847.3,622.6 1840.2,630 				"/>
			</g>
		</g>
		<g>
			<g>
				<path class="st4" d="M712.1,504.8c-0.5-0.4-0.7-0.9-0.7-1.5s0.2-1.1,0.7-1.5s1.1-0.6,1.8-0.6s1.3,0.2,1.8,0.6s0.7,0.9,0.7,1.5
					s-0.2,1.1-0.7,1.5s-1.1,0.6-1.8,0.6S712.6,505.2,712.1,504.8z M708.9,515.2c0.2,0.1,0.3,0.2,0.5,0.2s0.4-0.1,0.5-0.2
					c0.2-0.1,0.2-0.3,0.2-0.5V509v-0.3c0-0.1,0-0.2,0.2-0.2c0.1,0,0.2,0,0.3,0s0.2,0,0.3,0s0.2,0.1,0.2,0.2v13.5
					c0,0.3,0.1,0.5,0.3,0.7s0.5,0.3,0.8,0.3s0.6-0.1,0.8-0.3s0.3-0.4,0.3-0.7V517v-3c0-0.2,0.1-0.2,0.2-0.3c0.1,0,0.2-0.1,0.3-0.1
					s0.2,0,0.3,0.1c0.1,0,0.2,0.1,0.2,0.3v3v5.3c0,0.3,0.1,0.5,0.3,0.7s0.5,0.3,0.8,0.3s0.6-0.1,0.8-0.3s0.3-0.4,0.3-0.7v-13.5
					c0-0.1,0-0.2,0.2-0.2c0.1,0,0.2,0,0.3,0s0.2,0,0.3,0s0.2,0.1,0.2,0.2v0.3v5.6c0,0.2,0.1,0.4,0.2,0.5c0.2,0.1,0.3,0.2,0.5,0.2
					s0.4-0.1,0.5-0.2c0.2-0.1,0.2-0.3,0.2-0.5v-6.2c0-0.6-0.2-1.1-0.7-1.6s-1.1-0.7-1.9-0.7h-2.8l0,0h-2.6c-0.8,0-1.4,0.2-1.7,0.7
					c-0.4,0.5-0.5,1-0.5,1.6v6.2C708.6,514.9,708.7,515.1,708.9,515.2z M735.8,497.6c0.3,0.3,0.5,0.6,0.5,1v27c0,0.4-0.2,0.7-0.5,1
					s-0.7,0.4-1.1,0.4H705c-0.4,0-0.8-0.1-1.1-0.4s-0.5-0.6-0.5-1v-27c0-0.4,0.2-0.7,0.5-1s0.7-0.4,1.1-0.4h29.7
					C735.2,497.2,735.5,497.3,735.8,497.6z M733.7,499.4H706v25.2h27.7V499.4L733.7,499.4z M725.8,505.4c0.7,0,1.3-0.2,1.8-0.6
					s0.7-0.9,0.7-1.5s-0.2-1.1-0.7-1.5s-1.1-0.6-1.8-0.6s-1.3,0.2-1.8,0.6s-0.7,0.9-0.7,1.5s0.2,1.1,0.7,1.5
					C724.5,505.2,725.1,505.4,725.8,505.4z M720.8,515.2c0.2,0.1,0.3,0.2,0.5,0.2s0.4-0.1,0.5-0.2s0.2-0.3,0.2-0.5V509v-0.3
					c0-0.1,0-0.2,0.2-0.2c0.1,0,0.2,0,0.3,0s0.2,0,0.3,0s0.2,0.1,0.2,0.2v13.5c0,0.3,0.1,0.5,0.3,0.7s0.5,0.3,0.8,0.3
					s0.6-0.1,0.8-0.3s0.3-0.4,0.3-0.7V517v-3c0-0.2,0.1-0.2,0.2-0.3c0.1,0,0.2-0.1,0.3-0.1s0.2,0,0.3,0.1c0.1,0,0.2,0.1,0.2,0.3v3
					v5.3c0,0.3,0.1,0.5,0.3,0.7s0.5,0.3,0.8,0.3s0.6-0.1,0.8-0.3s0.3-0.4,0.3-0.7v-13.5c0-0.1,0-0.2,0.2-0.2c0.1,0,0.2,0,0.3,0
					s0.2,0,0.3,0s0.2,0.1,0.2,0.2v0.3v5.6c0,0.2,0.1,0.4,0.2,0.5c0.2,0.1,0.3,0.2,0.5,0.2s0.4-0.1,0.5-0.2c0.2-0.1,0.2-0.3,0.2-0.5
					v-6.2c0-0.6-0.2-1.1-0.7-1.6s-1.1-0.7-1.9-0.7h-2.8l0,0l0,0h-2.5c-0.8,0-1.4,0.2-1.8,0.7c-0.4,0.5-0.6,1-0.6,1.6v6.2
					C720.6,514.9,720.7,515.1,720.8,515.2z M747.9,521.6c-0.9,0-2.3,0-2.3,0s0-0.3,0-0.9c0-1.6,0-4.7,0-5.9c0,0,0-0.3-0.4-0.3
					s-3,0-3.5,0c-0.6,0-0.5,0.3-0.5,0.3c0,1.2,0,4.2,0,5.9c0,0.6,0,1,0,1s-1.8,0-2.5,0s-0.1,0.6-0.1,0.6l4.5,4.7c0,0,0.4,0.4,0.7,0
					c0.5-0.5,4.3-4.9,4.3-4.9S748.8,521.6,747.9,521.6z M738.8,503.2c0.9,0,2.3,0,2.3,0s0,0.3,0,0.9c0,1.6,0,4.7,0,5.9
					c0,0,0,0.3,0.4,0.3s3,0,3.5,0c0.6,0,0.5-0.3,0.5-0.3c0-1.2,0-4.2,0-5.9c0-0.6,0-1,0-1s1.8,0,2.5,0s0.1-0.6,0.1-0.6l-4.5-4.7
					c0,0-0.4-0.4-0.7,0c-0.5,0.5-4.3,4.9-4.3,4.9S737.8,503.2,738.8,503.2z"/>
			</g>
		</g>
		<g>
			<g>
				<path class="st4" d="M762.1,499.2c0,0.8,0.4,1.3,1.2,1.3s1.2-0.4,1.2-1.3v-11.4h1.3v11.4c0,0.8,0.4,1.3,1.2,1.3s1.2-0.4,1.2-1.3
					v-19.4h0.6v7c0,0.4,0.2,0.8,0.5,1s0.6,0.2,0.9,0c0.3-0.2,0.5-0.5,0.5-1v-7.5c0-0.8-0.3-1.4-0.8-1.9s-1.3-0.7-2.3-0.7h-5
					c-0.9,0-1.7,0.2-2.3,0.6s-0.9,1-0.9,1.9v8c0,0.4,0.2,0.6,0.5,0.8s0.6,0.2,0.9,0c0.3-0.2,0.5-0.4,0.5-0.8v-7.4h0.6v19.4H762.1z"
					/>
				<path class="st4" d="M762.6,473.1c0,0.7,0.3,1.3,0.8,1.8s1.1,0.8,1.8,0.8s1.3-0.3,1.8-0.8s0.8-1.1,0.8-1.8
					c0-0.7-0.3-1.3-0.8-1.8s-1.1-0.8-1.8-0.8s-1.3,0.3-1.8,0.8C762.9,471.8,762.6,472.4,762.6,473.1z"/>
			</g>
			<text transform="matrix(0.6639 0 0 1 774.8037 491.5283)" class="st5 st6">WC</text>
			<text transform="matrix(0.6639 0 0 1 774.8037 491.5283)" class="st7 st5 st6">WC</text>
		</g>
		<g>
			<circle cx="515.3" cy="554.4" r="15"/>
			<text transform="matrix(1 0 0 1 505.6592 558.3848)" class="st3 st5 st8">537</text>
			<text transform="matrix(1 0 0 1 505.6592 558.3848)" class="st9 st5 st8">537</text>
		</g>
		<g>
			<circle cx="214.2" cy="618.7" r="15"/>
			<text transform="matrix(1 0 0 1 204.6077 622.7012)" class="st3 st5 st8">531</text>
			<text transform="matrix(1 0 0 1 204.6077 622.7012)" class="st9 st5 st8">531</text>
		</g>
		<g>
			<circle cx="142.5" cy="550.3" r="15"/>
			<text transform="matrix(1 0 0 1 132.9263 554.2947)" class="st3 st5 st8">532</text>
			<text transform="matrix(1 0 0 1 132.9263 554.2947)" class="st9 st5 st8">532</text>
		</g>
		<g>
			<circle cx="857.4" cy="481.2" r="15"/>
			<text transform="matrix(1 0 0 1 847.7928 485.1815)" class="st3 st5 st8">503</text>
			<text transform="matrix(1 0 0 1 847.7928 485.1815)" class="st9 st5 st8">503</text>
		</g>
		<g>
			<circle cx="609.4" cy="481.5" r="15"/>
			<text transform="matrix(1 0 0 1 599.7413 485.4979)" class="st3 st5 st8">536</text>
			<text transform="matrix(1 0 0 1 599.7413 485.4979)" class="st9 st5 st8">536</text>
		</g>
		<g>
			<circle cx="733.7" cy="619.1" r="15"/>
			<text transform="matrix(1 0 0 1 724.0599 623.0914)" class="st3 st5 st8">523</text>
			<text transform="matrix(1 0 0 1 724.0599 623.0914)" class="st9 st5 st8">523</text>
		</g>
		<g>
			<circle cx="857.4" cy="618.5" r="15"/>
			<text transform="matrix(1 0 0 1 847.7413 622.4979)" class="st3 st5 st8">522</text>
			<text transform="matrix(1 0 0 1 847.7413 622.4979)" class="st9 st5 st8">522</text>
		</g>
		<g>
			<circle cx="1843.7" cy="517.1" r="15"/>
			<text transform="matrix(1 0 0 1 1834.0599 521.0914)" class="st3 st5 st8">517</text>
			<text transform="matrix(1 0 0 1 1834.0599 521.0914)" class="st9 st5 st8">517</text>
		</g>
		<g>
			<circle cx="608.9" cy="619.4" r="15"/>
			<text transform="matrix(1 0 0 1 599.322 623.4045)" class="st3 st5 st8">524</text>
			<text transform="matrix(1 0 0 1 599.322 623.4045)" class="st9 st5 st8">524</text>
		</g>
		<g>
			<circle cx="367.2" cy="550.3" r="25"/>
			<text transform="matrix(0.9135 0 0 1 348.5601 557.3086)" class="st3 st5 st10">УВЦ</text>
			<text transform="matrix(0.9135 0 0 1 348.5601 557.3086)" class="st11 st5 st10">УВЦ</text>
		</g>
		<g>
			<circle cx="1542.6" cy="541.7" r="25"/>
			<text transform="matrix(0.9135 0 0 1 1530.915 548.71)" class="st3 st5 st10">ВК</text>
			<text transform="matrix(0.9135 0 0 1 1530.915 548.71)" class="st11 st5 st10">ВК</text>
		</g>
		<text transform="matrix(1.3746 0 0 1 1013.5166 552.4873)" class="st5 st12">АКТОВЫЙ ЗАЛ</text>
		<text transform="matrix(1.3746 0 0 1 1013.5166 552.4873)" class="st13 st5 st12">АКТОВЫЙ ЗАЛ</text>
		<g>
			<path d="M976.2,532.9c-2.1,0-3.8,1.7-3.8,3.8v22.5c0,2.1,1.7,3.8,3.8,3.8h22.5c2.1,0,3.8-1.7,3.8-3.8v-22.5
				c0-2.1-1.7-3.8-3.8-3.8H976.2z"/>
			<g>
				<g>
					<path class="st3" d="M980,555.9L980,555.9c0.1-0.3,0.3-0.4,0.6-0.6l1-0.4h0.1l-0.1-0.1c-0.4-0.5-0.7-1.3-0.7-2.1l-0.1-0.1
						l-0.5-0.4l-0.8,0.8l0,0h-0.1l0,0l-0.8-0.8l-0.5,0.4l-1,0.5c-0.2,0.1-0.3,0.2-0.4,0.3c0,0-1.1,2.5-0.5,2.5L980,555.9L980,555.9z
						"/>
					<path class="st3" d="M977.5,549.9c0,1.6,0.9,2.5,1.9,2.5c0.8,0,1.9-0.9,1.9-2.5c0-1.1-0.5-1.7-1.9-1.7
						C978.1,548.2,977.5,548.8,977.5,549.9z"/>
					<path class="st3" d="M985.8,555.3c0.3,0.1,0.5,0.3,0.6,0.6l0,0h1.2l0,0l0,0c0.1-0.2,0.3-0.4,0.6-0.5l1-0.4h0.1l-0.1-0.1
						c-0.4-0.5-0.7-1.3-0.7-2.1l-0.1-0.1l-0.5-0.4l-0.8,0.8l0,0H987l0,0l-0.8-0.8l-0.5,0.4l-0.1,0.1c0,0.8-0.3,1.5-0.8,2.1l-0.1,0.1
						l0.1,0.1L985.8,555.3z"/>
					<path class="st3" d="M987.1,552.4c0.8,0,1.9-0.9,1.9-2.5c0-1.1-0.5-1.7-1.9-1.7c-1.3,0-1.9,0.7-1.9,1.7
						C985.3,551.5,986.2,552.4,987.1,552.4z"/>
					<path class="st3" d="M997.6,553.4c-0.1-0.2-0.2-0.2-0.4-0.3l-1-0.5l-0.5-0.4l-0.8,0.8l0,0h-0.1l0,0l-0.8-0.8l-0.5,0.4l-0.1,0.1
						c0,0.8-0.3,1.5-0.8,2.1l-0.1,0.1l0.1,0.1l1,0.4c0.3,0.1,0.5,0.3,0.6,0.6l0,0h3.9C998.7,555.9,997.6,553.4,997.6,553.4z"/>
					<path class="st3" d="M992.9,549.9c0,1.6,0.9,2.5,1.9,2.5c0.8,0,1.9-0.9,1.9-2.5c0-1.1-0.5-1.7-1.9-1.7
						C993.5,548.2,992.9,548.8,992.9,549.9z"/>
					<path class="st3" d="M985.6,555.8l-1-0.5l-0.5-0.4l-0.8,0.8l0,0h-0.1l0,0l-0.8-0.8l-0.5,0.4l-1,0.5c-0.2,0.1-0.3,0.1-0.4,0.3
						c0,0-1.1,2.5-0.5,2.5h6.6c0.6,0-0.5-2.5-0.5-2.5C986,555.9,985.8,555.8,985.6,555.8z"/>
					<path class="st3" d="M983.3,550.9c-1.3,0-1.9,0.7-1.9,1.7c0,1.6,0.9,2.5,1.9,2.5c0.8,0,1.9-0.9,1.9-2.5
						C985.1,551.5,984.6,550.9,983.3,550.9z"/>
					<path class="st3" d="M993.4,555.8l-1-0.5l-0.5-0.4l-0.8,0.8l0,0H991l0,0l-0.8-0.8l-0.5,0.4l-1,0.5c-0.2,0.1-0.3,0.1-0.4,0.3
						c0,0-1.1,2.5-0.5,2.5h6.6c0.6,0-0.5-2.5-0.5-2.5C993.7,555.9,993.5,555.8,993.4,555.8z"/>
					<path class="st3" d="M991,555.1c0.8,0,1.9-0.9,1.9-2.5c0-1.1-0.5-1.7-1.9-1.7c-1.3,0-1.9,0.7-1.9,1.7
						C989.1,554.2,990,555.1,991,555.1z"/>
					<path class="st3" d="M986.5,544L986.5,544c0.1,0,0.2,0,0.2,0l2-1.4l0.1-0.1c0-0.1,0-0.1-0.1-0.1l-2-1.4c-0.1,0-0.1,0-0.2,0
						s-0.1,0.1-0.1,0.2v2.9C986.4,543.9,986.4,543.9,986.5,544z"/>
					<path class="st3" d="M977,547.5h20.3c0.1,0,0.3-0.1,0.3-0.3v-9.8c0-0.1-0.1-0.3-0.3-0.3H977c-0.1,0-0.3,0.1-0.3,0.3v9.8
						C976.7,547.4,976.8,547.5,977,547.5z M987.1,539.4c1.7,0,3.1,1.3,3.1,2.9c0,1.6-1.4,2.9-3.1,2.9s-3.1-1.3-3.1-2.9
						S985.4,539.4,987.1,539.4z"/>
				</g>
			</g>
		</g>
	</g>
	<g>
		<text transform="matrix(1.5759 0 0 1 158.1336 317.1348)" class="st5 st14">ЭТАЖ</text>
		<circle class="st15" cx="105.1" cy="296.5" r="35"/>
		<text transform="matrix(1.208 0 0 1 93.6199 311.8945)" class="st3 st5 st16">5</text>
	</g>
</g>
</svg>
