<?xml version="1.0" encoding="utf-8"?>
<!-- Generator: Adobe Illustrator 27.3.1, SVG Export Plug-In . SVG Version: 6.00 Build 0)  -->
<svg version="1.1" id="Слой_1" xmlns="http://www.w3.org/2000/svg" xmlns:xlink="http://www.w3.org/1999/xlink" x="0px" y="0px"
	 viewBox="0 0 1920 1080" style="enable-background:new 0 0 1920 1080;" xml:space="preserve">
<style type="text/css">
	.st0{fill:#94C4FF;stroke:#FFFFFF;stroke-width:4;stroke-linecap:square;stroke-miterlimit:10;}
	.st1{fill:none;stroke:#FFFFFF;stroke-width:2;stroke-miterlimit:10;}
	.st2{fill:none;stroke:#FFFFFF;stroke-width:2;stroke-linecap:square;stroke-miterlimit:10;}
	.st3{fill:#010002;}
	.st4{fill:#FFFFFF;}
	.st5{font-family:'ArialMT';}
	.st6{font-size:11.339px;}
	.st7{fill:none;stroke:#000000;stroke-width:0.5;stroke-miterlimit:10;}
	.st8{font-size:10.2895px;}
	.st9{stroke:#000000;stroke-miterlimit:10;}
	.st10{font-size:10.1449px;}
	.st11{fill:#FFFFFF;stroke:#FFFFFF;stroke-width:0.75;stroke-miterlimit:10;}
	.st12{font-size:13.6111px;}
	.st13{font-size:10.8626px;}
</style>
<g>
	<polyline class="st0" points="647,759 618,759 618,553 595,553 595,91 806,91 806,215 832,215 832,299 804,299 804,759 1235,759 
		1235,735 1284,735 1284,764 1347,764 1347,931 648,931 647,931 647,762 	"/>
	<g>
		<line class="st1" x1="724" y1="298" x2="804" y2="298"/>
		<line class="st2" x1="724" y1="216" x2="805" y2="216"/>
		<line class="st1" x1="724" y1="245" x2="724" y2="216"/>
		<line class="st2" x1="724" y1="266" x2="724" y2="298"/>
		<line class="st1" x1="595" y1="499" x2="804" y2="499"/>
		<line class="st1" x1="688" y1="519" x2="688" y2="499"/>
		<line class="st1" x1="620" y1="552" x2="804" y2="552"/>
		<line class="st1" x1="688" y1="535" x2="688" y2="552"/>
		<line class="st2" x1="694" y1="758" x2="647" y2="758"/>
		<line class="st1" x1="694" y1="652" x2="618" y2="652"/>
		<line class="st1" x1="725" y1="628" x2="804" y2="628"/>
		<line class="st1" x1="725" y1="679" x2="804" y2="679"/>
		<line class="st1" x1="725" y1="758" x2="804" y2="758"/>
		<line class="st2" x1="804" y1="803" x2="804" y2="831"/>
		<line class="st2" x1="919" y1="831" x2="804" y2="831"/>
		<line class="st1" x1="902" y1="759" x2="902" y2="831"/>
		<line class="st1" x1="951" y1="759" x2="951" y2="831"/>
		<line class="st1" x1="990" y1="831" x2="990" y2="761"/>
		<line class="st1" x1="1039" y1="831" x2="1039" y2="761"/>
		<line class="st1" x1="1131" y1="831" x2="1131" y2="761"/>
		<line class="st2" x1="1236" y1="831" x2="1236" y2="761"/>
		<line class="st1" x1="1283" y1="838" x2="1283" y2="766"/>
		<line class="st1" x1="1283" y1="857" x2="1283" y2="868"/>
		<line class="st1" x1="1322" y1="868" x2="1347" y2="868"/>
		<line class="st2" x1="1305" y1="868" x2="1222" y2="868"/>
		<line class="st1" x1="1235" y1="931" x2="1235" y2="868"/>
		<line class="st1" x1="1131" y1="868" x2="1131" y2="931"/>
		<line class="st1" x1="1059" y1="868" x2="1059" y2="931"/>
		<line class="st1" x1="1017" y1="868" x2="1017" y2="931"/>
		<line class="st1" x1="951" y1="868" x2="951" y2="931"/>
		<line class="st1" x1="856" y1="868" x2="856" y2="931"/>
		<line class="st1" x1="768" y1="868" x2="768" y2="931"/>
		<line class="st1" x1="723" y1="868" x2="723" y2="931"/>
		<line class="st2" x1="936" y1="831" x2="965" y2="831"/>
		<line class="st2" x1="980" y1="831" x2="1008" y2="831"/>
		<line class="st2" x1="1026" y1="831" x2="1096" y2="831"/>
		<line class="st2" x1="1120" y1="831" x2="1199" y2="831"/>
		<line class="st2" x1="1222" y1="831" x2="1235" y2="831"/>
		<line class="st2" x1="1204" y1="868" x2="1084" y2="868"/>
		<line class="st2" x1="1068" y1="868" x2="1046" y2="868"/>
		<line class="st2" x1="1032" y1="868" x2="980" y2="868"/>
		<line class="st2" x1="965" y1="868" x2="899" y2="868"/>
		<line class="st2" x1="880" y1="868" x2="804" y2="868"/>
		<line class="st2" x1="786" y1="868" x2="751" y2="868"/>
		<line class="st2" x1="736" y1="868" x2="675" y2="868"/>
		<line class="st2" x1="658" y1="868" x2="647" y2="868"/>
		<line class="st1" x1="694" y1="610" x2="694" y2="691"/>
		<line class="st2" x1="694" y1="711" x2="694" y2="758"/>
		<line class="st2" x1="725" y1="711" x2="725" y2="758"/>
		<line class="st2" x1="725" y1="661" x2="725" y2="691"/>
		<line class="st2" x1="725" y1="644" x2="725" y2="599"/>
		<line class="st2" x1="725" y1="580" x2="725" y2="553"/>
		<line class="st2" x1="694" y1="592" x2="694" y2="554"/>
	</g>
	<g>
		<g>
			<path class="st3" d="M814.9,808.8c-0.4-0.4-0.6-0.8-0.6-1.4c0-0.5,0.2-1,0.6-1.4s0.9-0.6,1.5-0.6c0.6,0,1.1,0.2,1.5,0.6
				c0.4,0.4,0.6,0.8,0.6,1.4c0,0.5-0.2,1-0.6,1.4c-0.4,0.4-0.9,0.6-1.5,0.6C815.8,809.4,815.3,809.2,814.9,808.8z M812.2,818.2
				c0.1,0.1,0.3,0.1,0.5,0.1c0.2,0,0.3-0.1,0.5-0.1c0.1-0.1,0.2-0.3,0.2-0.5v-5.1v-0.2c0-0.1,0-0.1,0.1-0.2c0.1,0,0.2,0,0.2,0
				c0.1,0,0.1,0,0.2,0c0.1,0,0.1,0.1,0.1,0.2v12.2c0,0.2,0.1,0.4,0.3,0.6c0.2,0.2,0.4,0.2,0.7,0.2c0.3,0,0.5-0.1,0.7-0.2
				c0.2-0.2,0.3-0.4,0.3-0.6v-4.8v-2.7c0-0.1,0.1-0.2,0.2-0.3c0.1,0,0.2-0.1,0.3-0.1c0.1,0,0.1,0,0.2,0.1c0.1,0,0.2,0.1,0.2,0.3v2.7
				v4.8c0,0.2,0.1,0.4,0.3,0.6c0.2,0.2,0.4,0.2,0.7,0.2c0.3,0,0.5-0.1,0.7-0.2c0.2-0.2,0.3-0.4,0.3-0.6l0-12.2c0-0.1,0-0.1,0.1-0.2
				c0.1,0,0.2,0,0.2,0c0.1,0,0.1,0,0.2,0c0.1,0,0.1,0.1,0.1,0.2v0.2v5.1c0,0.2,0.1,0.4,0.2,0.5c0.1,0.1,0.3,0.1,0.4,0.1
				c0.2,0,0.3-0.1,0.4-0.1c0.1-0.1,0.2-0.3,0.2-0.5v-5.6c0-0.5-0.2-1-0.6-1.5c-0.4-0.4-0.9-0.7-1.6-0.7h-2.3h0h-2.2
				c-0.7,0-1.1,0.2-1.4,0.7s-0.5,0.9-0.5,1.5v5.6C812,817.9,812.1,818.1,812.2,818.2z M834.6,802.3c0.3,0.2,0.4,0.5,0.4,0.9v24.3
				c0,0.4-0.1,0.6-0.4,0.9c-0.3,0.2-0.6,0.3-1,0.3H809c-0.4,0-0.7-0.1-1-0.3c-0.3-0.2-0.4-0.5-0.4-0.9v-24.3c0-0.4,0.1-0.6,0.4-0.9
				c0.3-0.2,0.6-0.3,1-0.3h24.6C834,802,834.3,802.1,834.6,802.3z M832.8,804h-23v22.7h23V804L832.8,804z M826.3,809.4
				c0.6,0,1.1-0.2,1.5-0.6c0.4-0.4,0.6-0.8,0.6-1.4c0-0.5-0.2-1-0.6-1.4c-0.4-0.4-0.9-0.6-1.5-0.6s-1.1,0.2-1.5,0.6
				c-0.4,0.4-0.6,0.8-0.6,1.4c0,0.5,0.2,1,0.6,1.4C825.2,809.2,825.7,809.4,826.3,809.4z M822.2,818.2c0.1,0.1,0.3,0.1,0.5,0.1
				c0.2,0,0.3-0.1,0.5-0.1c0.1-0.1,0.2-0.3,0.2-0.5v-5.1v-0.2c0-0.1,0-0.1,0.1-0.2c0.1,0,0.2,0,0.2,0c0.1,0,0.1,0,0.2,0
				c0.1,0,0.1,0.1,0.1,0.2v12.2c0,0.2,0.1,0.4,0.3,0.6c0.2,0.2,0.4,0.2,0.7,0.2c0.3,0,0.5-0.1,0.7-0.2c0.2-0.2,0.3-0.4,0.3-0.6v-4.8
				v-2.7c0-0.1,0.1-0.2,0.2-0.3c0.1,0,0.2-0.1,0.3-0.1c0.1,0,0.1,0,0.3,0.1c0.1,0,0.2,0.1,0.2,0.3v2.7v4.8c0,0.2,0.1,0.4,0.3,0.6
				c0.2,0.2,0.4,0.2,0.7,0.2c0.3,0,0.5-0.1,0.7-0.2c0.2-0.2,0.3-0.4,0.3-0.6v-12.2c0-0.1,0-0.1,0.1-0.2c0.1,0,0.2,0,0.2,0
				c0.1,0,0.1,0,0.2,0c0.1,0,0.1,0.1,0.1,0.2v0.2v5.1c0,0.2,0.1,0.4,0.2,0.5c0.1,0.1,0.3,0.1,0.5,0.1c0.2,0,0.3-0.1,0.5-0.1
				c0.1-0.1,0.2-0.3,0.2-0.5v-5.6c0-0.5-0.2-1-0.6-1.5c-0.4-0.4-0.9-0.7-1.6-0.7h-2.3h0h0h-2.1c-0.7,0-1.2,0.2-1.5,0.7
				s-0.5,0.9-0.5,1.5v5.6C822,817.9,822,818.1,822.2,818.2z M844.6,824c-0.7,0-1.9,0-1.9,0s0-0.3,0-0.8c0-1.4,0-4.2,0-5.3
				c0,0,0-0.3-0.3-0.3s-2.5,0-2.9,0s-0.4,0.3-0.4,0.3c0,1.1,0,3.8,0,5.3c0,0.5,0,0.9,0,0.9s-1.5,0-2.1,0c-0.6,0,0,0.5,0,0.5l3.7,4.2
				c0,0,0.3,0.3,0.6,0c0.4-0.4,3.6-4.4,3.6-4.4S845.4,824,844.6,824z M837,807.4c0.7,0,1.9,0,1.9,0s0,0.3,0,0.8c0,1.4,0,4.2,0,5.3
				c0,0,0,0.3,0.3,0.3s2.5,0,2.9,0c0.5,0,0.4-0.3,0.4-0.3c0-1.1,0-3.8,0-5.3c0-0.5,0-0.9,0-0.9s1.5,0,2.1,0c0.6,0,0-0.5,0-0.5
				l-3.7-4.2c0,0-0.3-0.3-0.6,0c-0.4,0.4-3.6,4.4-3.6,4.4S836.3,807.4,837,807.4z"/>
		</g>
	</g>
	<g>
		<g>
			<path class="st3" d="M780.3,271.2c-0.4-0.4-0.6-0.8-0.6-1.4c0-0.5,0.2-1,0.6-1.4c0.4-0.4,0.9-0.6,1.5-0.6c0.6,0,1.1,0.2,1.5,0.6
				c0.4,0.4,0.6,0.8,0.6,1.4c0,0.5-0.2,1-0.6,1.4s-0.9,0.6-1.5,0.6C781.2,271.8,780.7,271.6,780.3,271.2z M777.6,280.6
				c0.1,0.1,0.3,0.1,0.5,0.1c0.2,0,0.3-0.1,0.5-0.1s0.2-0.3,0.2-0.5V275v-0.2c0-0.1,0-0.1,0.1-0.2c0.1,0,0.2,0,0.2,0s0.1,0,0.2,0
				s0.1,0.1,0.1,0.2V287c0,0.2,0.1,0.4,0.3,0.6c0.2,0.2,0.4,0.2,0.7,0.2c0.3,0,0.5-0.1,0.7-0.2c0.2-0.2,0.3-0.4,0.3-0.6v-4.8v-2.7
				c0-0.1,0.1-0.2,0.2-0.3s0.2-0.1,0.3-0.1c0.1,0,0.1,0,0.2,0.1c0.1,0,0.2,0.1,0.2,0.3v2.7v4.8c0,0.2,0.1,0.4,0.3,0.6
				c0.2,0.2,0.4,0.2,0.7,0.2c0.3,0,0.5-0.1,0.7-0.2c0.2-0.2,0.3-0.4,0.3-0.6l0-12.2c0-0.1,0-0.1,0.1-0.2c0.1,0,0.2,0,0.2,0
				c0.1,0,0.1,0,0.2,0s0.1,0.1,0.1,0.2v0.2v5.1c0,0.2,0.1,0.4,0.2,0.5s0.3,0.1,0.4,0.1c0.2,0,0.3-0.1,0.4-0.1
				c0.1-0.1,0.2-0.3,0.2-0.5v-5.6c0-0.5-0.2-1-0.6-1.5c-0.4-0.4-0.9-0.7-1.6-0.7h-2.3h0h-2.2c-0.7,0-1.1,0.2-1.4,0.7
				c-0.3,0.4-0.5,0.9-0.5,1.5v5.6C777.4,280.3,777.5,280.5,777.6,280.6z M800,264.7c0.3,0.2,0.4,0.5,0.4,0.9v24.3
				c0,0.4-0.1,0.6-0.4,0.9c-0.3,0.2-0.6,0.3-1,0.3h-24.6c-0.4,0-0.7-0.1-1-0.3c-0.3-0.2-0.4-0.5-0.4-0.9v-24.3
				c0-0.4,0.1-0.6,0.4-0.9c0.3-0.2,0.6-0.3,1-0.3H799C799.4,264.4,799.7,264.5,800,264.7z M798.2,266.4h-23v22.7h23V266.4
				L798.2,266.4z M791.7,271.8c0.6,0,1.1-0.2,1.5-0.6c0.4-0.4,0.6-0.8,0.6-1.4c0-0.5-0.2-1-0.6-1.4c-0.4-0.4-0.9-0.6-1.5-0.6
				c-0.6,0-1.1,0.2-1.5,0.6c-0.4,0.4-0.6,0.8-0.6,1.4c0,0.5,0.2,1,0.6,1.4C790.6,271.6,791.1,271.8,791.7,271.8z M787.5,280.6
				c0.1,0.1,0.3,0.1,0.5,0.1c0.2,0,0.3-0.1,0.5-0.1s0.2-0.3,0.2-0.5V275v-0.2c0-0.1,0-0.1,0.1-0.2c0.1,0,0.2,0,0.2,0
				c0.1,0,0.1,0,0.2,0s0.1,0.1,0.1,0.2V287c0,0.2,0.1,0.4,0.3,0.6c0.2,0.2,0.4,0.2,0.7,0.2c0.3,0,0.5-0.1,0.7-0.2
				c0.2-0.2,0.3-0.4,0.3-0.6v-4.8v-2.7c0-0.1,0.1-0.2,0.2-0.3s0.2-0.1,0.3-0.1c0.1,0,0.1,0,0.3,0.1c0.1,0,0.2,0.1,0.2,0.3v2.7v4.8
				c0,0.2,0.1,0.4,0.3,0.6c0.2,0.2,0.4,0.2,0.7,0.2c0.3,0,0.5-0.1,0.7-0.2c0.2-0.2,0.3-0.4,0.3-0.6v-12.2c0-0.1,0-0.1,0.1-0.2
				c0.1,0,0.2,0,0.2,0c0.1,0,0.1,0,0.2,0c0.1,0,0.1,0.1,0.1,0.2v0.2v5.1c0,0.2,0.1,0.4,0.2,0.5c0.1,0.1,0.3,0.1,0.5,0.1
				c0.2,0,0.3-0.1,0.5-0.1s0.2-0.3,0.2-0.5v-5.6c0-0.5-0.2-1-0.6-1.5s-0.9-0.7-1.6-0.7h-2.3h0h0h-2.1c-0.7,0-1.2,0.2-1.5,0.7
				s-0.5,0.9-0.5,1.5v5.6C787.3,280.3,787.4,280.5,787.5,280.6z M810,286.3c-0.7,0-1.9,0-1.9,0s0-0.3,0-0.8c0-1.4,0-4.2,0-5.3
				c0,0,0-0.3-0.3-0.3s-2.5,0-2.9,0c-0.5,0-0.4,0.3-0.4,0.3c0,1.1,0,3.8,0,5.3c0,0.5,0,0.9,0,0.9s-1.5,0-2.1,0c-0.6,0,0,0.5,0,0.5
				l3.7,4.2c0,0,0.3,0.3,0.6,0c0.4-0.4,3.6-4.4,3.6-4.4S810.7,286.3,810,286.3z M802.4,269.8c0.7,0,1.9,0,1.9,0s0,0.3,0,0.8
				c0,1.4,0,4.2,0,5.3c0,0,0,0.3,0.3,0.3c0.3,0,2.5,0,2.9,0c0.5,0,0.4-0.3,0.4-0.3c0-1.1,0-3.8,0-5.3c0-0.5,0-0.9,0-0.9s1.5,0,2.1,0
				c0.6,0,0-0.5,0-0.5l-3.7-4.2c0,0-0.3-0.3-0.6,0c-0.4,0.4-3.6,4.4-3.6,4.4S801.6,269.8,802.4,269.8z"/>
		</g>
	</g>
	<g>
		<path d="M855,769c-2.1,0-3.7,1.7-3.7,3.7v22.3c0,2.1,1.7,3.7,3.7,3.7h22.5c2.1,0,3.7-1.7,3.7-3.7v-22.3c0-2.1-1.7-3.7-3.7-3.7
			L855,769L855,769z"/>
		<g>
			<polygon class="st4" points="871.5,774.6 871.5,780.6 865.7,780.6 865.7,786.5 860,786.5 860,792.5 855.6,792.5 855.6,795.5 
				862.7,795.5 862.7,789.6 868.4,789.6 868.4,783.6 874.1,783.6 874.1,777.7 878.5,777.7 878.5,774.6 			"/>
			<polygon class="st4" points="856.8,782.6 866.3,772.8 861,772.8 861,774.2 863.1,774.2 856,781.6 			"/>
		</g>
	</g>
	<g>
		<path d="M1248.9,781.2c-2.1,0-3.7,1.7-3.7,3.7v22.3c0,2.1,1.7,3.7,3.7,3.7h22.5c2.1,0,3.7-1.7,3.7-3.7v-22.3
			c0-2.1-1.7-3.7-3.7-3.7L1248.9,781.2L1248.9,781.2z"/>
		<g>
			<polygon class="st4" points="1265.3,786.8 1265.3,792.8 1259.6,792.8 1259.6,798.7 1253.9,798.7 1253.9,804.7 1249.5,804.7 
				1249.5,807.8 1256.5,807.8 1256.5,801.8 1262.2,801.8 1262.2,795.8 1268,795.8 1268,789.9 1272.4,789.9 1272.4,786.8 			"/>
			<polygon class="st4" points="1250.7,794.8 1260.1,785 1254.9,785 1254.9,786.4 1257,786.4 1249.9,793.8 			"/>
		</g>
	</g>
	<g>
		<path d="M754.4,510.8c-2.1,0-3.7,1.7-3.7,3.7v22.3c0,2.1,1.7,3.7,3.7,3.7h22.5c2.1,0,3.7-1.7,3.7-3.7v-22.3c0-2.1-1.7-3.7-3.7-3.7
			L754.4,510.8L754.4,510.8z"/>
		<g>
			<polygon class="st4" points="770.9,516.4 770.9,522.3 765.2,522.3 765.2,528.3 759.4,528.3 759.4,534.2 755,534.2 755,537.3 
				762.1,537.3 762.1,531.3 767.8,531.3 767.8,525.4 773.6,525.4 773.6,519.4 778,519.4 778,516.4 			"/>
			<polygon class="st4" points="756.3,524.3 765.7,514.5 760.4,514.5 760.4,515.9 762.6,515.9 755.5,523.3 			"/>
		</g>
	</g>
	<g>
		<path d="M777.2,223.6c-2.1,0-3.7,1.7-3.7,3.7v22.3c0,2.1,1.7,3.7,3.7,3.7h22.5c2.1,0,3.7-1.7,3.7-3.7v-22.3c0-2.1-1.7-3.7-3.7-3.7
			L777.2,223.6L777.2,223.6z"/>
		<g>
			<polygon class="st4" points="793.7,229.2 793.7,235.2 787.9,235.2 787.9,241.1 782.2,241.1 782.2,247.1 777.8,247.1 777.8,250.2 
				784.9,250.2 784.9,244.2 790.6,244.2 790.6,238.3 796.3,238.3 796.3,232.3 800.7,232.3 800.7,229.2 			"/>
			<polygon class="st4" points="779,237.2 788.5,227.4 783.2,227.4 783.2,228.8 785.3,228.8 778.2,236.2 			"/>
		</g>
	</g>
	<text transform="matrix(0.7152 0 0 1 926.6367 800.998)" class="st5 st6">WC</text>
	<g>
		<text transform="matrix(0.7152 0 0 1 926.6367 800.998)" class="st7 st5 st6">WC</text>
		<g>
			<path class="st3" d="M923.5,800.3l-3.3-7.7c0,0-0.1-0.1-0.1-0.1c0-0.2,0.1-0.2,0.3-0.2c0.1,0,0.2,0.1,0.2,0.2l2.2,5
				c0.2,0.3,0.6,0.5,1.2,0.5c0.2,0,0.4-0.1,0.5-0.4c0.1-0.3,0.1-0.5,0.1-0.6l-2.3-4.8c-0.1-0.6-0.4-1.1-1-1.5
				c-0.6-0.4-1.3-0.6-2-0.6h-2.9c-0.8,0-1.5,0.2-2.1,0.6c-0.6,0.4-1,0.9-1.1,1.5l-2.1,4.8c-0.1,0.1-0.1,0.3,0.1,0.5s0.3,0.4,0.5,0.4
				c0.7,0,1.1-0.2,1.2-0.5l2.2-5c0-0.1,0.1-0.1,0.2-0.1c0.1,0,0.2,0.1,0.2,0.2v0l-3.2,7.7v0.6c0,0.1,0.1,0.2,0.3,0.3
				c0.2,0.2,0.3,0.2,0.4,0.2h2.1v6c0,0.2,0.1,0.5,0.4,0.6s0.5,0.3,0.8,0.3s0.5-0.1,0.8-0.3s0.3-0.4,0.3-0.6v-6.2
				c0,0,0.1-0.1,0.3-0.1c0.2,0,0.4,0,0.6,0c0.2,0,0.3,0,0.3,0.1v6.2c0,0.2,0.1,0.5,0.3,0.7c0.2,0.2,0.5,0.3,0.8,0.3
				c0.3,0,0.6-0.1,0.8-0.3c0.2-0.2,0.3-0.4,0.3-0.7v-5.9h2.1c0.1,0,0.2-0.1,0.4-0.2s0.2-0.3,0.2-0.3v-0.1v-0.2L923.5,800.3
				L923.5,800.3L923.5,800.3z"/>
			<path class="st3" d="M915.5,787.3c0,0.5,0.2,1,0.7,1.4s1,0.6,1.6,0.6c0.6,0,1.2-0.2,1.6-0.6c0.5-0.4,0.7-0.8,0.7-1.4
				s-0.2-1-0.7-1.4c-0.5-0.4-1-0.6-1.6-0.6c-0.6,0-1.2,0.2-1.6,0.6C915.7,786.3,915.5,786.8,915.5,787.3z"/>
		</g>
	</g>
	<g>
		<g>
			<path class="st3" d="M958.4,807c0,0.6,0.4,1,1.2,1s1.2-0.3,1.2-1v-8.7h1.2v8.7c0,0.6,0.4,1,1.2,1s1.2-0.3,1.2-1v-14.9h0.6v5.4
				c0,0.3,0.1,0.6,0.4,0.7c0.3,0.2,0.6,0.2,0.9,0c0.3-0.2,0.5-0.4,0.5-0.7v-5.8c0-0.6-0.3-1.1-0.8-1.4c-0.5-0.3-1.3-0.5-2.2-0.5H959
				c-0.9,0-1.6,0.2-2.2,0.5c-0.6,0.3-0.9,0.8-0.9,1.4v6.2c0,0.3,0.2,0.5,0.5,0.6c0.3,0.1,0.6,0.1,0.9,0s0.4-0.3,0.4-0.6v-5.7h0.6
				V807z"/>
			<path class="st3" d="M958.8,787c0,0.5,0.2,1,0.7,1.4c0.5,0.4,1.1,0.6,1.8,0.6s1.3-0.2,1.8-0.6c0.5-0.4,0.7-0.9,0.7-1.4
				c0-0.5-0.2-1-0.7-1.4c-0.5-0.4-1.1-0.6-1.8-0.6s-1.3,0.2-1.8,0.6C959.1,786,958.8,786.4,958.8,787z"/>
		</g>
		<text transform="matrix(0.8382 0 0 1 970.6313 801.1094)" class="st5 st8">WC</text>
		<text transform="matrix(0.8382 0 0 1 970.6313 801.1094)" class="st7 st5 st8">WC</text>
	</g>
	<text transform="matrix(1.9532 0 0 1 649.8242 364.7061)" class="st9 st5 st10">НИЛ ПЭКС</text>
	<g>
		<circle cx="764.5" cy="591.1" r="15"/>
		<text transform="matrix(0.9247 0 0 1 754.1917 595.8225)" class="st11 st5 st12">202</text>
	</g>
	<g>
		<circle cx="765.3" cy="656.5" r="15"/>
		<text transform="matrix(0.9247 0 0 1 755.0131 661.2264)" class="st11 st5 st12">203</text>
	</g>
	<g>
		<circle cx="655.3" cy="601.5" r="15"/>
		<text transform="matrix(0.9247 0 0 1 645.0131 606.2264)" class="st11 st5 st12">201</text>
	</g>
	<g>
		<circle cx="765.9" cy="720.3" r="15"/>
		<text transform="matrix(0.9247 0 0 1 755.6024 725.0244)" class="st11 st5 st12">204</text>
	</g>
	<g>
		<circle cx="745.7" cy="901.7" r="15"/>
		<text transform="matrix(0.9247 0 0 1 735.4239 906.4283)" class="st11 st5 st12">205</text>
	</g>
	<g>
		<circle cx="655.7" cy="705.7" r="15"/>
		<text transform="matrix(0.9247 0 0 1 645.4239 710.4283)" class="st11 st5 st12">200</text>
	</g>
	<g>
		<circle cx="1093.1" cy="901.5" r="15"/>
		<text transform="matrix(0.9247 0 0 1 1082.875 906.2257)" class="st11 st5 st12">213</text>
	</g>
	<g>
		<circle cx="1037" cy="901.9" r="15"/>
		<text transform="matrix(0.9247 0 0 1 1026.6965 906.6295)" class="st11 st5 st12">211</text>
	</g>
	<g>
		<circle cx="1186" cy="901.9" r="15"/>
		<text transform="matrix(0.9247 0 0 1 1175.6965 906.6295)" class="st11 st5 st12">215</text>
	</g>
	<g>
		<circle cx="984.5" cy="901.7" r="15"/>
		<text transform="matrix(0.9247 0 0 1 974.2858 906.4276)" class="st11 st5 st12">209</text>
	</g>
	<g>
		<circle cx="905.4" cy="902.1" r="15"/>
		<text transform="matrix(0.9804 0 0 1 893.1074 905.4731)" class="st11 st5 st13">207А</text>
	</g>
	<g>
		<circle cx="812.4" cy="902.1" r="15"/>
		<text transform="matrix(0.9247 0 0 1 802.1073 906.8315)" class="st11 st5 st12">207</text>
	</g>
	<g>
		<circle cx="1313.9" cy="817.1" r="15"/>
		<text transform="matrix(0.9247 0 0 1 1303.6223 821.874)" class="st11 st5 st12">219</text>
	</g>
	<g>
		<circle cx="1185.7" cy="796.5" r="15"/>
		<text transform="matrix(0.9247 0 0 1 1175.4438 801.2778)" class="st11 st5 st12">220</text>
	</g>
	<g>
		<circle cx="1294.7" cy="901.5" r="15"/>
		<text transform="matrix(0.9247 0 0 1 1284.4438 906.2778)" class="st11 st5 st12">217</text>
	</g>
	<g>
		<circle cx="1083.3" cy="796.3" r="15"/>
		<text transform="matrix(0.9247 0 0 1 1073.033 801.0759)" class="st11 st5 st12">218</text>
	</g>
	<g>
		<circle cx="1014.1" cy="796.7" r="15"/>
		<text transform="matrix(0.9247 0 0 1 1003.8546 801.4797)" class="st11 st5 st12">214</text>
	</g>
	<g>
		<circle cx="685.1" cy="901.7" r="15"/>
		<text transform="matrix(0.9247 0 0 1 674.8545 906.4799)" class="st11 st5 st12">206</text>
	</g>
</g>
</svg>
