<?xml version="1.0" encoding="utf-8"?>
<!-- Generator: Adobe Illustrator 27.3.1, SVG Export Plug-In . SVG Version: 6.00 Build 0)  -->
<svg version="1.1" id="Слой_1" xmlns="http://www.w3.org/2000/svg" xmlns:xlink="http://www.w3.org/1999/xlink" x="0px" y="0px"
	 viewBox="0 0 1920 1080" style="enable-background:new 0 0 1920 1080;" xml:space="preserve">
<style type="text/css">
	.st0{fill:#94C4FF;stroke:#FFFFFF;stroke-width:4;stroke-linecap:square;stroke-miterlimit:10;}
	.st1{fill:none;stroke:#FFFFFF;stroke-width:2;stroke-linecap:square;stroke-miterlimit:10;}
	.st2{fill:none;stroke:#FFFFFF;stroke-width:2;stroke-linecap:round;stroke-miterlimit:10;}
	.st3{fill:none;stroke:#FFFFFF;stroke-width:2;stroke-miterlimit:10;}
	.st4{fill:#FFFFFF;}
	.st5{fill:#010002;}
	.st6{font-family:'ArialMT';}
	.st7{font-size:6.5287px;}
	.st8{fill:none;stroke:#000000;stroke-width:0.25;stroke-miterlimit:10;}
	.st9{font-size:5.8158px;}
	.st10{font-size:10.4542px;}
	.st11{fill:none;stroke:#000000;stroke-width:0.75;stroke-miterlimit:10;}
	.st12{fill:#FFFFFF;stroke:#FFFFFF;stroke-width:0.75;stroke-miterlimit:10;}
	.st13{font-size:13.6111px;}
	.st14{stroke:#000000;stroke-width:0.75;stroke-miterlimit:10;}
	.st15{font-family:'MyriadPro-Regular';}
	.st16{font-size:16.9336px;}
	.st17{font-size:51.0659px;}
	.st18{stroke:#000000;stroke-linecap:round;stroke-miterlimit:10;}
	.st19{font-size:47.6446px;}
</style>
<g>
	<g>
		<polyline class="st0" points="804,583 646,583 646,210 804,210 804,310 823,310 823,381 804,381 804,768 1126,768 1126,766 
			1126,751 1162,751 1162,775 1209,775 1209,909 686,909 686,770 662,770 662,768 662,583 		"/>
		<g>
			<line class="st1" x1="769" y1="769" x2="687" y2="769"/>
			<line class="st1" x1="784" y1="769" x2="809" y2="769"/>
			<line class="st2" x1="766" y1="826" x2="766" y2="787"/>
			<line class="st3" x1="748" y1="769" x2="766" y2="787"/>
			<line class="st3" x1="745" y1="826" x2="686" y2="826"/>
			<line class="st1" x1="755" y1="826" x2="766" y2="826"/>
			<line class="st1" x1="726" y1="849" x2="726" y2="846"/>
			<line class="st3" x1="726" y1="836" x2="726" y2="826"/>
			<line class="st1" x1="789" y1="849" x2="726" y2="849"/>
			<line class="st3" x1="778" y1="909" x2="778" y2="849"/>
			<line class="st3" x1="859" y1="850" x2="859" y2="909"/>
			<line class="st3" x1="912" y1="850" x2="912" y2="909"/>
			<line class="st3" x1="955" y1="849" x2="955" y2="909"/>
			<line class="st3" x1="1050" y1="850" x2="1050" y2="909"/>
			<line class="st3" x1="1138" y1="850" x2="1138" y2="909"/>
			<line class="st3" x1="1161" y1="836" x2="1161" y2="850"/>
			<line class="st3" x1="1161" y1="825" x2="1161" y2="774"/>
			<line class="st3" x1="1175" y1="849" x2="1077" y2="849"/>
			<line class="st3" x1="1189" y1="849" x2="1209" y2="849"/>
			<line class="st3" x1="1063" y1="849" x2="1040" y2="849"/>
			<line class="st3" x1="1030" y1="849" x2="944" y2="849"/>
			<line class="st3" x1="931" y1="849" x2="882" y2="849"/>
			<line class="st3" x1="870" y1="849" x2="803" y2="849"/>
			<line class="st3" x1="800" y1="805" x2="800" y2="829"/>
			<line class="st1" x1="888" y1="829" x2="800" y2="829"/>
			<line class="st1" x1="880" y1="769" x2="880" y2="829"/>
			<line class="st1" x1="904" y1="829" x2="921" y2="829"/>
			<line class="st1" x1="931" y1="829" x2="958" y2="829"/>
			<line class="st1" x1="966" y1="829" x2="1027" y2="829"/>
			<line class="st1" x1="1039" y1="829" x2="1101" y2="829"/>
			<line class="st1" x1="1115" y1="829" x2="1127" y2="829"/>
			<line class="st1" x1="1127" y1="771" x2="1127" y2="829"/>
			<line class="st1" x1="910" y1="768" x2="910" y2="829"/>
			<line class="st1" x1="948" y1="829" x2="948" y2="768"/>
			<line class="st1" x1="1051" y1="768" x2="1051" y2="829"/>
			<line class="st3" x1="718" y1="484" x2="718" y2="583"/>
			<line class="st3" x1="718" y1="469" x2="718" y2="399"/>
			<line class="st3" x1="718" y1="387" x2="718" y2="387"/>
			<line class="st3" x1="718" y1="388" x2="718" y2="350"/>
			<line class="st3" x1="718" y1="338" x2="718" y2="210"/>
			<line class="st3" x1="726" y1="311" x2="718" y2="311"/>
			<line class="st3" x1="737" y1="311" x2="804" y2="311"/>
			<line class="st3" x1="747" y1="350" x2="747" y2="393"/>
			<line class="st3" x1="804" y1="380" x2="747" y2="380"/>
			<line class="st3" x1="748" y1="416" x2="804" y2="416"/>
			<line class="st3" x1="747" y1="458" x2="803" y2="458"/>
			<line class="st3" x1="766" y1="497" x2="804" y2="497"/>
			<line class="st1" x1="747" y1="541" x2="804" y2="541"/>
			<line class="st3" x1="747" y1="525" x2="747" y2="541"/>
			<line class="st3" x1="747" y1="513" x2="747" y2="442"/>
			<line class="st3" x1="747" y1="430" x2="747" y2="403"/>
			<line class="st3" x1="690" y1="423" x2="646" y2="423"/>
			<line class="st3" x1="704" y1="423" x2="718" y2="423"/>
			<line class="st3" x1="755" y1="497" x2="747" y2="497"/>
			<line class="st3" x1="747" y1="338" x2="747" y2="311"/>
		</g>
		<g>
			<path d="M777,358.9c-1.3,0-2.3,1-2.3,2.3v13.5c0,1.2,1,2.3,2.3,2.3h13.6c1.3,0,2.3-1,2.3-2.3v-13.5c0-1.2-1-2.3-2.3-2.3
				L777,358.9L777,358.9z"/>
			<g>
				<polygon class="st4" points="787,362.4 787,366 783.5,366 783.5,369.6 780,369.6 780,373.2 777.4,373.2 777.4,375 781.6,375 
					781.6,371.4 785.1,371.4 785.1,367.8 788.6,367.8 788.6,364.2 791.3,364.2 791.3,362.4 				"/>
				<polygon class="st4" points="778.1,367.2 783.8,361.2 780.6,361.2 780.6,362.1 781.9,362.1 777.6,366.6 				"/>
			</g>
		</g>
		<g>
			<path d="M844,778.4c-1.6,0-2.9,1.3-2.9,2.9v17.3c0,1.6,1.3,2.9,2.9,2.9h17.4c1.6,0,2.9-1.3,2.9-2.9v-17.3c0-1.6-1.3-2.9-2.9-2.9
				L844,778.4L844,778.4z"/>
			<g>
				<polygon class="st4" points="856.7,782.7 856.7,787.3 852.3,787.3 852.3,791.9 847.8,791.9 847.8,796.5 844.4,796.5 
					844.4,798.9 849.9,798.9 849.9,794.3 854.3,794.3 854.3,789.7 858.8,789.7 858.8,785.1 862.2,785.1 862.2,782.7 				"/>
				<polygon class="st4" points="845.4,788.9 852.7,781.3 848.6,781.3 848.6,782.4 850.3,782.4 844.7,788.1 				"/>
			</g>
		</g>
		<g>
			<path d="M1135.3,777c-1.6,0-2.9,1.3-2.9,2.9v17.3c0,1.6,1.3,2.9,2.9,2.9h17.4c1.6,0,2.9-1.3,2.9-2.9v-17.3c0-1.6-1.3-2.9-2.9-2.9
				L1135.3,777L1135.3,777z"/>
			<g>
				<polygon class="st4" points="1148,781.4 1148,786 1143.6,786 1143.6,790.6 1139.1,790.6 1139.1,795.2 1135.7,795.2 
					1135.7,797.6 1141.2,797.6 1141.2,793 1145.6,793 1145.6,788.4 1150.1,788.4 1150.1,783.8 1153.5,783.8 1153.5,781.4 				"/>
				<polygon class="st4" points="1136.7,787.6 1144,780 1139.9,780 1139.9,781 1141.5,781 1136,786.8 				"/>
			</g>
		</g>
		<g>
			<g>
				<path class="st5" d="M778,340.4c-0.3-0.3-0.4-0.7-0.4-1.1s0.1-0.8,0.4-1.1s0.6-0.4,1-0.4s0.7,0.1,1,0.4c0.3,0.3,0.4,0.7,0.4,1.1
					s-0.1,0.8-0.4,1.1c-0.3,0.3-0.6,0.4-1,0.4S778.2,340.7,778,340.4z M776.1,347.6c0.1,0.1,0.2,0.1,0.3,0.1s0.2,0,0.3-0.1
					c0.1-0.1,0.1-0.2,0.1-0.4v-3.9v-0.2c0-0.1,0-0.1,0.1-0.1c0.1,0,0.1,0,0.2,0c0,0,0.1,0,0.2,0c0.1,0,0.1,0.1,0.1,0.1v9.4
					c0,0.2,0.1,0.3,0.2,0.5c0.1,0.1,0.3,0.2,0.5,0.2c0.2,0,0.3-0.1,0.5-0.2c0.1-0.1,0.2-0.3,0.2-0.5v-3.7v-2.1c0-0.1,0-0.2,0.1-0.2
					c0.1,0,0.1,0,0.2,0s0.1,0,0.2,0c0.1,0,0.1,0.1,0.1,0.2v2.1v3.7c0,0.2,0.1,0.3,0.2,0.5c0.1,0.1,0.3,0.2,0.5,0.2
					c0.2,0,0.4-0.1,0.5-0.2c0.1-0.1,0.2-0.3,0.2-0.5l0-9.4c0-0.1,0-0.1,0.1-0.1c0.1,0,0.1,0,0.2,0c0,0,0.1,0,0.2,0
					c0.1,0,0.1,0.1,0.1,0.1v0.2v3.9c0,0.2,0,0.3,0.1,0.4c0.1,0.1,0.2,0.1,0.3,0.1c0.1,0,0.2,0,0.3-0.1c0.1-0.1,0.1-0.2,0.1-0.4v-4.3
					c0-0.4-0.1-0.8-0.4-1.1c-0.3-0.3-0.6-0.5-1.1-0.5h-1.6h0h-1.5c-0.5,0-0.8,0.2-1,0.5c-0.2,0.3-0.3,0.7-0.3,1.1v4.3
					C776,347.5,776,347.6,776.1,347.6z M791.7,335.4c0.2,0.2,0.3,0.4,0.3,0.7v18.8c0,0.3-0.1,0.5-0.3,0.7c-0.2,0.2-0.4,0.3-0.7,0.3
					h-17.1c-0.3,0-0.5-0.1-0.7-0.3c-0.2-0.2-0.3-0.4-0.3-0.7v-18.8c0-0.3,0.1-0.5,0.3-0.7c0.2-0.2,0.4-0.3,0.7-0.3H791
					C791.3,335.1,791.5,335.2,791.7,335.4z M790.4,336.7h-16v17.5h16V336.7L790.4,336.7z M785.9,340.9c0.4,0,0.7-0.1,1-0.4
					c0.3-0.3,0.4-0.7,0.4-1.1s-0.1-0.8-0.4-1.1s-0.6-0.4-1-0.4c-0.4,0-0.7,0.1-1,0.4c-0.3,0.3-0.4,0.7-0.4,1.1s0.1,0.8,0.4,1.1
					S785.5,340.9,785.9,340.9z M783,347.6c0.1,0.1,0.2,0.1,0.3,0.1c0.1,0,0.2,0,0.3-0.1c0.1-0.1,0.1-0.2,0.1-0.4v-3.9v-0.2
					c0-0.1,0-0.1,0.1-0.1c0.1,0,0.1,0,0.2,0c0,0,0.1,0,0.2,0c0.1,0,0.1,0.1,0.1,0.1v9.4c0,0.2,0.1,0.3,0.2,0.5
					c0.1,0.1,0.3,0.2,0.5,0.2c0.2,0,0.3-0.1,0.5-0.2c0.1-0.1,0.2-0.3,0.2-0.5v-3.7v-2.1c0-0.1,0-0.2,0.1-0.2s0.1,0,0.2,0
					c0,0,0.1,0,0.2,0c0.1,0,0.1,0.1,0.1,0.2v2.1v3.7c0,0.2,0.1,0.3,0.2,0.5c0.1,0.1,0.3,0.2,0.5,0.2c0.2,0,0.3-0.1,0.5-0.2
					c0.1-0.1,0.2-0.3,0.2-0.5v-9.4c0-0.1,0-0.1,0.1-0.1c0.1,0,0.1,0,0.2,0c0,0,0.1,0,0.2,0c0.1,0,0.1,0.1,0.1,0.1v0.2v3.9
					c0,0.2,0,0.3,0.1,0.4c0.1,0.1,0.2,0.1,0.3,0.1c0.1,0,0.2,0,0.3-0.1s0.1-0.2,0.1-0.4v-4.3c0-0.4-0.1-0.8-0.4-1.1
					c-0.3-0.3-0.7-0.5-1.1-0.5h-1.6h0h0h-1.5c-0.5,0-0.8,0.2-1,0.5c-0.2,0.3-0.3,0.7-0.3,1.1v4.3C782.9,347.5,782.9,347.6,783,347.6
					z M798.6,352.1c-0.5,0-1.3,0-1.3,0s0-0.2,0-0.6c0-1.1,0-3.3,0-4.1c0,0,0-0.2-0.2-0.2c-0.2,0-1.7,0-2,0s-0.3,0.2-0.3,0.2
					c0,0.9,0,3,0,4.1c0,0.4,0,0.7,0,0.7s-1,0-1.5,0s0,0.4,0,0.4l2.6,3.3c0,0,0.2,0.3,0.4,0c0.3-0.3,2.5-3.4,2.5-3.4
					S799.2,352.1,798.6,352.1z M793.4,339.3c0.5,0,1.3,0,1.3,0s0,0.2,0,0.6c0,1.1,0,3.3,0,4.1c0,0,0,0.2,0.2,0.2c0.2,0,1.7,0,2,0
					c0.3,0,0.3-0.2,0.3-0.2c0-0.9,0-3,0-4.1c0-0.4,0-0.7,0-0.7s1,0,1.5,0s0-0.4,0-0.4l-2.6-3.3c0,0-0.2-0.3-0.4,0
					c-0.3,0.3-2.5,3.4-2.5,3.4S792.8,339.3,793.4,339.3z"/>
			</g>
		</g>
		<g>
			<path d="M776.4,314.3c-1.3,0-2.3,1-2.3,2.3v13.5c0,1.2,1,2.3,2.3,2.3H790c1.3,0,2.3-1,2.3-2.3v-13.5c0-1.2-1-2.3-2.3-2.3
				L776.4,314.3L776.4,314.3z"/>
			<g>
				<polygon class="st4" points="786.4,317.7 786.4,321.3 782.9,321.3 782.9,325 779.4,325 779.4,328.6 776.7,328.6 776.7,330.4 
					781,330.4 781,326.8 784.5,326.8 784.5,323.2 788,323.2 788,319.6 790.6,319.6 790.6,317.7 				"/>
				<polygon class="st4" points="777.5,322.6 783.2,316.6 780,316.6 780,317.5 781.3,317.5 777,321.9 				"/>
			</g>
		</g>
		<g>
			<g>
				<path class="st5" d="M810.3,810.4c-0.3-0.3-0.4-0.7-0.4-1.1s0.1-0.8,0.4-1.1s0.6-0.4,1-0.4c0.4,0,0.7,0.1,1,0.4
					c0.3,0.3,0.4,0.7,0.4,1.1s-0.1,0.8-0.4,1.1s-0.6,0.4-1,0.4C811,810.9,810.6,810.7,810.3,810.4z M808.5,817.7
					c0.1,0.1,0.2,0.1,0.3,0.1c0.1,0,0.2,0,0.3-0.1s0.1-0.2,0.1-0.4v-3.9v-0.2c0-0.1,0-0.1,0.1-0.1c0.1,0,0.1,0,0.2,0
					c0,0,0.1,0,0.2,0c0.1,0,0.1,0.1,0.1,0.1v9.4c0,0.2,0.1,0.3,0.2,0.5c0.1,0.1,0.3,0.2,0.5,0.2c0.2,0,0.3-0.1,0.5-0.2
					c0.1-0.1,0.2-0.3,0.2-0.5v-3.7v-2.1c0-0.1,0-0.2,0.1-0.2c0.1,0,0.1,0,0.2,0c0,0,0.1,0,0.2,0c0.1,0,0.1,0.1,0.1,0.2v2.1v3.7
					c0,0.2,0.1,0.3,0.2,0.5c0.1,0.1,0.3,0.2,0.5,0.2c0.2,0,0.4-0.1,0.5-0.2c0.1-0.1,0.2-0.3,0.2-0.5l0-9.4c0-0.1,0-0.1,0.1-0.1
					c0.1,0,0.1,0,0.2,0c0,0,0.1,0,0.2,0c0.1,0,0.1,0.1,0.1,0.1v0.2v3.9c0,0.2,0,0.3,0.1,0.4s0.2,0.1,0.3,0.1c0.1,0,0.2,0,0.3-0.1
					c0.1-0.1,0.1-0.2,0.1-0.4v-4.3c0-0.4-0.1-0.8-0.4-1.1c-0.3-0.3-0.6-0.5-1.1-0.5h-1.6h0h-1.5c-0.5,0-0.8,0.2-1,0.5
					c-0.2,0.3-0.3,0.7-0.3,1.1v4.3C808.3,817.5,808.4,817.6,808.5,817.7z M824.1,805.4c0.2,0.2,0.3,0.4,0.3,0.7v18.8
					c0,0.3-0.1,0.5-0.3,0.7c-0.2,0.2-0.4,0.3-0.7,0.3h-17.1c-0.3,0-0.5-0.1-0.7-0.3c-0.2-0.2-0.3-0.4-0.3-0.7v-18.8
					c0-0.3,0.1-0.5,0.3-0.7c0.2-0.2,0.4-0.3,0.7-0.3h17.2C823.7,805.1,823.9,805.2,824.1,805.4z M822.8,806.7h-16v17.5h16V806.7
					L822.8,806.7z M818.3,810.9c0.4,0,0.7-0.1,1-0.4c0.3-0.3,0.4-0.7,0.4-1.1s-0.1-0.8-0.4-1.1s-0.6-0.4-1-0.4s-0.7,0.1-1,0.4
					c-0.3,0.3-0.4,0.7-0.4,1.1s0.1,0.8,0.4,1.1S817.9,810.9,818.3,810.9z M815.4,817.7c0.1,0.1,0.2,0.1,0.3,0.1s0.2,0,0.3-0.1
					c0.1-0.1,0.1-0.2,0.1-0.4v-3.9v-0.2c0-0.1,0-0.1,0.1-0.1c0.1,0,0.1,0,0.2,0c0,0,0.1,0,0.2,0c0.1,0,0.1,0.1,0.1,0.1v9.4
					c0,0.2,0.1,0.3,0.2,0.5c0.1,0.1,0.3,0.2,0.5,0.2c0.2,0,0.3-0.1,0.5-0.2c0.1-0.1,0.2-0.3,0.2-0.5v-3.7v-2.1c0-0.1,0-0.2,0.1-0.2
					c0.1,0,0.1,0,0.2,0s0.1,0,0.2,0c0.1,0,0.1,0.1,0.1,0.2v2.1v3.7c0,0.2,0.1,0.3,0.2,0.5c0.1,0.1,0.3,0.2,0.5,0.2
					c0.2,0,0.3-0.1,0.5-0.2c0.1-0.1,0.2-0.3,0.2-0.5v-9.4c0-0.1,0-0.1,0.1-0.1c0.1,0,0.1,0,0.2,0c0,0,0.1,0,0.2,0
					c0.1,0,0.1,0.1,0.1,0.1v0.2v3.9c0,0.2,0,0.3,0.1,0.4c0.1,0.1,0.2,0.1,0.3,0.1s0.2,0,0.3-0.1c0.1-0.1,0.1-0.2,0.1-0.4v-4.3
					c0-0.4-0.1-0.8-0.4-1.1c-0.3-0.3-0.7-0.5-1.1-0.5h-1.6h0h0h-1.5c-0.5,0-0.8,0.2-1,0.5c-0.2,0.3-0.3,0.7-0.3,1.1v4.3
					C815.3,817.5,815.3,817.6,815.4,817.7z M831,822.1c-0.5,0-1.3,0-1.3,0s0-0.2,0-0.6c0-1.1,0-3.3,0-4.1c0,0,0-0.2-0.2-0.2
					c-0.2,0-1.7,0-2,0c-0.3,0-0.3,0.2-0.3,0.2c0,0.9,0,3,0,4.1c0,0.4,0,0.7,0,0.7s-1,0-1.5,0s0,0.4,0,0.4l2.6,3.3c0,0,0.2,0.3,0.4,0
					c0.3-0.3,2.5-3.4,2.5-3.4S831.5,822.1,831,822.1z M825.7,809.3c0.5,0,1.3,0,1.3,0s0,0.2,0,0.6c0,1.1,0,3.3,0,4.1
					c0,0,0,0.2,0.2,0.2c0.2,0,1.7,0,2,0c0.3,0,0.3-0.2,0.3-0.2c0-0.9,0-3,0-4.1c0-0.4,0-0.7,0-0.7s1,0,1.5,0s0-0.4,0-0.4l-2.6-3.3
					c0,0-0.2-0.3-0.4,0c-0.3,0.3-2.5,3.4-2.5,3.4S825.2,809.3,825.7,809.3z"/>
			</g>
		</g>
		<g>
			<text transform="matrix(0.7888 0 0 1 764.3486 400.4828)" class="st6 st7">WC</text>
			<text transform="matrix(0.7888 0 0 1 764.3486 400.4828)" class="st8 st6 st7">WC</text>
			<g>
				<path class="st5" d="M762.3,400.1l-2.1-4.4c0,0,0,0,0-0.1c0-0.1,0.1-0.1,0.2-0.1c0.1,0,0.1,0,0.1,0.1l1.4,2.9
					c0.1,0.2,0.4,0.3,0.8,0.3c0.1,0,0.2-0.1,0.3-0.2c0.1-0.2,0.1-0.3,0.1-0.3l-1.5-2.7c0-0.3-0.3-0.6-0.6-0.9
					c-0.4-0.2-0.8-0.3-1.3-0.3h-1.8c-0.5,0-0.9,0.1-1.3,0.4s-0.6,0.5-0.7,0.8l-1.4,2.8c0,0.1,0,0.2,0,0.3c0.1,0.1,0.2,0.2,0.3,0.2
					c0.4,0,0.7-0.1,0.8-0.3l1.4-2.9c0-0.1,0.1-0.1,0.1-0.1c0.1,0,0.1,0,0.1,0.1v0l-2.1,4.4v0.3c0,0,0.1,0.1,0.2,0.2
					c0.1,0.1,0.2,0.1,0.2,0.1h1.3v3.4c0,0.1,0.1,0.3,0.2,0.4s0.3,0.2,0.5,0.2s0.3-0.1,0.5-0.2c0.1-0.1,0.2-0.2,0.2-0.4v-3.6
					c0,0,0.1,0,0.2,0s0.2,0,0.4,0c0.1,0,0.2,0,0.2,0v3.5c0,0.1,0.1,0.3,0.2,0.4c0.1,0.1,0.3,0.2,0.5,0.2s0.4-0.1,0.5-0.2
					c0.1-0.1,0.2-0.2,0.2-0.4v-3.4h1.4c0.1,0,0.2,0,0.2-0.1c0.1-0.1,0.1-0.1,0.1-0.2v-0.1v-0.1L762.3,400.1L762.3,400.1L762.3,400.1
					z"/>
				<path class="st5" d="M757.3,392.6c0,0.3,0.1,0.6,0.4,0.8c0.3,0.2,0.6,0.3,1,0.3c0.4,0,0.8-0.1,1-0.3c0.3-0.2,0.4-0.5,0.4-0.8
					s-0.1-0.6-0.4-0.8c-0.3-0.2-0.6-0.3-1-0.3c-0.4,0-0.8,0.1-1,0.3C757.4,392,757.3,392.3,757.3,392.6z"/>
			</g>
		</g>
		<g>
			<g>
				<path class="st5" d="M781.2,403.6c0,0.4,0.2,0.5,0.7,0.5c0.5,0,0.7-0.2,0.7-0.5v-4.9h0.8v4.9c0,0.4,0.2,0.5,0.7,0.5
					s0.7-0.2,0.7-0.5v-8.4h0.4v3c0,0.2,0.1,0.3,0.3,0.4s0.4,0.1,0.6,0c0.2-0.1,0.3-0.2,0.3-0.4V395c0-0.3-0.2-0.6-0.5-0.8
					c-0.3-0.2-0.8-0.3-1.4-0.3h-3c-0.6,0-1,0.1-1.4,0.3c-0.4,0.2-0.5,0.4-0.5,0.8v3.5c0,0.2,0.1,0.3,0.3,0.3c0.2,0.1,0.4,0.1,0.6,0
					c0.2-0.1,0.3-0.2,0.3-0.3v-3.2h0.4V403.6z"/>
				<path class="st5" d="M781.4,392.3c0,0.3,0.2,0.6,0.5,0.8c0.3,0.2,0.7,0.3,1.1,0.3c0.4,0,0.8-0.1,1.1-0.3
					c0.3-0.2,0.5-0.5,0.5-0.8c0-0.3-0.2-0.6-0.5-0.8c-0.3-0.2-0.7-0.3-1.1-0.3c-0.4,0-0.8,0.1-1.1,0.3
					C781.6,391.7,781.4,392,781.4,392.3z"/>
			</g>
			<text transform="matrix(0.9192 0 0 1 788.7573 400.2972)" class="st6 st9">WC</text>
			<text transform="matrix(0.9192 0 0 1 788.7573 400.2972)" class="st8 st6 st9">WC</text>
		</g>
		<g>
			<path d="M764.7,550.7c-1.6,0-2.9,1.3-2.9,2.9v17.3c0,1.6,1.3,2.9,2.9,2.9h17.4c1.6,0,2.9-1.3,2.9-2.9v-17.3
				c0-1.6-1.3-2.9-2.9-2.9L764.7,550.7L764.7,550.7z"/>
			<g>
				<polygon class="st4" points="777.4,555.1 777.4,559.7 773,559.7 773,564.3 768.5,564.3 768.5,568.9 765.1,568.9 765.1,571.3 
					770.6,571.3 770.6,566.7 775,566.7 775,562 779.5,562 779.5,557.4 782.9,557.4 782.9,555.1 				"/>
				<polygon class="st4" points="766.1,561.2 773.4,553.6 769.3,553.6 769.3,554.7 771,554.7 765.4,560.4 				"/>
			</g>
		</g>
		<g>
			<g>
				<path class="st5" d="M916.2,810c0,0.7,0.4,1,1.3,1c0.9,0,1.3-0.3,1.3-1v-8.9h1.3v8.9c0,0.7,0.4,1,1.3,1s1.3-0.3,1.3-1v-15.1h0.6
					v5.5c0,0.3,0.2,0.6,0.5,0.8s0.6,0.2,1,0s0.5-0.4,0.5-0.8v-5.9c0-0.6-0.3-1.1-0.9-1.5c-0.6-0.3-1.4-0.5-2.4-0.5h-5.2
					c-1,0-1.8,0.2-2.4,0.5c-0.6,0.3-0.9,0.8-0.9,1.5v6.3c0,0.3,0.2,0.5,0.5,0.6c0.3,0.1,0.7,0.1,1,0s0.5-0.3,0.5-0.6v-5.8h0.6V810z"
					/>
				<path class="st5" d="M916.8,789.6c0,0.6,0.3,1,0.8,1.4c0.5,0.4,1.2,0.6,1.9,0.6s1.4-0.2,1.9-0.6c0.5-0.4,0.8-0.9,0.8-1.4
					c0-0.5-0.3-1-0.8-1.4c-0.5-0.4-1.2-0.6-1.9-0.6s-1.4,0.2-1.9,0.6C917,788.6,916.8,789.1,916.8,789.6z"/>
			</g>
			<text transform="matrix(0.8907 0 0 1 929.4868 803.999)" class="st6 st10">WC</text>
			<text transform="matrix(0.8907 0 0 1 929.4868 803.999)" class="st11 st6 st10">WC</text>
		</g>
		<g>
			<circle cx="723.7" cy="798.2" r="15"/>
			<text transform="matrix(0.9247 0 0 1 713.3956 802.9735)" class="st12 st6 st13">500</text>
		</g>
		<g>
			<circle cx="819.3" cy="879.6" r="15"/>
			<text transform="matrix(0.9247 0 0 1 809.0591 884.347)" class="st12 st6 st13">501</text>
		</g>
		<g>
			<circle cx="730.3" cy="879.6" r="15"/>
			<text transform="matrix(0.9247 0 0 1 720.0591 884.347)" class="st12 st6 st13">502</text>
		</g>
		<g>
			<circle cx="885.3" cy="879.6" r="15"/>
			<text transform="matrix(0.9247 0 0 1 875.0591 884.347)" class="st12 st6 st13">503</text>
		</g>
		<g>
			<circle cx="1002.3" cy="879.6" r="15"/>
			<text transform="matrix(0.9247 0 0 1 992.0591 884.347)" class="st12 st6 st13">505</text>
		</g>
		<g>
			<circle cx="1096.7" cy="879.2" r="15"/>
			<text transform="matrix(0.9247 0 0 1 1086.3958 883.9735)" class="st12 st6 st13">507</text>
		</g>
		<g>
			<circle cx="998.3" cy="799.6" r="15"/>
			<text transform="matrix(0.9247 0 0 1 988.0592 804.347)" class="st12 st6 st13">508</text>
		</g>
		<g>
			<circle cx="1176.3" cy="878.6" r="15"/>
			<text transform="matrix(0.9247 0 0 1 1166.0592 883.347)" class="st12 st6 st13">509</text>
		</g>
		<g>
			<circle cx="1091.3" cy="799.6" r="15"/>
			<text transform="matrix(0.9247 0 0 1 1081.0592 804.347)" class="st12 st6 st13">510</text>
		</g>
		<g>
			<circle cx="1184.3" cy="810.6" r="15"/>
			<text transform="matrix(0.9247 0 0 1 1174.0592 815.347)" class="st12 st6 st13">511</text>
		</g>
		<g>
			<circle cx="730.7" cy="654.2" r="15"/>
			<text transform="matrix(0.9247 0 0 1 720.3958 658.9735)" class="st12 st6 st13">401</text>
		</g>
		<g>
			<circle cx="776.3" cy="519.6" r="15"/>
			<text transform="matrix(0.9247 0 0 1 766.0592 524.347)" class="st12 st6 st13">524</text>
		</g>
		<g>
			<circle cx="683.3" cy="503.6" r="15"/>
			<text transform="matrix(0.9247 0 0 1 673.0592 508.347)" class="st12 st6 st13">520</text>
		</g>
		<g>
			<circle cx="776.3" cy="437.6" r="15"/>
			<text transform="matrix(0.9247 0 0 1 766.0592 442.347)" class="st12 st6 st13">525</text>
		</g>
		<g>
			<circle cx="683.3" cy="332.6" r="15"/>
			<text transform="matrix(0.9247 0 0 1 673.0592 337.347)" class="st12 st6 st13">521</text>
		</g>
		<text transform="matrix(1.5747 0 0 1 683.8574 691.7666)" class="st14 st15 st16">БАЛКОН</text>
	</g>
	<g>
		<text transform="matrix(1.5759 0 0 1 734.4704 156.9144)" class="st6 st17">ЭТАЖ</text>
		<circle class="st18" cx="681.4" cy="136.3" r="35"/>
		<text transform="matrix(1.2429 0 0 1 668.9639 153.0884)" class="st4 st15 st19">5</text>
	</g>
</g>
</svg>
