<?xml version="1.0" encoding="utf-8"?>
<!-- Generator: Adobe Illustrator 27.3.1, SVG Export Plug-In . SVG Version: 6.00 Build 0)  -->
<svg version="1.1" id="Слой_1" xmlns="http://www.w3.org/2000/svg" xmlns:xlink="http://www.w3.org/1999/xlink" x="0px" y="0px"
	 viewBox="0 0 1920 1080" style="enable-background:new 0 0 1920 1080;" xml:space="preserve">
<style type="text/css">
	.st0{fill:#94C4FF;stroke:#FFFFFF;stroke-width:4;stroke-linecap:square;stroke-miterlimit:10;}
	.st1{fill:none;stroke:#FFFFFF;stroke-width:2;stroke-miterlimit:10;}
	.st2{fill:none;stroke:#FFFFFF;stroke-width:2;stroke-linecap:square;stroke-miterlimit:10;}
	.st3{fill:none;stroke:#FFFFFF;stroke-width:4;stroke-miterlimit:10;}
	.st4{fill:none;stroke:#FFFFFF;stroke-width:4;stroke-linecap:square;stroke-miterlimit:10;}
	.st5{fill:#FFFFFF;}
	.st6{font-family:'ArialMT';}
	.st7{font-size:15.2635px;}
	.st8{fill:none;stroke:#000000;stroke-miterlimit:10;}
	.st9{font-size:8.7174px;}
	.st10{fill:none;stroke:#000000;stroke-width:0.25;stroke-miterlimit:10;}
	.st11{stroke:#000000;stroke-linecap:round;stroke-miterlimit:10;}
	.st12{font-size:14.2065px;}
	.st13{fill:none;stroke:#FFFFFF;stroke-width:0.75;stroke-miterlimit:10;}
	.st14{font-size:15.0128px;}
	.st15{fill:none;stroke:#000000;stroke-width:0.75;stroke-miterlimit:10;}
	.st16{fill:#010002;}
	.st17{font-size:51.0659px;}
	.st18{font-size:44.405px;}
</style>
<g>
	<g>
		<polyline class="st0" points="277.9,355.2 277.9,328 276.8,328 194.1,328 194.1,355.2 152.2,355.2 152.2,543.5 92,543.5 92,695 
			1811,695 1811,355.2 980.5,355.2 980.5,328 905.3,328 905.3,355.2 276.8,355.2 		"/>
		<g>
			<line class="st1" x1="195.1" y1="357.6" x2="195.1" y2="486.6"/>
			<line class="st2" x1="276.8" y1="357.6" x2="276.8" y2="486.6"/>
			<line class="st1" x1="317.6" y1="355.2" x2="317.6" y2="486.6"/>
			<line class="st1" x1="359.5" y1="355.2" x2="359.5" y2="486.6"/>
			<line class="st1" x1="436.9" y1="355.2" x2="436.9" y2="486.6"/>
			<line class="st3" x1="487.4" y1="355.2" x2="487.4" y2="695"/>
			<line class="st1" x1="402.5" y1="544.6" x2="402.5" y2="695"/>
			<line class="st1" x1="317.6" y1="544.6" x2="317.6" y2="695"/>
			<line class="st1" x1="272.5" y1="544.6" x2="272.5" y2="695"/>
			<line class="st1" x1="218.8" y1="544.6" x2="218.8" y2="695"/>
			<line class="st1" x1="153.2" y1="600.3" x2="153.2" y2="695"/>
			<line class="st1" x1="153.2" y1="574.2" x2="153.2" y2="544.6"/>
			<line class="st3" x1="605.6" y1="493.7" x2="605.6" y2="695"/>
			<line class="st4" x1="905.3" y1="493.7" x2="605.6" y2="493.7"/>
			<line class="st3" x1="905.3" y1="357.6" x2="905.3" y2="493.7"/>
			<line class="st3" x1="825.8" y1="557.7" x2="825.8" y2="695"/>
			<line class="st4" x1="969.8" y1="557.7" x2="825.8" y2="557.7"/>
			<line class="st4" x1="970.8" y1="695" x2="970.8" y2="557.7"/>
			<line class="st1" x1="824.7" y1="538.7" x2="824.7" y2="555.3"/>
			<line class="st1" x1="824.7" y1="517.4" x2="824.7" y2="493.7"/>
			<line class="st1" x1="906.4" y1="518.6" x2="906.4" y2="496.1"/>
			<line class="st1" x1="906.4" y1="536.4" x2="906.4" y2="557.7"/>
			<line class="st1" x1="1071.8" y1="556.5" x2="1071.8" y2="695"/>
			<line class="st2" x1="979.4" y1="357.6" x2="979.4" y2="493.7"/>
			<line class="st2" x1="1141.7" y1="355.2" x2="1141.7" y2="509.1"/>
			<line class="st1" x1="1141.7" y1="536.4" x2="1141.7" y2="695"/>
			<line class="st2" x1="1402.7" y1="576.6" x2="1402.7" y2="695"/>
			<line class="st2" x1="1565" y1="576.6" x2="1402.7" y2="576.6"/>
			<line class="st1" x1="1565" y1="355.2" x2="1565" y2="576.6"/>
			<line class="st1" x1="1565" y1="576.6" x2="1679.9" y2="576.6"/>
			<line class="st1" x1="1713.2" y1="576.6" x2="1811" y2="576.6"/>
			<line class="st1" x1="1659.5" y1="631.1" x2="1659.5" y2="695"/>
			<line class="st2" x1="1659.5" y1="600.3" x2="1659.5" y2="576.6"/>
			<line class="st2" x1="979.4" y1="493.7" x2="1040.7" y2="493.7"/>
			<line class="st2" x1="1067.5" y1="493.7" x2="1141.7" y2="493.7"/>
			<line class="st2" x1="974.1" y1="556.5" x2="990.2" y2="556.5"/>
			<line class="st2" x1="1012.7" y1="556.5" x2="1080.4" y2="556.5"/>
			<line class="st2" x1="1101.9" y1="556.5" x2="1141.7" y2="556.5"/>
			<line class="st1" x1="153.2" y1="544.6" x2="175.8" y2="544.6"/>
			<line class="st1" x1="195.1" y1="544.6" x2="237" y2="544.6"/>
			<line class="st1" x1="255.3" y1="544.6" x2="286.5" y2="544.6"/>
			<line class="st1" x1="304.7" y1="544.6" x2="331.6" y2="544.6"/>
			<line class="st1" x1="349.9" y1="544.6" x2="449.8" y2="544.6"/>
			<line class="st1" x1="471.3" y1="544.6" x2="487.4" y2="544.6"/>
			<line class="st1" x1="153.2" y1="486.6" x2="161.8" y2="486.6"/>
			<line class="st2" x1="179" y1="486.6" x2="195.1" y2="486.6"/>
			<line class="st2" x1="276.8" y1="486.6" x2="284.3" y2="486.6"/>
			<line class="st2" x1="298.3" y1="486.6" x2="326.2" y2="486.6"/>
			<line class="st2" x1="342.3" y1="486.6" x2="402.5" y2="486.6"/>
			<line class="st2" x1="420.8" y1="486.6" x2="445.5" y2="486.6"/>
			<line class="st2" x1="459.4" y1="486.6" x2="487.4" y2="486.6"/>
		</g>
		<g>
			<ellipse cx="1266.3" cy="493.7" rx="16.1" ry="17.8"/>
			<g>
				<rect x="1261.9" y="492.4" class="st5" width="8.8" height="3.4"/>
				<path class="st5" d="M1255.9,491.5v0.3c-0.1-0.1-0.2-0.1-0.4-0.1c-0.4,0-0.8,0.4-0.8,0.8v3.2c0,0.5,0.3,0.8,0.8,0.8
					c0.1,0,0.3-0.1,0.4-0.1v0.3c0,0.9,0.6,1.6,1.3,1.7v-8.6C1256.5,489.9,1255.9,490.6,1255.9,491.5z"/>
				<path class="st5" d="M1277,491.7c-0.1,0-0.3,0.1-0.4,0.1v-0.3c0-0.9-0.6-1.6-1.3-1.7v8.6c0.8-0.1,1.3-0.8,1.3-1.7v-0.3
					c0.1,0.1,0.2,0.1,0.4,0.1c0.4,0,0.8-0.4,0.8-0.8v-3.2C1277.8,492.1,1277.5,491.7,1277,491.7z"/>
				<path class="st5" d="M1259.6,487.1c-0.8,0-1.5,0.8-1.5,1.7v10.6c0,0.9,0.7,1.7,1.5,1.7s1.5-0.8,1.5-1.7v-10.6
					C1261.1,487.9,1260.4,487.1,1259.6,487.1z"/>
				<path class="st5" d="M1273,487.1c-0.8,0-1.5,0.8-1.5,1.7v10.6c0,0.9,0.7,1.7,1.5,1.7s1.5-0.8,1.5-1.7v-10.6
					C1274.5,487.9,1273.8,487.1,1273,487.1z"/>
			</g>
		</g>
		<text transform="matrix(1.284 0 0 1 1290.6592 499.4395)" class="st6 st7">СПОРТЗАЛ</text>
		<text transform="matrix(1.284 0 0 1 1290.6592 499.4395)" class="st8 st6 st7">СПОРТЗАЛ</text>
		<text transform="matrix(1.0089 0 0 1 1569.2656 492.9355)" class="st6 st9">ОБЪЕДИНЕННАЯ МЕЖКАФЕДРАЛЬНАЯ ЛАБОРАТОРИЯ </text>
		<text transform="matrix(1.0089 0 0 1 1569.2656 492.9355)" class="st10 st6 st9">ОБЪЕДИНЕННАЯ МЕЖКАФЕДРАЛЬНАЯ ЛАБОРАТОРИЯ </text>
		<ellipse class="st11" cx="1683.7" cy="452.9" rx="16.1" ry="17.8"/>
		<g>
			<ellipse class="st11" cx="186" cy="616.3" rx="16.1" ry="17.8"/>
			<text transform="matrix(0.9075 0 0 1 175.499 621.1895)" class="st5 st6 st12">230</text>
			<text transform="matrix(0.9075 0 0 1 175.499 621.1895)" class="st13 st6 st12">230</text>
		</g>
		<g>
			<ellipse class="st11" cx="245.1" cy="616.3" rx="16.1" ry="17.8"/>
			<text transform="matrix(0.9075 0 0 1 234.5894 621.1895)" class="st5 st6 st12">229</text>
			<text transform="matrix(0.9075 0 0 1 234.5894 621.1895)" class="st13 st6 st12">229</text>
		</g>
		<g>
			<ellipse class="st11" cx="462.1" cy="424.5" rx="16.1" ry="17.8"/>
			<text transform="matrix(0.9075 0 0 1 451.6128 429.4023)" class="st5 st6 st12">205</text>
			<text transform="matrix(0.9075 0 0 1 451.6128 429.4023)" class="st13 st6 st12">205</text>
		</g>
		<g>
			<ellipse class="st11" cx="397.7" cy="424.5" rx="16.1" ry="17.8"/>
			<text transform="matrix(0.9075 0 0 1 387.1509 429.4023)" class="st5 st6 st12">204</text>
			<text transform="matrix(0.9075 0 0 1 387.1509 429.4023)" class="st13 st6 st12">204</text>
		</g>
		<g>
			<ellipse class="st11" cx="338.6" cy="424.5" rx="16.1" ry="17.8"/>
			<text transform="matrix(0.9075 0 0 1 328.0601 429.4023)" class="st5 st6 st12">203</text>
			<text transform="matrix(0.9075 0 0 1 328.0601 429.4023)" class="st13 st6 st12">203</text>
		</g>
		<g>
			<ellipse class="st11" cx="296.7" cy="424.5" rx="16.1" ry="17.8"/>
			<text transform="matrix(0.9075 0 0 1 286.1597 429.4023)" class="st5 st6 st12">202</text>
			<text transform="matrix(0.9075 0 0 1 286.1597 429.4023)" class="st13 st6 st12">202</text>
		</g>
		<g>
			<ellipse class="st11" cx="1537.6" cy="637.6" rx="16.1" ry="17.8"/>
			<text transform="matrix(0.9075 0 0 1 1527.0625 642.499)" class="st5 st6 st12">215</text>
			<text transform="matrix(0.9075 0 0 1 1527.0625 642.499)" class="st13 st6 st12">215</text>
		</g>
		<ellipse class="st11" cx="1107.8" cy="626.9" rx="16.1" ry="17.8"/>
		<g>
			<ellipse class="st11" cx="1020.8" cy="626.9" rx="16.1" ry="17.8"/>
			<text transform="matrix(0.9075 0 0 1 1010.2871 631.8438)" class="st5 st6 st12">209</text>
			<text transform="matrix(0.9075 0 0 1 1010.2871 631.8438)" class="st13 st6 st12">209</text>
		</g>
		<g>
			<ellipse class="st11" cx="1062.7" cy="428" rx="16.1" ry="17.8"/>
			<text transform="matrix(0.9075 0 0 1 1052.1875 432.9541)" class="st5 st6 st12">210</text>
			<text transform="matrix(0.9075 0 0 1 1052.1875 432.9541)" class="st13 st6 st12">210</text>
		</g>
		<g>
			<ellipse class="st11" cx="442.8" cy="616.3" rx="16.1" ry="17.8"/>
			<text transform="matrix(0.9075 0 0 1 432.2749 621.1895)" class="st5 st6 st12">226</text>
			<text transform="matrix(0.9075 0 0 1 432.2749 621.1895)" class="st13 st6 st12">226</text>
		</g>
		<g>
			<ellipse class="st11" cx="355.8" cy="616.3" rx="16.1" ry="17.8"/>
			<text transform="matrix(0.9075 0 0 1 345.2505 621.1895)" class="st5 st6 st12">227</text>
			<text transform="matrix(0.9075 0 0 1 345.2505 621.1895)" class="st13 st6 st12">227</text>
		</g>
		<g>
			<ellipse class="st11" cx="294.5" cy="616.3" rx="16.1" ry="17.8"/>
			<text transform="matrix(0.9075 0 0 1 284.0103 621.1895)" class="st5 st6 st12">228</text>
			<text transform="matrix(0.9075 0 0 1 284.0103 621.1895)" class="st13 st6 st12">228</text>
		</g>
		<g>
			<ellipse cx="663.7" cy="594.6" rx="16.1" ry="17.8"/>
			<g>
				<g>
					<path class="st5" d="M656.9,584.4L656.9,584.4c-1.6,0-2.8,1.7-2.8,3.3v2.6c0,1.3,0.9,2.4,2.1,2.7v0.1v11.6
						c0,0.4,0.3,0.7,0.7,0.7s0.7-0.3,0.7-0.7v-11.6V593c1.2-0.3,2.2-1.4,2.2-2.8v-2.6C659.7,586.1,658.4,584.4,656.9,584.4z"/>
				</g>
			</g>
			<g>
				<g>
					<path class="st5" d="M666.8,584.4c-0.4,0-0.7,0.3-0.7,0.7v6c0,0.5-0.4,0.9-0.8,0.9h-0.1v-6.8c0-0.4-0.3-0.7-0.7-0.7
						s-0.7,0.3-0.7,0.7v6.8h-0.2c-0.5,0-0.8-0.4-0.8-0.9v-6c0-0.4-0.3-0.7-0.7-0.7s-0.7,0.3-0.7,0.7v6c0,1.2,1,2.2,2.2,2.2h0.2v11.3
						c0,0.4,0.3,0.7,0.7,0.7s0.7-0.3,0.7-0.7v-11.3h0.1c1.2,0,2.2-1,2.2-2.2v-6C667.5,584.7,667.2,584.4,666.8,584.4z"/>
				</g>
			</g>
			<g>
				<g>
					<path class="st5" d="M671.6,584.9c-0.4-0.3-0.9-0.4-1.3-0.2c-0.5,0.2-0.7,0.6-0.7,1.1v18.8c0,0.4,0.3,0.7,0.7,0.7
						s0.7-0.3,0.7-0.7v-7l2-1.3c0.2-0.1,0.3-0.3,0.3-0.6v-7.2C673.3,587.2,672.7,585.8,671.6,584.9z"/>
				</g>
			</g>
		</g>
		<text transform="matrix(1.3063 0 0 1 689.2217 600.2881)" class="st6 st14">СТОЛОВАЯ</text>
		<text transform="matrix(1.3063 0 0 1 689.2217 600.2881)" class="st15 st6 st14">СТОЛОВАЯ</text>
		<g>
			<g>
				<path class="st16" d="M225.2,456.2c-0.5-0.5-0.8-1.1-0.8-1.8c0-0.7,0.3-1.3,0.8-1.8s1.1-0.8,1.8-0.8s1.3,0.3,1.8,0.8
					s0.8,1.1,0.8,1.8c0,0.7-0.3,1.3-0.8,1.8s-1.1,0.8-1.8,0.8S225.7,456.7,225.2,456.2z M221.8,468.5c0.2,0.1,0.4,0.2,0.6,0.2
					s0.4-0.1,0.6-0.2c0.2-0.1,0.2-0.3,0.2-0.6v-6.6V461c0-0.1,0.1-0.2,0.2-0.2s0.2-0.1,0.3-0.1s0.2,0,0.3,0.1s0.2,0.1,0.2,0.2v16
					c0,0.3,0.1,0.6,0.4,0.8c0.2,0.2,0.5,0.3,0.8,0.3s0.6-0.1,0.8-0.3c0.2-0.2,0.4-0.5,0.4-0.8v-6.3v-3.5c0-0.2,0.1-0.3,0.2-0.3
					c0.1-0.1,0.3-0.1,0.3-0.1s0.2,0,0.3,0.1s0.2,0.2,0.2,0.3v3.5v6.3c0,0.3,0.1,0.6,0.4,0.8c0.2,0.2,0.5,0.3,0.8,0.3
					c0.4,0,0.6-0.1,0.9-0.3c0.2-0.2,0.3-0.5,0.3-0.8l0.1-16c0-0.1,0.1-0.2,0.2-0.2s0.2-0.1,0.3-0.1s0.2,0,0.3,0.1
					c0.1,0,0.2,0.1,0.2,0.2v0.3v6.6c0,0.3,0.1,0.5,0.2,0.6s0.3,0.2,0.5,0.2s0.4-0.1,0.5-0.2c0.2-0.1,0.2-0.3,0.2-0.6v-7.4
					c0-0.7-0.2-1.4-0.7-1.9c-0.5-0.6-1.1-0.9-2-0.9h-2.9h-0.1H224c-0.8,0-1.4,0.3-1.8,0.9c-0.4,0.6-0.6,1.2-0.6,1.9v7.4
					C221.6,468.2,221.7,468.4,221.8,468.5z M249.8,447.7c0.3,0.3,0.5,0.7,0.5,1.2v31.9c0,0.5-0.2,0.8-0.5,1.2
					c-0.3,0.3-0.7,0.5-1.2,0.5h-30.8c-0.5,0-0.9-0.2-1.2-0.5s-0.5-0.7-0.5-1.2v-31.9c0-0.5,0.2-0.8,0.5-1.2c0.3-0.3,0.7-0.5,1.2-0.5
					h30.8C249.1,447.2,249.5,447.4,249.8,447.7z M247.6,449.9h-28.8v29.8h28.8V449.9L247.6,449.9z M239.4,457c0.7,0,1.3-0.3,1.8-0.8
					s0.8-1.1,0.8-1.8c0-0.7-0.3-1.3-0.8-1.8s-1.1-0.8-1.8-0.8s-1.3,0.3-1.8,0.8s-0.8,1.1-0.8,1.8c0,0.7,0.3,1.3,0.8,1.8
					C238.1,456.7,238.7,457,239.4,457z M234.3,468.5c0.2,0.1,0.4,0.2,0.6,0.2s0.4-0.1,0.6-0.2c0.2-0.1,0.2-0.3,0.2-0.6v-6.6V461
					c0-0.1,0.1-0.2,0.2-0.2s0.2-0.1,0.3-0.1s0.2,0,0.3,0.1s0.2,0.1,0.2,0.2v16c0,0.3,0.1,0.6,0.4,0.8c0.2,0.2,0.5,0.3,0.8,0.3
					s0.6-0.1,0.8-0.3c0.2-0.2,0.4-0.5,0.4-0.8v-6.3v-3.5c0-0.2,0.1-0.3,0.2-0.3c0.1-0.1,0.3-0.1,0.3-0.1s0.2,0,0.3,0.1
					s0.2,0.2,0.2,0.3v3.5v6.3c0,0.3,0.1,0.6,0.3,0.8c0.2,0.2,0.5,0.3,0.9,0.3c0.3,0,0.6-0.1,0.8-0.3c0.2-0.2,0.4-0.5,0.4-0.8v-16
					c0-0.1,0.1-0.2,0.2-0.2c0.1,0,0.2-0.1,0.3-0.1s0.2,0,0.3,0.1c0.1,0,0.2,0.1,0.2,0.2v0.3v6.6c0,0.3,0.1,0.5,0.2,0.6
					s0.4,0.2,0.6,0.2s0.4-0.1,0.6-0.2s0.2-0.3,0.2-0.6v-7.4c0-0.7-0.3-1.4-0.8-1.9c-0.5-0.6-1.2-0.9-2-0.9h-2.9h-0.1h-0.1h-2.6
					c-0.8,0-1.4,0.3-1.8,0.9c-0.4,0.6-0.6,1.2-0.6,1.9v7.4C234,468.2,234.1,468.4,234.3,468.5z M262.3,476.1c-0.9,0-2.4,0-2.4,0
					s0-0.4,0-1c0-1.9,0-5.6,0-7c0,0,0-0.3-0.4-0.3s-3.1,0-3.7,0c-0.6,0-0.5,0.4-0.5,0.4c0,1.5,0,5,0,7c0,0.7,0,1.1,0,1.1
					s-1.9,0-2.6,0c-0.8,0-0.1,0.7-0.1,0.7l4.6,5.6c0,0,0.4,0.4,0.8,0c0.5-0.5,4.5-5.8,4.5-5.8S263.3,476.1,262.3,476.1z
					 M252.8,454.3c0.9,0,2.4,0,2.4,0s0,0.4,0,1c0,1.9,0,5.6,0,7c0,0,0,0.3,0.4,0.3s3.1,0,3.7,0s0.5-0.4,0.5-0.4c0-1.5,0-5,0-7
					c0-0.7,0-1.1,0-1.1s1.9,0,2.6,0c0.8,0,0.1-0.7,0.1-0.7l-4.6-5.6c0,0-0.4-0.4-0.8,0c-0.5,0.5-4.5,5.8-4.5,5.8
					S251.9,454.3,252.8,454.3z"/>
			</g>
		</g>
		<g>
			<path d="M221.2,386.5c-2.2,0-4,2-4,4.4v26.6c0,2.5,1.8,4.4,4,4.4h24.2c2.2,0,4-2,4-4.4V391c0-2.5-1.8-4.4-4-4.4h-24.2V386.5z"/>
			<g>
				<polygon class="st5" points="238.9,393.2 238.9,400.3 232.7,400.3 232.7,407.4 226.5,407.4 226.5,414.5 221.8,414.5 
					221.8,418.2 229.4,418.2 229.4,411.1 235.6,411.1 235.6,404 241.7,404 241.7,396.9 246.5,396.9 246.5,393.2 				"/>
				<polygon class="st5" points="223.1,402.7 233.3,391 227.6,391 227.6,392.7 229.9,392.7 222.2,401.5 				"/>
			</g>
		</g>
		<g>
			<path d="M931.5,407.8c-2.2,0-4,2-4,4.4v26.6c0,2.5,1.8,4.4,4,4.4h24.2c2.2,0,4-2,4-4.4v-26.6c0-2.5-1.8-4.4-4-4.4H931.5z"/>
			<g>
				<polygon class="st5" points="949.2,414.5 949.2,421.6 943.1,421.6 943.1,428.7 936.9,428.7 936.9,435.8 932.2,435.8 
					932.2,439.5 939.7,439.5 939.7,432.4 945.9,432.4 945.9,425.3 952.1,425.3 952.1,418.2 956.8,418.2 956.8,414.5 				"/>
				<polygon class="st5" points="933.5,424 943.6,412.3 938,412.3 938,414 940.3,414 932.6,422.8 				"/>
			</g>
		</g>
		<g>
			<path d="M1749.6,618.5c-2.2,0-4,2-4,4.4v26.6c0,2.5,1.8,4.4,4,4.4h24.2c2.2,0,4-2,4-4.4v-26.6c0-2.5-1.8-4.4-4-4.4H1749.6z"/>
			<g>
				<polygon class="st5" points="1767.3,625.2 1767.3,632.3 1761.2,632.3 1761.2,639.4 1755,639.4 1755,646.5 1750.3,646.5 
					1750.3,650.2 1757.9,650.2 1757.9,643 1764,643 1764,635.9 1770.2,635.9 1770.2,628.8 1774.9,628.8 1774.9,625.2 				"/>
				<polygon class="st5" points="1751.6,634.7 1761.7,623 1756.1,623 1756.1,624.6 1758.4,624.6 1750.7,633.5 				"/>
			</g>
		</g>
	</g>
	<g>
		<text transform="matrix(1.5759 0 0 1 241.8283 216.9252)" class="st6 st17">ЭТАЖ</text>
		<circle class="st11" cx="188.8" cy="196.3" r="35"/>
		<text transform="matrix(1.208 0 0 1 177.3146 211.6849)" class="st5 st6 st18">2</text>
	</g>
</g>
</svg>
