<?xml version="1.0" encoding="UTF-8" standalone="no"?>
<!-- Generator: Adobe Illustrator 27.3.1, SVG Export Plug-In . SVG Version: 6.00 Build 0)  -->

<svg
   version="1.1"
   id="Слой_1"
   x="0px"
   y="0px"
   viewBox="0 0 1920 1080"
   style="enable-background:new 0 0 1920 1080;"
   xml:space="preserve"
   sodipodi:docname="U_floor_4.svg"
   inkscape:version="1.3.2 (091e20e, 2023-11-25, custom)"
   xmlns:inkscape="http://www.inkscape.org/namespaces/inkscape"
   xmlns:sodipodi="http://sodipodi.sourceforge.net/DTD/sodipodi-0.dtd"
   xmlns="http://www.w3.org/2000/svg"
   xmlns:svg="http://www.w3.org/2000/svg"><defs
   id="defs115" />
<style
   type="text/css"
   id="style1">
	.st0{fill:#94C4FF;stroke:#FFFFFF;stroke-width:4;stroke-linecap:round;stroke-miterlimit:10;}
	.st1{stroke:#000000;stroke-linecap:round;stroke-miterlimit:10;}
	.st2{fill:none;stroke:#FFFFFF;stroke-width:2;stroke-linecap:round;stroke-miterlimit:10;}
	.st3{fill:none;stroke:#FFFFFF;stroke-width:2;stroke-linecap:square;stroke-miterlimit:10;}
	.st4{fill:none;stroke:#FFFFFF;stroke-width:2;stroke-miterlimit:10;}
	.st5{fill:#010002;}
	.st6{font-family:'ArialMT';}
	.st7{font-size:10.4559px;}
	.st8{fill:none;stroke:#000000;stroke-miterlimit:10;}
	.st9{font-size:8.8894px;}
	.st10{fill:#FFFFFF;}
	.st11{font-size:11.9274px;}
	.st12{fill:none;stroke:#FFFFFF;stroke-miterlimit:10;}
	.st13{stroke:#000000;stroke-width:1;stroke-linecap:round;stroke-miterlimit:10.0001;}
	.st14{font-size:10.1405px;}
	.st15{fill-opacity:0;}
</style>
<sodipodi:namedview
   bordercolor="#000000"
   borderopacity="0.25"
   id="namedview325"
   inkscape:current-layer="Слой_1"
   inkscape:cx="576.13685"
   inkscape:cy="1011.3186"
   inkscape:deskcolor="#d1d1d1"
   inkscape:pagecheckerboard="0"
   inkscape:pageopacity="0.0"
   inkscape:showpageshadow="2"
   inkscape:window-height="1017"
   inkscape:window-maximized="1"
   inkscape:window-width="1920"
   inkscape:window-x="-8"
   inkscape:window-y="-8"
   inkscape:zoom="0.36536458"
   pagecolor="#ffffff">
	</sodipodi:namedview>
<g
   id="g325"
   transform="translate(30.075331,45.363801)">
	
		
	<g
   id="g324">
		<g
   id="g323">
			<polygon
   id="polygon1"
   class="st0"
   points="1162.9,843.9 176.8,61 112.3,109.7 103.3,102.5 42,148.7 93.9,190 66.9,210.4      1069.5,1006.5 1775.8,1005.1 1777.9,946.3 1750,946.4 1750.6,930.8 1803.3,930.7 1805.4,870.8 1722.6,871 1723.6,842.8    " />
			<g
   id="g9">
				<polygon
   id="polygon2"
   inkscape:label="polygon2"
   class="st1"
   points="361.3,234.7 380.3,249.8 359.4,265.5 340.5,250.5     ">
				</polygon>
				<line
   id="line2"
   class="st2"
   x1="349.3"
   y1="247.2"
   x2="345.8"
   y2="249.9" />
				<line
   id="line3"
   class="st2"
   x1="353.1"
   y1="250.3"
   x2="349.3"
   y2="247.2" />
				<line
   id="line4"
   class="st2"
   x1="356.6"
   y1="247.6"
   x2="353.1"
   y2="250.3" />
				<line
   id="line5"
   class="st2"
   x1="360.4"
   y1="250.6"
   x2="356.6"
   y2="247.6" />
				<line
   id="line6"
   class="st2"
   x1="360.4"
   y1="250.6"
   x2="363.8"
   y2="248" />
				<line
   id="line7"
   class="st2"
   x1="367.6"
   y1="251"
   x2="363.8"
   y2="248" />
				<line
   id="line8"
   class="st2"
   x1="374.9"
   y1="251.4"
   x2="371.1"
   y2="248.4" />
				<line
   id="line9"
   class="st2"
   x1="367.6"
   y1="251"
   x2="371.1"
   y2="248.4" />
			</g>
			<g
   id="g161">
				<line
   id="line10"
   class="st3"
   x1="126.5"
   y1="166.6"
   x2="93.9"
   y2="191.2" />
				<line
   id="line11"
   class="st4"
   x1="271"
   y1="134.5"
   x2="218.4"
   y2="174.2" />
				<line
   id="line12"
   class="st4"
   x1="310.9"
   y1="166.2"
   x2="258.3"
   y2="205.8" />
				<line
   id="line13"
   class="st3"
   x1="351.5"
   y1="198.5"
   x2="299"
   y2="238.1" />
				<line
   id="line14"
   class="st4"
   x1="204.8"
   y1="228.7"
   x2="146.7"
   y2="272.6" />
				<line
   id="line15"
   class="st4"
   x1="267.3"
   y1="278.3"
   x2="209.2"
   y2="322.2" />
				<line
   id="line16"
   class="st4"
   x1="492.3"
   y1="310.2"
   x2="430.2"
   y2="357.1" />
				<line
   id="line17"
   class="st4"
   x1="575.8"
   y1="376.5"
   x2="513.7"
   y2="423.4" />
				<line
   id="line18"
   class="st3"
   x1="620.2"
   y1="411.8"
   x2="558.1"
   y2="458.7" />
				<line
   id="line19"
   class="st4"
   x1="660.1"
   y1="443.5"
   x2="598"
   y2="490.4" />
				<line
   id="line20"
   class="st4"
   x1="697"
   y1="472.8"
   x2="634.9"
   y2="519.6" />
				<line
   id="line21"
   class="st4"
   x1="760.2"
   y1="523"
   x2="698.1"
   y2="569.8" />
				<g
   id="g22">
					<line
   id="line22"
   class="st4"
   x1="176.6"
   y1="141"
   x2="229.2"
   y2="101.3" />
				</g>
				<line
   id="line23"
   class="st4"
   x1="320"
   y1="320.1"
   x2="261.9"
   y2="364" />
				<line
   id="line24"
   class="st4"
   x1="362.1"
   y1="353.6"
   x2="304"
   y2="397.5" />
				<line
   id="line25"
   class="st4"
   x1="405.8"
   y1="388.3"
   x2="347.7"
   y2="432.1" />
				<line
   id="line26"
   class="st4"
   x1="446.5"
   y1="420.5"
   x2="388.3"
   y2="464.4" />
				<line
   id="line27"
   class="st4"
   x1="482.6"
   y1="449.2"
   x2="424.5"
   y2="493.1" />
				<line
   id="line28"
   class="st4"
   x1="516.5"
   y1="476.1"
   x2="458.3"
   y2="520" />
				<line
   id="line29"
   class="st4"
   x1="560.9"
   y1="511.4"
   x2="502.8"
   y2="555.2" />
				<line
   id="line30"
   class="st4"
   x1="605.3"
   y1="546.7"
   x2="547.2"
   y2="590.5" />
				<line
   id="line31"
   class="st4"
   x1="637.7"
   y1="572.3"
   x2="579.5"
   y2="616.2" />
				<line
   id="line32"
   class="st4"
   x1="703.9"
   y1="625"
   x2="645.8"
   y2="668.8" />
				<line
   id="line33"
   class="st4"
   x1="670.8"
   y1="598.7"
   x2="612.7"
   y2="642.5" />
				<line
   id="line34"
   class="st4"
   x1="767.1"
   y1="675.2"
   x2="709"
   y2="719" />
				<line
   id="line35"
   class="st4"
   x1="815.3"
   y1="713.4"
   x2="757.2"
   y2="757.2" />
				<line
   id="line36"
   class="st4"
   x1="858.2"
   y1="747.5"
   x2="800.1"
   y2="791.3" />
				<line
   id="line37"
   class="st4"
   x1="915.4"
   y1="792.9"
   x2="857.3"
   y2="836.7" />
				<line
   id="line38"
   class="st4"
   x1="973.4"
   y1="838.9"
   x2="915.3"
   y2="882.8" />
				<line
   id="line39"
   class="st4"
   x1="1014.8"
   y1="871.8"
   x2="956.7"
   y2="915.6" />
				<line
   id="line40"
   class="st4"
   x1="1055.4"
   y1="904"
   x2="997.3"
   y2="947.9" />
				<line
   id="line41"
   class="st4"
   x1="1090.1"
   y1="931.5"
   x2="1031.9"
   y2="975.4" />
				<line
   id="line42"
   class="st2"
   x1="457.6"
   y1="282.7"
   x2="395.5"
   y2="329.6" />
				<line
   id="line43"
   class="st3"
   x1="356.9"
   y1="284.1"
   x2="409.5"
   y2="244.5" />
				<line
   id="line44"
   class="st2"
   x1="666.5"
   y1="544.7"
   x2="728.6"
   y2="497.9" />
				<line
   id="line45"
   class="st4"
   x1="794.9"
   y1="550.5"
   x2="732.8"
   y2="597.3" />
				<line
   id="line46"
   class="st4"
   x1="868.6"
   y1="609"
   x2="806.5"
   y2="655.9" />
				<line
   id="line47"
   class="st3"
   x1="910"
   y1="641.9"
   x2="847.9"
   y2="688.8" />
				<line
   id="line48"
   class="st4"
   x1="952.9"
   y1="676"
   x2="890.8"
   y2="722.8" />
				<line
   id="line49"
   class="st4"
   x1="996.6"
   y1="710.6"
   x2="934.5"
   y2="757.5" />
				<line
   id="line50"
   class="st4"
   x1="1041"
   y1="745.9"
   x2="978.9"
   y2="792.8" />
				<line
   id="line51"
   class="st4"
   x1="1099"
   y1="791.9"
   x2="1036.9"
   y2="838.8" />
				<line
   id="line52"
   class="st4"
   x1="1150.2"
   y1="832.6"
   x2="1088.1"
   y2="879.4" />
				<line
   id="line53"
   class="st4"
   x1="395.5"
   y1="329.6"
   x2="406.1"
   y2="338" />
				<line
   id="line54"
   class="st3"
   x1="126.5"
   y1="166.6"
   x2="137.1"
   y2="174.9" />
				<line
   id="line55"
   class="st4"
   x1="155.2"
   y1="123.9"
   x2="125.1"
   y2="100.1" />
				<line
   id="line56"
   class="st4"
   x1="199.6"
   y1="159.2"
   x2="166.5"
   y2="132.9" />
				<line
   id="line57"
   class="st4"
   x1="241.7"
   y1="192.7"
   x2="210.9"
   y2="168.2" />
				<line
   id="line58"
   class="st4"
   x1="279.4"
   y1="222.6"
   x2="252.3"
   y2="201.1" />
				<line
   id="line59"
   class="st3"
   x1="299"
   y1="238.1"
   x2="291.4"
   y2="232.1" />
				<line
   id="line60"
   class="st3"
   x1="330.6"
   y1="263.2"
   x2="356.9"
   y2="284.1" />
				<line
   id="line61"
   class="st4"
   x1="420.4"
   y1="349.3"
   x2="485.9"
   y2="401.3" />
				<line
   id="line62"
   class="st4"
   x1="500.2"
   y1="412.6"
   x2="526.5"
   y2="433.6" />
				<line
   id="line63"
   class="st3"
   x1="543.1"
   y1="446.7"
   x2="558.1"
   y2="458.7" />
				<line
   id="line64"
   class="st4"
   x1="490.3"
   y1="343.2"
   x2="450.5"
   y2="373.2" />
				<line
   id="line65"
   class="st4"
   x1="467.2"
   y1="360.6"
   x2="492"
   y2="380.3" />
				<line
   id="line66"
   class="st4"
   x1="515.9"
   y1="362.3"
   x2="487.3"
   y2="383.9" />
				<line
   id="line67"
   class="st4"
   x1="480.9"
   y1="388.7"
   x2="475.3"
   y2="392.9" />
				<line
   id="line68"
   class="st4"
   x1="526.3"
   y1="354.5"
   x2="537.4"
   y2="346.1" />
				<line
   id="line69"
   class="st4"
   x1="501.4"
   y1="334.8"
   x2="512.6"
   y2="326.4" />
				<line
   id="line70"
   class="st4"
   x1="598"
   y1="490.4"
   x2="604"
   y2="495.1" />
				<line
   id="line71"
   class="st4"
   x1="614.6"
   y1="503.5"
   x2="645.5"
   y2="528" />
				<line
   id="line72"
   class="st4"
   x1="656"
   y1="536.4"
   x2="676.3"
   y2="552.5" />
				<line
   id="line73"
   class="st4"
   x1="689.9"
   y1="563.3"
   x2="714.7"
   y2="583" />
				<line
   id="line74"
   class="st4"
   x1="725.2"
   y1="591.3"
   x2="741.8"
   y2="604.5" />
				<line
   id="line75"
   class="st4"
   x1="753.1"
   y1="613.5"
   x2="787"
   y2="640.4" />
				<line
   id="line76"
   class="st4"
   x1="796.8"
   y1="648.1"
   x2="818.6"
   y2="665.5" />
				<line
   id="line77"
   class="st4"
   x1="823.5"
   y1="573.2"
   x2="781.3"
   y2="605" />
				<line
   id="line78"
   class="st4"
   x1="838.5"
   y1="585.1"
   x2="796.3"
   y2="617" />
				<line
   id="line79"
   class="st4"
   x1="770.1"
   y1="613.4"
   x2="761.4"
   y2="620" />
				<line
   id="line80"
   class="st4"
   x1="776.4"
   y1="632"
   x2="785.2"
   y2="625.4" />
				<line
   id="line81"
   class="st3"
   x1="831.4"
   y1="675.6"
   x2="847.9"
   y2="688.8" />
				<line
   id="line82"
   class="st3"
   x1="890.8"
   y1="722.8"
   x2="896.9"
   y2="727.6" />
				<line
   id="line83"
   class="st3"
   x1="909.7"
   y1="737.8"
   x2="960.1"
   y2="777.8" />
				<line
   id="line84"
   class="st3"
   x1="972.1"
   y1="787.4"
   x2="1006"
   y2="814.3" />
				<line
   id="line85"
   class="st3"
   x1="1018.8"
   y1="824.4"
   x2="1067"
   y2="862.7" />
				<line
   id="line86"
   class="st2"
   x1="1080.5"
   y1="873.4"
   x2="1108.4"
   y2="895.5" />
				<line
   id="line87"
   class="st4"
   x1="150.6"
   y1="185.7"
   x2="185.2"
   y2="213.2" />
				<line
   id="line88"
   class="st4"
   x1="198.8"
   y1="223.9"
   x2="213.9"
   y2="235.9" />
				<line
   id="line89"
   class="st4"
   x1="225.1"
   y1="244.8"
   x2="274.1"
   y2="283.7" />
				<line
   id="line90"
   class="st4"
   x1="284.6"
   y1="292.1"
   x2="347.1"
   y2="341.7" />
				<line
   id="line91"
   class="st4"
   x1="356.9"
   y1="349.4"
   x2="367.4"
   y2="357.8" />
				<line
   id="line92"
   class="st4"
   x1="377.2"
   y1="365.6"
   x2="411.8"
   y2="393.1" />
				<line
   id="line93"
   class="st4"
   x1="422.4"
   y1="401.4"
   x2="453.2"
   y2="425.9" />
				<line
   id="line94"
   class="st4"
   x1="463"
   y1="433.7"
   x2="492.4"
   y2="457" />
				<line
   id="line95"
   class="st4"
   x1="503.7"
   y1="466"
   x2="522.5"
   y2="480.9" />
				<line
   id="line96"
   class="st4"
   x1="533"
   y1="489.3"
   x2="566.9"
   y2="516.2" />
				<line
   id="line97"
   class="st4"
   x1="576.7"
   y1="523.9"
   x2="614.3"
   y2="553.8" />
				<line
   id="line98"
   class="st4"
   x1="627.1"
   y1="564"
   x2="648.2"
   y2="580.7" />
				<line
   id="line99"
   class="st4"
   x1="660.2"
   y1="590.3"
   x2="676"
   y2="602.8" />
				<line
   id="line100"
   class="st4"
   x1="685.1"
   y1="610"
   x2="710.7"
   y2="630.3" />
				<line
   id="line101"
   class="st4"
   x1="720.5"
   y1="638.1"
   x2="773.9"
   y2="680.5" />
				<line
   id="line102"
   class="st4"
   x1="785.9"
   y1="690.1"
   x2="822.1"
   y2="718.8" />
				<line
   id="line103"
   class="st4"
   x1="833.4"
   y1="727.7"
   x2="865.7"
   y2="753.4" />
				<line
   id="line104"
   class="st4"
   x1="877"
   y1="762.4"
   x2="922.2"
   y2="798.3" />
				<line
   id="line105"
   class="st4"
   x1="933.5"
   y1="807.2"
   x2="978.7"
   y2="843.1" />
				<line
   id="line106"
   class="st4"
   x1="989.9"
   y1="852"
   x2="1020"
   y2="876" />
				<line
   id="line107"
   class="st4"
   x1="1031.3"
   y1="884.9"
   x2="1066.7"
   y2="913" />
				<line
   id="line108"
   class="st4"
   x1="1078"
   y1="922"
   x2="1095.3"
   y2="935.7" />
				<line
   id="line109"
   class="st4"
   x1="727.2"
   y1="643.5"
   x2="716.1"
   y2="651.9" />
				<line
   id="line110"
   class="st4"
   x1="669.1"
   y1="687.3"
   x2="704.1"
   y2="660.9" />
				<line
   id="line111"
   class="st4"
   x1="664.9"
   y1="654.4"
   x2="671.7"
   y2="659.8" />
				<line
   id="line112"
   class="st4"
   x1="680.7"
   y1="666.9"
   x2="688.2"
   y2="672.9" />
				<line
   id="line113"
   class="st4"
   x1="1163.7"
   y1="843.3"
   x2="1161.8"
   y2="895.5" />
				<line
   id="line114"
   class="st2"
   x1="1128.5"
   y1="895.5"
   x2="1108.4"
   y2="895.5" />
				<line
   id="line115"
   class="st2"
   x1="1109.6"
   y1="947.1"
   x2="1107.5"
   y2="1005.8" />
				<line
   id="line116"
   class="st2"
   x1="1103.6"
   y1="942.3"
   x2="1109.6"
   y2="947.1" />
				<line
   id="line117"
   class="st3"
   x1="1200.2"
   y1="948.1"
   x2="1237.4"
   y2="948" />
				<line
   id="line118"
   class="st4"
   x1="1123.1"
   y1="960.2"
   x2="1109.2"
   y2="960.3" />
				<line
   id="line119"
   class="st3"
   x1="1160.2"
   y1="961.4"
   x2="1147.8"
   y2="961.4" />
				<line
   id="line120"
   class="st3"
   x1="1161"
   y1="961.3"
   x2="1159.4"
   y2="1005.7" />
				<line
   id="line121"
   class="st3"
   x1="1235.3"
   y1="1006.1"
   x2="1237.4"
   y2="948" />
				<line
   id="line122"
   class="st4"
   x1="1211.4"
   y1="895.3"
   x2="1151.8"
   y2="895.5" />
				<line
   id="line123"
   class="st4"
   x1="1238.1"
   y1="843.2"
   x2="1236.2"
   y2="895.3" />
				<line
   id="line124"
   class="st4"
   x1="1342.6"
   y1="843"
   x2="1340.7"
   y2="895.1" />
				<line
   id="line125"
   class="st4"
   x1="1440.9"
   y1="842.8"
   x2="1439.1"
   y2="894.9" />
				<line
   id="line126"
   class="st4"
   x1="1527.7"
   y1="842.6"
   x2="1525.8"
   y2="894.1" />
				<line
   id="line127"
   class="st3"
   x1="1588.1"
   y1="842.5"
   x2="1586.2"
   y2="894" />
				<line
   id="line128"
   class="st3"
   x1="1655.4"
   y1="844.1"
   x2="1653.6"
   y2="893.9" />
				<line
   id="line129"
   class="st4"
   x1="1722.1"
   y1="862.6"
   x2="1720.4"
   y2="911.1" />
				<line
   id="line130"
   class="st4"
   x1="1297"
   y1="947.9"
   x2="1294.9"
   y2="1005.4" />
				<line
   id="line131"
   class="st4"
   x1="1345.6"
   y1="947.8"
   x2="1345.2"
   y2="956.8" />
				<line
   id="line132"
   class="st4"
   x1="1393.6"
   y1="947.1"
   x2="1391.5"
   y2="1005.3" />
				<line
   id="line133"
   class="st4"
   x1="1437"
   y1="947"
   x2="1434.9"
   y2="1005.2" />
				<line
   id="line134"
   class="st4"
   x1="1533"
   y1="947.4"
   x2="1530.9"
   y2="1005" />
				<line
   id="line135"
   class="st4"
   x1="1591.9"
   y1="946.7"
   x2="1589.8"
   y2="1004.9" />
				<line
   id="line136"
   class="st4"
   x1="1136.3"
   y1="895.4"
   x2="1108.7"
   y2="895.5" />
				<line
   id="line137"
   class="st4"
   x1="1101.6"
   y1="890.2"
   x2="1077.5"
   y2="871" />
				<line
   id="line138"
   class="st4"
   x1="1310.5"
   y1="895.2"
   x2="1224.6"
   y2="895.3" />
				<line
   id="line139"
   class="st4"
   x1="1403"
   y1="895"
   x2="1326.8"
   y2="895.1" />
				<line
   id="line140"
   class="st4"
   x1="1499.5"
   y1="894.8"
   x2="1420.5"
   y2="894.9" />
				<line
   id="line141"
   class="st4"
   x1="1566.1"
   y1="894.5"
   x2="1515"
   y2="894.5" />
				<line
   id="line142"
   class="st3"
   x1="1586.2"
   y1="894.4"
   x2="1579.2"
   y2="894.4" />
				<line
   id="line143"
   class="st3"
   x1="1653.6"
   y1="894.2"
   x2="1693.1"
   y2="894.1" />
				<line
   id="line144"
   class="st3"
   x1="1782.3"
   y1="929.8"
   x2="1719.7"
   y2="929.9" />
				<line
   id="line145"
   class="st3"
   x1="1710.9"
   y1="894.1"
   x2="1721"
   y2="894.1" />
				<line
   id="line146"
   class="st3"
   x1="1720"
   y1="921.3"
   x2="1719.7"
   y2="929.7" />
				<line
   id="line147"
   class="st3"
   x1="1297"
   y1="947.9"
   x2="1365.9"
   y2="947.8" />
				<line
   id="line148"
   class="st4"
   x1="1404.6"
   y1="947.9"
   x2="1385.3"
   y2="947.9" />
				<line
   id="line149"
   class="st4"
   x1="1448"
   y1="947.8"
   x2="1420.9"
   y2="947.9" />
				<line
   id="line150"
   class="st4"
   x1="1489"
   y1="947.5"
   x2="1464.3"
   y2="947.6" />
				<line
   id="line151"
   class="st3"
   x1="1625.3"
   y1="947.3"
   x2="1552.6"
   y2="947.4" />
				<line
   id="line152"
   class="st3"
   x1="1693.5"
   y1="947.2"
   x2="1671.8"
   y2="947.2" />
				<line
   id="line153"
   class="st4"
   x1="1732.2"
   y1="947.1"
   x2="1705.9"
   y2="947.1" />
				<line
   id="line154"
   class="st4"
   x1="1741.5"
   y1="947.1"
   x2="1777.9"
   y2="947" />
				<line
   id="line155"
   class="st4"
   x1="1476.9"
   y1="947.5"
   x2="1474.8"
   y2="1005.1" />
				<line
   id="line156"
   class="st4"
   x1="1712.9"
   y1="946.3"
   x2="1710.8"
   y2="1004.6" />
				<line
   id="line157"
   class="st3"
   x1="1671.6"
   y1="947.1"
   x2="1671"
   y2="963.3" />
				<line
   id="line158"
   class="st3"
   x1="1671"
   y1="963.3"
   x2="1659.6"
   y2="963.3" />
				<line
   id="line159"
   class="st3"
   x1="1659.4"
   y1="963.6"
   x2="1657.9"
   y2="1004.7" />
				<line
   id="line160"
   class="st4"
   x1="1345.8"
   y1="965.2"
   x2="1344.3"
   y2="1005.3" />
				<line
   id="line161"
   class="st4"
   x1="1540.9"
   y1="947.4"
   x2="1501.3"
   y2="947.5" />
			</g>
			<g
   id="g163">
				<g
   id="g162">
					<path
   id="path161"
   class="st5"
   d="M379.4,280.2c0-0.4,0.2-0.7,0.5-0.9c0.3-0.3,0.8-0.4,1.2-0.4c0.5,0,0.9,0.2,1.2,0.4       c0.4,0.3,0.5,0.6,0.5,1c0,0.4-0.2,0.7-0.5,0.9c-0.3,0.3-0.8,0.4-1.2,0.4c-0.5,0-0.9-0.2-1.2-0.4       C379.6,280.9,379.4,280.6,379.4,280.2z M371.9,283.3c0,0.1,0.1,0.2,0.2,0.3c0.1,0.1,0.2,0.1,0.4,0.1c0.1,0,0.3,0,0.4-0.1       l3.1-2.4l0.1-0.1c0,0,0.1,0,0.2,0s0.1,0.1,0.2,0.1c0,0,0.1,0.1,0.1,0.1c0,0,0,0.1,0,0.1l-7.6,5.7c-0.1,0.1-0.2,0.3-0.2,0.4       c0,0.2,0.1,0.3,0.2,0.4c0.2,0.1,0.3,0.2,0.6,0.2c0.2,0,0.4,0,0.5-0.1l3-2.2l1.7-1.3c0.1-0.1,0.2-0.1,0.3,0       c0.1,0,0.2,0.1,0.2,0.1s0.1,0.1,0.1,0.1c0,0.1,0,0.1-0.1,0.2l-1.7,1.3l-3,2.2c-0.1,0.1-0.2,0.3-0.2,0.4s0.1,0.3,0.2,0.4       c0.2,0.1,0.4,0.2,0.6,0.2c0.2,0,0.4,0,0.5-0.2l7.6-5.7c0,0,0.1,0,0.2,0s0.1,0.1,0.2,0.1c0,0,0.1,0.1,0.1,0.1c0,0,0,0.1,0,0.1       l-0.1,0.1l-3.1,2.4c-0.1,0.1-0.2,0.2-0.2,0.3c0,0.1,0.1,0.2,0.2,0.3c0.1,0.1,0.2,0.1,0.4,0.1c0.1,0,0.3,0,0.4-0.1l3.5-2.6       c0.3-0.3,0.5-0.6,0.6-1s-0.1-0.8-0.5-1.1l-1.4-1.1l0,0l-1.3-1c-0.4-0.3-0.8-0.5-1.3-0.4s-0.9,0.2-1.2,0.5l-3.5,2.6       C372,283.1,371.9,283.2,371.9,283.3L371.9,283.3z M395.4,286.6c0,0.2-0.1,0.4-0.3,0.6l-15.1,11.4c-0.2,0.2-0.5,0.2-0.8,0.2       c-0.3,0-0.6-0.1-0.8-0.3l-14.9-11.8c-0.2-0.2-0.4-0.4-0.4-0.6c0-0.2,0.1-0.4,0.3-0.6l15.1-11.4c0.2-0.2,0.5-0.2,0.8-0.2       c0.3,0,0.6,0.1,0.8,0.3L395,286C395.2,286.2,395.3,286.4,395.4,286.6z M393.2,286.6l-13.9-11l-14.1,10.6l13.9,11L393.2,286.6z        M385.9,285.9c0.4,0.3,0.8,0.4,1.2,0.4c0.5,0,0.9-0.1,1.2-0.4c0.3-0.3,0.5-0.6,0.5-0.9c0-0.4-0.2-0.7-0.5-1s-0.8-0.4-1.2-0.4       c-0.5,0-0.9,0.1-1.2,0.4c-0.3,0.3-0.5,0.6-0.5,0.9C385.4,285.3,385.6,285.7,385.9,285.9z M378,288.1c0,0.1,0.1,0.2,0.2,0.3       c0.1,0.1,0.2,0.1,0.4,0.1c0.1,0,0.3,0,0.4-0.1l3.1-2.4l0.1-0.1c0,0,0.1,0,0.2,0s0.1,0.1,0.2,0.1c0,0,0.1,0.1,0.1,0.1       c0,0,0,0.1,0,0.1L375,292c-0.1,0.1-0.2,0.3-0.2,0.4c0,0.2,0.1,0.3,0.2,0.4c0.2,0.1,0.3,0.2,0.6,0.2c0.2,0,0.4,0,0.5-0.1l3-2.2       l1.7-1.3c0.1-0.1,0.2-0.1,0.3,0c0.1,0,0.2,0.1,0.2,0.1s0.1,0.1,0.1,0.1c0,0.1,0,0.1-0.1,0.2l-1.7,1.3l-3,2.2       c-0.1,0.1-0.2,0.2-0.2,0.4c0,0.2,0.1,0.3,0.3,0.5c0.2,0.1,0.3,0.2,0.6,0.2c0.2,0,0.4,0,0.5-0.1l7.6-5.7c0,0,0.1,0,0.2,0       s0.1,0.1,0.2,0.1c0,0,0.1,0.1,0.1,0.1c0,0,0,0.1,0,0.1l-0.1,0.1l-3.1,2.4c-0.1,0.1-0.2,0.2-0.2,0.3c0,0.1,0.1,0.2,0.2,0.3       c0.1,0.1,0.2,0.1,0.4,0.1c0.1,0,0.3,0,0.4-0.1l3.5-2.6c0.3-0.3,0.5-0.6,0.5-1c0-0.4-0.2-0.8-0.6-1.1l-1.4-1.1l0,0l0,0l-1.3-1       c-0.4-0.3-0.8-0.5-1.3-0.4c-0.5,0-0.9,0.2-1.2,0.5l-3.5,2.6C378,287.9,377.9,288,378,288.1L378,288.1z M387.9,301.6       c-0.5-0.4-1.2-0.9-1.2-0.9s0.2-0.1,0.5-0.4c0.9-0.7,2.6-2,3.3-2.5c0,0,0.2-0.1,0-0.3s-1.5-1.2-1.8-1.4s-0.4,0-0.4,0       c-0.7,0.5-2.4,1.8-3.3,2.5c-0.3,0.2-0.5,0.4-0.5,0.4s-0.9-0.7-1.3-1c-0.4-0.3-0.3,0.2-0.3,0.2l-0.4,3.8c0,0,0,0.3,0.4,0.3       c0.5,0,4.9-0.3,4.9-0.3S388.4,302,387.9,301.6L387.9,301.6z M393.7,290.2c0.5,0.4,1.2,0.9,1.2,0.9s-0.2,0.1-0.5,0.4       c-0.9,0.7-2.6,2-3.3,2.5c0,0-0.2,0.1,0,0.3s1.5,1.2,1.8,1.4s0.4,0,0.4,0c0.7-0.5,2.4-1.8,3.3-2.5c0.3-0.2,0.5-0.4,0.5-0.4       s0.9,0.7,1.3,1c0.4,0.3,0.3-0.2,0.3-0.2l0.4-3.8c0,0,0-0.3-0.4-0.3c-0.5,0-4.9,0.3-4.9,0.3S393.2,289.8,393.7,290.2       L393.7,290.2z" />
				</g>
			</g>
			<line
   id="line163"
   class="st4"
   x1="379.2"
   y1="266.1"
   x2="410.1"
   y2="290.6" />
			<line
   id="line164"
   class="st4"
   x1="410.9"
   y1="290"
   x2="386.2"
   y2="308.6" />
			<g
   id="g165">
				<g
   id="g164">
					<path
   id="path164"
   class="st5"
   d="M1250.8,953.8c-0.3-0.2-0.5-0.6-0.5-0.9s0.2-0.7,0.6-0.9c0.4-0.2,0.8-0.4,1.3-0.4       s0.9,0.1,1.3,0.4c0.3,0.2,0.5,0.6,0.5,0.9s-0.2,0.7-0.6,0.9c-0.4,0.2-0.8,0.4-1.3,0.4S1251.1,954,1250.8,953.8z M1248.2,960       c0.1,0.1,0.2,0.1,0.4,0.1s0.3,0,0.4-0.1c0.1-0.1,0.2-0.2,0.2-0.3l0.1-3.3l0-0.2c0,0,0-0.1,0.1-0.1c0.1,0,0.1,0,0.2,0       c0.1,0,0.1,0,0.2,0s0.1,0,0.1,0.1l-0.3,8.1c0,0.2,0.1,0.3,0.2,0.4c0.2,0.1,0.3,0.2,0.6,0.2s0.4,0,0.6-0.2       c0.2-0.1,0.3-0.2,0.3-0.4l0.1-3.2l0.1-1.8c0-0.1,0.1-0.2,0.2-0.2c0.1,0,0.2,0,0.2,0c0.1,0,0.1,0,0.2,0c0.1,0,0.1,0.1,0.1,0.2       l-0.1,1.8l-0.1,3.2c0,0.2,0.1,0.3,0.2,0.4c0.2,0.1,0.3,0.2,0.6,0.2c0.2,0,0.5-0.1,0.6-0.2c0.2-0.1,0.2-0.2,0.2-0.4l0.3-8.1       c0,0,0-0.1,0.1-0.1c0.1,0,0.1,0,0.2,0c0.1,0,0.1,0,0.2,0s0.1,0,0.1,0.1l0,0.2l-0.1,3.3c0,0.1,0.1,0.2,0.2,0.3s0.2,0.1,0.4,0.1       s0.3,0,0.4-0.1c0.1-0.1,0.2-0.2,0.2-0.3l0.1-3.7c0-0.4-0.2-0.7-0.5-1s-0.8-0.4-1.4-0.4h-2.1h0h-1.9c-0.6,0-1,0.2-1.3,0.4       c-0.3,0.3-0.4,0.6-0.4,1l-0.1,3.7C1248,959.8,1248.1,959.9,1248.2,960L1248.2,960z M1268.3,949.4c0.2,0.2,0.3,0.3,0.3,0.6       l-0.6,16.1c0,0.2-0.1,0.4-0.4,0.6s-0.5,0.2-0.8,0.2l-21.7,0c-0.3,0-0.6-0.1-0.8-0.2c-0.2-0.2-0.3-0.3-0.3-0.6l0.6-16.1       c0-0.2,0.1-0.4,0.4-0.6s0.5-0.2,0.8-0.2l21.7,0C1267.8,949.2,1268.1,949.3,1268.3,949.4z M1266.7,950.6l-20.2,0l-0.5,15l20.2,0       L1266.7,950.6z M1260.8,954.1c0.5,0,0.9-0.1,1.3-0.4c0.4-0.2,0.6-0.6,0.6-0.9s-0.2-0.7-0.5-0.9s-0.8-0.4-1.3-0.4       s-0.9,0.1-1.3,0.4c-0.4,0.2-0.6,0.6-0.6,0.9c0,0.4,0.2,0.7,0.5,0.9S1260.3,954.1,1260.8,954.1L1260.8,954.1z M1256.9,960       c0.1,0.1,0.2,0.1,0.4,0.1s0.3,0,0.4-0.1c0.1-0.1,0.2-0.2,0.2-0.3l0.1-3.3l0-0.2c0,0,0-0.1,0.1-0.1c0.1,0,0.1,0,0.2,0       c0.1,0,0.1,0,0.2,0s0.1,0,0.1,0.1l-0.3,8.1c0,0.2,0.1,0.3,0.2,0.4c0.2,0.1,0.3,0.2,0.6,0.2s0.4,0,0.6-0.2       c0.2-0.1,0.3-0.2,0.3-0.4l0.1-3.2l0.1-1.8c0-0.1,0.1-0.2,0.2-0.2c0.1,0,0.2,0,0.2,0c0.1,0,0.1,0,0.2,0c0.1,0,0.2,0.1,0.2,0.2       l-0.1,1.8l-0.1,3.2c0,0.2,0.1,0.3,0.2,0.4c0.2,0.1,0.3,0.2,0.6,0.2c0.2,0,0.4,0,0.6-0.2c0.2-0.1,0.3-0.2,0.3-0.4l0.3-8.1       c0,0,0-0.1,0.1-0.1c0.1,0,0.1,0,0.2,0c0.1,0,0.1,0,0.2,0s0.1,0,0.1,0.1l0,0.2l-0.1,3.3c0,0.1,0.1,0.2,0.2,0.3s0.2,0.1,0.4,0.1       s0.3,0,0.4-0.1c0.1-0.1,0.2-0.2,0.2-0.3l0.1-3.7c0-0.4-0.2-0.7-0.5-1c-0.3-0.3-0.8-0.4-1.4-0.4h-2h0h0h-1.9       c-0.6,0-1,0.2-1.3,0.4c-0.3,0.3-0.4,0.6-0.4,1l-0.1,3.7C1256.8,959.8,1256.8,959.9,1256.9,960L1256.9,960z M1276.6,963.8       c-0.7,0-1.7,0-1.7,0s0-0.2,0-0.5c0-1,0.1-2.8,0.1-3.5c0,0,0-0.2-0.3-0.2s-2.2,0-2.6,0c-0.4,0-0.4,0.2-0.4,0.2       c0,0.7-0.1,2.5-0.1,3.5c0,0.3,0,0.6,0,0.6s-1.3,0-1.8,0c-0.5,0-0.1,0.3-0.1,0.3l3.2,2.8c0,0,0.3,0.2,0.6,0       c0.4-0.3,3.3-2.9,3.3-2.9S1277.2,963.8,1276.6,963.8L1276.6,963.8z M1270.3,952.8c0.7,0,1.7,0,1.7,0s0,0.2,0,0.5       c0,1-0.1,2.8-0.1,3.5c0,0,0,0.2,0.3,0.2s2.2,0,2.6,0c0.4,0,0.4-0.2,0.4-0.2c0-0.7,0.1-2.5,0.1-3.5c0-0.3,0-0.6,0-0.6       s1.3,0,1.8,0c0.5,0,0.1-0.3,0.1-0.3l-3.2-2.8c0,0-0.3-0.2-0.6,0c-0.4,0.3-3.3,2.9-3.3,2.9S1269.6,952.8,1270.3,952.8       L1270.3,952.8z" />
				</g>
			</g>
			<line
   id="line165"
   class="st3"
   x1="1280.8"
   y1="946.1"
   x2="1279.8"
   y2="973.1" />
			<line
   id="line166"
   class="st3"
   x1="1279.8"
   y1="973.7"
   x2="1236.4"
   y2="973.8" />
			<g
   id="g174">
				<polygon
   id="polygon166"
   class="st1"
   points="1207,965.2 1229.8,965.2 1229.1,983.5 1206.3,983.5     " />
				<line
   id="line167"
   class="st2"
   x1="1209.2"
   y1="977.7"
   x2="1209.1"
   y2="980.8" />
				<line
   id="line168"
   class="st2"
   x1="1213.8"
   y1="977.7"
   x2="1209.2"
   y2="977.7" />
				<line
   id="line169"
   class="st2"
   x1="1213.9"
   y1="974.7"
   x2="1213.8"
   y2="977.7" />
				<line
   id="line170"
   class="st2"
   x1="1218.4"
   y1="974.6"
   x2="1213.9"
   y2="974.7" />
				<line
   id="line171"
   class="st2"
   x1="1218.4"
   y1="974.6"
   x2="1218.5"
   y2="971.6" />
				<line
   id="line172"
   class="st2"
   x1="1223.1"
   y1="971.6"
   x2="1218.5"
   y2="971.6" />
				<line
   id="line173"
   class="st2"
   x1="1227.8"
   y1="968.5"
   x2="1223.2"
   y2="968.5" />
				<line
   id="line174"
   class="st2"
   x1="1223.1"
   y1="971.6"
   x2="1223.2"
   y2="968.5" />
			</g>
			<g
   id="g182">
				<polygon
   id="polygon174"
   class="st1"
   points="1600.3,966.6 1623,966.5 1622.4,984.9 1599.6,984.9     " />
				<line
   id="line175"
   class="st2"
   x1="1602.5"
   y1="979.1"
   x2="1602.3"
   y2="982.2" />
				<line
   id="line176"
   class="st2"
   x1="1607"
   y1="979.1"
   x2="1602.5"
   y2="979.1" />
				<line
   id="line177"
   class="st2"
   x1="1607.1"
   y1="976"
   x2="1607"
   y2="979.1" />
				<line
   id="line178"
   class="st2"
   x1="1611.7"
   y1="976"
   x2="1607.1"
   y2="976" />
				<line
   id="line179"
   class="st2"
   x1="1611.7"
   y1="976"
   x2="1611.8"
   y2="973" />
				<line
   id="line180"
   class="st2"
   x1="1616.3"
   y1="973"
   x2="1611.8"
   y2="973" />
				<line
   id="line181"
   class="st2"
   x1="1621"
   y1="969.9"
   x2="1616.5"
   y2="969.9" />
				<line
   id="line182"
   class="st2"
   x1="1616.3"
   y1="973"
   x2="1616.5"
   y2="969.9" />
			</g>
			<g
   id="g190">
				<polygon
   id="polygon182"
   class="st1"
   points="899.2,669 918.1,684 897.2,699.8 878.3,684.7     " />
				<line
   id="line183"
   class="st2"
   x1="887.1"
   y1="681.5"
   x2="883.6"
   y2="684.1" />
				<line
   id="line184"
   class="st2"
   x1="890.9"
   y1="684.5"
   x2="887.1"
   y2="681.5" />
				<line
   id="line185"
   class="st2"
   x1="894.4"
   y1="681.9"
   x2="890.9"
   y2="684.5" />
				<line
   id="line186"
   class="st2"
   x1="898.2"
   y1="684.9"
   x2="894.4"
   y2="681.9" />
				<line
   id="line187"
   class="st2"
   x1="898.2"
   y1="684.9"
   x2="901.7"
   y2="682.3" />
				<line
   id="line188"
   class="st2"
   x1="905.4"
   y1="685.3"
   x2="901.7"
   y2="682.3" />
				<line
   id="line189"
   class="st2"
   x1="912.7"
   y1="685.7"
   x2="908.9"
   y2="682.7" />
				<line
   id="line190"
   class="st2"
   x1="905.4"
   y1="685.3"
   x2="908.9"
   y2="682.7" />
			</g>
			<g
   id="g192">
				<text
   transform="matrix(0.7258 0.5763 -0.7982 0.6024 560.7949 422.3506)"
   class="st6 st7"
   id="text1">WC</text>
				<text
   id="text190"
   transform="matrix(0.7258 0.5763 -0.7982 0.6024 560.7949 422.3506)"
   class="st8 st6 st7">WC</text>
				<g
   id="g191">
					<path
   id="path190"
   class="st5"
   d="M545,419.3c-0.6,0.4-0.5,0.9,0.1,1.5c0.7,0.5,1.3,0.6,1.9,0.1l7.9-5.9l1,0.8l-7.9,5.9       c-0.6,0.4-0.5,0.9,0.1,1.5c0.7,0.5,1.3,0.6,1.9,0.1l13.4-10.1l0.5,0.4l-4.8,3.6c-0.3,0.2-0.4,0.5-0.3,0.8       c0.1,0.3,0.3,0.5,0.8,0.6s0.8,0,1-0.2l5.2-3.9c0.6-0.4,0.8-0.9,0.6-1.5c-0.1-0.6-0.6-1.2-1.3-1.8l-4-3.1       c-0.7-0.6-1.5-1-2.2-1.1c-0.7-0.2-1.4,0-2,0.4l-5.5,4.2c-0.2,0.2-0.3,0.4-0.2,0.7c0.2,0.3,0.4,0.5,0.8,0.6       c0.3,0.1,0.7,0.1,0.9-0.1l5.1-3.9l0.5,0.4L545,419.3z" />
					<path
   id="path191"
   class="st5"
   d="M563.4,406c-0.5,0.4-0.7,0.8-0.7,1.4c0.1,0.6,0.4,1.1,0.9,1.5c0.6,0.5,1.2,0.7,2,0.8       s1.4-0.1,1.9-0.5c0.5-0.4,0.7-0.8,0.6-1.4c-0.1-0.6-0.4-1.1-0.9-1.5c-0.6-0.5-1.2-0.7-2-0.8C564.5,405.5,563.9,405.6,563.4,406       L563.4,406z" />
				</g>
			</g>
			<g
   id="g199">
				<polygon
   id="polygon192"
   class="st1"
   points="607,437.6 626,452.7 605.1,468.4 586.2,453.4     " />
				<line
   id="line192"
   class="st2"
   x1="595"
   y1="450.1"
   x2="591.5"
   y2="452.8" />
				<line
   id="line193"
   class="st2"
   x1="598.8"
   y1="453.1"
   x2="595"
   y2="450.1" />
				<line
   id="line194"
   class="st2"
   x1="602.3"
   y1="450.5"
   x2="598.8"
   y2="453.1" />
				<line
   id="line195"
   class="st2"
   x1="606"
   y1="453.5"
   x2="602.3"
   y2="450.5" />
				<line
   id="line196"
   class="st2"
   x1="606"
   y1="453.5"
   x2="609.5"
   y2="450.9" />
				<line
   id="line197"
   class="st2"
   x1="613.3"
   y1="453.9"
   x2="609.5"
   y2="450.9" />
				<line
   id="line198"
   class="st2"
   x1="620.6"
   y1="454.3"
   x2="616.8"
   y2="451.3" />
				<line
   id="line199"
   class="st2"
   x1="613.3"
   y1="453.9"
   x2="616.8"
   y2="451.3" />
			</g>
			<g
   id="g201">
				<g
   id="g200">
					<path
   id="path199"
   class="st5"
   d="M1262.1,993.2l-2.9-7.3c0,0-0.1-0.1-0.1-0.1c0-0.2,0.1-0.2,0.3-0.2c0.1,0,0.2,0.1,0.2,0.2       l2,4.7c0.2,0.3,0.5,0.5,1.1,0.5c0.2,0,0.4-0.1,0.5-0.4s0.2-0.4,0.2-0.5l-2.1-4.6c-0.1-0.6-0.3-1-0.9-1.4       c-0.6-0.4-1.2-0.6-1.9-0.6l-2.8,0c-0.7,0-1.4,0.2-2,0.6c-0.6,0.4-0.9,0.9-1.1,1.4l-2.2,4.6c-0.1,0.1-0.1,0.3,0,0.5       c0.1,0.2,0.2,0.4,0.5,0.4c0.7,0,1.1-0.2,1.2-0.5l2.3-4.8c0-0.1,0.1-0.1,0.2-0.1c0.1,0,0.2,0.1,0.2,0.2v0l-3.4,7.4l0,0.6       c0,0.1,0.1,0.2,0.2,0.3s0.3,0.2,0.4,0.2h2l-0.2,5.7c0,0.2,0.1,0.4,0.3,0.6s0.5,0.3,0.8,0.3s0.5-0.1,0.8-0.3s0.3-0.4,0.3-0.6       l0.2-5.9c0,0,0.1,0,0.3-0.1c0.2,0,0.4,0,0.6,0c0.2,0,0.3,0,0.3,0.1l-0.2,5.9c0,0.2,0.1,0.5,0.3,0.6c0.2,0.2,0.4,0.3,0.8,0.3       s0.6-0.1,0.8-0.3s0.3-0.4,0.3-0.6l0.2-5.7h2.1c0.1,0,0.2-0.1,0.4-0.2c0.2-0.2,0.2-0.2,0.2-0.3v-0.1l0-0.2l0-0.2L1262.1,993.2z" />
					<path
   id="path200"
   class="st5"
   d="M1254.9,980.8c0,0.5,0.2,1,0.6,1.3c0.4,0.4,0.9,0.5,1.6,0.5c0.6,0,1.2-0.2,1.6-0.6       s0.7-0.8,0.7-1.3s-0.2-1-0.6-1.3c-0.4-0.4-0.9-0.5-1.6-0.5c-0.6,0-1.2,0.2-1.6,0.6S1254.9,980.3,1254.9,980.8z" />
				</g>
				<text
   transform="matrix(1.2421 -2.476459e-03 -3.610174e-02 0.9993 1267.5503 992.6104)"
   class="st6 st9"
   id="text2">WC</text>
				<text
   id="text200"
   transform="matrix(1.2421 -2.476459e-03 -3.610174e-02 0.9993 1267.5503 992.6104)"
   class="st8 st6 st9">WC</text>
			</g>
			<g
   id="g203">
				<text
   transform="matrix(0.7258 0.5763 -0.7982 0.6024 853.4542 654.6158)"
   class="st6 st7"
   id="text3">WC</text>
				<text
   id="text201"
   transform="matrix(0.7258 0.5763 -0.7982 0.6024 853.4542 654.6158)"
   class="st8 st6 st7">WC</text>
				<g
   id="g202">
					<path
   id="path201"
   class="st5"
   d="M837.6,651.5c-0.6,0.4-0.5,0.9,0.1,1.5c0.7,0.5,1.3,0.6,1.9,0.1l7.9-5.9l1,0.8l-7.9,5.9       c-0.6,0.4-0.5,0.9,0.1,1.5c0.7,0.5,1.3,0.6,1.9,0.1l13.4-10.1l0.5,0.4l-4.8,3.7c-0.3,0.2-0.4,0.5-0.3,0.8       c0.1,0.3,0.3,0.5,0.8,0.6c0.4,0.1,0.8,0,1-0.2l5.2-3.9c0.6-0.4,0.8-0.9,0.6-1.5c-0.1-0.6-0.6-1.2-1.3-1.8l-4-3.1       c-0.7-0.6-1.5-1-2.2-1.1c-0.7-0.2-1.4,0-2,0.4l-5.5,4.2c-0.2,0.2-0.3,0.4-0.2,0.7c0.2,0.3,0.4,0.5,0.8,0.6       c0.3,0.1,0.7,0.1,0.9-0.1l5.1-3.9l0.5,0.4L837.6,651.5z" />
					<path
   id="path202"
   class="st5"
   d="M856,638.2c-0.5,0.4-0.7,0.8-0.7,1.4c0.1,0.6,0.4,1.1,0.9,1.5c0.6,0.5,1.2,0.7,2,0.8       s1.4-0.1,1.9-0.5c0.5-0.4,0.7-0.8,0.6-1.4c-0.1-0.6-0.4-1.1-0.9-1.5s-1.2-0.7-2-0.8C857.2,637.7,856.5,637.9,856,638.2       L856,638.2z" />
				</g>
			</g>
			<g
   id="g205">
				<g
   id="g204">
					<path
   id="path203"
   class="st5"
   d="M413.7,276.8l4.7-6.9c0,0,0-0.1,0-0.1c0.1-0.1,0.3-0.1,0.4,0c0.1,0.1,0.1,0.1,0,0.2l-3,4.5       c-0.2,0.3-0.1,0.6,0.3,1c0.1,0.1,0.4,0.1,0.7,0s0.5-0.2,0.6-0.3l2.8-4.4c0.5-0.4,0.7-0.9,0.7-1.5s-0.3-1.1-0.8-1.5l-1.9-1.5       c-0.5-0.4-1.1-0.6-1.9-0.6c-0.8,0-1.5,0.1-2,0.4l-5.7,2.1c-0.1,0-0.3,0.1-0.4,0.4c-0.2,0.2-0.2,0.4,0,0.5       c0.5,0.4,0.9,0.5,1.2,0.3l6-2.2c0.1,0,0.2,0,0.3,0c0.1,0.1,0.1,0.2,0,0.2l0,0l-9.1,3.5l-0.5,0.4c-0.1,0-0.1,0.2-0.1,0.4       c0,0.2,0,0.3,0,0.4l1.4,1.1l-5.4,4c-0.2,0.2-0.3,0.4-0.4,0.6s0.1,0.5,0.3,0.6c0.2,0.1,0.5,0.2,0.8,0.2s0.6-0.1,0.8-0.3l5.6-4.2       c0,0,0.1,0,0.3,0.1c0.1,0.1,0.3,0.2,0.4,0.3c0.1,0.1,0.1,0.2,0.1,0.2l-5.5,4.2c-0.2,0.2-0.4,0.4-0.4,0.6s0,0.5,0.2,0.6       s0.5,0.2,0.8,0.2c0.3,0,0.6-0.1,0.8-0.3l5.3-4l1.4,1.1c0.1,0.1,0.2,0.1,0.5,0c0.2,0,0.4-0.1,0.4-0.1l0.1-0.1l0.2-0.1       L413.7,276.8L413.7,276.8z" />
					<path
   id="path204"
   class="st5"
   d="M420.2,263.8c-0.5,0.4-0.8,0.8-0.8,1.3s0.1,0.9,0.6,1.3s1,0.5,1.6,0.5s1.2-0.2,1.7-0.6       c0.5-0.4,0.8-0.8,0.8-1.3s-0.1-0.9-0.6-1.3s-1-0.5-1.6-0.5S420.6,263.4,420.2,263.8z" />
				</g>
				<text
   transform="matrix(0.7258 0.5763 -0.7982 0.6024 417.992 279.2858)"
   class="st6 st7"
   id="text4">WC</text>
				<text
   id="text204"
   transform="matrix(0.7258 0.5763 -0.7982 0.6024 417.992 279.2858)"
   class="st8 st6 st7">WC</text>
			</g>
			<g
   id="g212">
				<polygon
   id="polygon205"
   class="st1"
   points="1608.8,863.7 1631.6,863.7 1630.9,882 1608.1,882.1     " />
				<line
   id="line205"
   class="st2"
   x1="1611"
   y1="876.2"
   x2="1610.9"
   y2="879.3" />
				<line
   id="line206"
   class="st2"
   x1="1615.6"
   y1="876.2"
   x2="1611"
   y2="876.2" />
				<line
   id="line207"
   class="st2"
   x1="1615.7"
   y1="873.2"
   x2="1615.6"
   y2="876.2" />
				<line
   id="line208"
   class="st2"
   x1="1620.2"
   y1="873.2"
   x2="1615.7"
   y2="873.2" />
				<line
   id="line209"
   class="st2"
   x1="1620.2"
   y1="873.2"
   x2="1620.3"
   y2="870.1" />
				<line
   id="line210"
   class="st2"
   x1="1624.9"
   y1="870.1"
   x2="1620.3"
   y2="870.1" />
				<line
   id="line211"
   class="st2"
   x1="1629.6"
   y1="867"
   x2="1625"
   y2="867.1" />
				<line
   id="line212"
   class="st2"
   x1="1624.9"
   y1="870.1"
   x2="1625"
   y2="867.1" />
			</g>
			<g
   id="g214">
				<g
   id="g213">
					<text
   transform="matrix(0.7108 0.5644 -0.7982 0.6024 167.8809 101.8297)"
   class="st10 st6 st11"
   id="text5">301</text>
					<text
   id="text212"
   transform="matrix(0.7108 0.5644 -0.7982 0.6024 167.8809 101.8297)"
   class="st12 st6 st11">301</text>
				</g>
				
					<ellipse
   id="ellipse213"
   transform="matrix(0.9983 -5.849926e-02 5.849926e-02 0.9983 -5.6501 10.4773)"
   class="st13"
   cx="176.1"
   cy="101.7"
   rx="14.3"
   ry="11" />
				<text
   transform="matrix(0.7108 0.5644 -0.7982 0.6024 166.4191 99.4364)"
   class="st10 st6 st11"
   id="text6">401</text>
				<text
   id="text213"
   transform="matrix(0.7108 0.5644 -0.7982 0.6024 166.4191 99.4364)"
   class="st12 st6 st11">401</text>
			</g>
			<g
   id="g216">
				<g
   id="g215">
					<text
   transform="matrix(0.7108 0.5644 -0.7982 0.6024 215.3039 139.4816)"
   class="st10 st6 st11"
   id="text7">301</text>
					<text
   id="text214"
   transform="matrix(0.7108 0.5644 -0.7982 0.6024 215.3039 139.4816)"
   class="st12 st6 st11">301</text>
				</g>
				
					<ellipse
   id="ellipse215"
   transform="matrix(0.9983 -5.849926e-02 5.849926e-02 0.9983 -7.772 13.3159)"
   class="st13"
   cx="223.5"
   cy="139.4"
   rx="14.3"
   ry="11" />
				<text
   transform="matrix(0.7108 0.5644 -0.7982 0.6024 213.8421 137.0883)"
   class="st10 st6 st11"
   id="text8">402</text>
				<text
   id="text215"
   transform="matrix(0.7108 0.5644 -0.7982 0.6024 213.8421 137.0883)"
   class="st12 st6 st11">402</text>
			</g>
			<g
   id="g218">
				<g
   id="g217">
					<text
   transform="matrix(0.7108 0.5644 -0.7982 0.6024 255.1991 171.1562)"
   class="st10 st6 st11"
   id="text9">301</text>
					<text
   id="text216"
   transform="matrix(0.7108 0.5644 -0.7982 0.6024 255.1991 171.1562)"
   class="st12 st6 st11">301</text>
				</g>
				
					<ellipse
   id="ellipse217"
   transform="matrix(0.9983 -5.849926e-02 5.849926e-02 0.9983 -9.5564 15.7037)"
   class="st13"
   cx="263.4"
   cy="171.1"
   rx="14.3"
   ry="11" />
				<text
   transform="matrix(0.7108 0.5644 -0.7982 0.6024 252.9843 168.1656)"
   class="st10 st6 st11"
   id="text10">403</text>
				<text
   id="text217"
   transform="matrix(0.7108 0.5644 -0.7982 0.6024 252.9843 168.1656)"
   class="st12 st6 st11">403</text>
			</g>
			<g
   id="g220">
				<g
   id="g219">
					<text
   transform="matrix(0.7108 0.5644 -0.7982 0.6024 293.545 202.8344)"
   class="st10 st6 st11"
   id="text11">301</text>
					<text
   id="text218"
   transform="matrix(0.7108 0.5644 -0.7982 0.6024 293.545 202.8344)"
   class="st12 st6 st11">301</text>
				</g>
				
					<ellipse
   id="ellipse219"
   transform="matrix(0.9983 -5.849926e-02 5.849926e-02 0.9983 -11.344 18.0014)"
   class="st13"
   cx="301.8"
   cy="202.8"
   rx="14.3"
   ry="11" />
				<text
   transform="matrix(0.7108 0.5644 -0.7982 0.6024 292.1266 199.2429)"
   class="st10 st6 st11"
   id="text12">404</text>
				<text
   id="text219"
   transform="matrix(0.7108 0.5644 -0.7982 0.6024 292.1266 199.2429)"
   class="st12 st6 st11">404</text>
			</g>
			<g
   id="g222">
				<g
   id="g221">
					<text
   transform="matrix(0.7108 0.5644 -0.7982 0.6024 437.1899 320.5803)"
   class="st10 st6 st11"
   id="text13">301</text>
					<text
   id="text220"
   transform="matrix(0.7108 0.5644 -0.7982 0.6024 437.1899 320.5803)"
   class="st12 st6 st11">301</text>
				</g>
				
					<ellipse
   id="ellipse221"
   transform="matrix(0.9983 -5.849926e-02 5.849926e-02 0.9983 -17.9857 26.6066)"
   class="st13"
   cx="445.4"
   cy="320.5"
   rx="14.3"
   ry="11" />
				<text
   transform="matrix(0.7108 0.5644 -0.7982 0.6024 435.9651 317.6979)"
   class="st10 st6 st11"
   id="text14">405</text>
				<text
   id="text221"
   transform="matrix(0.7108 0.5644 -0.7982 0.6024 435.9651 317.6979)"
   class="st12 st6 st11">405</text>
			</g>
			<g
   id="g224">
				<g
   id="g223">
					<text
   transform="matrix(1.2165 -2.425347e-03 -3.610174e-02 0.9993 1553.4099 872.8557)"
   class="st10 st6 st14"
   id="text15">301</text>
					<text
   id="text222"
   transform="matrix(1.2165 -2.425347e-03 -3.610174e-02 0.9993 1553.4099 872.8557)"
   class="st12 st6 st14">301</text>
				</g>
				
					<ellipse
   id="ellipse223"
   transform="matrix(0.9983 -5.849926e-02 5.849926e-02 0.9983 -48.1243 92.705)"
   class="st13"
   cx="1559.3"
   cy="868.3"
   rx="14.3"
   ry="11" />
				<text
   transform="matrix(1.2165 -2.425347e-03 -3.610174e-02 0.9993 1550.1543 872.0152)"
   class="st10 st6 st14"
   id="text16">421</text>
				<text
   id="text223"
   transform="matrix(1.2165 -2.425347e-03 -3.610174e-02 0.9993 1550.1543 872.0152)"
   class="st12 st6 st14">421</text>
			</g>
			<g
   id="g226">
				<g
   id="g225">
					<text
   transform="matrix(1.2165 -2.425347e-03 -3.610174e-02 0.9993 1679.5754 874.4008)"
   class="st10 st6 st14"
   id="text17">301</text>
					<text
   id="text224"
   transform="matrix(1.2165 -2.425347e-03 -3.610174e-02 0.9993 1679.5754 874.4008)"
   class="st12 st6 st14">301</text>
				</g>
				
					<ellipse
   id="ellipse225"
   transform="matrix(0.9983 -5.849926e-02 5.849926e-02 0.9983 -47.9989 100.0881)"
   class="st13"
   cx="1685.5"
   cy="869.8"
   rx="14.3"
   ry="11" />
				<text
   transform="matrix(1.2165 -2.425347e-03 -3.610174e-02 0.9993 1676.3208 873.5612)"
   class="st10 st6 st14"
   id="text18">422</text>
				<text
   id="text225"
   transform="matrix(1.2165 -2.425347e-03 -3.610174e-02 0.9993 1676.3208 873.5612)"
   class="st12 st6 st14">422</text>
			</g>
			<g
   id="g228">
				<g
   id="g227">
					<text
   transform="matrix(1.2165 -2.425347e-03 -3.610174e-02 0.9993 1755.0509 907.2039)"
   class="st10 st6 st14"
   id="text19">301</text>
					<text
   id="text226"
   transform="matrix(1.2165 -2.425347e-03 -3.610174e-02 0.9993 1755.0509 907.2039)"
   class="st12 st6 st14">301</text>
				</g>
				
					<ellipse
   id="ellipse227"
   transform="matrix(0.9983 -5.849926e-02 5.849926e-02 0.9983 -49.7884 104.5598)"
   class="st13"
   cx="1760.9"
   cy="902.6"
   rx="14.3"
   ry="11" />
				<text
   transform="matrix(1.2165 -2.425347e-03 -3.610174e-02 0.9993 1748.5103 906.3699)"
   class="st10 st6 st14"
   id="text20">422а</text>
				<text
   id="text227"
   transform="matrix(1.2165 -2.425347e-03 -3.610174e-02 0.9993 1748.5103 906.3699)"
   class="st12 st6 st14">422а</text>
			</g>
			<g
   id="g230">
				<g
   id="g229">
					<text
   transform="matrix(1.2165 -2.425347e-03 -3.610174e-02 0.9993 1741.5654 980.3263)"
   class="st10 st6 st14"
   id="text21">301</text>
					<text
   id="text228"
   transform="matrix(1.2165 -2.425347e-03 -3.610174e-02 0.9993 1741.5654 980.3263)"
   class="st12 st6 st14">301</text>
				</g>
				
					<ellipse
   id="ellipse229"
   transform="matrix(0.9983 -5.849926e-02 5.849926e-02 0.9983 -54.089 103.8959)"
   class="st13"
   cx="1747.5"
   cy="975.8"
   rx="14.3"
   ry="11" />
				<text
   transform="matrix(1.2165 -2.425347e-03 -3.610174e-02 0.9993 1738.3098 979.4858)"
   class="st10 st6 st14"
   id="text22">423</text>
				<text
   id="text229"
   transform="matrix(1.2165 -2.425347e-03 -3.610174e-02 0.9993 1738.3098 979.4858)"
   class="st12 st6 st14">423</text>
			</g>
			<g
   id="g232">
				<g
   id="g231">
					<text
   transform="matrix(1.2165 -2.425347e-03 -3.610174e-02 0.9993 1679.6113 980.4498)"
   class="st10 st6 st14"
   id="text23">301</text>
					<text
   id="text230"
   transform="matrix(1.2165 -2.425347e-03 -3.610174e-02 0.9993 1679.6113 980.4498)"
   class="st12 st6 st14">301</text>
				</g>
				
					<ellipse
   id="ellipse231"
   transform="matrix(0.9983 -5.849926e-02 5.849926e-02 0.9983 -54.2027 100.272)"
   class="st13"
   cx="1685.5"
   cy="975.9"
   rx="14.3"
   ry="11" />
				<text
   transform="matrix(1.2165 -2.425347e-03 -3.610174e-02 0.9993 1673.0725 979.6158)"
   class="st10 st6 st14"
   id="text24">423а</text>
				<text
   id="text231"
   transform="matrix(1.2165 -2.425347e-03 -3.610174e-02 0.9993 1673.0725 979.6158)"
   class="st12 st6 st14">423а</text>
			</g>
			<g
   id="g234">
				<g
   id="g233">
					<text
   transform="matrix(0.7108 0.5644 -0.7982 0.6024 708.2925 682.5243)"
   class="st10 st6 st11"
   id="text25">301</text>
					<text
   id="text232"
   transform="matrix(0.7108 0.5644 -0.7982 0.6024 708.2925 682.5243)"
   class="st12 st6 st11">301</text>
				</g>
				
					<ellipse
   id="ellipse233"
   transform="matrix(0.9983 -5.849926e-02 5.849926e-02 0.9983 -38.6955 43.0859)"
   class="st13"
   cx="716.5"
   cy="682.4"
   rx="14.3"
   ry="11" />
				<text
   transform="matrix(0.7108 0.5644 -0.7982 0.6024 706.8288 680.1301)"
   class="st10 st6 st11"
   id="text26">439</text>
				<text
   id="text233"
   transform="matrix(0.7108 0.5644 -0.7982 0.6024 706.8288 680.1301)"
   class="st12 st6 st11">439</text>
			</g>
			<g
   id="g236">
				<g
   id="g235">
					<text
   transform="matrix(0.7108 0.5644 -0.7982 0.6024 646.566 633.5167)"
   class="st10 st6 st11"
   id="text27">301</text>
					<text
   id="text234"
   transform="matrix(0.7108 0.5644 -0.7982 0.6024 646.566 633.5167)"
   class="st12 st6 st11">301</text>
				</g>
				
					<ellipse
   id="ellipse235"
   transform="matrix(0.9983 -5.849926e-02 5.849926e-02 0.9983 -35.9341 39.3907)"
   class="st13"
   cx="654.8"
   cy="633.4"
   rx="14.3"
   ry="11" />
				<text
   transform="matrix(0.7108 0.5644 -0.7982 0.6024 645.1042 631.1235)"
   class="st10 st6 st11"
   id="text28">440</text>
				<text
   id="text235"
   transform="matrix(0.7108 0.5644 -0.7982 0.6024 645.1042 631.1235)"
   class="st12 st6 st11">440</text>
			</g>
			<g
   id="g238">
				<g
   id="g237">
					<text
   transform="matrix(0.7108 0.5644 -0.7982 0.6024 614.9512 608.4159)"
   class="st10 st6 st11"
   id="text29">301</text>
					<text
   id="text236"
   transform="matrix(0.7108 0.5644 -0.7982 0.6024 614.9512 608.4159)"
   class="st12 st6 st11">301</text>
				</g>
				
					<ellipse
   id="ellipse237"
   transform="matrix(0.9983 -5.849926e-02 5.849926e-02 0.9983 -34.5199 37.4985)"
   class="st13"
   cx="623.2"
   cy="608.3"
   rx="14.3"
   ry="11" />
				<text
   transform="matrix(0.7108 0.5644 -0.7982 0.6024 613.4883 606.0223)"
   class="st10 st6 st11"
   id="text30">441</text>
				<text
   id="text237"
   transform="matrix(0.7108 0.5644 -0.7982 0.6024 613.4883 606.0223)"
   class="st12 st6 st11">441</text>
			</g>
			<g
   id="g240">
				<g
   id="g239">
					<text
   transform="matrix(0.7108 0.5644 -0.7982 0.6024 582.5842 582.7172)"
   class="st10 st6 st11"
   id="text31">301</text>
					<text
   id="text238"
   transform="matrix(0.7108 0.5644 -0.7982 0.6024 582.5842 582.7172)"
   class="st12 st6 st11">301</text>
				</g>
				
					<ellipse
   id="ellipse239"
   transform="matrix(0.9983 -5.849926e-02 5.849926e-02 0.9983 -33.0719 35.5609)"
   class="st13"
   cx="590.8"
   cy="582.6"
   rx="14.3"
   ry="11" />
				<text
   transform="matrix(0.7108 0.5644 -0.7982 0.6024 581.1209 580.3239)"
   class="st10 st6 st11"
   id="text32">442</text>
				<text
   id="text239"
   transform="matrix(0.7108 0.5644 -0.7982 0.6024 581.1209 580.3239)"
   class="st12 st6 st11">442</text>
			</g>
			<g
   id="g242">
				<g
   id="g241">
					<text
   transform="matrix(0.7108 0.5644 -0.7982 0.6024 543.4401 551.639)"
   class="st10 st6 st11"
   id="text33">301</text>
					<text
   id="text240"
   transform="matrix(0.7108 0.5644 -0.7982 0.6024 543.4401 551.639)"
   class="st12 st6 st11">301</text>
				</g>
				
					<ellipse
   id="ellipse241"
   transform="matrix(0.9983 -5.849926e-02 5.849926e-02 0.9983 -31.3208 33.2174)"
   class="st13"
   cx="551.7"
   cy="551.6"
   rx="14.3"
   ry="11" />
				<text
   transform="matrix(0.7108 0.5644 -0.7982 0.6024 541.9779 549.246)"
   class="st10 st6 st11"
   id="text34">443</text>
				<text
   id="text241"
   transform="matrix(0.7108 0.5644 -0.7982 0.6024 541.9779 549.246)"
   class="st12 st6 st11">443</text>
			</g>
			<g
   id="g244">
				<g
   id="g243">
					<text
   transform="matrix(0.7108 0.5644 -0.7982 0.6024 519.2406 385.7248)"
   class="st10 st6 st11"
   id="text35">301</text>
					<text
   id="text242"
   transform="matrix(0.7108 0.5644 -0.7982 0.6024 519.2406 385.7248)"
   class="st12 st6 st11">301</text>
				</g>
				
					<ellipse
   id="ellipse243"
   transform="matrix(0.9983 -5.849926e-02 5.849926e-02 0.9983 -21.6565 31.5175)"
   class="st13"
   cx="527.5"
   cy="385.6"
   rx="14.3"
   ry="11" />
				<text
   transform="matrix(0.7108 0.5644 -0.7982 0.6024 517.7777 383.33)"
   class="st10 st6 st11"
   id="text36">406</text>
				<text
   id="text243"
   transform="matrix(0.7108 0.5644 -0.7982 0.6024 517.7777 383.33)"
   class="st12 st6 st11">406</text>
			</g>
			<g
   id="g246">
				<g
   id="g245">
					<text
   transform="matrix(0.7108 0.5644 -0.7982 0.6024 640.4324 481.945)"
   class="st10 st6 st11"
   id="text37">301</text>
					<text
   id="text244"
   transform="matrix(0.7108 0.5644 -0.7982 0.6024 640.4324 481.945)"
   class="st12 st6 st11">301</text>
				</g>
				
					<ellipse
   id="ellipse245"
   transform="matrix(0.9983 -5.849926e-02 5.849926e-02 0.9983 -27.0778 38.7725)"
   class="st13"
   cx="648.7"
   cy="481.9"
   rx="14.3"
   ry="11" />
				<text
   transform="matrix(0.7108 0.5644 -0.7982 0.6024 638.971 479.5515)"
   class="st10 st6 st11"
   id="text38">407</text>
				<text
   id="text245"
   transform="matrix(0.7108 0.5644 -0.7982 0.6024 638.971 479.5515)"
   class="st12 st6 st11">407</text>
			</g>
			<g
   id="g248">
				<g
   id="g247">
					<text
   transform="matrix(0.7108 0.5644 -0.7982 0.6024 672.7568 508.8425)"
   class="st10 st6 st11"
   id="text39">301</text>
					<text
   id="text246"
   transform="matrix(0.7108 0.5644 -0.7982 0.6024 672.7568 508.8425)"
   class="st12 st6 st11">301</text>
				</g>
				
					<ellipse
   id="ellipse247"
   transform="matrix(0.9983 -5.849926e-02 5.849926e-02 0.9983 -28.5961 40.7093)"
   class="st13"
   cx="681"
   cy="508.8"
   rx="14.3"
   ry="11" />
				<text
   transform="matrix(0.7108 0.5644 -0.7982 0.6024 671.2943 506.4486)"
   class="st10 st6 st11"
   id="text40">408</text>
				<text
   id="text247"
   transform="matrix(0.7108 0.5644 -0.7982 0.6024 671.2943 506.4486)"
   class="st12 st6 st11">408</text>
			</g>
			<g
   id="g250">
				<g
   id="g249">
					<text
   transform="matrix(0.7108 0.5644 -0.7982 0.6024 705.125 534.5415)"
   class="st10 st6 st11"
   id="text41">301</text>
					<text
   id="text248"
   transform="matrix(0.7108 0.5644 -0.7982 0.6024 705.125 534.5415)"
   class="st12 st6 st11">301</text>
				</g>
				
					<ellipse
   id="ellipse249"
   transform="matrix(0.9983 -5.849926e-02 5.849926e-02 0.9983 -30.0435 42.6469)"
   class="st13"
   cx="713.4"
   cy="534.5"
   rx="14.3"
   ry="11" />
				<text
   transform="matrix(0.7108 0.5644 -0.7982 0.6024 703.6636 532.1479)"
   class="st10 st6 st11"
   id="text42">409</text>
				<text
   id="text249"
   transform="matrix(0.7108 0.5644 -0.7982 0.6024 703.6636 532.1479)"
   class="st12 st6 st11">409</text>
			</g>
			<g
   id="g252">
				<g
   id="g251">
					<text
   transform="matrix(0.7108 0.5644 -0.7982 0.6024 737.4935 560.2402)"
   class="st10 st6 st11"
   id="text43">301</text>
					<text
   id="text250"
   transform="matrix(0.7108 0.5644 -0.7982 0.6024 737.4935 560.2402)"
   class="st12 st6 st11">301</text>
				</g>
				
					<ellipse
   id="ellipse251"
   transform="matrix(0.9983 -5.849926e-02 5.849926e-02 0.9983 -31.4915 44.5846)"
   class="st13"
   cx="745.7"
   cy="560.2"
   rx="14.3"
   ry="11" />
				<text
   transform="matrix(0.7108 0.5644 -0.7982 0.6024 736.0306 557.8466)"
   class="st10 st6 st11"
   id="text44">410</text>
				<text
   id="text251"
   transform="matrix(0.7108 0.5644 -0.7982 0.6024 736.0306 557.8466)"
   class="st12 st6 st11">410</text>
			</g>
			<g
   id="g254">
				<g
   id="g253">
					<text
   transform="matrix(1.2165 -2.425347e-03 -3.610174e-02 0.9993 1556.501 980.0981)"
   class="st10 st6 st14"
   id="text45">301</text>
					<text
   id="text252"
   transform="matrix(1.2165 -2.425347e-03 -3.610174e-02 0.9993 1556.501 980.0981)"
   class="st12 st6 st14">301</text>
				</g>
				
					<ellipse
   id="ellipse253"
   transform="matrix(0.9983 -5.849926e-02 5.849926e-02 0.9983 -54.3925 93.0695)"
   class="st13"
   cx="1562.4"
   cy="975.5"
   rx="14.3"
   ry="11" />
				<text
   transform="matrix(1.2165 -2.425347e-03 -3.610174e-02 0.9993 1553.2445 979.2565)"
   class="st10 st6 st14"
   id="text46">424</text>
				<text
   id="text253"
   transform="matrix(1.2165 -2.425347e-03 -3.610174e-02 0.9993 1553.2445 979.2565)"
   class="st12 st6 st14">424</text>
			</g>
			<g
   id="g256">
				<g
   id="g255">
					<text
   transform="matrix(1.2165 -2.425347e-03 -3.610174e-02 0.9993 1498.4407 979.6136)"
   class="st10 st6 st14"
   id="text47">301</text>
					<text
   id="text254"
   transform="matrix(1.2165 -2.425347e-03 -3.610174e-02 0.9993 1498.4407 979.6136)"
   class="st12 st6 st14">301</text>
				</g>
				
					<ellipse
   id="ellipse255"
   transform="matrix(0.9983 -5.849926e-02 5.849926e-02 0.9983 -54.4639 89.6722)"
   class="st13"
   cx="1504.3"
   cy="975.1"
   rx="14.3"
   ry="11" />
				<text
   transform="matrix(1.2165 -2.425347e-03 -3.610174e-02 0.9993 1495.1852 978.7722)"
   class="st10 st6 st14"
   id="text48">425</text>
				<text
   id="text255"
   transform="matrix(1.2165 -2.425347e-03 -3.610174e-02 0.9993 1495.1852 978.7722)"
   class="st12 st6 st14">425</text>
			</g>
			<g
   id="g258">
				<g
   id="g257">
					<text
   transform="matrix(1.2165 -2.425347e-03 -3.610174e-02 0.9993 1449.6299 980.3112)"
   class="st10 st6 st14"
   id="text49">301</text>
					<text
   id="text256"
   transform="matrix(1.2165 -2.425347e-03 -3.610174e-02 0.9993 1449.6299 980.3112)"
   class="st12 st6 st14">301</text>
				</g>
				
					<ellipse
   id="ellipse257"
   transform="matrix(0.9983 -5.849926e-02 5.849926e-02 0.9983 -54.5884 86.818)"
   class="st13"
   cx="1455.5"
   cy="975.8"
   rx="14.3"
   ry="11" />
				<text
   transform="matrix(1.2165 -2.425347e-03 -3.610174e-02 0.9993 1446.3765 979.4686)"
   class="st10 st6 st14"
   id="text50">426</text>
				<text
   id="text257"
   transform="matrix(1.2165 -2.425347e-03 -3.610174e-02 0.9993 1446.3765 979.4686)"
   class="st12 st6 st14">426</text>
			</g>
			<g
   id="g260">
				<g
   id="g259">
					<text
   transform="matrix(1.2165 -2.425347e-03 -3.610174e-02 0.9993 1408.5635 980.9902)"
   class="st10 st6 st14"
   id="text51">301</text>
					<text
   id="text258"
   transform="matrix(1.2165 -2.425347e-03 -3.610174e-02 0.9993 1408.5635 980.9902)"
   class="st12 st6 st14">301</text>
				</g>
				
					<ellipse
   id="ellipse259"
   transform="matrix(0.9983 -5.849926e-02 5.849926e-02 0.9983 -54.6986 84.4165)"
   class="st13"
   cx="1414.5"
   cy="976.4"
   rx="14.3"
   ry="11" />
				<text
   transform="matrix(1.2165 -2.425347e-03 -3.610174e-02 0.9993 1405.3088 980.1497)"
   class="st10 st6 st14"
   id="text52">427</text>
				<text
   id="text259"
   transform="matrix(1.2165 -2.425347e-03 -3.610174e-02 0.9993 1405.3088 980.1497)"
   class="st12 st6 st14">427</text>
			</g>
			<g
   id="g262">
				<g
   id="g261">
					<text
   transform="matrix(1.2165 -2.425347e-03 -3.610174e-02 0.9993 1363.6041 982.2792)"
   class="st10 st6 st14"
   id="text53">301</text>
					<text
   id="text260"
   transform="matrix(1.2165 -2.425347e-03 -3.610174e-02 0.9993 1363.6041 982.2792)"
   class="st12 st6 st14">301</text>
				</g>
				
					<ellipse
   id="ellipse261"
   transform="matrix(0.9983 -5.849926e-02 5.849926e-02 0.9983 -54.8504 81.7885)"
   class="st13"
   cx="1369.5"
   cy="977.7"
   rx="14.3"
   ry="11" />
				<text
   transform="matrix(1.2165 -2.425347e-03 -3.610174e-02 0.9993 1360.3485 981.4387)"
   class="st10 st6 st14"
   id="text54">428</text>
				<text
   id="text261"
   transform="matrix(1.2165 -2.425347e-03 -3.610174e-02 0.9993 1360.3485 981.4387)"
   class="st12 st6 st14">428</text>
			</g>
			<g
   id="g264">
				<g
   id="g263">
					<text
   transform="matrix(0.7108 0.5644 -0.7982 0.6024 770.6142 586.5368)"
   class="st10 st6 st11"
   id="text55">301</text>
					<text
   id="text262"
   transform="matrix(0.7108 0.5644 -0.7982 0.6024 770.6142 586.5368)"
   class="st12 st6 st11">301</text>
				</g>
				
					<ellipse
   id="ellipse263"
   transform="matrix(0.9983 -5.849926e-02 5.849926e-02 0.9983 -32.9733 46.5672)"
   class="st13"
   cx="778.9"
   cy="586.5"
   rx="14.3"
   ry="11" />
				<text
   transform="matrix(0.7108 0.5644 -0.7982 0.6024 769.1516 584.1429)"
   class="st10 st6 st11"
   id="text56">411</text>
				<text
   id="text263"
   transform="matrix(0.7108 0.5644 -0.7982 0.6024 769.1516 584.1429)"
   class="st12 st6 st11">411</text>
			</g>
			<g
   id="g266">
				<g
   id="g265">
					<text
   transform="matrix(0.7108 0.5644 -0.7982 0.6024 815.0262 621.7979)"
   class="st10 st6 st11"
   id="text57">301</text>
					<text
   id="text264"
   transform="matrix(0.7108 0.5644 -0.7982 0.6024 815.0262 621.7979)"
   class="st12 st6 st11">301</text>
				</g>
				
					<ellipse
   id="ellipse265"
   transform="matrix(0.9983 -5.849926e-02 5.849926e-02 0.9983 -34.96 49.2255)"
   class="st13"
   cx="823.3"
   cy="621.7"
   rx="14.3"
   ry="11" />
				<text
   transform="matrix(0.7108 0.5644 -0.7982 0.6024 813.5648 619.4043)"
   class="st10 st6 st11"
   id="text58">412</text>
				<text
   id="text265"
   transform="matrix(0.7108 0.5644 -0.7982 0.6024 813.5648 619.4043)"
   class="st12 st6 st11">412</text>
			</g>
			<g
   id="g268">
				<g
   id="g267">
					<text
   transform="matrix(0.7108 0.5644 -0.7982 0.6024 935.4229 718.6194)"
   class="st10 st6 st11"
   id="text59">301</text>
					<text
   id="text266"
   transform="matrix(0.7108 0.5644 -0.7982 0.6024 935.4229 718.6194)"
   class="st12 st6 st11">301</text>
				</g>
				
					<ellipse
   id="ellipse267"
   transform="matrix(0.9983 -5.849926e-02 5.849926e-02 0.9983 -40.4177 56.4348)"
   class="st13"
   cx="943.7"
   cy="718.5"
   rx="14.3"
   ry="11" />
				<text
   transform="matrix(0.7108 0.5644 -0.7982 0.6024 933.96 716.2258)"
   class="st10 st6 st11"
   id="text60">413</text>
				<text
   id="text267"
   transform="matrix(0.7108 0.5644 -0.7982 0.6024 933.96 716.2258)"
   class="st12 st6 st11">413</text>
			</g>
			<g
   id="g270">
				<g
   id="g269">
					<text
   transform="matrix(0.7108 0.5644 -0.7982 0.6024 979.8337 753.8801)"
   class="st10 st6 st11"
   id="text61">301</text>
					<text
   id="text268"
   transform="matrix(0.7108 0.5644 -0.7982 0.6024 979.8337 753.8801)"
   class="st12 st6 st11">301</text>
				</g>
				
					<ellipse
   id="ellipse269"
   transform="matrix(0.9983 -5.849926e-02 5.849926e-02 0.9983 -42.4044 59.0931)"
   class="st13"
   cx="988.1"
   cy="753.8"
   rx="14.3"
   ry="11" />
				<text
   transform="matrix(0.7108 0.5644 -0.7982 0.6024 978.3716 751.4871)"
   class="st10 st6 st11"
   id="text62">414</text>
				<text
   id="text269"
   transform="matrix(0.7108 0.5644 -0.7982 0.6024 978.3716 751.4871)"
   class="st12 st6 st11">414</text>
			</g>
			<g
   id="g272">
				<g
   id="g271">
					<text
   transform="matrix(0.7108 0.5644 -0.7982 0.6024 1033.2798 796.314)"
   class="st10 st6 st11"
   id="text63">301</text>
					<text
   id="text270"
   transform="matrix(0.7108 0.5644 -0.7982 0.6024 1033.2798 796.314)"
   class="st12 st6 st11">301</text>
				</g>
				
					<ellipse
   id="ellipse271"
   transform="matrix(0.9983 -5.849926e-02 5.849926e-02 0.9983 -44.7956 62.2921)"
   class="st13"
   cx="1041.5"
   cy="796.2"
   rx="14.3"
   ry="11" />
				<text
   transform="matrix(0.7108 0.5644 -0.7982 0.6024 1031.8176 793.921)"
   class="st10 st6 st11"
   id="text64">415</text>
				<text
   id="text271"
   transform="matrix(0.7108 0.5644 -0.7982 0.6024 1031.8176 793.921)"
   class="st12 st6 st11">415</text>
			</g>
			<g
   id="g274">
				<g
   id="g273">
					<text
   transform="matrix(1.2165 -2.425347e-03 -3.610174e-02 0.9993 1312.4485 983.5795)"
   class="st10 st6 st14"
   id="text65">301</text>
					<text
   id="text272"
   transform="matrix(1.2165 -2.425347e-03 -3.610174e-02 0.9993 1312.4485 983.5795)"
   class="st12 st6 st14">301</text>
				</g>
				
					<ellipse
   id="ellipse273"
   transform="matrix(0.9983 -5.849926e-02 5.849926e-02 0.9983 -55.0141 78.7985)"
   class="st13"
   cx="1318.3"
   cy="979"
   rx="14.3"
   ry="11" />
				<text
   transform="matrix(1.2165 -2.425347e-03 -3.610174e-02 0.9993 1309.194 982.739)"
   class="st10 st6 st14"
   id="text66">429</text>
				<text
   id="text273"
   transform="matrix(1.2165 -2.425347e-03 -3.610174e-02 0.9993 1309.194 982.739)"
   class="st12 st6 st14">429</text>
			</g>
			<g
   id="g276">
				<g
   id="g275">
					<text
   transform="matrix(1.2165 -2.425347e-03 -3.610174e-02 0.9993 1128.0071 987.5423)"
   class="st10 st6 st14"
   id="text67">301</text>
					<text
   id="text274"
   transform="matrix(1.2165 -2.425347e-03 -3.610174e-02 0.9993 1128.0071 987.5423)"
   class="st12 st6 st14">301</text>
				</g>
				
					<ellipse
   id="ellipse275"
   transform="matrix(0.9983 -5.849926e-02 5.849926e-02 0.9983 -55.5622 68.0156)"
   class="st13"
   cx="1133.9"
   cy="983"
   rx="14.3"
   ry="11" />
				<text
   transform="matrix(1.2165 -2.425347e-03 -3.610174e-02 0.9993 1124.7516 986.7008)"
   class="st10 st6 st14"
   id="text68">430</text>
				<text
   id="text275"
   transform="matrix(1.2165 -2.425347e-03 -3.610174e-02 0.9993 1124.7516 986.7008)"
   class="st12 st6 st14">430</text>
			</g>
			<g
   id="g278">
				<g
   id="g277">
					<text
   transform="matrix(0.7108 0.5644 -0.7982 0.6024 1070.3632 969.992)"
   class="st10 st6 st11"
   id="text69">301</text>
					<text
   id="text276"
   transform="matrix(0.7108 0.5644 -0.7982 0.6024 1070.3632 969.992)"
   class="st12 st6 st11">301</text>
				</g>
				
					<ellipse
   id="ellipse277"
   transform="matrix(0.9983 -5.849926e-02 5.849926e-02 0.9983 -54.8923 64.7593)"
   class="st13"
   cx="1078.6"
   cy="969.9"
   rx="14.3"
   ry="11" />
				<text
   transform="matrix(0.7108 0.5644 -0.7982 0.6024 1068.9009 967.599)"
   class="st10 st6 st11"
   id="text70">431</text>
				<text
   id="text277"
   transform="matrix(0.7108 0.5644 -0.7982 0.6024 1068.9009 967.599)"
   class="st12 st6 st11">431</text>
			</g>
			<g
   id="g280">
				<g
   id="g279">
					<text
   transform="matrix(0.7108 0.5644 -0.7982 0.6024 1033.4785 940.7074)"
   class="st10 st6 st11"
   id="text71">301</text>
					<text
   id="text278"
   transform="matrix(0.7108 0.5644 -0.7982 0.6024 1033.4785 940.7074)"
   class="st12 st6 st11">301</text>
				</g>
				
					<ellipse
   id="ellipse279"
   transform="matrix(0.9983 -5.849926e-02 5.849926e-02 0.9983 -53.2421 62.5511)"
   class="st13"
   cx="1041.7"
   cy="940.6"
   rx="14.3"
   ry="11" />
				<text
   transform="matrix(0.7108 0.5644 -0.7982 0.6024 1032.0156 938.3138)"
   class="st10 st6 st11"
   id="text72">432</text>
				<text
   id="text279"
   transform="matrix(0.7108 0.5644 -0.7982 0.6024 1032.0156 938.3138)"
   class="st12 st6 st11">432</text>
			</g>
			<g
   id="g282">
				<g
   id="g281">
					<text
   transform="matrix(0.7108 0.5644 -0.7982 0.6024 995.8414 910.8252)"
   class="st10 st6 st11"
   id="text73">301</text>
					<text
   id="text280"
   transform="matrix(0.7108 0.5644 -0.7982 0.6024 995.8414 910.8252)"
   class="st12 st6 st11">301</text>
				</g>
				
					<ellipse
   id="ellipse281"
   transform="matrix(0.9983 -5.849926e-02 5.849926e-02 0.9983 -51.5585 60.2986)"
   class="st13"
   cx="1004.1"
   cy="910.7"
   rx="14.3"
   ry="11" />
				<text
   transform="matrix(0.7108 0.5644 -0.7982 0.6024 994.3792 908.4322)"
   class="st10 st6 st11"
   id="text74">433</text>
				<text
   id="text281"
   transform="matrix(0.7108 0.5644 -0.7982 0.6024 994.3792 908.4322)"
   class="st12 st6 st11">433</text>
			</g>
			<g
   id="g284">
				<g
   id="g283">
					<text
   transform="matrix(0.7108 0.5644 -0.7982 0.6024 1085.9722 838.1487)"
   class="st10 st6 st11"
   id="text75">301</text>
					<text
   id="text282"
   transform="matrix(0.7108 0.5644 -0.7982 0.6024 1085.9722 838.1487)"
   class="st12 st6 st11">301</text>
				</g>
				
					<ellipse
   id="ellipse283"
   transform="matrix(0.9983 -5.849926e-02 5.849926e-02 0.9983 -47.1524 65.4467)"
   class="st13"
   cx="1094.2"
   cy="838.1"
   rx="14.3"
   ry="11" />
				<text
   transform="matrix(0.7108 0.5644 -0.7982 0.6024 1084.5085 835.7545)"
   class="st10 st6 st11"
   id="text76">416</text>
				<text
   id="text283"
   transform="matrix(0.7108 0.5644 -0.7982 0.6024 1084.5085 835.7545)"
   class="st12 st6 st11">416</text>
			</g>
			<g
   id="g286">
				<g
   id="g285">
					<text
   transform="matrix(1.2165 -2.425347e-03 -3.610174e-02 0.9993 1198.7244 873.5629)"
   class="st10 st6 st14"
   id="text77">301</text>
					<text
   id="text284"
   transform="matrix(1.2165 -2.425347e-03 -3.610174e-02 0.9993 1198.7244 873.5629)"
   class="st12 st6 st14">301</text>
				</g>
				
					<ellipse
   id="ellipse285"
   transform="matrix(0.9983 -5.849926e-02 5.849926e-02 0.9983 -48.7733 71.9575)"
   class="st13"
   cx="1204.6"
   cy="869"
   rx="14.3"
   ry="11" />
				<text
   transform="matrix(1.2165 -2.425347e-03 -3.610174e-02 0.9993 1195.4688 872.7224)"
   class="st10 st6 st14"
   id="text78">417</text>
				<text
   id="text285"
   transform="matrix(1.2165 -2.425347e-03 -3.610174e-02 0.9993 1195.4688 872.7224)"
   class="st12 st6 st14">417</text>
			</g>
			<g
   id="g288">
				<g
   id="g287">
					<text
   transform="matrix(1.2165 -2.425347e-03 -3.610174e-02 0.9993 1283.9109 873.3931)"
   class="st10 st6 st14"
   id="text79">301</text>
					<text
   id="text286"
   transform="matrix(1.2165 -2.425347e-03 -3.610174e-02 0.9993 1283.9109 873.3931)"
   class="st12 st6 st14">301</text>
				</g>
				
					<ellipse
   id="ellipse287"
   transform="matrix(0.9983 -5.849926e-02 5.849926e-02 0.9983 -48.6175 76.9402)"
   class="st13"
   cx="1289.8"
   cy="868.8"
   rx="14.3"
   ry="11" />
				<text
   transform="matrix(1.2165 -2.425347e-03 -3.610174e-02 0.9993 1280.6553 872.5525)"
   class="st10 st6 st14"
   id="text80">418</text>
				<text
   id="text287"
   transform="matrix(1.2165 -2.425347e-03 -3.610174e-02 0.9993 1280.6553 872.5525)"
   class="st12 st6 st14">418</text>
			</g>
			<g
   id="g290">
				<g
   id="g289">
					<text
   transform="matrix(1.2165 -2.425347e-03 -3.610174e-02 0.9993 1385.3384 873.79)"
   class="st10 st6 st14"
   id="text81">301</text>
					<text
   id="text288"
   transform="matrix(1.2165 -2.425347e-03 -3.610174e-02 0.9993 1385.3384 873.79)"
   class="st12 st6 st14">301</text>
				</g>
				
					<ellipse
   id="ellipse289"
   transform="matrix(0.9983 -5.849926e-02 5.849926e-02 0.9983 -48.4671 82.8746)"
   class="st13"
   cx="1391.2"
   cy="869.2"
   rx="14.3"
   ry="11" />
				<text
   transform="matrix(1.2165 -2.425347e-03 -3.610174e-02 0.9993 1382.0839 872.9485)"
   class="st10 st6 st14"
   id="text82">419</text>
				<text
   id="text289"
   transform="matrix(1.2165 -2.425347e-03 -3.610174e-02 0.9993 1382.0839 872.9485)"
   class="st12 st6 st14">419</text>
			</g>
			<g
   id="g292">
				<g
   id="g291">
					<text
   transform="matrix(1.2165 -2.425347e-03 -3.610174e-02 0.9993 1478.269 873.6047)"
   class="st10 st6 st14"
   id="text83">301</text>
					<text
   id="text290"
   transform="matrix(1.2165 -2.425347e-03 -3.610174e-02 0.9993 1478.269 873.6047)"
   class="st12 st6 st14">301</text>
				</g>
				
					<ellipse
   id="ellipse291"
   transform="matrix(0.9983 -5.849926e-02 5.849926e-02 0.9983 -48.2968 88.3106)"
   class="st13"
   cx="1484.2"
   cy="869"
   rx="14.3"
   ry="11" />
				<text
   transform="matrix(1.2165 -2.425347e-03 -3.610174e-02 0.9993 1475.0135 872.7632)"
   class="st10 st6 st14"
   id="text84">420</text>
				<text
   id="text291"
   transform="matrix(1.2165 -2.425347e-03 -3.610174e-02 0.9993 1475.0135 872.7632)"
   class="st12 st6 st14">420</text>
			</g>
			<g
   id="g294">
				<g
   id="g293">
					<text
   transform="matrix(0.7108 0.5644 -0.7982 0.6024 955.1925 878.5516)"
   class="st10 st6 st11"
   id="text85">301</text>
					<text
   id="text292"
   transform="matrix(0.7108 0.5644 -0.7982 0.6024 955.1925 878.5516)"
   class="st12 st6 st11">301</text>
				</g>
				
					<ellipse
   id="ellipse293"
   transform="matrix(0.9983 -5.849926e-02 5.849926e-02 0.9983 -49.7403 57.8653)"
   class="st13"
   cx="963.4"
   cy="878.5"
   rx="14.3"
   ry="11" />
				<text
   transform="matrix(0.7108 0.5644 -0.7982 0.6024 953.7296 876.158)"
   class="st10 st6 st11"
   id="text86">434</text>
				<text
   id="text293"
   transform="matrix(0.7108 0.5644 -0.7982 0.6024 953.7296 876.158)"
   class="st12 st6 st11">434</text>
			</g>
			<g
   id="g296">
				<g
   id="g295">
					<text
   transform="matrix(0.7108 0.5644 -0.7982 0.6024 900.9954 835.5214)"
   class="st10 st6 st11"
   id="text87">301</text>
					<text
   id="text294"
   transform="matrix(0.7108 0.5644 -0.7982 0.6024 900.9954 835.5214)"
   class="st12 st6 st11">301</text>
				</g>
				
					<ellipse
   id="ellipse295"
   transform="matrix(0.9983 -5.849926e-02 5.849926e-02 0.9983 -47.3159 54.6209)"
   class="st13"
   cx="909.2"
   cy="835.4"
   rx="14.3"
   ry="11" />
				<text
   transform="matrix(0.7108 0.5644 -0.7982 0.6024 899.532 833.1281)"
   class="st10 st6 st11"
   id="text88">435</text>
				<text
   id="text295"
   transform="matrix(0.7108 0.5644 -0.7982 0.6024 899.532 833.1281)"
   class="st12 st6 st11">435</text>
			</g>
			<g
   id="g298">
				<g
   id="g297">
					<text
   transform="matrix(0.7108 0.5644 -0.7982 0.6024 848.3027 793.6857)"
   class="st10 st6 st11"
   id="text89">301</text>
					<text
   id="text296"
   transform="matrix(0.7108 0.5644 -0.7982 0.6024 848.3027 793.6857)"
   class="st12 st6 st11">301</text>
				</g>
				
					<ellipse
   id="ellipse297"
   transform="matrix(0.9983 -5.849926e-02 5.849926e-02 0.9983 -44.9585 51.4668)"
   class="st13"
   cx="856.6"
   cy="793.6"
   rx="14.3"
   ry="11" />
				<text
   transform="matrix(0.7108 0.5644 -0.7982 0.6024 846.8412 791.2934)"
   class="st10 st6 st11"
   id="text90">436</text>
				<text
   id="text297"
   transform="matrix(0.7108 0.5644 -0.7982 0.6024 846.8412 791.2934)"
   class="st12 st6 st11">436</text>
			</g>
			<g
   id="g300">
				<g
   id="g299">
					<text
   transform="matrix(0.7108 0.5644 -0.7982 0.6024 797.8683 753.6434)"
   class="st10 st6 st11"
   id="text91">301</text>
					<text
   id="text298"
   transform="matrix(0.7108 0.5644 -0.7982 0.6024 797.8683 753.6434)"
   class="st12 st6 st11">301</text>
				</g>
				
					<ellipse
   id="ellipse299"
   transform="matrix(0.9983 -5.849926e-02 5.849926e-02 0.9983 -42.7026 48.4475)"
   class="st13"
   cx="806.1"
   cy="753.6"
   rx="14.3"
   ry="11" />
				<text
   transform="matrix(0.7108 0.5644 -0.7982 0.6024 796.4061 751.2504)"
   class="st10 st6 st11"
   id="text92">437</text>
				<text
   id="text299"
   transform="matrix(0.7108 0.5644 -0.7982 0.6024 796.4061 751.2504)"
   class="st12 st6 st11">437</text>
			</g>
			<g
   id="g302">
				<g
   id="g301">
					<text
   transform="matrix(0.7108 0.5644 -0.7982 0.6024 751.9523 717.1875)"
   class="st10 st6 st11"
   id="text93">301</text>
					<text
   id="text300"
   transform="matrix(0.7108 0.5644 -0.7982 0.6024 751.9523 717.1875)"
   class="st12 st6 st11">301</text>
				</g>
				
					<ellipse
   id="ellipse301"
   transform="matrix(0.9983 -5.849926e-02 5.849926e-02 0.9983 -40.6483 45.6993)"
   class="st13"
   cx="760.2"
   cy="717.1"
   rx="14.3"
   ry="11" />
				<text
   transform="matrix(0.7108 0.5644 -0.7982 0.6024 750.4879 714.7939)"
   class="st10 st6 st11"
   id="text94">438</text>
				<text
   id="text301"
   transform="matrix(0.7108 0.5644 -0.7982 0.6024 750.4879 714.7939)"
   class="st12 st6 st11">438</text>
			</g>
			<g
   id="g304">
				<g
   id="g303">
					<text
   transform="matrix(0.7108 0.5644 -0.7982 0.6024 499.0281 516.3779)"
   class="st10 st6 st11"
   id="text95">301</text>
					<text
   id="text302"
   transform="matrix(0.7108 0.5644 -0.7982 0.6024 499.0281 516.3779)"
   class="st12 st6 st11">301</text>
				</g>
				
					<ellipse
   id="ellipse303"
   transform="matrix(0.9983 -5.849926e-02 5.849926e-02 0.9983 -29.3341 30.559)"
   class="st13"
   cx="507.3"
   cy="516.3"
   rx="14.3"
   ry="11" />
				<text
   transform="matrix(0.7108 0.5644 -0.7982 0.6024 497.5655 513.9852)"
   class="st10 st6 st11"
   id="text96">444</text>
				<text
   id="text303"
   transform="matrix(0.7108 0.5644 -0.7982 0.6024 497.5655 513.9852)"
   class="st12 st6 st11">444</text>
			</g>
			<g
   id="g306">
				<g
   id="g305">
					<text
   transform="matrix(0.7108 0.5644 -0.7982 0.6024 461.3909 486.4957)"
   class="st10 st6 st11"
   id="text97">301</text>
					<text
   id="text304"
   transform="matrix(0.7108 0.5644 -0.7982 0.6024 461.3909 486.4957)"
   class="st12 st6 st11">301</text>
				</g>
				
					<ellipse
   id="ellipse305"
   transform="matrix(0.9983 -5.849926e-02 5.849926e-02 0.9983 -27.6506 28.3065)"
   class="st13"
   cx="469.6"
   cy="486.4"
   rx="14.3"
   ry="11" />
				<text
   transform="matrix(0.7108 0.5644 -0.7982 0.6024 459.9287 484.1027)"
   class="st10 st6 st11"
   id="text98">445</text>
				<text
   id="text305"
   transform="matrix(0.7108 0.5644 -0.7982 0.6024 459.9287 484.1027)"
   class="st12 st6 st11">445</text>
			</g>
			<g
   id="g308">
				<g
   id="g307">
					<text
   transform="matrix(0.7108 0.5644 -0.7982 0.6024 426.7647 459.0044)"
   class="st10 st6 st11"
   id="text99">301</text>
					<text
   id="text306"
   transform="matrix(0.7108 0.5644 -0.7982 0.6024 426.7647 459.0044)"
   class="st12 st6 st11">301</text>
				</g>
				
					<ellipse
   id="ellipse307"
   transform="matrix(0.9983 -5.849926e-02 5.849926e-02 0.9983 -26.1018 26.2335)"
   class="st13"
   cx="435"
   cy="458.9"
   rx="14.3"
   ry="11" />
				<text
   transform="matrix(0.7108 0.5644 -0.7982 0.6024 425.3018 456.6107)"
   class="st10 st6 st11"
   id="text100">446</text>
				<text
   id="text307"
   transform="matrix(0.7108 0.5644 -0.7982 0.6024 425.3018 456.6107)"
   class="st12 st6 st11">446</text>
			</g>
			<g
   id="g310">
				<g
   id="g309">
					<text
   transform="matrix(0.7108 0.5644 -0.7982 0.6024 385.3641 426.1338)"
   class="st10 st6 st11"
   id="text101">301</text>
					<text
   id="text308"
   transform="matrix(0.7108 0.5644 -0.7982 0.6024 385.3641 426.1338)"
   class="st12 st6 st11">301</text>
				</g>
				
					<ellipse
   id="ellipse309"
   transform="matrix(0.9983 -5.849926e-02 5.849926e-02 0.9983 -24.2498 23.7553)"
   class="st13"
   cx="393.6"
   cy="426.1"
   rx="14.3"
   ry="11" />
				<text
   transform="matrix(0.7108 0.5644 -0.7982 0.6024 383.9019 423.7408)"
   class="st10 st6 st11"
   id="text102">447</text>
				<text
   id="text309"
   transform="matrix(0.7108 0.5644 -0.7982 0.6024 383.9019 423.7408)"
   class="st12 st6 st11">447</text>
			</g>
			<g
   id="g312">
				<g
   id="g311">
					<text
   transform="matrix(0.7108 0.5644 -0.7982 0.6024 346.2203 395.0553)"
   class="st10 st6 st11"
   id="text103">301</text>
					<text
   id="text310"
   transform="matrix(0.7108 0.5644 -0.7982 0.6024 346.2203 395.0553)"
   class="st12 st6 st11">301</text>
				</g>
				
					<ellipse
   id="ellipse311"
   transform="matrix(0.9983 -5.849926e-02 5.849926e-02 0.9983 -22.4986 21.4124)"
   class="st13"
   cx="354.5"
   cy="395"
   rx="14.3"
   ry="11" />
				<text
   transform="matrix(0.7108 0.5644 -0.7982 0.6024 344.7589 392.6629)"
   class="st10 st6 st11"
   id="text104">448</text>
				<text
   id="text311"
   transform="matrix(0.7108 0.5644 -0.7982 0.6024 344.7589 392.6629)"
   class="st12 st6 st11">448</text>
			</g>
			<g
   id="g314">
				<g
   id="g313">
					<text
   transform="matrix(0.7108 0.5644 -0.7982 0.6024 299.5503 358.0019)"
   class="st10 st6 st11"
   id="text105">301</text>
					<text
   id="text312"
   transform="matrix(0.7108 0.5644 -0.7982 0.6024 299.5503 358.0019)"
   class="st12 st6 st11">301</text>
				</g>
				
					<ellipse
   id="ellipse313"
   transform="matrix(0.9983 -5.849926e-02 5.849926e-02 0.9983 -20.4112 18.6182)"
   class="st13"
   cx="307.8"
   cy="357.9"
   rx="14.3"
   ry="11" />
				<text
   transform="matrix(0.7108 0.5644 -0.7982 0.6024 298.0881 355.6089)"
   class="st10 st6 st11"
   id="text106">449</text>
				<text
   id="text313"
   transform="matrix(0.7108 0.5644 -0.7982 0.6024 298.0881 355.6089)"
   class="st12 st6 st11">449</text>
			</g>
			<g
   id="g316">
				<g
   id="g315">
					<text
   transform="matrix(0.7108 0.5644 -0.7982 0.6024 252.1269 320.3503)"
   class="st10 st6 st11"
   id="text107">301</text>
					<text
   id="text314"
   transform="matrix(0.7108 0.5644 -0.7982 0.6024 252.1269 320.3503)"
   class="st12 st6 st11">301</text>
				</g>
				
					<ellipse
   id="ellipse315"
   transform="matrix(0.9983 -5.849926e-02 5.849926e-02 0.9983 -18.2893 15.7796)"
   class="st13"
   cx="260.4"
   cy="320.3"
   rx="14.3"
   ry="11" />
				<text
   transform="matrix(0.7108 0.5644 -0.7982 0.6024 250.6647 317.9573)"
   class="st10 st6 st11"
   id="text108">450</text>
				<text
   id="text315"
   transform="matrix(0.7108 0.5644 -0.7982 0.6024 250.6647 317.9573)"
   class="st12 st6 st11">450</text>
			</g>
			<g
   id="g318">
				<g
   id="g317">
					<text
   transform="matrix(0.7108 0.5644 -0.7982 0.6024 196.4243 276.1241)"
   class="st10 st6 st11"
   id="text109">301</text>
					<text
   id="text316"
   transform="matrix(0.7108 0.5644 -0.7982 0.6024 196.4243 276.1241)"
   class="st12 st6 st11">301</text>
				</g>
				
					<ellipse
   id="ellipse317"
   transform="matrix(0.9983 -5.849926e-02 5.849926e-02 0.9983 -15.7978 12.4454)"
   class="st13"
   cx="204.7"
   cy="276"
   rx="14.3"
   ry="11" />
				<text
   transform="matrix(0.7108 0.5644 -0.7982 0.6024 194.961 273.7308)"
   class="st10 st6 st11"
   id="text110">451</text>
				<text
   id="text317"
   transform="matrix(0.7108 0.5644 -0.7982 0.6024 194.961 273.7308)"
   class="st12 st6 st11">451</text>
			</g>
			<g
   id="g320">
				<g
   id="g319">
					<text
   transform="matrix(0.7108 0.5644 -0.7982 0.6024 129.4296 222.934)"
   class="st10 st6 st11"
   id="text111">301</text>
					<text
   id="text318"
   transform="matrix(0.7108 0.5644 -0.7982 0.6024 129.4296 222.934)"
   class="st12 st6 st11">301</text>
				</g>
				
					<ellipse
   id="ellipse319"
   transform="matrix(0.9983 -5.849926e-02 5.849926e-02 0.9983 -12.801 8.4348)"
   class="st13"
   cx="137.7"
   cy="222.9"
   rx="14.3"
   ry="11" />
				<text
   transform="matrix(0.7108 0.5644 -0.7982 0.6024 127.9667 220.5404)"
   class="st10 st6 st11"
   id="text112">452</text>
				<text
   id="text319"
   transform="matrix(0.7108 0.5644 -0.7982 0.6024 127.9667 220.5404)"
   class="st12 st6 st11">452</text>
			</g>
			<g
   id="g322">
				<g
   id="g321">
					<text
   transform="matrix(1.2165 -2.425347e-03 -3.610174e-02 0.9993 1129.7798 874.2996)"
   class="st10 st6 st14"
   id="text113">301</text>
					<text
   id="text320"
   transform="matrix(1.2165 -2.425347e-03 -3.610174e-02 0.9993 1129.7798 874.2996)"
   class="st12 st6 st14">301</text>
				</g>
				
					<ellipse
   id="ellipse321"
   transform="matrix(0.9983 -5.849926e-02 5.849926e-02 0.9983 -48.9341 67.9251)"
   class="st13"
   cx="1135.7"
   cy="869.7"
   rx="14.3"
   ry="11" />
				<text
   transform="matrix(1.2165 -2.425347e-03 -3.610174e-02 0.9993 1126.5243 873.458)"
   class="st10 st6 st14"
   id="text114">405</text>
				<text
   id="text321"
   transform="matrix(1.2165 -2.425347e-03 -3.610174e-02 0.9993 1126.5243 873.458)"
   class="st12 st6 st14">405</text>
			</g>
		</g>
		<path
   id="auditoriumU401"
   class="st15"
   d="M132.7,99.6l48.9-36.3l48.4,39.2l-49.8,36.8L132.7,99.6z" />
		<path
   id="auditoriumU402"
   class="st15"
   d="M228.1,104l39.8,31.5l-49.6,37.9l-39.8-33L228.1,104z" />
	</g>
</g>
<path
   id="path325"
   d="M174.5,65.1l42.4,35.9" />


</svg>
